<svg xmlns="http://www.w3.org/2000/svg" width="800pt" height="385pt" version="1.0"><path d="M0 11.907h454.237V457.68H0z" style="fill:#e3001b;fill-opacity:1;stroke:none;stroke-width:1.77165353;stroke-linecap:round;stroke-linejoin:round;stroke-miterlimit:4;stroke-dasharray:none;stroke-opacity:1" transform="matrix(1 0 0 1.0566 6 -5.415)"/><path d="M454.237 11.907h534.237l-260 445.773H454.237V11.907z" style="fill:#fff;fill-opacity:1;stroke:none;stroke-width:1.77165353;stroke-linecap:round;stroke-linejoin:round;stroke-miterlimit:4;stroke-opacity:1" transform="matrix(1 0 0 1.0566 6 -5.415)"/><path d="M0 11.907h988.474l-260 445.773H0V11.907z" style="fill:none;fill-opacity:1;stroke:#000;stroke-width:2.83464575;stroke-linecap:round;stroke-linejoin:round;stroke-miterlimit:4;stroke-dasharray:none;stroke-opacity:1" transform="matrix(1 0 0 1.0566 6 -5.415)"/><path d="M-303.754 73.748c-.274 0-.548 0 0 0z" style="fill:none;fill-opacity:.75;fill-rule:evenodd;stroke:#000;stroke-width:.59394008px;stroke-linecap:butt;stroke-linejoin:miter;stroke-opacity:1" transform="translate(486.316 -10.688)"/><g transform="matrix(.55625 0 0 .63418 436.954 9.323)"><a style="fill:none;fill-opacity:1"><path d="M-457.895 94.678c-11.226-10.632-12.165-32.042-3.285-44.568 8.647-12.744 20.746-15.13 35.418-9.797 7.81 5.916 14.996 10.121 21.336 20.234 4.01-3.182 7.503-3.12 12.574 2.373 50.364-10.722 75.322 32.651 72.342 61.792-2.332 20.789-7.578 42.549 1.507 59.531 8.238 15.072 12.856 30.143 15.071 45.214 37.821-4.487 71.687-16.885 99.47-41.446 10.563-4.268 6.765-10.332 1.508-16.578-24.457-16.175-26.588-77.706 31.65-86.66 45.411-5.293 81.248 20.155 88.92 85.153 1.426 38.18-6.022 77.114-20.347 114.541-6.387 64.731-25.532 103.953-45.967 146.945-6.115 7.674-10.44 15.945-10.55 25.62-8.54 6.03-14.066 6.03-16.578 0l-9.043-15.07c-13.05 9.672-23.474-9.55-34.664-20.347-15.872 15.381-26.233-5.064-38.431-13.564l-15.072 2.26 18.84 24.115-14.318 6.782c-2.146 7.284 4.282 14.569 12.057 21.853 7.27 7.454 12.796 4.437 18.085 0 7.77-8.06 16.968-14.124 34.664-8.289 21.425.968 19.552 13.584 21.853 24.114h-65.56l61.039.754c7.842 15.405 3.71 27.546-10.55 36.924l-9.043-15.071-14.317-.754 6.782 12.057c6.177 27-10.196 34.038-20.346 37.678 6.483-12.686 4.315-19.966-5.275-22.607-19.48-5.886-18.453-11.305-20.347-21.1-6.353-6.634-8.103-22.475-25.62-6.781-9.521 4.625-19.513 12.078-27.129 5.275-3.318 4.495-9.44 7.588-5.275 15.824-14.716-1.446-28.822-32.752-.753-36.924 8.926-8.756 20.935-5.177 31.65-6.782v-8.29c-2.543-4.32-3.76-7.812-21.854-21.853l-7.536 17.332c-15.58-7.528-19.618-26.6-25.62-43.706-7.977 8.659-16.413 17.266-6.783 27.882 15.2 15.566 13.686 30.15-5.275 43.706-7.147 72.993 47.241 94.692 85.153 62.546 8.507 36.79-1.516 59.885-39.185 62.545.953 11.57-1.377 21.498-4.402 31.079-12.574 2.096-24.22.484-34.784-5.458-10.189 21.155-23.468 34.359-36.924 46.721-11.806-10.416-23.612-26.259-35.418-46.72-19.038 5.812-18.431 6.624-32.672 6.508-2.765-10.977-3.984-12.343-4.252-32.883-45.669.537-52.938-32.16-42.953-58.024 48.457 24.51 84.887 13.063 87.413-67.821-15.054-8.858-21.533-30.067-4.521-38.432.815-7.749 3.409-19.772-5.275-25.62-9.683 9.127-15.686 21.015-17.332 36.17-8.282.991-13.008-5.132-17.332-12.057-12.878 5.314-23.199 12.332-24.114 25.621 8.932 3.377 30.342-1.958 34.664 6.782 24.243 4.014 22.32 24.341 3.768 36.925 1.585-6.17 2.128-6.403-7.536-9.796-18.43 7.561-22.14-13.207-32.403-14.318-7.502-3.341-10.69-.211-14.318 2.26-22.73 5.35-3.85 25.803-30.896 33.157l1.507 15.825c-18.002-1.685-31.289-11.864-18.839-34.664l1.507-7.535c-16.448-8.094-19.18 4.385-24.114 13.564-14.892-9.186-22.738-22.73-9.042-34.664-8.736-25.242 9.443-30.134 25.62-29.389 11.46-1.127 21.435 8.96 30.897 10.55 14.991 5.973 23.187-7.231 27.128-24.868-4.514 1.142-8.907 2.464-17.332-2.26 6.319-8.54 13.347-17.081 15.825-25.621-14.593 6.99-13.113-.081-12.057-6.782-13.017 12.898-30.635 32.337-36.925 13.564-6.53 15.737-25.872 35.238-34.663 20.346-3.24 16.142-11.582 25.554-20.347 27.882-12.098-30.027-59.29-103.62-61.792-177.087-22.82-60.29-43.57-198.154 60.285-204.969 51.918-4.855 82.38 53.319 36.171 91.18-1.048 4.271-2.26 8.541 4.522 12.811 20.725 15.35 62.466 43.053 107.005 39.186 4.49-15.853 11.312-26.958 24.898-36.895 3.465-9.128 10.228-20.43 18.809-24.144 7.14-4.808 8.138-8.323 3.014-10.55-21.646-12.825-24.87-46.84-41.446-65.56-4.772-7.491-10.486-6.936-12.54 3.123z" style="fill:#000;fill-opacity:1;fill-rule:evenodd;stroke:none;stroke-width:1px;stroke-linecap:butt;stroke-linejoin:miter;stroke-opacity:1"/></a><path d="M-459.38 81.427c-5.875-16.889 3.003-40.763 23.053-38.365 12.203 4.1 29.011 16.83 30.41 23.482 3.66-7.421 8.899-3.404 8.112 2.04-3.207 14.353-6.696 31.403-2.065 43.453 1.756 12.033 20.684 16.004 10.279 34.528-11.158 3.675-19.309-1.241-24.868-13.564-10.294-18.353-20.55-36.859-32.403-48.981-1.775-4.713 2.995-7.58 6.029-6.029 13.074 15.28 26.989 29.825 33.91 50.489 2.149 12.886 14.788 13.656 14.537 2.143-18.371-15.974-11.492-24.198-18.47-33.055-5.958-7.56-13.446-7.931-22.028-21.243-8.73-15.435-24.763-5.32-26.497 5.102z" style="fill:#fe0;fill-opacity:1;fill-rule:evenodd;stroke:#fe0;stroke-width:1px;stroke-linecap:butt;stroke-linejoin:miter;stroke-opacity:1"/><path d="M-327.29 110.77c-6.945-20.533-19.158-47.96-59.493-43.351-8.344.63-9.467 7.925-4.194 14.127 20.082 2.948 34.23 14.697 32.55 34.267-5.22 3.618-14.902 4.74-25.176-1.338-9.446-5.083-8.593-12.083-7.408-22.564.644-5.688-4.707-1.756-4.626-.754-5.632 21.64 5.918 25.496 10.658 37.932 4.243 11.129 4.124 20.208-12.63 23.18-.74 6.907 3.73 10.017-1.316 13.596-13.972 9.91-16.245 16.736-20.669 22.013 19.994 2.297 31.213-8.073 41.296-11.584 2 5.976 1.461 10.622 6.87 14.947 10.97-3.412 11.754-8.055 18.043-14.255 4.246 7.992 4.837 16.931 29.756 10.842-15.168-31.643 3.278-56.803-3.66-77.059zM-442.103 224.635c24.876 3.513 29.97-14.187 31.283-27.678.088-.899-11.425 12.83-11.367 11.976-.961-.305 7.83-15.21 6.64-15.099-10.395.973-26.374 17.064-26.556 30.8zM-313.31 224.712c-27.026-2.532-24.41-11.557-18.273-31.173.18-.573 6.588 18.784 6.772 18.193.57.021-.898-16.615-1.924-20.05 9.408 2.514 17.098 22.21 13.425 33.03z" style="fill:#fff;fill-opacity:1;fill-rule:evenodd;stroke:none;stroke-width:1px;stroke-linecap:butt;stroke-linejoin:miter;stroke-opacity:1"/><path d="M-591.818 116.194c-7.664-2.49-11.294 3.017-12.57 8.874-3.434-2.447-13.615-4.122-16.787 4.362-3.22 8.613 6.24 14.863 13.09 13.672-6.266 12.277-10.578 26.69-10.228 40.192 5.236 62.823 102.056 80.003 162.173 85.765l-.537-12c-76.862-1.467-148.344-35.575-150.506-73.446-.687-11.394 1.996-26.826 7.783-37.57 3.096 3.848 14.3 6.17 18.055-1.515 4.032-8.25-2.833-14.127-7.578-13.96 3.112-3.075 4.721-11.645-2.895-14.374z" style="opacity:1;fill:#fe0;fill-opacity:1;fill-rule:nonzero;stroke:none;stroke-width:2.83464575;stroke-linecap:round;stroke-linejoin:round;stroke-miterlimit:4;stroke-dasharray:none;stroke-dashoffset:0;stroke-opacity:1"/><path d="M-455.134 234.89c4.363 7.085-.542 14.11-2.11 18.23-52.668.482-106.633-20.48-123.145-35.962-24.094-19.277-26.833-34.596-18.994-55.58 2.248-7.803 6.753-8.81 12.04-7.68 10.648 1.397 16.874-13.597 6.85-24.91 4.707-18.145-17.995-25.417-25.844-10.845-22.987-2.55-25.097 20.587-10.379 28.023 2.642 5.063-.588 8.94-1.604 12.068-14.677 45.186 11.521 55.93 11.257 70.6.795 29.388-4.458 33.037-14.634 36.222-10.83-5.648-9.552-14.247-14.739-30.462-1.397 28.593-1.682 45.803-15.257 48.522-12.258-34.202-33.624-106.887 2.18-161.86 24.517-35.655 83.669-35.507 94.5-8.25 12.109 27.991-.653 46.426-11.572 57.29-4.097 6.407-6.474 13.956 2.802 21.848 28.114 29.525 87.722 44.283 108.65 42.745z" style="fill:#fff;fill-opacity:1;fill-rule:evenodd;stroke:none;stroke-width:1px;stroke-linecap:butt;stroke-linejoin:miter;stroke-opacity:1"/><path d="M-601.19 229.349c-4.116 8.183-2.421 37.947 13.105 45.451 13.244-5.76 11.608-17.546 10.74-28.37-7.948-4.428-15.896-9.724-23.844-17.081z" style="fill:#fff;fill-opacity:1;fill-rule:evenodd;stroke:none;stroke-width:1px;stroke-linecap:butt;stroke-linejoin:miter;stroke-opacity:1"/><path d="M-572.435 248.765c.21 12.018-1.23 27.695 10.859 32.63 12.394-4.505 11.632-17.034 11.99-24.123-7.755-2.166-15.908-5.527-22.85-8.507zM-544.093 259.47c-.347 10.143.838 23.28 10.24 29.767 6.387-2.717 10.77-10.565 12.119-23.78-7.377-1.707-14.564-3.861-22.359-5.987zM-518.288 265.923c-.767 10.583.982 23.407 9.317 26.306 6.809-.503 9.23-9.78 9.763-22.834-5.575-.347-13.925-2.286-19.08-3.472zM-493.164 270.688c-.768 10.583.067 21.495 8.402 24.394 6.809-.503 8.731-9.365 9.265-22.419-5.575-.346-12.512-.79-17.667-1.975zM-471.303 273.265c-.767 10.583-.68 19.583 7.654 22.482 6.81-.503 7.734-9.032 8.268-22.086-7.155.235-10.767-.291-15.922-.396z" style="fill:#f7f7ff;fill-opacity:1;fill-rule:evenodd;stroke:none;stroke-width:1px;stroke-linecap:butt;stroke-linejoin:miter;stroke-opacity:1"/><path d="M127.622 184.883c-1.882 19.362-1.388 45.429 2.21 59.877 3.029-2.962 2.878-33.494 3.858-41.782-3.795-6.544-4.341-9.895-6.068-18.095zM158.173 233.662c.21 5.713-.108 18.53 4.037 23.456 2.473-3.477 2.681-12.838 3.075-18.394l-7.112-5.062zM186.817 249.168c.615 5.533-.755 13.437 2.13 18.497 2.057-3.246 3.623-10.91 3.792-16.15l-5.922-2.347zM214.746 258.647c.614 5.533.557 10.696 2.268 16.23 3.422-3.382 3.007-10.425 4.195-14.55l-6.463-1.68zM263.495 268.478c-.05 4.203.61 9.114 2.133 14.546 2.206-2.761 2.912-9.635 3.275-14.154l-5.408-.392zM283.933 270.147c.614 5.533.523 7.874 3.074 13.653 2.948-2.477 1.973-9.38 2.821-13.423l-5.895-.23zM239.742 264.02c-.051 4.95-2 11.201 1.672 16.734 1.882-2.984 3.422-11.597 3.65-15.408l-5.322-1.326z" style="fill:#000;fill-opacity:1;fill-rule:evenodd;stroke:none;stroke-width:1px;stroke-linecap:butt;stroke-linejoin:miter;stroke-opacity:1" transform="translate(-750.085 3.321)"/><path d="M-515.9 267.347c-.053 0-.105 0 0 0z" style="fill:none;fill-opacity:.75;fill-rule:evenodd;stroke:#000;stroke-width:1px;stroke-linecap:butt;stroke-linejoin:miter;stroke-opacity:1"/><path d="M-606.533 260.677c4.923 65.367 38.613 167.212 18.483 188.721-2.432 7.842-4.864 5.18-7.296 4.378-13.42-30.486-46.859-85.805-55.936-164.888 8.846-.373 14.825-10.167 17.51-18.97 9.714 45.773 16.509 93.734 31.13 130.354-11.994-42.32-18.875-89.752-27.238-133.758 8.548 4.923 17.528.759 23.347-5.837zM-577.836 273.81c-3.252 2.98-6.99 4.698-9.756 7.056-3.72-.562-6.467-2.414-9.7-4.624 6.462 53.047 26.731 114.308 24.806 156.132 6.298 12.73 28.069-11.945 27.725-31.129l-5.35-120.139c-4.025 1.856-8.009 2.534-11.673 5.505-6.085-2.866-6.988-3.43-9.729-7.937l9.728 111.384-16.051-116.248zM-543.288 288.871l10.003 6.519 9.82-6.644 2.751 88.047 2.064-84.608 8.974 6.066 8.222-4.002c-.122 29.265.352 58.38-1.375 88.047-2.995 16.449-13.913 28.043-28.203 35.08-12.586-.895-5.91-87.931-12.256-128.505zM-493.184 296.013c5.967 5.765 10.257 6.46 14.743 1.113l-1.113 67.315 7.232-67.315c4.568 1.629 9.221 5.44 13.074 2.781l-1.39 48.957c-.436 19.718-11.455 51.48-31.155 53.685-11.98-5.234 4.08-4.821-1.39-106.536z" style="fill:#fff;fill-opacity:1;fill-rule:evenodd;stroke:none;stroke-width:1px;stroke-linecap:butt;stroke-linejoin:miter;stroke-opacity:1"/><path d="M-168.816 116.194c7.665-2.49 11.294 3.017 12.57 8.874 3.434-2.447 13.616-4.122 16.788 4.362 3.22 8.613-6.24 14.863-13.09 13.672 6.265 12.277 10.578 26.69 10.228 40.192-5.236 62.823-102.057 80.003-162.174 85.765l.537-12c76.862-1.467 148.344-35.575 150.506-73.446.687-11.394-1.995-26.826-7.783-37.57-3.096 3.848-14.3 6.17-18.055-1.515-4.031-8.25 2.833-14.127 7.579-13.96-3.113-3.075-4.722-11.645 2.894-14.374z" style="opacity:1;fill:#fe0;fill-opacity:1;fill-rule:nonzero;stroke:none;stroke-width:2.83464575;stroke-linecap:round;stroke-linejoin:round;stroke-miterlimit:4;stroke-dasharray:none;stroke-dashoffset:0;stroke-opacity:1"/><path d="M-302.187 234.664c-4.362 7.085-.573 12.624.995 16.744 52.668.481 106.633-20.48 123.145-35.963 21.81-18.705 25.691-33.454 17.852-54.437-2.247-7.804-5.61-9.952-10.898-8.822-10.648 1.397-16.874-13.597-6.85-24.91-4.706-18.145 17.995-25.417 25.844-10.846 22.987-2.55 25.097 20.587 10.379 28.023-2.642 5.064.588 8.94 1.604 12.068 14.677 45.186-12.092 56.501-12.398 67.746-1.937 21.967 2.745 36.462 15.776 39.077 10.83-5.649 10.693-19.385 14.738-30.462-1.457 28.022 1.682 45.231 15.257 47.95 12.258-34.201 33.624-106.316-2.18-161.288-22.805-40.222-84.81-34.366-95.642-7.11-12.108 27.992-1.059 45.286 12.715 57.863 4.096 6.406 5.332 11.1-3.944 18.993-28.115 29.525-85.466 46.911-106.393 45.374z" style="fill:#fff;fill-opacity:1;fill-rule:evenodd;stroke:#000;stroke-width:1px;stroke-linecap:butt;stroke-linejoin:miter;stroke-opacity:1"/><path d="M-601.19 229.349c-4.116 8.183-2.421 37.947 13.105 45.451 13.244-5.76 11.608-17.546 10.74-28.37-7.948-4.428-15.896-9.724-23.844-17.081z" style="fill:#fff;fill-opacity:1;fill-rule:evenodd;stroke:none;stroke-width:1px;stroke-linecap:butt;stroke-linejoin:miter;stroke-opacity:1" transform="matrix(-1 0 0 1 -759.467 0)"/><path d="M-572.435 248.765c.21 12.018-1.23 27.695 10.859 32.63 12.394-4.505 11.632-17.034 11.99-24.123-7.755-2.166-15.908-5.527-22.85-8.507zM-544.093 259.47c-.347 10.143.838 23.28 10.24 29.767 6.387-2.717 10.77-10.565 12.119-23.78-7.377-1.707-14.564-3.861-22.359-5.987zM-518.288 265.923c-.767 10.583.982 23.407 9.317 26.306 6.809-.503 9.23-9.78 9.763-22.834-5.575-.347-13.925-2.286-19.08-3.472zM-493.164 270.688c-.768 10.583.067 21.495 8.402 24.394 6.809-.503 8.731-9.365 9.265-22.419-5.575-.346-12.512-.79-17.667-1.975zM-471.303 273.265c-.767 10.583-.68 19.583 7.654 22.482 6.81-.503 7.734-9.032 8.268-22.086-7.155.235-10.767-.291-15.922-.396z" style="fill:#f7f7ff;fill-opacity:1;fill-rule:evenodd;stroke:none;stroke-width:1px;stroke-linecap:butt;stroke-linejoin:miter;stroke-opacity:1" transform="matrix(-1 0 0 1 -759.467 0)"/><path d="M129.304 188.08c-3.284 16.165-2.23 41.74.808 53.238 3.029-2.961 4-25.381 4.98-33.669-3.795-6.544-4.061-11.37-5.788-19.57zM159.014 234.646c.21 5.712-1.23 18.038 2.916 22.963 2.473-3.477 2.961-13.329 3.355-18.885l-6.271-4.078zM186.817 249.168c.615 5.533.086 14.174 2.97 19.235 2.058-3.247 2.783-11.648 2.952-16.888l-5.922-2.347zM214.746 258.647c.614 5.533-.844 11.926 2.828 17.459 3.422-3.382 2.447-11.654 3.635-15.78l-6.463-1.68zM263.495 268.478c-.05 4.203-.511 9.851 2.413 14.054 2.207-2.761 2.632-9.143 2.995-13.662l-5.408-.392zM285.615 269.901c.614 5.533-2.56 9.104 1.112 14.636 2.948-2.476 2.253-10.116 3.101-14.16l-4.213-.476zM239.742 264.02c-.051 4.95-1.44 11.447 2.233 16.98 1.882-2.984 2.86-11.843 3.09-15.654l-5.323-1.326z" style="fill:#000;fill-opacity:1;fill-rule:evenodd;stroke:none;stroke-width:1px;stroke-linecap:butt;stroke-linejoin:miter;stroke-opacity:1" transform="matrix(-1 0 0 1 -9.382 3.321)"/><path d="M-515.9 267.347c-.053 0-.105 0 0 0z" style="fill:none;fill-opacity:.75;fill-rule:evenodd;stroke:#000;stroke-width:1px;stroke-linecap:butt;stroke-linejoin:miter;stroke-opacity:1" transform="matrix(-1 0 0 1 -759.467 0)"/><path d="M-606.533 260.677c4.923 65.367 38.613 167.212 18.483 188.721-2.432 7.842-4.864 5.18-7.296 4.378-13.42-30.486-46.859-85.805-55.936-164.888 8.846-.373 14.825-10.167 17.51-18.97 9.714 45.773 16.509 93.734 31.13 130.354-11.994-42.32-18.875-89.752-27.238-133.758 8.548 4.923 17.528.759 23.347-5.837zM-577.836 273.81c-3.252 2.98-6.99 4.698-9.756 7.056-3.72-.562-6.467-2.414-9.7-4.624 6.462 53.047 26.731 114.308 24.806 156.132 6.298 12.73 28.069-11.945 27.725-31.129l-5.35-120.139c-4.025 1.856-8.009 2.534-11.673 5.505-6.085-2.866-6.988-3.43-9.729-7.937l9.728 111.384-16.051-116.248zM-543.288 288.871l10.003 6.519 9.82-6.644 2.751 88.047 2.064-84.608 8.974 6.066 8.222-4.002c-.122 29.265.352 58.38-1.375 88.047-2.995 16.449-13.913 28.043-28.203 35.08-12.586-.895-5.91-87.931-12.256-128.505zM-493.184 296.013c5.967 5.765 10.257 6.46 14.743 1.113l-1.113 67.315 7.232-67.315c4.568 1.629 9.221 5.44 13.074 2.781l-1.39 48.957c-.436 19.718-11.455 51.48-31.155 53.685-11.98-5.234 4.08-4.821-1.39-106.536z" style="fill:#fff;fill-opacity:1;fill-rule:evenodd;stroke:none;stroke-width:1px;stroke-linecap:butt;stroke-linejoin:miter;stroke-opacity:1" transform="matrix(-1 0 0 1 -760.32 .444)"/><path d="M-441.095 489.657c11.193 1.83 10.796 15.088 3.155 20.83-.914-5.217-5.073-5.049-7.605-5.425-3.476-7.614-1.189-12.348 4.45-15.405z" style="fill:#fe0;fill-opacity:1;fill-rule:evenodd;stroke:none;stroke-width:2.83464575;stroke-linecap:butt;stroke-linejoin:miter;stroke-miterlimit:4;stroke-dasharray:none;stroke-opacity:1"/><path d="M-537.605 516.662c6.984.26 9.257 2.237 11.678 9.797-5.404 1.703-7.525 6.064-6.412 12.656-13.532-3.63-11.662-18.187-5.266-22.453z" style="fill:#fe0;fill-opacity:1;fill-rule:evenodd;stroke:none;stroke-width:.58499998;stroke-linecap:butt;stroke-linejoin:miter;stroke-miterlimit:4;stroke-dasharray:none;stroke-opacity:1"/><path d="M-558.402 485.249c2.661 4.233 4.355 6.754 2.096 12.536-7.217 3.254-11.467 3.47-12.063 8.25-6.657-3.995-9.24-21.55 9.967-20.786z" style="fill:#fe0;fill-opacity:1;fill-rule:evenodd;stroke:none;stroke-width:2.83464575;stroke-linecap:butt;stroke-linejoin:miter;stroke-miterlimit:4;stroke-dasharray:none;stroke-opacity:1"/><path d="M-557.93 461.886c3.277 4.906 2.023 8.913-.172 13.82-8.998-2.598-8.131-2.604-13.344 2.39-1.863-10.584-.057-17.123 13.517-16.21z" style="fill:#fe0;fill-opacity:1;fill-rule:evenodd;stroke:none;stroke-width:.58499998;stroke-linecap:butt;stroke-linejoin:miter;stroke-miterlimit:4;stroke-dasharray:none;stroke-opacity:1"/><path d="M-479.543 436.875c-9.19 18.347-9.434 27.908-24.51 38.75-9.265 1.277-17.493-2.499-24.055-6.339-5.073-4.994-12.838-9.235-21.122-6.116.962 5.25-.264 7.199-2.057 12.448 4.245 1.55 6.3 2.984 12.362.9 11.718-1.604 22.63-1.091 31.022 3.98-13.305.775-18.854 2.41-26.722 1.494-8.015-.932-12.588-3.311-17.862 1.115 2.191 6.428.652 8.796.639 13.435 5.82 5.1 10.527 1.81 16.347-1.927 2.323-10.716 16.947-6.354 22.798-5.47-1.602 7.185-2.685 5.889-5.509 10.351-10.083 2.447-14.6 6.025-13.778 12.409 3.57 2.229 7.655 5.224 10.651 10.097 3.5.875 6.745-3.567 6.84-12.109 10.297-15.395 17.316-30.717 47.422-17.59.257 9.454 3.602 9.477 15.317 12.844-1.126-5.714.158-12.4 3.765-16.09-3.646-7.641-7.545-7.917-16.77-7.108l-13.013-.423c-8.762-2.227-10.174-2.203-6.292-11.64 8.748-14.028 9.806-13.253 22.614-25.657-3.375-4.618-11.041-9.985-18.087-7.354z" style="fill:#fe0;fill-opacity:1;fill-rule:evenodd;stroke:none;stroke-width:.70999998;stroke-linecap:butt;stroke-linejoin:miter;stroke-miterlimit:4;stroke-dasharray:none;stroke-opacity:1"/><path d="M-441.095 489.657c11.193 1.83 10.796 15.088 3.155 20.83-.914-5.217-5.073-5.049-7.605-5.425-3.476-7.614-1.189-12.348 4.45-15.405z" style="fill:#fe0;fill-opacity:1;fill-rule:evenodd;stroke:none;stroke-width:2.83464575;stroke-linecap:butt;stroke-linejoin:miter;stroke-miterlimit:4;stroke-dasharray:none;stroke-opacity:1" transform="matrix(-1 0 0 1 -762.115 0)"/><path d="M-537.605 516.662c6.984.26 9.257 2.237 11.678 9.797-5.404 1.703-7.525 6.064-6.412 12.656-13.532-3.63-11.662-18.187-5.266-22.453z" style="fill:#fe0;fill-opacity:1;fill-rule:evenodd;stroke:none;stroke-width:.58499998;stroke-linecap:butt;stroke-linejoin:miter;stroke-miterlimit:4;stroke-dasharray:none;stroke-opacity:1" transform="matrix(-1 0 0 1 -762.115 0)"/><path d="M-558.402 485.249c2.661 4.233 4.355 6.754 2.096 12.536-7.217 3.254-11.467 3.47-12.063 8.25-6.657-3.995-9.24-21.55 9.967-20.786z" style="fill:#fe0;fill-opacity:1;fill-rule:evenodd;stroke:none;stroke-width:2.83464575;stroke-linecap:butt;stroke-linejoin:miter;stroke-miterlimit:4;stroke-dasharray:none;stroke-opacity:1" transform="matrix(-1 0 0 1 -762.115 0)"/><path d="M-557.93 461.886c3.277 4.906 2.023 8.913-.172 13.82-8.998-2.598-8.131-2.604-13.344 2.39-1.863-10.584-.057-17.123 13.517-16.21z" style="fill:#fe0;fill-opacity:1;fill-rule:evenodd;stroke:none;stroke-width:.58499998;stroke-linecap:butt;stroke-linejoin:miter;stroke-miterlimit:4;stroke-dasharray:none;stroke-opacity:1" transform="matrix(-1 0 0 1 -762.115 0)"/><path d="M-479.543 436.875c-9.19 18.347-9.434 27.908-24.51 38.75-9.265 1.277-17.493-2.499-24.055-6.339-5.073-4.994-12.838-9.235-21.122-6.116.962 5.25-.264 7.199-2.057 12.448 4.245 1.55 6.3 2.984 12.362.9 11.718-1.604 22.63-1.091 31.022 3.98-13.305.775-18.854 2.41-26.722 1.494-8.015-.932-12.588-3.311-17.862 1.115 2.191 6.428.652 8.796.639 13.435 5.82 5.1 10.527 1.81 16.347-1.927 2.323-10.716 16.947-6.354 22.798-5.47-1.602 7.185-2.685 5.889-5.509 10.351-10.083 2.447-14.6 6.025-13.778 12.409 3.57 2.229 7.655 5.224 10.651 10.097 3.5.875 6.745-3.567 6.84-12.109 10.297-15.395 17.316-30.717 47.422-17.59.257 9.454 3.602 9.477 15.317 12.844-1.126-5.714.158-12.4 3.765-16.09-3.646-7.641-7.545-7.917-16.77-7.108l-13.013-.423c-8.762-2.227-10.174-2.203-6.292-11.64 8.748-14.028 9.806-13.253 22.614-25.657-3.375-4.618-11.041-9.985-18.087-7.354z" style="fill:#fe0;fill-opacity:1;fill-rule:evenodd;stroke:none;stroke-width:.70999998;stroke-linecap:butt;stroke-linejoin:miter;stroke-miterlimit:4;stroke-dasharray:none;stroke-opacity:1" transform="matrix(-1 0 0 1 -762.115 0)"/><path d="M-346.788 469.91a34.199 20.4 0 1 1-68.397 0 34.199 20.4 0 1 1 68.397 0z" style="opacity:1;fill:#fe0;fill-opacity:1;fill-rule:nonzero;stroke:none;stroke-width:.70999998;stroke-linecap:round;stroke-linejoin:round;stroke-miterlimit:4;stroke-dasharray:none;stroke-dashoffset:0;stroke-opacity:1"/><path d="M-394.817 188.659c4.816-1.102 6.11-3.122 8.823-5.123-.103 2.992-1.246 6.46-1.521 10.484l5.782-9.77 3.646 7.011c-1.97 7.214-7.048 8.21-11.897 9.666-2.681-2.306-5.08-5.083-4.833-12.268zM-356.81 194.967c-.452.467-.036-9.77-.488-9.286-3.017 3.217-4.76 6.132-7.777 6.695.75 8.9 4.126 9.926 7.807 10.038 5.436-.768 8.939-4.437 10.41-11.153-2.235-.747-4.47-2.862-6.704-5.875-.368-.497-2.88 10.124-3.248 9.58zM-374.5 205.934c-.514.547.14-11.265-.374-10.678-3.328 3.801-5.352 8.05-8.68 7.584.83 5.902 4.657 10.613 8.07 11.47 4.72-.109 9.817-4.99 11.612-9-3.367-.927-5.973-5.545-7.646-9.86-.248-.64-2.727 11.11-2.982 10.484zM-405.97 198.696c-2.915 16.175-1.393 27.913 8.551 31.229 9.107-1.72 13.691-6.833 14.87-14.5-.768-6.724-3.745-8.766-8.553-9.027-.75-.04-3.608 10.127-4.387 10.133 1.216-.17 1.902-11.515 1.797-12.119-1.993-11.42-7.898-7.023-12.278-5.716zM-343.885 197.953c-3.987 5.619-7.974 8.503-11.961 10.748-.474.266-2.165 11.896-2.639 12.148-.192-1.21-.121-11.725-.285-12.271-3.372.523-8.175 7.08-12.625 10.194.072 6.656 5.655 8.511 11.524 12.268 10.041-4.594 19.537-10.036 20.82-28.254l-4.834-4.833zM-431.862 228.35c-2.87-.315-5.015.758-7.222 1.187-.448.086-2.197 11.61-3.462 12.971-.755-1.867.421-9.558 1.03-12.853-.968-.121-1.994-.475-3.132-1.202-4.524 8.725-8.8 28.562-6.705 30.281 10.003 5.958 25.258-9.977 19.491-30.384zM-415.298 240.537c-.547.257.702-19.77.238-19.482-3.234 2.004-4.424 5.621-10.678 5.587-2.241 18.67-4.532 36.614 9.422 40.63 7.836-.392 14.603-8.053 13.838-35.036-6.479-2.355-8.01-6.486-9.544-9.64-.315-.648-1.67 17.989-3.276 17.94zM-380.604 249.29c-1.314-1.53.932-27 .186-26.041-3.642 4.672-8.53 9.667-14.7 9.87-2.146 16.206-2.23 30.818 12.66 33.86 17.732-3.722 15.499-19.241 16.783-32.682-4.683-1.457-8.051-6.346-10.993-11.11-.57-.922-2.72 24.976-3.936 26.103zM-338.588 219.87c-1.966 2.73-3.389 4.717-5.412 6.602-.491.457-.466 21.619-1.906 22.974-1.377-2.75-1.265-20.476-1.85-20.052-3.521 2.55-7.324 4.219-11.736 5.492-1.973 15.133 1.692 25.88 13.838 30.031 12.82-3.65 13.427-18.87 11.482-36.508.672-5.526-2.065-6.792-4.416-8.539zM-330.05 225.464c3.967 1.962 7.042 3.11 10.626 3.631.61.088.965 13.19 2.417 15.93.788-1.167.515-15.644 1.066-15.623 1.754.067 3.686.025 5.912-.11 2.101 9.205 1.906 19.558.883 30.326-17.134-1.642-20.526-14.773-20.904-34.154zM-436.173 283.306c-2.061-2.534 1.089-24.134.394-23.483-4.15 3.886-7.616 8.232-13.415 8.818.15 15.232-3.47 32.903 12.508 37.892 10.26.353 12.708-16.484 13.244-37.525-3.927-1.644-6.657-4.487-8.51-8.207-1.294 3.291-2.095 20.872-4.221 22.505z" style="fill:#fff;fill-opacity:1;fill-rule:evenodd;stroke:none;stroke-width:1px;stroke-linecap:butt;stroke-linejoin:miter;stroke-opacity:1"/><path d="M-402.897 288.35c-2.197-1.206 1.08-28.202.436-27.549-3.838 6.4-9.57 11.333-15.095 10.047-2.495 13.885-2.098 29.495 12.877 40.468 16.045-10.098 16.105-14.818 16.555-39.364-4.34-3.443-7.543-6.885-10.336-10.328-.49-.604-2.384 25.293-4.437 26.726zM-365.683 260.547c-4.65 6.668-10.556 9.273-16.187 11.037-1.547 20.218.832 31.079 16.923 39.732 17.55-3.911 21.998-21.512 19.498-41.204-5.353-2.421-10.69-4.924-15.084-12.14.342 11.08-1.388 24.92-2.943 30.312-1.902-5.363-2.265-19.433-2.207-27.737zM-330.366 254.293c-2.89 5.011-5.4 10.783-9.197 13.98-2.351 27.052 2.195 33.247 13.244 38.26 9.05-3.18 15.915-12.668 16.187-41.203-6.867-3.925-14.388-6.915-15.65-10.839l.199 27.856c-2.794-1.797-3.927-20.442-4.783-28.054z" style="fill:#fff;fill-opacity:1;fill-rule:evenodd;stroke:none;stroke-width:1px;stroke-linecap:butt;stroke-linejoin:miter;stroke-opacity:1"/><path d="M-440.77 355.468c0-.112 0-.223 0 0z" style="fill:none;fill-opacity:.75;fill-rule:evenodd;stroke:#000;stroke-width:1px;stroke-linecap:butt;stroke-linejoin:miter;stroke-opacity:1"/><path d="M-440.437 355.802c-15.89-6.847-12.622-34.238-11.124-55.512 1.596 1.493 3.825 5.714 5.694 7.108-.006 3.382-.886 18.687 1.518 23.895 1.667-2.657 1.386-21.83 2.127-21.499 2.598 1.16 5.339 1.575 8.135.56-.012 15.386 4.479 41.913-6.35 45.448zM-420.257 330.4c-2.806-2.366-2.216-26.525-2.758-25.845-2.466 3.092-4.931 4.993-7.397 6.468 1.744 17.848.344 37.792 17.377 45.447 9.918-3.893 9.504-21.297 8.02-40.1-5.037-1.81-9.455-6.364-13.875-12.494-.015 1.755.66 25.16-1.367 26.524zM-386.635 300.33c-3.565 6.472-8.466 10.76-12.03 13.7-1.392 21.554 1.662 38.205 15.371 41.104 14.373-.855 14.875-19.659 14.37-39.767-5.07-2.998-10.188-8.485-14.37-15.037.564 8.586 1.075 17.993-1.002 23.057-2.537-4.728-2.47-12.994-2.34-23.057zM-348.399 330.67c-.768 1.004 3.666-29.008 2.881-28.035-4.613 5.721-9.624 10.645-16.389 12.064 1.55 14.821-4.88 34.806 10.36 40.769 15.625-6.655 17.657-26.103 18.379-46.784-4.978-1.266-6.495-4.052-8.11-6.663-.539-.872-4.458 27.9-7.12 28.648zM-312.784 302.335l.669 43.776c-1.154 6.493-4.56 8.481-8.355 9.69-13.876 1.688-6.665-28.958-8.688-45.446 3.125-.094 5.89-.786 8.376-1.944.05 2.314.834 29.199 1.687 30.267.579-.331 1.597-29.965 1.607-32.17 1.695-1.18 3.251-2.59 4.704-4.173zM-448.264 360.344c-.272 11.361-9.807 22.192-14.896 33.553 14.393 3.08 24.9-9.284 32.556-33.315-2.605.932-5.766 2.42-8.398 2.822-.679 4.474-5.109 14.95-9.24 18.44 3.202-6.505 6.648-18.656 5.797-18.883-1.564-.416-4-1.345-5.82-2.617zM-313.452 361.149c3.486 15.53 9.682 25.637 16.709 34.085-12.91-.029-27.122-8.165-32.75-32.08 2.298 1.046 4.834 1.75 6.897 1.856.707.036 2.93 11.543 9.255 16.406-3.074-6.56-6.168-16.73-5.402-16.985 1.8-.597 3.722-1.764 5.291-3.282zM-425.706 373.703c-.052 10.932 7.55 26.369-1.06 37.317-13.425-9.103-13.834-25.122-6.916-35.737 3.27 2.153 1.127 15.425 3.89 20.32 2.114-3.362-.603-20.823 4.086-21.9z" style="fill:#fff;fill-opacity:1;fill-rule:evenodd;stroke:none;stroke-width:1px;stroke-linecap:butt;stroke-linejoin:miter;stroke-opacity:1"/><path d="M-424.635 356.617c3.07 1.937 5.814 4.85 9.459 5.063l4.76 22.053.247-22.868c4.206.393 7.095-5.487 10.134-7.428.855 13.947.31 34.886 3.992 41.129 1.573 5.585-3.239 12.31-8.788 11.722-20.85-.012-14.9-32.12-19.804-49.67zM-394.439 355.121c2.642 2.818 4.917 6.076 9.38 6.71.764.108 3.005 23.662 3.91 23.601.816-.038.188-23.693.944-23.905 3.998-1.122 7.252-4.474 10.494-7.86-.45 19.698 5.291 45.896-11.394 52.365-11.964-8.966-11.068-32.247-13.334-50.91zM-352.255 361.182c-2.933-.163-6.442-2.344-10.668-7.03.648 18.245-6.834 46.247 5.334 50.668 13.528-6.65 18.785-27.775 22.061-52.366-3.957 3.111-7.797 6.637-12.233 8.074-.96.31-2.182 19.224-6.498 25.665 1.5-7.6 2.52-24.993 2.004-25.011zM-332.83 392.861c-.187-9.543-.978-21.437-1.524-20.228-9.117 20.18-9.168 34.144 1.978 40.43 8.035-5.976 11.738-25.848 2.232-40.734-.743-1.163-.296 16.968-2.686 20.532zM-478.63 419.342c4.702-4.924 11.703-16.377 10.9-16.492-10.774-1.545-28.294 21.95-26.834 32.032 9.434.063 16.28-4.832 22.428-11.522 4.037-4.392 9.243-13.358 8.075-17.78-.22-.831-10.056 12.225-14.568 13.762zM-284.488 416.974c.172-3.134-11.662-16.937-10.897-17.087 4.51-.882 10.22 4.6 15.912 10.562 5.866 6.143 13.247 12.867 10.247 19.778-11.082 5.19-14.737-2.958-20.706-9.849-5.134-5.928-8.781-13.264-8.04-18.008 2.023.518 10.316 10.522 13.484 14.604zM-322.118 405.651c8.17 5.548 12.358 45.854 2.106 46.686-5.155-8.783-14.408-23.29-12.569-33.93 1.215-.794 2.932-2.016 4.639-3.607.42-.392 4.453 13.823 5.407 17.903 1.714-3.568-2.565-20.946-1.877-21.965 1.034-1.529 1.864-3.232 2.294-5.087zM-437.156 409.613c1.076.392 2.028.873 2.855 1.442.957.657-.96 8.477-6.653 19.483 4.385-1.87 10.07-15.376 10.373-14.33 2.025 6.968-2.326 18.475-12.587 34.19-17.29-17.846-1.038-28.302 6.012-40.785zM-455.984 416.77c4.139-2.99 10.7-16.184 11.025-15.359 2.584 6.558-.275 9.597-3.67 16.264-4.359 8.562-8.196 16.824-17.175 17.013-2.52-14.754.94-16.864 4.788-23.066 4.453-7.176 5.705-13.105 12.085-12.658.956.067-5.74 15.087-7.053 17.806zM-320.81 395.751c2.72 11.859 16.597 41.541 26.732 39.602 2.055-12.138-2.36-16.915-6.244-25.146-2.042-4.328-2.394-7.752-5.354-10.236-1.067-.895-2.472-1.669-4.416-2.319-.724-.294 4.324 9.558 5.2 17.969-2.754-7.443-8.817-18.886-9.777-19.047-1.633-.273-4.013-.633-6.142-.823zM-415.72 408.104c4.404 2.063 9.46 3.493 14.08 1.733l3.033 35.962-6.065 1.733c-5.012-5.473-7.894-11.6-5.429-19.372-4.024-5.968-8.332-11.842-5.62-20.056zM-391.241 402.038c-1.805 4.27-3.61 6.173-5.416 7.583l3.25 34.444 9.098-.433-.216-33.795c-2.474-2.247-5.322-3.931-6.716-7.799zM-379.76 410.27c4.331-.87 7.829-5.573 11.049-8.665 1.327 2.37 2.463 5.918 6.066 7.15l-8.882 35.094-7.582-.867-.65-32.711zM-355.027 428.973c3.936-4.5 5.975-14.69 7.763-25.635-3.413 2.95-6.695 6.097-11.157 7.474l-8.7 33.29 8.375 2.563c4.232-.767 2.917-11.044 3.719-17.692zM-404.704 492.124c-3.113 73.335-36.723 98.604-89.006 74.253-8.791 13.6 3.22 56.272 56.059 41.307 16.49-8.594 31.523-22.078 38.848-43.766 4.404-23.111 4.258-46.223 4.917-69.335l-10.818-2.459z" style="fill:#fff;fill-opacity:1;fill-rule:evenodd;stroke:none;stroke-width:1px;stroke-linecap:butt;stroke-linejoin:miter;stroke-opacity:1"/><path d="M-403.23 546.216c-7.059 43.6-45.902 55.278-69.827 42.29 40.87 2.764 60.331-14.989 69.828-42.29z" style="fill:#000;fill-opacity:1;fill-rule:evenodd;stroke:none;stroke-width:1px;stroke-linecap:butt;stroke-linejoin:miter;stroke-opacity:1"/><path d="M-404.704 492.124c-3.113 73.335-39.673 99.095-87.039 72.286-10.758 16.55 1.252 58.239 54.092 43.274 16.49-8.594 31.523-22.078 38.848-43.766 4.404-23.111 4.258-46.223 4.917-69.335l-10.818-2.459z" style="fill:#fff;fill-opacity:1;fill-rule:evenodd;stroke:none;stroke-width:1px;stroke-linecap:butt;stroke-linejoin:miter;stroke-opacity:1" transform="matrix(-1 0 0 1 -764.331 0)"/><path d="M-403.23 546.216c-7.059 43.6-45.902 55.278-69.827 42.29 40.87 2.764 60.331-14.989 69.828-42.29z" style="fill:#000;fill-opacity:1;fill-rule:evenodd;stroke:none;stroke-width:1px;stroke-linecap:butt;stroke-linejoin:miter;stroke-opacity:1" transform="matrix(-1 0 0 1 -764.331 0)"/><path d="M-390.444 496.55c.164-.164.328-.328 0 0z" style="fill:none;fill-opacity:.75;fill-rule:evenodd;stroke:#000;stroke-width:1px;stroke-linecap:butt;stroke-linejoin:miter;stroke-opacity:1"/><path d="M-390.936 496.55h5.901l1.476 73.761c2.85 22.535 4.848 43.1.491 66.877-3.816-24.26-3.033-44.585.984-69.827l.983-70.811 7.376-.492c-.023 41.081 4.317 76.746 14.753 108.675 6.771 16.463 3.93 33.164-.984 45.732-5.298 14.647-14.868 21.733-22.62 31.472-8.475-9.922-15.585-15.868-24.587-31.472-7.754-13.545-2.687-33.377.983-48.19 13.194-29.732 14.327-62.73 15.244-105.725z" style="fill:#fff;fill-opacity:1;fill-rule:evenodd;stroke:#000;stroke-width:1px;stroke-linecap:butt;stroke-linejoin:miter;stroke-opacity:1"/><path d="M-404.704 587.03c-13.515 14.859-27.82 26.499-42.607 29.748-2.037 8.278-1.097 16.557 2.775 24.836 7.78.98 16.934-1.336 26.82-5.41.223-17.956 6.412-33.343 13.012-49.174z" style="fill:#fff;fill-opacity:1;fill-rule:evenodd;stroke:none;stroke-width:1px;stroke-linecap:butt;stroke-linejoin:miter;stroke-opacity:1"/><path d="M-410.932 596.225c-11.5 10.769-20.538 20.726-22.953 30.076 12.291-4.865 17.989-17.05 22.953-30.076z" style="fill:#000;fill-opacity:1;fill-rule:evenodd;stroke:none;stroke-width:1px;stroke-linecap:butt;stroke-linejoin:miter;stroke-opacity:1"/><path d="M-404.704 587.03c-13.515 14.859-27.82 26.499-42.607 29.748-2.037 8.278-3.025 17.135.848 25.414 7.78.98 18.861-1.914 28.748-5.987.222-17.957 6.41-33.344 13.01-49.175z" style="fill:#fff;fill-opacity:1;fill-rule:evenodd;stroke:none;stroke-width:1px;stroke-linecap:butt;stroke-linejoin:miter;stroke-opacity:1" transform="matrix(-1 0 0 1 -763.518 .454)"/><path d="M-410.932 596.225c-11.5 10.769-20.538 20.726-22.953 30.076 12.291-4.865 17.989-17.05 22.953-30.076z" style="fill:#000;fill-opacity:1;fill-rule:evenodd;stroke:none;stroke-width:1px;stroke-linecap:butt;stroke-linejoin:miter;stroke-opacity:1" transform="matrix(-1 0 0 1 -763.518 .454)"/></g><path d="M-264.183 77.89c1.925-1.958 3.095-.713 3.986 2.426-3.868 4.993 2.422 14.074 7.204 5.658 1.835-.304 2.147 3.95 1.44 4.905-1.472 2.418-7.223 3.317-11.345-1.738-2.02-2.69-2.105-5.048-1.285-11.251z" style="fill:#fefeff;fill-opacity:1;fill-rule:evenodd;stroke:none;stroke-width:1px;stroke-linecap:butt;stroke-linejoin:miter;stroke-opacity:1" transform="translate(486.316 -10.688)"/><path d="M381.5 104.367a2.807 5.614 0 1 1 0-.044" style="fill:#fff;fill-opacity:1;stroke:none;stroke-width:2.83464575;stroke-linecap:round;stroke-linejoin:round;stroke-miterlimit:4;stroke-dasharray:none;stroke-opacity:1" transform="matrix(.55066 .08969 -.07867 .62781 28.06 -27.895)"/></svg>