<svg xmlns="http://www.w3.org/2000/svg" id="svg2" width="800" height="500" version="1.0"><defs id="defs4"><marker id="ArrowEnd" markerHeight="3" markerUnits="strokeWidth" markerWidth="4" orient="auto" refX="0" refY="5" viewBox="0 0 10 10"><path id="path7" d="m0 0 10 5-10 5V0z"/></marker><marker id="ArrowStart" markerHeight="3" markerUnits="strokeWidth" markerWidth="4" orient="auto" refX="10" refY="5" viewBox="0 0 10 10"><path id="path10" d="M10 0 0 5l10 5V0z"/></marker><marker id="marker2261" markerHeight="3" markerUnits="strokeWidth" markerWidth="4" orient="auto" refX="10" refY="5" viewBox="0 0 10 10"><path id="path2263" d="M10 0 0 5l10 5V0z"/></marker><marker id="marker2257" markerHeight="3" markerUnits="strokeWidth" markerWidth="4" orient="auto" refX="0" refY="5" viewBox="0 0 10 10"><path id="path2259" d="m0 0 10 5-10 5V0z"/></marker><style id="style6" type="text/css">.fil1{fill:#e60d2e}</style></defs><path id="path2194" d="M0 0h799.993L800 500H0V0z" style="fill:#e60d2e;fill-opacity:1;fill-rule:evenodd;stroke:none"/><g id="g2223" transform="matrix(1.4945 0 0 1.4945 -1167.085 317.221)"><path id="path14" d="M994.91-100.752c.331.216.724.37 1.163.475 1.222.294 2.814.245 4.499.11h.023c2.1-.112 3.795-.48 4.993-1.165 1.076-.615 1.75-1.506 1.946-2.723l.074-7.227v-.01c.034-1.54-.265-2.65-.807-3.447-.526-.774-1.306-1.278-2.243-1.613l-.03-.01-.051-.025c-1.266-.613-2.287-1.4-2.967-2.427-.688-1.04-1.013-2.297-.873-3.83l-.002-.001.375-8.557.01-.071c.165-1.264.574-2.364 1.25-3.284.665-.904 1.578-1.621 2.76-2.136 2.44-1.689 4.723-3.475 6.054-5.848 1.319-2.352 1.728-5.354.46-9.555l-.558-1.846c2.73 1.383 5.174 2.696 6.901 5.393l30.343-28.28c.265-.385.457-.767.575-1.145.117-.373.159-.75.126-1.133v-.003c-.167-2.063.095-3.316.556-3.988.59-.862 1.566-.983 2.434-.47.758.447 1.481 1.42 1.791 2.437h-.002c2.049 6.106 2.694 10.902 2.317 14.743-.386 3.938-1.832 6.875-3.942 9.187-4.198 4.798-8.286 9.431-12.326 13.874-3.822 4.204-7.651 8.295-11.57 12.289a22.16 22.16 0 0 1 1.537.042 272.816 272.816 0 0 0 14.499-9.257 322.421 322.421 0 0 0 15.912-11.604c.477-.44.883-.991 1.203-1.676.396-.85.585-1.73.717-2.655.217-1.176.674-1.87 1.187-2.22a1.711 1.711 0 0 1 1.916-.031c.467.298.811.823.877 1.406v.003c2.264 20.83-1.918 23.942-6.625 27.444-.553.411-1.103.824-1.637 1.257l-.005.003c-9.03 5.938-18.063 11.916-27.498 17.2 9.044-1.846 18.038-4.489 27.032-7.131 1.583-.465 3.156-.928 5.177-1.515v-.001c1.654-.517 2.934-1.277 3.953-2.206 1.017-.927 1.787-2.034 2.417-3.242.604-1.433 2.282-3.233 3.7-1.664.391.431.647 1.103.671 1.912v.003c.18 6.849-.943 12.176-3.258 16.11-2.344 3.983-5.884 6.518-10.508 7.74-7.606 2.48-15.225 4.493-22.851 6.185-2.721.603-5.442 1.165-8.162 1.692 3.685.105 7.378.191 11.087.243 7.065.1 14.222.074 21.558-.194h.03c4.168-.01 5.854-1.47 7.561-2.948.858-.743 1.537-1.848 2.615-2.225 1.639-.573 2.488.889 2.298 2.31l-.006.047-.01.04c-1.783 7.288-4.57 12.355-8.169 15.623-3.637 3.303-8.07 4.76-13.114 4.802-8.154.347-16.26.563-24.292.585-2.16.005-4.313-.004-6.457-.028 4.314 1.255 8.679 2.43 13.08 3.548 8.341 2.117 16.817 4.023 25.336 5.861v.002c1.6.284 2.973.191 4.2-.144 1.796-.49 3.71-2.405 5.237-2.538 1.714-.15 2.463 1.63 1.857 2.997-3.438 5.9-6.46 10.402-10.709 13.038-4.28 2.655-9.701 3.361-17.862 1.608a150.71 150.71 0 0 1-23.779-5.824 150.897 150.897 0 0 1-10.683-4.023c.15.286.291.575.425.868a475.126 475.126 0 0 0 16.905 10.39 405.792 405.792 0 0 0 22.684 12.357c2.811 1.417 5.726 1.757 8.735.776 3.687-1.65 4.852 1.492 2.442 3.718-4.487 4.144-9.109 6.981-13.884 8.307-4.814 1.337-9.761 1.137-14.858-.81l-.059-.026c-8.713-4.123-16.539-8.411-23.239-12.946 2.65 5.348 5.267 10.376 8.015 14.51 3.26 4.905 6.7 8.56 10.602 9.999l2.374.875-2.432.694c-9.64 2.751-16.334-2.189-21.158-8.476 4.306 8.666 9.07 15.88 16.378 16.242l5.057.25-4.873 1.371c-1.876.528-3.652.818-5.339.894l9.185 12.408c1.018 1.098 2.093 1.717 3.224 1.856 1.15.142 2.4-.203 3.748-1.034l.045-.027.046-.022 13.566-6.213c1.827-.836 4.682-.052 6.276 1.439l1.228.744c2.098 1.271 3.367 2.678 3.88 4.323.757 2.429-.296 4.626-1.298 6.77-1.274-1.88-2.498-3.303-4.903-3.84l-.055.043c-1.727 1.347-4.155 1.882-6.72.551l-9.077 2.755 12.574 2.873c.692.158 1.21.522 1.8.9 1.972 1.265 3.036 2.622 3.442 3.917l.007-.013.003.044c.196.643.242 1.32.112 1.983.3 2.3.312 5.062-1.247 7.257-1.416 2.02-3.62 2.559-5.844 3.128.492-2.348.522-4.14-.387-6.47-1.58-.4-3.08-1.43-4.116-3.293l-9.689-3.901 5.965 10.79c.442.8.64 1.231.81 2.186.354 1.985-.146 3.446-1.079 4.393l-.626 1.175c-1.283 2.406-2.983 3.72-5.035 4.113-2.947.566-5.654-.824-8.2-2.091 2.298-1.216 4.892-2.22 5.7-4.985-.61-1.175-.859-2.675-.5-4.482l-4.065-10.59c-.193-.488-.124-.573-.473-.319l-8.567 8.958c.188 2.398-.622 3.954-1.871 4.845l.022.097c.467 2.056 2.418 3.611 3.888 4.967-2.306.893-4.346 1.67-6.663.105-1.448-.978-2.75-2.729-4.345-5.188l-.543-.929c-.877-.932-1.283-2.145-.833-3.505 1.243-4.134 4.586-6.749 9.206-10.363.643-.503 2.265-1.666 3.39-2.653.904-.792 1.418-1.373 1.367-2.144-.045-.677-.665-1.345-1.138-1.785l-20.91-19.489c-1.166 5.686-4.507 10.221-7.996 14.68l-.017-2.366c-.065-8.617-1.691-15.484-4.26-21.294-2.388-5.398-5.593-9.898-9.118-14.046a48.865 48.865 0 0 1-.69 3.103c1.734 11.551 4.631 21.42 9.228 28.83 4.547 7.328 10.772 12.256 19.206 14.027l1.794.376c-7.8 5.854-16.068 6.313-25.364 6.104a67.8 67.8 0 0 0 1.854 3.155c6.731 10.772 16.528 19.541 29.63 23.557l1.533.47c-2.718 2.076-5.443 3.953-8.526 5.477-2.473 1.222-5.016 2.198-7.654 3.012-6.402 2.065-9.233-.98-12.939-4.967-2.102-2.26-4.169-4.528-6.102-6.936.558 2.127.866 4.428.804 7.015-.11 4.567-1.647 10.674-4.196 16.063-2.207 4.666-5.189 8.82-8.687 11.027l-.496.313-.457-.364c-3.96-3.164-7.148-7.238-9.466-11.772a40.744 40.744 0 0 1-4.308-15.141c-.166-2.04.053-4.14.54-6.29a145.682 145.682 0 0 1-3.716 5.351c-1.478 2.032-2.94 3.695-4.76 4.812-1.856 1.14-4.032 1.689-6.883 1.448l-.013-.007c-4.616-.46-8.41-1.406-11.605-2.706a29.585 29.585 0 0 1-8.065-4.868l-1.06-.897 1.295-.5c13.925-5.385 24.035-13.812 30.879-24.428a61.696 61.696 0 0 0 1.709-2.814c-9.208.092-16.948-.434-24.591-6.114l1.793-.376c8.434-1.771 14.66-6.7 19.206-14.028 4.366-7.036 7.199-16.29 8.958-27.095a32.856 32.856 0 0 1-1.053-4.824c-3.57 4.185-6.818 8.724-9.231 14.18-2.57 5.81-4.196 12.678-4.26 21.294l-.018 2.367-1.458-1.863c-3.69-4.716-5.704-8.84-6.52-12.726L912.158 16.75c-1.23 1.102-1.464 2.06-.316 3.328 1.468 1.214 2.78 2.24 3.997 3.193 4.62 3.614 7.963 6.23 9.205 10.363.44 1.327.064 2.515-.77 3.438l-1.043 1.609c-1.602 2.47-2.8 4.07-4.158 4.9-2.175 1.33-4.29.392-6.413-.43 1.502-1.386 3.418-2.9 3.888-4.967l.022-.097c-1.249-.89-2.058-2.447-1.87-4.845l-8.568-8.957c-.246-.226-.245-.208-.473.318l-4.064 10.59c.358 1.807.109 3.307-.5 4.481.808 2.767 3.4 3.77 5.7 4.986-2.546 1.267-5.254 2.657-8.2 2.092-2.052-.394-3.753-1.708-5.036-4.114l-.626-1.175c-1.123-1.14-1.618-3.025-.753-5.672l.025-.076.036-.066 6.388-11.555-9.689 3.9c-1.035 1.865-2.536 2.893-4.116 3.294-.882 2.33-.774 4.122-.386 6.47-2.305-.59-4.447-1.176-5.857-3.326-1.392-2.12-1.388-4.71-1.25-7.141.013.084-.005-1.665.309-2.391.613-1.423 2.042-2.897 4.605-4.225l.093-.048.101-.023 12.845-2.935-9.077-2.755c-2.565 1.33-4.993.796-6.72-.55a6.568 6.568 0 0 1-.055-.044c-2.315.57-3.52 2.106-4.902 3.84l-.563-1.205c-.978-2.091-1.248-3.976-.739-5.686.51-1.712 1.781-3.19 3.883-4.464 1.604-1.252 4.766-2.683 7.106-2.104l13.314 6.099c1.472.688 2.757 1.593 4.49 1.38 1.13-.139 2.205-.758 3.224-1.855l8.612-11.636c-1.793-.047-3.688-.341-5.698-.906l-4.873-1.371 5.057-.25c7.637-.378 12.497-8.241 16.958-17.424-4.634 7.195-10.641 12.824-21.738 9.658l-2.432-.694 2.374-.876c3.901-1.439 7.342-5.094 10.602-9.998 3.318-4.993 6.445-11.289 9.672-17.878v.001l.113-.248a103.954 103.954 0 0 1-3.985 2.886c-6.885 4.75-15.005 9.228-24.09 13.527l-.059.026c-5.097 1.947-10.044 2.147-14.858.81-4.775-1.326-9.396-4.163-13.884-8.307-.748-.691-1.21-1.551-1.292-2.273-.099-.864.324-1.629 1.189-1.87 1.564-.435 4.554 1.117 6.685.974 1.456-.098 2.98-.51 4.595-1.325a405.847 405.847 0 0 0 22.685-12.357 476.283 476.283 0 0 0 17.56-10.812c.181-.26.37-.521.568-.784a151.082 151.082 0 0 1-11.482 4.36 150.704 150.704 0 0 1-23.778 5.825c-8.162 1.753-13.582 1.047-17.863-1.608-4.25-2.636-7.271-7.138-10.708-13.038-.255-.573-.292-1.29-.048-1.875.32-.773 1.081-1.194 1.905-1.122.578.05 1.24.342 1.903.944 1.026.685 2.112 1.261 3.334 1.594 1.227.335 2.6.428 4.2.144v-.002c8.518-1.838 16.994-3.744 25.335-5.861a394.644 394.644 0 0 0 13.08-3.548c-2.144.024-4.297.033-6.456.028-8.033-.022-16.138-.238-24.293-.585-5.043-.042-9.477-1.499-13.114-4.802-3.599-3.268-6.385-8.335-8.17-15.622l-.009-.04-.006-.048c-.19-1.42.66-2.883 2.298-2.31 1.079.377 1.757 1.482 2.615 2.225 1.707 1.477 3.393 2.937 7.562 2.948h.03c7.335.268 14.492.293 21.557.194a775.95 775.95 0 0 0 11.088-.243c-2.72-.527-5.442-1.089-8.162-1.692-7.627-1.692-15.245-3.705-22.852-6.185-4.623-1.222-8.163-3.757-10.508-7.74-2.315-3.934-3.439-9.261-3.258-16.11v-.003c.024-.809.28-1.48.67-1.912.571-.631 1.42-.754 2.157-.34.548.307 1.099.948 1.544 2.004.63 1.208 1.4 2.315 2.417 3.242 1.02.929 2.3 1.689 3.954 2.206v.001c2.02.587 3.594 1.05 5.177 1.515 8.993 2.642 17.987 5.285 27.03 7.13-8.435-4.723-16.862-10.206-25.27-15.734a79.665 79.665 0 0 1-3.869-2.725c-4.706-3.502-8.889-6.614-6.625-27.444v-.003c.066-.583.41-1.108.877-1.406a1.712 1.712 0 0 1 1.916.03c.513.351.97 1.045 1.187 2.221l.007.046c.203 1.575.717 3.18 1.913 4.285a322.476 322.476 0 0 0 15.913 11.604 272.392 272.392 0 0 0 14.723 9.39c.022-.474.058-.948.095-1.421a454.74 454.74 0 0 1-10.353-11.043c-4.04-4.443-8.128-9.076-12.325-13.875l-.001.001c-2.11-2.312-3.556-5.25-3.942-9.187-.376-3.841.268-8.637 2.317-14.742h-.002c.31-1.019 1.034-1.991 1.791-2.439.868-.512 1.844-.391 2.434.47.461.673.723 1.926.556 3.989v.003c-.033.382.01.76.126 1.133.118.378.31.76.575 1.146l31.775 29.614c.056-.094.113-.187.171-.28 1.467-2.343 3.618-4.544 6.57-6.403l1.848-1.164-.618 2.094c-.705 2.394-.924 4.499-.638 6.303.483 3.036 2.27 4.601 4.642 6.2 2.222 1.498 4.228 3.215 5.143 5.826.445 1.27.337 2.35.337 3.633v10.228c.044 1.11-.137 2.126-.614 3.03-.537 1.017-1.484 1.881-2.527 2.356-2.315 1.061-4.63 2.123-4.304 4.51l.003.02.695 6.254c.414 1.918.92 3.164 2.18 3.879 2.057 1.167 5.649 1.053 7.855 1.053 2.809.011 4.532-.16 5.611-.58.29-.113.53-.249.735-.408 1.68-4.784 4.647-9.5 8.68-14.16-1.476-.298-2.904-1.096-4.268-1.717l2.693-.433c3.911-.63 6.78-2.635 8.834-5.459 2.41-3.313 3.722-7.76 4.291-12.466-6.354-4.26-8.82-4.38-11.139-4.492-2.663-.13-8.288-1.046-7.695-4.842-2.412.022-4.798-.088-7.102-.707-3.024-.812-4.754-2.37-6.654-4.713-2.472-3.048-.654-2.948 2.155-1.453.698.365 1.435.657 2.205.883 2.29.671 4.676.642 7.083.613a88.312 88.312 0 0 1 2.15-.008c3.363.042 5.966.246 8.009.572-.137-.527-.215-1.058-.292-1.588-.209-1.431-.418-2.863-2.145-3.8-.549-.297-1.385-.425-2.274-.47-.956-.048-1.972.004-2.797.05-1.147.063-2.402 1.114-3.305 1.87-.676.566-1.206 1.01-1.73 1.04-.674.039-1.064-.29-1.113-1.134 0-.644.083-1.32.112-1.97.174-3.877.348-7.755 5.718-8.352 2.008-.223 4.069-.155 6.096-.089.591.02 1.18.04 1.754.052-.31-4.429.629-7.342 2.405-9.249 1.906-2.046 4.705-2.872 7.932-3.138 5.313-.438 10.387.734 15.476 1.91 6.339 1.465 12.701 2.935 19.432 1.15l.663-.175.293.62c1.036 2.2.558 4.028-.702 5.664-.852 1.107-2.063 2.098-3.38 3.052 2.811.65 4.855-.152 7.279-1.22l-.755 1.835c-.981 2.388-2.534 4.138-4.452 5.48-1.74 1.218-3.78 2.095-5.963 2.807-.977 7.253-.661 13.02.603 17.596 1.276 4.62 3.523 8.027 6.38 10.525l.876.767c-1.765.996-2.944 1.315-4.914.982.222 2.123.708 4.026 1.58 5.603 1.495 2.702 3.68 3.632 6.358 4.648-1.647.948-3.07 1.797-5.036 1.983 2.227 4.065 3.683 8.006 4.507 11.844z" style="fill:#000;fill-rule:nonzero"/><path id="path16" d="M898.791-132.831a19.574 19.574 0 0 1 8.18.778c-4.83-5.467-12.007-14.125-16.094-19.966 4.855 4.014 15.412 17.084 17.088 16.649a15.843 15.843 0 0 1-.366-3.227 16.206 16.206 0 0 1 1.412-6.77l-.25-.721-30.99-28.883c-.828-.772-1.369-1.376-1.724-2.513a4.572 4.572 0 0 1-.204-1.759c.005-.055.166-2.928-.298-2.981-.675.243-1.18 1.359-1.257 1.593-1.976 5.883-2.602 10.46-2.247 14.088.347 3.536 1.64 6.167 3.522 8.231l.01.013c4.143 4.736 8.206 9.34 12.316 13.861a448.576 448.576 0 0 0 10.902 11.607zm-1.9 3.858a272.641 272.641 0 0 1-15.618-9.917 324.127 324.127 0 0 1-16.047-11.707c-.677-.527-1.278-1.472-1.636-2.24-.396-.848-.683-1.86-.841-3.062-.126-.676-.31-1.02-.495-1.148-.102-.07-.214.11-.223.194-2.162 19.894 1.663 22.74 5.967 25.943 9.696 7.001 20.914 13.771 31.553 19.767 1.734-.478 3.725-.742 6.012-.76l-.044-.085c-1.67-1.181-3.16-2.532-4.413-4.104l-1.348-.891c-5.059-3.695-8.934-6.65-14.475-10.929 4.695 2.46 9.796 5.5 12.938 6.692-.827-2.243-1.295-4.804-1.33-7.753zm-1.15 19.447c-9.07-1.857-18.076-4.503-27.082-7.15-3.334-.98-7.145-1.686-9.776-4.083-1.094-.997-2.202-2.43-2.811-3.785-.13-.315-.87-1.966-1.154-.844a2.143 2.143 0 0 0-.06.46c-.171 6.538.872 11.574 3.027 15.234 2.117 3.598 5.335 5.888 9.548 6.991l.049.013c7.576 2.47 15.14 4.47 22.697 6.146 3.324.738 6.649 1.413 9.974 2.038-.367-.109-.728-.23-1.084-.362-2.54-.947-4.77-2.502-6.503-5.031-4.07-4.024-13.052-5.561-20.087-7.728 8.077 1.575 13.99 2.736 18.723 2.73h.04c1.092-1.868 2.55-3.445 4.498-4.629zm2.435 17.932c-3.73.106-7.478.194-11.26.247-7.097.1-14.282.074-21.634-.194-4.758-.02-6.673-1.677-8.611-3.355-.594-.514-1.091-1.192-1.653-1.657-.47-.388-.626-.384-.554.24 1.7 6.92 4.314 11.7 7.668 14.745 3.315 3.01 7.387 4.336 12.039 4.37h.029c8.156.347 16.244.563 24.227.584.855.002 1.708.002 2.56 0-3.08-.854-6.097-2.626-9.027-5.676-4.778-.66-11.58-.935-18.242-1.486 6.203-.344 13.439-.473 18.466-1.243 1.438-2.673 3.403-4.893 5.992-6.575zm9.189 17.596c-5 1.489-10.06 2.864-15.161 4.159-8.662 2.198-16.854 4.554-25.723 5.93-3.16.491-5.871-.293-8.52-2.076-.323-.251-.64-.583-1.072-.621-.353-.03-.296.363-.232.612 3.292 5.645 6.173 9.938 10.091 12.369 3.91 2.424 8.956 3.048 16.655 1.395l.042-.007A149.065 149.065 0 0 0 907-58.003c1.87-.625 3.705-1.279 5.504-1.96-2.787-.207-5.78-1.33-9.392-3.426-2.855.422-9.535 2.045-18.662 3.129 11.815-2.951 15.154-4.253 17.742-6.352l.44-.193a21.952 21.952 0 0 1 4.733-7.193zm9.237 17.115a474.625 474.625 0 0 1-14.892 9.098 407.626 407.626 0 0 1-22.774 12.409c-1.836.925-3.57 1.394-5.228 1.506-1.666.111-3.257-.136-4.8-.645-.211-.083-1.59-.686-1.544-.3.04.359.315.827.769 1.247 4.3 3.97 8.697 6.68 13.206 7.932 4.465 1.24 9.064 1.052 13.814-.758 8.996-4.26 17.026-8.687 23.818-13.372 3.663-2.527 6.966-5.129 9.866-7.82-.671.302-1.355.553-2.05.753-2.725.784-5.617.785-8.67.033l-.317.027c-3.923 2.186-8.083 3.924-16.798 8.274 7.737-4.438 11.376-7.318 13.93-9.704l-.005-.175c-.08-3.147.42-5.844 1.675-8.505zm28.25 7.409c-3.646-4.58-6.321-9.615-7.82-15.2-1.603-5.973-1.857-12.567-.515-19.896-1.38-4.715-1.354-9.37-.114-13.971-1.765.535-3.941.52-5.693.52-4.39.028-6.987-.324-8.663-1.274-1.864-1.058-2.678-3.069-3.002-5.088l-.7-6.298h.001c-.476-3.58 2.39-4.895 5.256-6.209.7-.315 1.391-.941 1.752-1.626.382-.724.42-1.429.42-2.229v-10.69c.05-2.211-.303-3.448-1.75-5.178-1.543-1.843-3.832-2.795-5.56-4.44-1.528-1.453-2.45-3.241-2.785-5.353-.234-1.474-.18-3.099.157-4.87-1.84 1.423-3.253 3.004-4.29 4.66-1.623 2.59-2.322 5.368-2.294 8.006.028 2.632.776 5.122 2.05 7.144a11.237 11.237 0 0 0 2.513 2.83c1.39.95.536 2.535-1.02 1.3-2.114-1.433-4.297-2.54-6.575-3.22a17.764 17.764 0 0 0-7.618-.586c-.297 5.048.63 8.949 2.432 12.032 1.878 3.214 4.72 5.574 8.118 7.44.327.406.098 1.614-.465 1.55-4.725-.39-8.263.143-10.907 1.373-2.467 1.147-4.172 2.914-5.353 5.108 1.634 3.959 4.176 6.094 7.217 7.228 3.042 1.134 6.64 1.296 10.348 1.265 1.342-.01.83 1.628-.02 1.688-4.44.31-7.966 1.393-10.717 3.13-2.706 1.708-4.68 4.064-6.051 6.951 3.881 4.016 7.898 5.599 11.995 5.735 3.626.121 7.347-.876 11.106-2.328 2.919-1.286 3.497.412.628 1.523-3.354 1.482-6.058 3.291-8.181 5.392-2.369 2.344-4.019 5.061-5.045 8.101 4.547 2.674 7.982 3.722 11.199 3.279 3.261-.45 6.407-2.44 10.343-5.829.927-.798 1.573.81 1.029 1.316-3.601 3.353-6.058 6.136-7.596 8.874-1.48 2.633-2.113 5.25-2.11 8.337 3.5 1.22 6.758 1.42 9.762.556 3.157-.909 6.067-3.007 8.716-6.351l1.162-1.409c.5-.44 1.203-.027 1.005.565l-.81 1.78a98.903 98.903 0 0 0-1.712 2.949c-.27.487-.529.973-.776 1.459 3.252-.725 6.963-.62 10.933-.046zm-3.828 19.591.21-.46c-.07.155-.141.307-.212.46-.319-.276-1.333.919-2.853 4.094l-.445.932c-3.264 6.592-6.652 12.242-10.6 16.154-4.074 4.039-8.776 6.219-14.62 5.647 7.571-2.96 12.178-12.875 16.85-22.935 1.386-2.983 2.778-5.979 4.25-8.795.916-1.753.063-3.322-1.263-1.514-1.664 2.27-3.163 4.976-4.702 7.756-4.748 8.575-9.906 17.886-21.355 15.876 3.36-1.943 6.363-5.327 9.198-9.593 3.384-5.092 6.534-11.432 9.782-18.065l.013-.032c1.766-4.027 4.59-6.231 8.112-7.233a18.147 18.147 0 0 1 3.335-.6c1.578-.142 3.256-.123 5.01.02h-.002c1.262.103 2.564.27 3.895.486.296 3.621 1.108 7.123 2.362 10.52 1.109 3.003 2.563 5.923 4.313 8.773l.564 1.638c-3.828 4.43-7.325 9.234-9.906 15.07-2.41 5.45-4.017 11.79-4.342 19.544-8.629-12.24-4.924-20.46.767-32.361 1.513-3.075 1.98-5.08 1.639-5.382zm14.86 12.652c-1.817 9.779-4.592 18.22-8.685 24.816-4.446 7.168-10.434 12.156-18.413 14.329 6.268 3.731 14.449 3.765 21.522 3.658 3.252-6.11 5.557-12.84 7.006-20.054-1.825 3.072-4.153 6.278-7.571 8.453 4.23-5.456 7.467-12.97 9.007-19.643.412-1.785.36-3.81.413-5.641v-.016a31.4 31.4 0 0 1-3.28-5.902zm27.158 24.816C978.77.7 975.935-8.192 974.126-18.519c-.967 2.735-2.181 5.225-3.645 7.47-.01 1.892.087 3.312.495 5.148 1.468 6.596 4.92 14.094 8.613 19.794-2.367-1.731-5.513-6.093-7.602-9.243 1.399 7.153 3.782 14.305 7.2 20.91 7.282.132 15.8.204 22.268-3.646-7.979-2.173-13.967-7.161-18.413-14.329zm-22.3-16.853c-.696 15.161-4.377 28.892-11.673 40.21-6.81 10.566-16.758 19.014-30.351 24.55a28.03 28.03 0 0 0 6.534 3.722c3.06 1.245 6.7 2.153 11.133 2.595v-.005c2.477.21 4.334-.247 5.889-1.202 1.59-.976 2.917-2.498 4.282-4.373 2.604-3.58 5-7.2 7.16-10.864 1.104-2.731 2.436-5.521 3.788-8.351 2.658-5.567 5.392-11.291 6.515-16.912l1.244-6.223.35 5.643.193 1.29a55.418 55.418 0 0 0 3.878 13.69c.934 1.838 1.945 3.56 2.936 5.25 1.084 1.845 2.146 3.654 3.07 5.533 2.833 4.09 6.064 7.832 9.495 11.523 3.303 3.554 5.825 6.268 11.237 4.518l.01-.003c2.555-.789 5.016-1.733 7.408-2.915a42.227 42.227 0 0 0 5.697-3.393c-12.75-4.341-22.343-13.1-29.006-23.76-7.574-12.12-11.356-26.704-11.681-40.034-1.14 1.443-2.402 2.718-3.751 3.96-1.553-1.398-3.024-2.837-4.358-4.449zm2.157 38.394c-1.179 2.893-2.551 5.765-3.904 8.598-3.448 7.22-6.77 14.176-6.273 20.283a39.075 39.075 0 0 0 4.128 14.522c2.123 4.153 5.003 7.897 8.557 10.85 3.002-2.1 5.605-5.825 7.584-10.01 2.452-5.182 3.93-11.036 4.034-15.398.172-7.17-2.734-12.121-5.825-17.387-1.844-3.14-3.75-6.39-5.15-10.271-.261 7.58-.24 12.944-1.02 21.731-1.083-9.238-.54-14.542-2.131-22.918zm33.64-62.797c1.235 2.441 2.42 4.992 3.6 7.533 4.672 10.06 9.28 19.975 16.85 22.934-5.843.572-10.546-1.608-14.62-5.646-3.947-3.913-7.336-9.563-10.6-16.155l-.445-.931c-1.623-3.391-2.603-4.515-2.875-4.144l-.19-.41.189.412c-.291.402.235 2.532 1.66 5.43 5.692 11.9 9.396 20.12.768 32.36-.326-7.754-1.932-14.093-4.343-19.544-2.58-5.835-6.078-10.639-9.906-15.07l.605-1.753c1.933-2.627 3.474-5.64 4.624-9.04 1.04-3.076 1.76-6.463 2.16-10.162 4.495-.718 8.638-.864 12.088.118 3.522 1.002 6.346 3.207 8.113 7.233l.013.033c3.247 6.632 6.397 12.973 9.781 18.064 2.825 4.251 5.816 7.626 9.162 9.572-12.517 1.9-19.427-11.2-23.696-19.299a131.65 131.65 0 0 0-1.533-2.853c-1.023-1.826-1.744-2.307-2.048-1.976-.488.53.343 2.702.643 3.294zm13.078-23.345c5.027 3.201 10.06 6.28 15.1 9.231a407.582 407.582 0 0 0 22.775 12.409c1.835.925 3.569 1.394 5.228 1.506 1.426.095 3.566-.084 4.881-.677 1.514-.688 2.063-.286.694.979-4.3 3.97-8.697 6.68-13.206 7.932-4.465 1.24-9.064 1.052-13.814-.758-8.997-4.26-17.026-8.687-23.818-13.372-.537-.371-1.067-.744-1.589-1.118l-.153-.313-.001.001c-1.682-3.813-4.212-6.174-7.35-7.498a57.611 57.611 0 0 0-.258-.533c.605.424 1.24.798 1.908 1.123 2.454 1.19 5.32 1.683 8.67 1.362 3.906 2.172 8.068 3.914 16.742 8.243-8.689-4.984-12.21-8.002-14.828-10.564.065-2.833-.241-5.494-.98-7.953zm10.195-16.76a387.723 387.723 0 0 0 14.412 3.937c8.374 2.125 16.862 4.035 25.387 5.875l.029.003c1.885.34 3.504.23 4.951-.165 1.437-.392 2.696-1.065 3.877-1.859.321-.251.638-.583 1.07-.621.355-.03.294.374.233.612-3.293 5.645-6.174 9.938-10.091 12.369-3.91 2.424-8.956 3.048-16.655 1.395l-.042-.007a149.065 149.065 0 0 1-23.556-5.766 147.706 147.706 0 0 1-6.516-2.347c3.295.296 7.053-.3 11.446-2.117 2.93.454 9.541 2.042 18.521 3.108-11.768-2.94-15.127-4.243-17.711-6.327-1.078-3.056-2.789-5.603-4.996-7.75a22.855 22.855 0 0 0-.359-.34zm6.256-17.882c4.451.134 8.923.248 13.443.311 7.098.1 14.283.074 21.635-.194 4.757-.02 6.673-1.677 8.611-3.355.607-.525 1.017-1.055 1.567-1.6.37-.366.725-.554.64.184-1.7 6.918-4.314 11.698-7.668 14.744-3.315 3.01-7.388 4.336-12.039 4.37h-.029c-8.157.347-16.244.563-24.227.584-.55.001-1.1.002-1.65.001 2.713-.883 5.448-2.47 8.212-5.003l.46-.42-.154-.308c4.754-.621 11.362-.896 17.84-1.432-6.631-.368-14.444-.49-19.476-1.412a19.811 19.811 0 0 0-5.594-5.528 22.202 22.202 0 0 0-1.571-.942zm4.33-17.81c9.167-1.859 18.269-4.533 27.37-7.208 1.872-.55 3.755-1.103 5.187-1.519l.016-.003c1.903-.594 3.385-1.478 4.574-2.56 1.498-1.366 2.165-2.808 3.151-4.467.294-.493.678-.9.836-.06.02.107.033.226.037.357.172 6.538-.872 11.574-3.026 15.234-2.117 3.598-5.335 5.888-9.549 6.991l-.048.013c-7.576 2.47-15.14 4.47-22.697 6.146-1.75.388-3.498.759-5.248 1.114 2.805-1.394 5.322-3.524 7.4-6.777 4.607-2.61 11.624-3.957 17.35-5.72-8.078 1.575-13.991 2.735-18.724 2.73h-.03c-2.088-1.878-4.293-3.28-6.598-4.27zm-11.7-37.582 30.718-28.63c.43-.492.77-1.18.965-1.804a4.573 4.573 0 0 0 .203-1.759c-.083-1.03-.062-1.766.03-2.266.29-1.581 1.31.177 1.516.856l.01.022c1.976 5.883 2.602 10.46 2.246 14.088-.346 3.536-1.638 6.167-3.521 8.231l-.01.013c-4.143 4.736-8.206 9.34-12.317 13.861-4.043 4.447-8.078 8.753-12.193 12.924-.619.28-1.243.561-1.871.843-.624.121-1.237.271-1.84.45-2.178.64-4.224 1.642-6.218 2.944.424-.953.825-1.921 1.192-2.895 4.726-5.223 13.417-15.379 17.943-21.847-4.344 3.592-13.252 14.432-16.28 16.363.5-2.264.732-4.49.584-6.586-.12-1.705-.487-3.323-1.157-4.808zm13.707 16.368a277.54 277.54 0 0 0 12.75-8.208 321.068 321.068 0 0 0 14.029-10.152c1.512-1.157 2.815-1.995 3.654-3.794.577-1.117.893-3.376 1.103-3.962.08-.219.376-.417.456-.055l.003.027c2.155 19.87-1.668 22.714-5.97 25.916-.518.385-1.043.775-1.573 1.203l-.176.116c-10.144 6.675-20.317 13.368-30.449 18.796-.928-.201-1.87-.345-2.822-.437 2.427-2.066 4.66-4.29 6.434-6.88.12-.175.239-.352.355-.532l1.576-1.042c5.06-3.696 8.934-6.65 14.475-10.929-4.954 2.595-10.36 5.838-13.44 6.872a2.15 2.15 0 0 0-.152.025c.607-1.818.999-3.797 1.124-5.978l.04-.715c-.472-.093-.943-.19-1.417-.27zM995.692-98.67a7.125 7.125 0 0 1-.412-.111c.752 4.683.58 9.21-.26 13.622l-.127.665-.674.01a5.788 5.788 0 0 1-.78-.04c.778 7.127.38 13.393-1.101 18.868-1.548 5.722-4.272 10.58-8.064 14.656a65.02 65.02 0 0 1-.09 1.34l.534.027c4.178-.598 8.068-.673 11.435.196-.29-.563-.591-1.126-.902-1.691-.499-.909-1.02-1.818-1.553-2.726-.751-1.281.857-1.705 1.595-.625 1.49 2.179 3.282 3.843 5.438 4.89 2.276 1.103 4.98 1.531 8.188 1.163.152-3.425-.244-6.567-1.305-9.365-.947-2.498-2.428-4.736-4.526-6.673a25.94 25.94 0 0 1-.806-.668c-.658-.568.088-2.11 1.138-1.233.241.202.476.407.704.615 2.275 1.804 4.805 3.114 7.756 3.606 3.358.56 7.294.07 12.068-1.94-.95-3.281-2.652-5.957-4.927-8.17-2.243-2.18-5.055-3.924-8.265-5.36-1.49-.667-.92-2.14.566-1.61 3.503 1.248 7.015 2.07 10.551 1.812 3.636-.266 7.326-1.691 11.103-5.004-1.668-3.118-3.809-5.312-6.248-6.918-2.608-1.717-6.73-3.02-9.832-3.82-1.364-.171-1.782-1.446.124-1.688 3.766-.101 8.637-.17 11.898-1.467 3.056-1.214 5.798-3.255 8.016-6.675-2.258-2.26-4.662-3.885-7.189-4.969-2.69-1.154-5.534-1.697-8.5-1.745-1.578.071-1.438-.795-.504-1.47 2.945-2.364 5.687-4.874 7.74-7.873 1.915-2.795 3.242-6.037 3.594-10.022-3.33-.562-6.262-.377-8.977.423-2.923.862-5.62 2.443-8.301 4.574-1.666 1.044-2.083.705-1.25-1.017 2.778-5.495 5.028-11.755 4.655-17.043-.238-3.374-1.572-6.357-4.577-8.477.753 3.706.204 6.54-1.101 8.87-1.199 2.137-3.018 3.801-5.041 5.31-1.217.909-3.02 1.669-3.883 2.84-.496.676-.803 1.497-.938 2.452l-.374 8.557-.007.042c-.111 1.15.115 2.068.604 2.807.496.75 1.275 1.344 2.258 1.828 1.241.448 2.29 1.143 3.027 2.228.729 1.071 1.133 2.497 1.091 4.41l-.075 7.271v.051l-.01.062c-.264 1.794-1.224 3.093-2.768 3.976-1.434.82-3.368 1.257-5.707 1.384v.001c-1.82.145-3.564.192-5.01-.156zM949.94-171.56c-1.492 1.6-2.262 4.156-1.958 8.155.4.027.778.071 1.135.134 1.636-7.513 8.203-8.077 16.589-6.415 3.56.706 7.44 1.814 11.402 2.944 3.124.892 6.3 1.799 9.358 2.521 1.6-1.109 3.124-2.23 4.056-3.44.764-.992 1.123-2.076.753-3.327-6.849 1.607-13.187.143-19.503-1.316-4.95-1.144-9.887-2.284-14.973-1.865-2.854.235-5.292.925-6.86 2.609zm23.188 26.362c4.091 5.03 5.17 9.197 5.17 14.02 2.642 2.533 5.938 4.537 11.078 4.832-2.577-2.587-4.601-5.952-5.807-10.318-1.324-4.79-1.658-10.787-.645-18.284-7.496-4.043-13.896-6.845-18.969-8.147.391 1.242.146 2.402-.48 3.369-.738 1.137-2.027 1.974-3.405 2.316-1.405.35-2.927.194-4.097-.665-1.183-.868-1.978-2.419-1.875-4.838a5.004 5.004 0 0 0-1.516 1.432c.184.208.352.432.504.672.972 1.534 1.25 3.678 1.084 6.416 4.87 2.894 7.182 6.018 7.735 9.3.56 3.322-.702 6.72-2.948 10.158-.584 5.048-1.99 9.856-4.62 13.472-1.648 2.266-3.766 4.061-6.45 5.158.44.04.88.072 1.321.092l-.008.01c3.333.206 6.349-.023 9.07-.666 2.975-.702 5.596-1.9 7.895-3.564a20.56 20.56 0 0 1-.372-1.01c-.981-2.888-1.371-5.265-1.204-8.626.06-1.197-.193-2.253 1.033-2.142 1.115.1.694 1.274.644 2.325-.148 3.13.184 5.245 1.09 7.914.931 2.745 2.476 5.233 4.736 7.42 2.473-5.056 4.317-10.113 4.521-15.167.209-5.156-.6-9.436-4.912-14.681-.56-.682-1.052-1.48-.436-2.007.736-.63 1.354.583 1.863 1.209zm-25.328 30.54c-4.363 4.862-7.531 9.758-9.234 14.697-1.593 4.62-1.905 9.289-.714 14.016 5.233-3.31 9.503-7.182 12.504-11.792 3.104-4.769 4.859-10.35 4.924-16.946a31.45 31.45 0 0 1-1.285.117c-1.885 1.503-4.047 3.595-5.624 5.925-1.165 1.72-2.958 3.573-4.946 8.215 1.003-4.962 3.282-7.744 4.136-9.005 1.288-1.903 2.548-3.623 3.976-5.05-1.203 0-2.449-.058-3.737-.177zm-9.682 30.49c-1.274 7.034-1.025 13.353.508 19.068 1.492 5.56 4.204 10.558 7.916 15.095 2.02-1.795 3.795-3.892 5.175-6.482 1.444-2.711 2.46-5.985 2.878-10.047-2.877-2.352-5.195-5.396-6.838-9.276-1.382-3.266-2.28-7.12-2.624-11.645a24.351 24.351 0 0 0-1.779 7.465c-.154 2.011-.502 4.219-.271 10.568-1.47-6.6-1.09-8.877-.963-10.55.217-2.842.61-5.58 1.516-8.072a53.522 53.522 0 0 1-5.518 3.877zm9.114 35.75c.238 3.688 1.035 7.244 2.306 10.686 1.242 3.366 2.936 6.626 5.002 9.8 2.319-2.039 4.308-4.352 5.876-7.015 1.554-2.642 2.703-5.635 3.357-9.054-2.489-1.274-4.484-3.675-5.983-7.204-.947-2.228-1.7-4.912-2.259-8.05-.833 2.212-1.436 4.564-1.589 7.06-.12 1.98-.202 3.94.234 9.632-1.832-7.02-1.492-8.602-1.398-10.15.06-.959.136-1.862.247-2.733-1.554 2.832-3.544 5.099-5.793 7.028zm7.986 22.081c.419 3.67 1.425 7.138 3.077 10.381 1.62 3.185 3.866 6.156 6.789 8.894 5.017-4.875 8.185-11.625 9.504-20.248-2.954-1.81-5.4-4.065-7.185-6.892a19.858 19.858 0 0 1-1.916-3.953l-.35 17.752-1.08-18.43a28.56 28.56 0 0 1-2.22 4.718c-1.76 2.987-4.002 5.548-6.62 7.778zm20.062-2.483c2.125-2.673 3.796-5.808 5.012-9.404 1.256-3.713 2.028-7.925 2.314-12.636-2.644-1.548-4.687-3.608-6.147-6.166a6.357 6.357 0 0 1-.041-.074c.194 1.8.215 3.626.218 5.281.003 1.674-.242 4.094-1.361 8.328.038-3.656.427-6.596.337-8.258-.004-2.168-.44-4.7-1.046-7-.561 3.117-1.4 5.61-2.44 7.65-1.676 3.286-3.854 5.391-6.228 7.038.332 3.548 1.339 6.507 2.9 8.98 1.608 2.547 3.813 4.597 6.482 6.261zm8.012-23.549c3.49-3.825 6.005-8.372 7.45-13.712 1.482-5.483 1.84-11.802.97-19.033a35.341 35.341 0 0 1-6.433-4.333c.543 2.929.737 5.92 1.116 9.185.192 1.655.491 4.797-.125 10.788-.545-6.647-.813-8.413-1.026-10.251a98.514 98.514 0 0 0-1.103-7.052c-.42 3.305-1.143 6.477-2.196 9.458-1.478 4.184-3.604 7.989-6.447 11.254.296 3.19 1.088 5.936 2.395 8.225 1.286 2.254 3.08 4.082 5.399 5.471zm-9.643-13.71c-2.55-1.86-4.63-4.446-6.163-7.868-.685-1.528-1.261-3.222-1.722-5.092l-1.161 22.198-.254-22.666a32.129 32.129 0 0 1-1.702 4.415c-1.657 3.5-3.821 6.412-6.254 9.013l-.046.05c.49 5.964 1.478 10.691 2.96 14.178 1.403 3.3 3.241 5.475 5.514 6.523 2.231-1.527 4.277-3.471 5.832-6.52 1.644-3.225 2.757-7.7 2.996-14.23zm-9.596-20.31c-3.704-3.99-6.082-8.355-7.394-13.025a33.057 33.057 0 0 1-.84-3.894c-.897 2.993-1.433 6.063-1.512 9.186-.052 2.08-.295 6.972.288 11.884-2.076-6.397-1.497-10.104-1.452-11.923.05-1.967.153-3.916.408-5.844a31.817 31.817 0 0 1-1.813 3.166c-1.437 2.209-3.148 4.251-5.1 6.146.102 5.734 1.023 10.43 2.637 14.244 1.54 3.64 3.719 6.49 6.422 8.684 2.123-2.35 4.004-4.96 5.458-8.031 1.423-3.007 2.446-6.473 2.898-10.593zm18.832-5.29a37.565 37.565 0 0 1-4.063-4.958 43.825 43.825 0 0 1-2.552-4.207c.12 1.17.187 2.411.234 3.683.07 1.896-.36 9.16-1.615 14.236-.099-5.957.322-12.02.242-14.178-.105-2.797-.733-6.034-1.584-8.22a32.3 32.3 0 0 1-1.233 7.695c-1.258 4.353-3.373 8.155-5.993 11.632.4 4.58 1.31 8.343 2.67 11.378 1.392 3.106 3.26 5.455 5.54 7.144 2.564-3.031 4.497-6.542 5.858-10.394 1.499-4.243 2.305-8.908 2.496-13.81zm10.642 5.5c.704-4.077.806-8.254.086-12.564-.743-4.455-2.365-9.061-5.105-13.86-1.841-.338-3.804-1.254-5.74-2.5a50.418 50.418 0 0 1 2.099 3.61c.859 1.623 2.184 3.563 3.727 10.34-2.073-4.711-3.883-7.97-4.767-9.642-1.565-2.958-3.898-5.802-6.093-8.258a49.803 49.803 0 0 1-1.379-1.318c-.858 2.453-1.953 4.899-3.176 7.34 1.678 5.684 3.887 10.938 7 15.458 2.53 3.674 5.664 6.869 9.607 9.421.974.63 2.624 1.799 3.741 1.974zm-26.674-32.722c-.465.326-.94.634-1.429.924l-.821 15.636-.755-14.778c-2.03 1.004-4.2 1.698-6.422 2.116-.684 5.325-.51 10.403.822 15.144 1.217 4.333 3.407 8.394 6.802 12.119l.529-.029c2.244-3.117 4.05-6.503 5.153-10.318 1.234-4.27 1.59-9.19.703-14.807-.862-.549-4.006-4.463-4.582-6.007zm24.649 4.434c-1.713-.99-2.968-2.338-3.869-3.965-1.065-1.926-1.616-4.223-1.832-6.761a14.718 14.718 0 0 1-4.61-1.716c-.999-.576-1.964-1.28-2.958-2.123-.15 2.309-.614 4.607-1.303 6.898 1.984 2.036 4.194 3.987 6.573 5.54 2.463 1.61 5.021 2.957 7.999 2.127zm-35.69-49.156c-.282 2.248.258 3.573 1.136 4.218.745.546 1.763.633 2.728.393.993-.246 1.909-.83 2.416-1.612.51-.786.577-1.815-.196-2.93a21.431 21.431 0 0 0-2.572-.331c-.314.523-.49 1.046-.533 1.567-.048.587.075 1.177.363 1.767l.254.52-.549-.184c-.614-.205-1.173-.494-1.507-1.115-.293-.544-.398-1.332-.187-2.53-.48.049-.93.127-1.353.237zm-5.105.81c.206.088.4.184.586.29 2.118-2.964 6.098-3.685 11.655-2.503 5.49 1.166 12.604 4.21 21.038 8.776 2.056-.668 3.97-1.484 5.583-2.612 1.185-.83 2.208-1.83 3.004-3.071-.686.141-1.38.212-2.084.212-3.805-.092-9.833-2.395-13.833-3.432-3.93-1.122-7.78-2.221-11.266-2.912-7.506-1.488-13.354-1.08-14.683 5.253z" style="fill:#fff"/><path id="path2195" d="M963.323 8.236c.308-.98.48-2.35 1.765-2.357.386-.002.743.144 1.065.436v.003c1.553 1.846 2.62 9.316 3.999 12.26 1.964 5.805 4.654 10.976 7.454 16.383-6-6.99-7.363-14.936-11.224-22.128-.424-.79-1.72-.932-2.316.22-3.99 7.705-6.253 16.023-13.059 23.63 5.47-7.318 8.8-17.283 12.316-28.447z" style="fill:#000;fill-rule:nonzero"/><path id="path2197" d="M917.84 39.54c-.463 1.125-1.231 2.085-2.075 2.95.983.212 1.748.113 2.448-.315.685-.418 1.361-1.145 2.133-2.188-.75.156-1.443.048-2.506-.447zm-21.865 3.778c1.936 2.324 4.55 2.236 7.185 1.226-1.073-.665-2.203-1.479-2.912-2.544-1.28.847-2.733 1.34-4.273 1.318zm-16.967-12.657c.28 2.27 1.259 3.923 3.444 4.805a10.02 10.02 0 0 1 .262-3.084c-1.406-.197-2.691-.723-3.706-1.72zM876.39 9.38c-1.736 1.58-2.135 3.453-1.412 5.675.779-.797 1.673-1.457 2.702-1.896-.82-1.115-1.304-2.387-1.29-3.779zm136.183 30.747c-1.098.436-1.91.396-2.742.116 1.201 1.59 2.6 3.17 4.798 2.829-.838-.864-1.599-1.822-2.056-2.945zm21.876 3.805c-1.54.021-2.993-.47-4.272-1.318-.71 1.065-1.84 1.878-2.913 2.544 2.636 1.01 5.249 1.098 7.185-1.226zm16.978-12.427c-1.035.925-2.351 1.339-3.713 1.502.252 1.011.325 2.05.257 3.088 2.318-.766 3.31-2.246 3.456-4.59zm2.608-21.27c.007 1.324-.488 2.495-1.28 3.542 1.025.439 1.917 1.098 2.694 1.893.87-2.184.414-3.915-1.414-5.435zm-31.736-.417L1014.71-.435c-3.546-.122-6.974-1.787-10.068-4.047-2.49-1.819-4.767-4.028-6.702-6.11.074.832.204 1.762.334 2.693.24 1.727.482 3.455.394 4.739l20.7 19.292.002-.002c.03.028.105.098.219.21.876.85 1.345 1.73 1.406 2.639.178 2.663-3.587 4.79-5.396 6.204-4.378 3.425-7.545 5.903-8.638 9.537l-.01.029c-.308.908.16 1.735.962 2.312 1.267.913 3.335 1.253 4.736.452.992-.567 1.644-1.775 1.396-3.855l-.046-.384.269-.281 8.892-9.298c.604-.517 1.492-.85 2.237-.408.481.285.727.785.91 1.342h.001l4.15 10.814.088.229-.056.246c-.54 2.39.241 4.057 1.446 4.954 1.193.89 3.21 1.21 4.363.066.721-.717 1.014-2.011.399-3.949l-7.472-13.515-.698-1.264.602-.352 1.126.454 12.12 4.879.289.116.141.278c1.12 2.205 3.044 2.979 4.805 2.844 1.73-.132 4.012-1.34 3.878-3.367-.085-1.29-1.201-2.803-3.975-4.26l-15.772-3.603-1.476-.337-.182-.772 1.603-.486 12.384-3.758.343-.104.309.178c2 1.155 3.886.784 5.2-.241 1.371-1.07 2.468-3.243 1.532-4.927-.602-1.082-2.071-1.877-4.729-1.863l-13.756 6.301c-1.665 1.016-3.254 1.43-4.767 1.245-1.395-.172-2.693-.846-3.893-2.023-.767-.753-1.372-1.73-2.012-2.595zM915.713-1.048l-9.176 12.398-.03.04-.025.027c-1.302 1.414-2.722 2.216-4.262 2.405-1.513.186-3.103-.229-4.767-1.245l-13.756-6.3c-2.658-.014-4.127.78-4.73 1.863-.935 1.683.162 3.856 1.533 4.926 1.314 1.025 3.2 1.396 5.2.241l.31-.178.342.104 12.384 3.758 1.185.36.127.385.166.5-1.533.35-15.772 3.604c-2.774 1.456-3.89 2.97-3.975 4.26-.134 2.026 2.148 3.234 3.877 3.366 1.762.135 3.686-.638 4.806-2.844l.141-.278.288-.116 12.12-4.88 1.196-.48.456.52-.621 1.123-7.472 13.516c-.615 1.937-.322 3.231.4 3.948 1.152 1.145 3.17.824 4.362-.065 1.205-.898 1.986-2.564 1.446-4.955l-.056-.246.088-.229 4.15-10.813c.184-.558.43-1.057.91-1.343.544-.322 1.213-.308 2.102.292l.069.047.066.07 8.893 9.297.269.28-.046.385c-.248 2.08.404 3.288 1.396 3.855 1.4.8 3.469.462 4.736-.452 1.208-.87 1.192-1.79.723-3.01-1.265-3.278-4.305-5.657-8.41-8.868-1.291-1.01-2.683-2.1-4.073-3.25l-.027-.022-.038-.04-.175-.182c-.784-.874-1.145-1.778-1.082-2.71.06-.91.53-1.79 1.406-2.64.114-.11.188-.181.22-.209l.001.002L931.75-3.768c-.117-1.24-.038-2.846.04-4.451.045-.915.09-1.83.1-2.652-1.904 2.076-4.068 4.234-6.458 5.995-2.925 2.156-6.184 3.715-9.718 3.828zm36.382-144.996c.712.576 1.5 1.368 1.707 2.292-3.793-.92-8.773-2.05-12.595-1.941-3.158.089-7.17.055-10.043-.717-2.696-.724-3.518-1.91-5.328-3.718 3.27 1.51 6.247 2.047 10.08 1.926.704-.009 1.656-.017 2.358-.008 6.71.084 11.43.607 13.821 2.166zm5.865 9.603c1.79-2.898 2.769-5.713 2.319-8.381-.489-2.896-2.683-5.71-7.382-8.402l-.457-.261.041-.52c.207-2.643.024-4.635-.79-5.919-.723-1.141-2.028-1.766-4.115-1.847-2.807-.106-6.162-.293-8.918.013-3.96.44-4.103 3.612-4.245 6.783-.012.26-.023.519-.036.773 1.215-1.022 2.653-2.21 4.327-2.304.862-.048 1.926-.102 2.965-.05 1.106.057 2.183.236 2.985.672 2.453 1.33 2.722 3.174 2.991 5.019.053.363.107.727.18 1.078 3.56.897 6.813 2.698 7.961 6.395.553 1.78.122 2.604-1.669 1.655-1.705-.903-3.75-1.452-6.015-1.77-2.456-.343-5.181-.416-8.024-.37-.106 1.022.697 1.464 1.526 1.832 1.963.872 3.27.936 4.626 1.002 2.51.122 5.18.253 11.73 4.602z" style="fill:#e6b012"/></g></svg>