<svg xmlns="http://www.w3.org/2000/svg" xml:space="preserve" image-rendering="optimizeQuality" shape-rendering="geometricPrecision" text-rendering="geometricPrecision" viewBox="0 0 283.5 283.5"><style>.st0,.st1{fill-rule:evenodd;clip-rule:evenodd;fill:#007cc3}.st1{fill:#fdee23}.st2,.st3{fill:red}.st3,.st5,.st8{fill-rule:evenodd;clip-rule:evenodd}.st8{fill:#ff0974}</style><circle cx="141.7" cy="141.7" r="141.7" class="st0"/><circle cx="141.7" cy="141.7" r="136.1" class="st1"/><circle cx="141.7" cy="141.7" r="132.7" class="st0"/><circle cx="141.7" cy="141.7" r="120.6" class="st1"/><circle cx="141.7" cy="141.7" r="93.62" class="st0"/><circle cx="268.4" cy="141.7" r="2.934" class="st1"/><circle cx="268" cy="131.8" r="2.934" class="st1"/><circle cx="266.9" cy="121.9" r="2.934" class="st1"/><circle cx="264.9" cy="112.2" r="2.934" class="st1"/><circle cx="262.2" cy="102.6" r="2.934" class="st1"/><circle cx="258.8" cy="93.25" r="2.934" class="st1"/><circle cx="254.6" cy="84.22" r="2.934" class="st1"/><circle cx="249.8" cy="75.54" r="2.934" class="st1"/><circle cx="244.2" cy="67.27" r="2.934" class="st1"/><circle cx="238.2" cy="59.4" r="2.934" class="st1"/><circle cx="231.3" cy="52.15" r="2.934" class="st1"/><circle cx="224" cy="45.4" r="2.934" class="st1"/><circle cx="216.2" cy="39.24" r="2.934" class="st1"/><circle cx="207.9" cy="33.71" r="2.934" class="st1"/><circle cx="199.2" cy="28.85" r="2.934" class="st1"/><circle cx="190.2" cy="24.69" r="2.934" class="st1"/><circle cx="180.9" cy="21.24" r="2.934" class="st1"/><circle cx="171.3" cy="18.54" r="2.934" class="st1"/><circle cx="161.5" cy="16.6" r="2.934" class="st1"/><circle cx="151.7" cy="15.29" r="2.934" class="st1"/><circle cx="141.7" cy="15.04" r="2.934" class="st1"/><circle cx="131.8" cy="15.43" r="2.934" class="st1"/><circle cx="121.9" cy="16.6" r="2.934" class="st1"/><circle cx="112.2" cy="18.54" r="2.934" class="st1"/><circle cx="102.6" cy="21.24" r="2.934" class="st1"/><circle cx="93.25" cy="24.69" r="2.934" class="st1"/><circle cx="84.21" cy="28.85" r="2.934" class="st1"/><circle cx="75.53" cy="33.71" r="2.934" class="st1"/><circle cx="67.26" cy="39.24" r="2.934" class="st1"/><circle cx="59.4" cy="45.24" r="2.934" class="st1"/><circle cx="52.15" cy="52.15" r="2.934" class="st1"/><circle cx="45.39" cy="59.45" r="2.934" class="st1"/><circle cx="39.24" cy="67.27" r="2.934" class="st1"/><circle cx="33.71" cy="75.54" r="2.934" class="st1"/><circle cx="28.85" cy="84.22" r="2.934" class="st1"/><circle cx="24.68" cy="93.25" r="2.934" class="st1"/><circle cx="21.24" cy="102.6" r="2.934" class="st1"/><circle cx="18.54" cy="112.2" r="2.934" class="st1"/><circle cx="16.6" cy="121.9" r="2.934" class="st1"/><circle cx="15.28" cy="131.7" r="2.934" class="st1"/><circle cx="15.04" cy="141.7" r="2.934" class="st1"/><circle cx="15.43" cy="151.7" r="2.934" class="st1"/><circle cx="16.6" cy="161.6" r="2.934" class="st1"/><circle cx="18.54" cy="171.3" r="2.934" class="st1"/><circle cx="21.24" cy="180.9" r="2.934" class="st1"/><circle cx="24.68" cy="190.2" r="2.934" class="st1"/><circle cx="28.85" cy="199.2" r="2.934" class="st1"/><circle cx="33.71" cy="207.9" r="2.934" class="st1"/><circle cx="39.23" cy="216.2" r="2.934" class="st1"/><circle cx="45.24" cy="224.1" r="2.934" class="st1"/><circle cx="231.3" cy="231.3" r="2.934" class="st1"/><circle cx="238.1" cy="224" r="2.934" class="st1"/><circle cx="244.2" cy="216.2" r="2.934" class="st1"/><circle cx="249.8" cy="207.9" r="2.934" class="st1"/><circle cx="254.6" cy="199.2" r="2.934" class="st1"/><circle cx="258.8" cy="190.2" r="2.934" class="st1"/><circle cx="262.2" cy="180.9" r="2.934" class="st1"/><circle cx="264.9" cy="171.3" r="2.934" class="st1"/><circle cx="266.9" cy="161.6" r="2.934" class="st1"/><circle cx="268.2" cy="151.7" r="2.934" class="st1"/><circle cx="141.7" cy="268.4" r="2.934" class="st1"/><circle cx="151.7" cy="268" r="2.934" class="st1"/><circle cx="161.5" cy="266.9" r="2.934" class="st1"/><circle cx="171.3" cy="264.9" r="2.934" class="st1"/><circle cx="180.9" cy="262.2" r="2.934" class="st1"/><circle cx="190.2" cy="258.8" r="2.934" class="st1"/><circle cx="199.2" cy="254.6" r="2.934" class="st1"/><circle cx="207.9" cy="249.8" r="2.934" class="st1"/><circle cx="216.2" cy="244.2" r="2.934" class="st1"/><circle cx="224.1" cy="238.2" r="2.934" class="st1"/><circle cx="52.15" cy="231.3" r="2.934" class="st1"/><circle cx="59.45" cy="238.1" r="2.934" class="st1"/><circle cx="67.26" cy="244.2" r="2.934" class="st1"/><circle cx="75.53" cy="249.8" r="2.934" class="st1"/><circle cx="84.21" cy="254.6" r="2.934" class="st1"/><circle cx="93.25" cy="258.8" r="2.934" class="st1"/><circle cx="102.6" cy="262.2" r="2.934" class="st1"/><circle cx="112.2" cy="264.9" r="2.934" class="st1"/><circle cx="121.9" cy="266.9" r="2.934" class="st1"/><circle cx="131.7" cy="268.2" r="2.934" class="st1"/><path d="m244.1 106.4-4.987-10.35c-.893-1.854.795-3.2 1.818-3.238-.996-.941-2.516-.659-3.258-.075-.39-.617-1.284-1.737-2.11-2.047-.274.838.044 2.237.283 2.926-.92.216-2.087 1.227-1.974 2.593.668-.777 2.772-1.256 3.665.598l4.979 10.35zM247.2 116.8c.51 4.889 1.191 11.38 1.196 11.43.215 2.047 2.358 2.305 3.248 1.799-.353 1.324-1.794 1.882-2.732 1.776-.007.73-.18 2.153-.72 2.85-.673-.57-1.137-1.927-1.296-2.638-.896.3-2.42.053-3.042-1.169.976.31 3.019-.388 2.804-2.435-.004-.045-.688-6.539-1.205-11.43zM39.39 106.4l4.987-10.35c.893-1.854-.795-3.2-1.818-3.238.996-.941 2.516-.659 3.258-.075.39-.617 1.284-1.737 2.11-2.047.274.838-.044 2.237-.283 2.926.92.216 2.087 1.227 1.974 2.593-.668-.777-2.772-1.256-3.665.598l-4.979 10.35zM36.29 116.8c-.51 4.889-1.191 11.38-1.196 11.43-.215 2.047-2.358 2.305-3.248 1.799.353 1.324 1.794 1.882 2.732 1.776.007.73.18 2.153.72 2.85.673-.57 1.137-1.927 1.296-2.638.896.3 2.42.053 3.042-1.169-.976.31-3.019-.388-2.804-2.435.005-.045.688-6.539 1.205-11.43zM245.8 171.5c.791-4.851 1.844-11.29 1.852-11.34.332-2.031 2.487-2.165 3.346-1.609-.276-1.342-1.682-1.983-2.625-1.93.035-.728-.055-2.16-.554-2.887-.705.53-1.247 1.858-1.446 2.559-.877-.35-2.413-.192-3.104.991.993-.253 2.99.562 2.659 2.592-.007.045-1.063 6.488-1.86 11.34zM242.4 181.8c-2.386 4.297-5.553 10.01-5.575 10.05-.998 1.8.61 3.241 1.629 3.337-1.049.882-2.549.513-3.256-.113-.424.594-1.382 1.661-2.224 1.922-.225-.852.172-2.23.45-2.905-.905-.268-2.012-1.345-1.821-2.702.622.815 2.696 1.413 3.693-.386.022-.039 3.187-5.75 5.567-10.05zM37.63 171.5c-.791-4.851-1.844-11.29-1.852-11.34-.332-2.031-2.487-2.165-3.346-1.609.276-1.342 1.682-1.983 2.625-1.93-.035-.728.055-2.16.554-2.887.705.53 1.247 1.858 1.446 2.559.877-.35 2.413-.192 3.104.991-.993-.253-2.99.562-2.659 2.592.008.045 1.063 6.488 1.86 11.34zM41.04 181.8c2.386 4.297 5.553 10.01 5.575 10.05.998 1.8-.61 3.241-1.629 3.337 1.049.882 2.549.513 3.256-.113.424.594 1.382 1.661 2.224 1.922.225-.852-.172-2.23-.45-2.905.905-.268 2.012-1.345 1.821-2.702-.622.815-2.696 1.413-3.693-.386-.021-.039-3.187-5.75-5.567-10.05zM208.5 227l8.163-8.085c1.463-1.448 3.285-.29 3.653.665.566-1.248-.196-2.593-.99-3.105.457-.568 1.226-1.78 1.249-2.66-.882.013-2.101.77-2.674 1.22-.503-.8-1.84-1.575-3.094-1.023.952.379 2.09 2.212.627 3.66l-8.169 8.08zM199.7 233.3a15402.89 15402.89 0 0 0-10.41 4.851c-1.866.87-1.412 2.98-.644 3.656-1.367.098-2.364-1.083-2.568-2.005-.691.23-2.094.531-2.929.248.32-.822 1.451-1.704 2.072-2.085-.575-.75-.838-2.271.115-3.257.025 1.025 1.35 2.728 3.215 1.859.04-.02 5.958-2.78 10.41-4.86zM75 227l-8.163-8.085c-1.463-1.448-3.285-.29-3.653.665-.566-1.248.196-2.593.99-3.105-.457-.568-1.226-1.78-1.249-2.66.882.013 2.101.77 2.674 1.22.503-.8 1.84-1.575 3.094-1.023-.952.379-2.09 2.212-.627 3.66l8.169 8.08zM83.8 233.3c4.456 2.074 10.37 4.832 10.41 4.851 1.866.87 1.412 2.98.644 3.656 1.367.098 2.364-1.083 2.568-2.005.691.23 2.094.531 2.929.248-.32-.822-1.451-1.704-2.072-2.085.575-.75.838-2.271-.115-3.257-.025 1.025-1.35 2.728-3.215 1.859-.04-.02-5.958-2.78-10.41-4.86zM146.9 249.9c4.848-.806 11.29-1.873 11.33-1.88 2.03-.337 2.848 1.661 2.597 2.654 1.183-.692 1.339-2.229.987-3.106.7-.2 2.028-.745 2.557-1.45-.728-.498-2.16-.586-2.888-.55.05-.943-.592-2.348-1.934-2.623.558.86.427 3.014-1.603 3.35-.044.006-6.486 1.072-11.34 1.871zM136.1 249.9l-11.3-2.06c-2.025-.368-2.874 1.616-2.638 2.612-1.172-.71-1.303-2.25-.937-3.121-.698-.211-2.016-.777-2.534-1.49.735-.487 2.169-.552 2.896-.504-.037-.944.628-2.338 1.976-2.591-.572.85-.476 3.006 1.549 3.375.044.008 6.469 1.175 11.31 2.05z" class="st2"/><path d="M45.85 115.1c-.628-.966-1.601-1.727-2.762-2.025-1.322-.34-2.661-.098-3.675.668-.959.724-1.638 1.854-1.913 3.181-.261 1.256-.163 2.72.288 4.347 1.256 4.526 2.872 10.33 4.2 15.11.358 2.202-.7 3.217-2.831 4.796 3.708-.508 6.427-.96 5.014-6.02-1.308-4.685-2.837-10.09-4.065-14.52-.339-1.219-.424-2.309-.248-3.158.153-.737.52-1.372 1.009-1.74.441-.335 1.054-.434 1.675-.273.891.23 1.264.639 1.473 1.487.05.593-.256 1.227-.81 1.387-.905.261-2.093-.341-2.357-1.236-.323 1.694-.035 3.489 3.075 3.842-1.287 3.064-.91 6.928 3.073 8.639-.9-3.146-1.022-5.364-.688-8.523.193-1.898.627-3.666-.199-5.491a3.543 3.543 0 0 0-.259-.473zM116.9 255l17.24-3.634c1.236-.26 2.331-.278 3.167-.049.726.2 1.336.607 1.674 1.119.305.46.365 1.077.166 1.688-.208.635-.665 1.152-1.223 1.38-.734.384-1.758-.047-1.936-.821-.216-.937.417-2.316 1.454-2.48-1.645-.514-3.486.113-4.19 3.165-3.255-1.406-8.806-2.03-10.57 2.068 4.244-1.175 7.756-.244 10.18.287 2.007.44 3.903.856 5.988 0 1.249-.514 2.214-1.572 2.648-2.903.424-1.298.265-2.65-.435-3.71-.662-1.004-1.747-1.753-3.054-2.11-1.237-.34-2.703-.335-4.357.013l-17.24 3.634c-2.598.549-3.913-1.104-5.483-3.548.45 3.868.826 6.985 5.968 5.901z" class="st2"/><path d="M140.6 241.2c.753.873 1.211 2.019 1.174 3.218-.042 1.364-.649 2.583-1.668 3.342-.963.719-2.238 1.055-3.589.949-1.279-.1-2.656-.603-4.094-1.49-3.996-2.47-9.118-5.642-13.34-8.252-2.015-.958-3.285-.224-5.396 1.38 1.523-3.42 2.717-5.903 7.182-3.134 4.133 2.564 8.9 5.542 12.8 7.956 1.075.664 2.098 1.05 2.962 1.119.75.058 1.462-.117 1.953-.483.444-.33.71-.89.73-1.532.027-.92-.261-1.392-1.017-1.829-.556-.213-1.25-.096-1.558.391-.503.796-.256 2.104.53 2.608-1.717-.162-3.361-.94-2.831-4.025-3.302.38-6.907-1.06-7.438-5.363 2.77 1.742 4.865 2.48 7.99 3.041 1.877.344 3.697.421 5.218 1.724.138.119.263.244.381.382zM166.6 255l-17.24-3.64c-1.236-.261-2.331-.278-3.167-.05-.726.2-1.336.606-1.674 1.117-.305.462-.366 1.077-.166 1.688.207.636.664 1.152 1.222 1.382.733.384 1.758-.046 1.937-.82.215-.937-.417-2.317-1.453-2.481 1.645-.514 3.486.114 4.189 3.166 3.256-1.405 8.806-2.026 10.57 2.07-4.244-1.176-7.756-.246-10.18.284-2.007.44-3.903.854-5.988-.003-1.248-.513-2.213-1.57-2.647-2.903-.424-1.298-.265-2.65.436-3.71.663-1.003 1.748-1.752 3.055-2.109 1.238-.338 2.704-.333 4.357.016l17.24 3.64c2.598.55 3.913-1.103 5.484-3.546-.451 3.868-.83 6.985-5.97 5.899z" class="st2"/><path d="M142.9 241.2c-.753.873-1.212 2.019-1.175 3.218.041 1.364.648 2.583 1.666 3.343.963.72 2.237 1.056 3.588.95 1.279-.1 2.657-.602 4.094-1.489 3.997-2.468 9.12-5.638 13.34-8.247 2.015-.957 3.285-.223 5.395 1.382-1.522-3.419-2.715-5.904-7.18-3.136-4.134 2.562-8.902 5.54-12.81 7.952-1.075.664-2.099 1.051-2.963 1.118-.75.058-1.462-.117-1.953-.483-.444-.33-.71-.891-.729-1.532-.028-.92.262-1.392 1.017-1.83.556-.212 1.25-.095 1.558.393.503.796.256 2.104-.53 2.608 1.717-.162 3.361-.94 2.832-4.024 3.301.381 6.908-1.057 7.44-5.36-2.77 1.742-4.866 2.478-7.993 3.038-1.876.343-3.696.42-5.218 1.722a3.495 3.495 0 0 0-.382.38z" class="st2"/><path d="M104.9 242.3a1.77 1.77 0 1 1 3.384 1.038 1.77 1.77 0 0 1-3.385-1.037zm5.913-4.305a1.77 1.77 0 1 1 .055 3.54 1.77 1.77 0 0 1-.055-3.539zm-.015-.932a2.703 2.703 0 0 1 2.55 3.706 2.702 2.702 0 1 1 1.84 4.79 2.701 2.701 0 1 1-4.214 2.928 2.701 2.701 0 1 1-3.742-3.044 2.7 2.7 0 1 1 1.09-4.7 2.703 2.703 0 0 1 2.476-3.682zm5.936 5.224a1.77 1.77 0 1 1-3.35 1.147 1.77 1.77 0 0 1 3.35-1.147zm-2.106 6.848a1.77 1.77 0 1 0-2.126-2.83 1.77 1.77 0 0 0 2.126 2.83zm-7.31.224a1.77 1.77 0 1 0 2.035-2.898 1.77 1.77 0 0 0-2.034 2.898zm5.176-5.716a1.77 1.77 0 1 1-3.349 1.146 1.77 1.77 0 0 1 3.35-1.146z" class="st3"/><path d="m56.1 220 16.19 6.965c1.16.5 2.065 1.116 2.616 1.785.479.58.743 1.265.724 1.878-.016.553-.322 1.091-.837 1.475-.536.4-1.206.558-1.795.425-.82-.11-1.41-1.052-1.11-1.787.365-.89 1.677-1.653 2.618-1.19-1.048-1.367-2.915-1.916-5.248.173-1.85-3.025-6.028-6.732-9.827-4.398 4.146 1.485 6.479 4.27 8.154 6.1 1.387 1.516 2.697 2.948 4.895 3.449 1.316.3 2.714-.008 3.836-.846 1.094-.817 1.744-2.013 1.782-3.283.036-1.201-.419-2.44-1.28-3.484-.816-.99-2.017-1.831-3.57-2.5l-16.19-6.964c-2.44-1.048-2.561-3.157-2.436-6.06-1.861 3.42-3.35 6.186 1.477 8.263zM83.37 222.3c.112 1.147-.174 2.348-.895 3.306-.82 1.091-2.018 1.737-3.289 1.771-1.2.032-2.437-.427-3.48-1.292-.988-.819-1.824-2.023-2.487-3.577-1.843-4.321-4.202-9.865-6.145-14.43-1.095-1.944-2.555-2.076-5.205-1.981 3.215-1.916 5.622-3.259 7.675 1.576 1.901 4.477 4.081 9.658 5.881 13.88.496 1.162 1.11 2.069 1.776 2.622.58.48 1.263.747 1.874.731.553-.014 1.094-.32 1.48-.832.552-.736.588-1.288.222-2.081-.331-.495-.966-.8-1.499-.578-.87.36-1.422 1.572-1.07 2.436-1.309-1.122-2.205-2.704.006-4.921-2.917-1.591-5.035-4.846-2.99-8.67 1.26 3.02 2.549 4.83 4.78 7.09 1.337 1.363 2.779 2.474 3.272 4.416.045.175.074.35.092.53z" class="st2"/><path d="m96.73 248.6-11.99-12.91c-.86-.926-1.745-1.57-2.559-1.865-.708-.256-1.441-.275-2.012-.052-.515.202-.92.67-1.109 1.284-.197.64-.121 1.324.203 1.833.378.737 1.464.975 2.056.445.716-.641.994-2.134.242-2.865 1.64.529 2.784 2.102 1.6 5.001 3.47.728 8.365 3.418 7.442 7.78-2.791-3.406-6.197-4.67-8.483-5.633-1.894-.797-3.683-1.55-4.893-3.453-.725-1.139-.904-2.559-.491-3.898.401-1.305 1.31-2.318 2.494-2.78 1.119-.438 2.438-.425 3.712.036 1.207.436 2.402 1.285 3.552 2.523l11.99 12.91c1.807 1.946 3.834 1.354 6.525.262-2.597 2.9-4.702 5.23-8.278 1.382z" class="st2"/><path d="M85.32 223.7c-1.118.28-2.154.952-2.814 1.953-.752 1.139-.958 2.484-.564 3.692.373 1.142 1.22 2.152 2.385 2.844 1.103.655 2.518 1.039 4.204 1.142 4.69.285 10.7.647 15.65.945 2.2.378 2.813 1.71 3.614 4.238.726-3.672 1.183-6.39-4.062-6.701-4.855-.288-10.47-.602-15.05-.88-1.26-.077-2.32-.35-3.066-.794-.646-.384-1.128-.938-1.318-1.52-.172-.525-.066-1.138.288-1.672.507-.767 1.016-.987 1.885-.908.577.146 1.077.642 1.048 1.218-.048.94-1.004 1.867-1.936 1.826 1.496.857 3.288 1.17 4.633-1.657 2.479 2.214 6.255 3.116 9.169-.094-3.268-.174-5.405-.78-8.283-2.122-1.732-.801-3.262-1.787-5.257-1.6a3.48 3.48 0 0 0-.532.092z" class="st2"/><path d="M55.38 198.8a1.77 1.77 0 1 1 .099 3.537 1.77 1.77 0 0 1-.098-3.537zm5.974 4.219a1.77 1.77 0 1 1-3.336 1.188 1.77 1.77 0 0 1 3.336-1.188zm.878-.313a2.702 2.702 0 0 1-2.692 3.606 2.702 2.702 0 1 1-3.948 3.279 2.702 2.702 0 1 1-4.125-3.05 2.703 2.703 0 1 1 1.682-4.522 2.702 2.702 0 1 1 4.8-.474 2.703 2.703 0 0 1 4.282 1.164zm-3.044 7.298a1.77 1.77 0 1 1-2.16-2.803 1.77 1.77 0 0 1 2.16 2.803zm-7.161.203a1.77 1.77 0 1 0 1.998-2.922 1.77 1.77 0 0 0-1.998 2.922zm-2.557-6.852a1.77 1.77 0 1 0 3.397.997 1.77 1.77 0 0 0-3.397-.998zm7.075 3.068a1.77 1.77 0 1 1-2.16-2.805 1.77 1.77 0 0 1 2.16 2.805zM178.6 242.3a1.77 1.77 0 1 0-3.384 1.042 1.77 1.77 0 0 0 3.384-1.043zm-5.911-4.307a1.77 1.77 0 1 0-.056 3.54 1.77 1.77 0 0 0 .056-3.54zm.015-.931a2.702 2.702 0 0 0-2.552 3.706 2.703 2.703 0 0 0-4.268 1.215 2.702 2.702 0 0 0 2.428 3.575 2.703 2.703 0 0 0-.002 4.32 2.703 2.703 0 0 0 4.214-1.39 2.702 2.702 0 1 0 3.744-3.043 2.703 2.703 0 1 0-1.089-4.7 2.701 2.701 0 0 0-2.474-3.682zm-5.938 5.222a1.77 1.77 0 1 0 3.348 1.148 1.77 1.77 0 0 0-3.348-1.148zm2.104 6.848a1.77 1.77 0 1 1 2.126-2.83 1.77 1.77 0 0 1-2.126 2.83zm7.31.226a1.77 1.77 0 1 1-2.034-2.899 1.77 1.77 0 0 1 2.034 2.899zm-5.174-5.718a1.77 1.77 0 1 0 3.349 1.148 1.77 1.77 0 0 0-3.349-1.148z" class="st3"/><path d="m227.4 220-16.19 6.965c-1.16.5-2.065 1.116-2.616 1.785-.479.58-.743 1.265-.724 1.878.016.553.322 1.091.837 1.475.536.4 1.206.558 1.795.425.82-.11 1.41-1.052 1.11-1.787-.365-.89-1.677-1.653-2.618-1.19 1.048-1.367 2.915-1.916 5.248.173 1.85-3.025 6.028-6.732 9.827-4.398-4.146 1.485-6.479 4.27-8.154 6.1-1.387 1.516-2.697 2.948-4.895 3.449-1.316.3-2.714-.008-3.836-.846-1.094-.817-1.744-2.013-1.782-3.283-.036-1.201.419-2.44 1.28-3.484.816-.99 2.017-1.831 3.57-2.5l16.19-6.964c2.44-1.048 2.561-3.157 2.436-6.06 1.861 3.42 3.35 6.186-1.477 8.263zM200.1 222.3c-.112 1.147.174 2.348.895 3.306.82 1.091 2.018 1.737 3.289 1.771 1.2.032 2.437-.427 3.48-1.292.987-.819 1.824-2.023 2.487-3.577 1.843-4.321 4.202-9.865 6.145-14.43 1.095-1.944 2.555-2.076 5.205-1.981-3.215-1.916-5.622-3.259-7.675 1.576-1.901 4.477-4.081 9.658-5.881 13.88-.496 1.162-1.11 2.069-1.776 2.622-.58.48-1.262.747-1.874.731-.553-.014-1.094-.32-1.48-.832-.552-.736-.588-1.288-.222-2.081.331-.495.966-.8 1.499-.578.87.36 1.422 1.572 1.07 2.436 1.309-1.122 2.205-2.704-.006-4.921 2.917-1.591 5.035-4.846 2.989-8.67-1.26 3.02-2.548 4.83-4.78 7.09-1.336 1.363-2.778 2.474-3.271 4.416-.045.175-.075.35-.093.53z" class="st2"/><path d="m186.7 248.6 11.99-12.91c.86-.926 1.745-1.57 2.559-1.865.708-.256 1.441-.275 2.012-.052.515.202.92.67 1.109 1.284.197.64.121 1.324-.203 1.833-.378.737-1.464.975-2.056.445-.716-.641-.994-2.134-.242-2.865-1.64.529-2.784 2.102-1.6 5.001-3.47.728-8.365 3.418-7.442 7.78 2.791-3.406 6.197-4.67 8.483-5.633 1.894-.797 3.683-1.55 4.893-3.453.725-1.139.904-2.559.491-3.898-.401-1.305-1.31-2.318-2.494-2.78-1.119-.438-2.438-.425-3.712.036-1.207.436-2.402 1.285-3.552 2.523l-11.99 12.91c-1.807 1.946-3.834 1.354-6.525.262 2.597 2.9 4.702 5.23 8.278 1.382z" class="st2"/><path d="M198.1 223.7c1.118.28 2.154.952 2.814 1.953.752 1.139.958 2.484.564 3.692-.373 1.142-1.22 2.152-2.385 2.844-1.103.655-2.518 1.039-4.204 1.142-4.69.285-10.7.647-15.65.945-2.198.378-2.813 1.71-3.614 4.238-.726-3.672-1.183-6.39 4.062-6.701 4.855-.288 10.47-.602 15.05-.88 1.26-.077 2.32-.35 3.066-.794.646-.384 1.128-.938 1.318-1.52.172-.525.066-1.138-.288-1.672-.507-.767-1.016-.987-1.885-.908-.577.146-1.077.642-1.048 1.218.048.94 1.004 1.867 1.936 1.826-1.496.857-3.288 1.17-4.633-1.657-2.479 2.214-6.255 3.116-9.169-.094 3.268-.174 5.405-.78 8.283-2.122 1.732-.801 3.262-1.787 5.257-1.6.181.017.355.048.532.092z" class="st2"/><path d="M228.1 198.8a1.77 1.77 0 1 0-.099 3.537 1.77 1.77 0 0 0 .098-3.537zm-5.974 4.219a1.77 1.77 0 1 0 3.336 1.188 1.77 1.77 0 0 0-3.336-1.188zm-.878-.313a2.702 2.702 0 0 0 2.692 3.606 2.702 2.702 0 1 0 3.948 3.279 2.702 2.702 0 1 0 4.125-3.052 2.703 2.703 0 1 0-1.682-4.522 2.702 2.702 0 1 0-4.8-.474 2.703 2.703 0 0 0-4.282 1.164zm3.044 7.298a1.77 1.77 0 1 0 2.16-2.803 1.77 1.77 0 0 0-2.16 2.803zm7.161.203a1.77 1.77 0 1 1-1.998-2.922 1.77 1.77 0 0 1 1.998 2.922zm2.557-6.852a1.77 1.77 0 1 1-3.397.997 1.77 1.77 0 0 1 3.397-.998zm-7.075 3.068a1.77 1.77 0 1 0 2.16-2.805 1.77 1.77 0 0 0-2.16 2.805z" class="st3"/><path d="m39.9 86.22-1.318 17.57c-.094 1.26-.384 2.316-.836 3.055-.394.641-.955 1.114-1.54 1.296-.528.164-1.136.05-1.667-.312-.553-.376-.92-.959-.986-1.559-.164-.811.536-1.675 1.33-1.63.959.055 2.107 1.047 1.976 2.088.952-1.436.864-3.38-1.87-4.906 2.257-2.734 4.403-7.89.96-10.72-.055 4.403-1.93 7.516-3.114 9.695-.982 1.805-1.91 3.51-1.668 5.752.144 1.342.89 2.564 2.048 3.352 1.128.77 2.47.994 3.684.617 1.148-.356 2.17-1.189 2.878-2.344.67-1.094 1.075-2.503 1.2-4.188l1.32-17.57c.198-2.649 2.152-3.45 4.936-4.276-3.84-.647-6.94-1.154-7.332 4.086z" class="st2"/><path d="M46.51 112.8c-1.048.479-2.277.6-3.418.23-1.298-.42-2.299-1.343-2.744-2.533-.421-1.125-.39-2.443.09-3.711.452-1.2 1.32-2.383 2.572-3.516 3.486-3.15 7.96-7.184 11.64-10.51 1.482-1.668 1.13-3.092.18-5.567 2.857 2.416 4.91 4.255 1.006 7.77-3.614 3.255-7.804 7.003-11.21 10.08-.938.847-1.595 1.723-1.9 2.534-.266.704-.296 1.437-.082 2.01.193.518.657.93 1.268 1.128.875.283 1.409.138 2.04-.467.36-.474.441-1.174.059-1.606-.624-.705-1.95-.832-2.652-.218.634-1.603 1.84-2.965 4.655-1.596.555-3.277 2.944-6.338 7.224-5.647-2.446 2.174-3.738 3.98-5.15 6.827-.853 1.706-1.434 3.432-3.11 4.53-.151.1-.306.184-.472.26z" class="st2"/><path d="M55.45 78.28a1.77 1.77 0 1 1-1.942 2.958 1.77 1.77 0 0 1 1.942-2.958zm2.485 6.878a1.77 1.77 0 1 1-3.412-.931 1.77 1.77 0 0 1 3.411.93zm.899.245a2.702 2.702 0 0 1-4.27 1.417 2.702 2.702 0 1 1-5.113.43 2.701 2.701 0 1 1-1.637-4.863 2.7 2.7 0 0 1-.4-4.48 2.702 2.702 0 0 1 4.367 1.736A2.702 2.702 0 1 1 55.99 82a2.702 2.702 0 0 1 2.846 3.404zm-6.672 4.245a1.77 1.77 0 1 1-.167-3.537 1.77 1.77 0 0 1 .167 3.537zm-5.99-3.932a1.77 1.77 0 1 0 3.315-1.255 1.77 1.77 0 0 0-3.315 1.255zm1.825-7.083a1.77 1.77 0 1 0 2.215 2.761 1.77 1.77 0 0 0-2.215-2.761zm4.046 6.564a1.77 1.77 0 1 1-.167-3.538 1.77 1.77 0 0 1 .167 3.538z" class="st3"/><path d="m26.03 134 8.303-15.54c.596-1.114.917-2.161.93-3.027.012-.753-.208-1.452-.605-1.919-.358-.422-.933-.652-1.575-.63-.668.021-1.291.316-1.668.788-.573.597-.446 1.7.248 2.089.84.468 2.341.246 2.788-.704.034 1.723-1.082 3.316-4.209 3.14.442 3.518-.51 9.022-4.935 9.57 2.313-3.749 2.4-7.38 2.566-9.856.138-2.05.269-3.987 1.673-5.75.841-1.056 2.126-1.687 3.526-1.733 1.365-.044 2.62.486 3.441 1.454.778.916 1.195 2.167 1.174 3.522-.02 1.283-.433 2.69-1.23 4.18l-8.303 15.54c-1.252 2.342-.032 4.065 1.876 6.256-3.589-1.512-6.477-2.744-4-7.378z" class="st2"/><path d="M34.91 149a1.77 1.77 0 1 0-.054-3.538A1.77 1.77 0 0 0 34.91 149zm5.784-4.476a1.77 1.77 0 1 0-3.382-1.042 1.77 1.77 0 0 0 3.382 1.042zm.89.274a2.702 2.702 0 0 0-2.847-3.484 2.702 2.702 0 1 0-4.087-3.103 2.701 2.701 0 1 0-3.988 3.228 2.703 2.703 0 0 0-2.738 3.57 2.702 2.702 0 0 0 4.616.874 2.704 2.704 0 0 0 2.383 4.048 2.703 2.703 0 0 0 2.435-3.784 2.702 2.702 0 0 0 4.227-1.35zm-3.359-7.159a1.77 1.77 0 1 0-2.036 2.896 1.77 1.77 0 0 0 2.036-2.896zm-7.163.11a1.77 1.77 0 1 1 2.124 2.833 1.77 1.77 0 0 1-2.123-2.832zm-2.256 6.958a1.77 1.77 0 1 1 3.348-1.148 1.77 1.77 0 0 1-3.348 1.149zm6.934-3.374a1.77 1.77 0 1 0-2.036 2.896 1.77 1.77 0 0 0 2.036-2.897zM65.42 79.67c-2.245 3.123-5.338 3.283-9.279 2.226 2.799-1.104 3.886-2.169 5.07-4.365.381.57.411 2.16-.436 3.127 1.43-.187 2.589-.337 4.646-.987zM51.66 69.84c-2.468 2.95-1.856 5.986.145 9.541.376-2.985 1.138-4.302 2.972-5.994-.647-.227-2.194.137-2.92 1.198-.175-1.432-.316-2.592-.197-4.746zM245.2 137.6a1.77 1.77 0 1 0 1.986 2.93 1.77 1.77 0 0 0-1.986-2.93zm-2.384 6.914a1.77 1.77 0 1 0 3.4-.981 1.77 1.77 0 0 0-3.4.98zm-.895.259a2.701 2.701 0 0 0 4.29 1.352 2.702 2.702 0 1 0 5.12.354 2.704 2.704 0 0 0 4.131-1.265 2.702 2.702 0 0 0-2.565-3.62 2.702 2.702 0 1 0-4.007-2.686 2.703 2.703 0 1 0-4.933 1.673c.207.305.467.556.76.746a2.7 2.7 0 0 0-2.794 3.445zm6.734 4.145a1.77 1.77 0 1 0 .117-3.541 1.77 1.77 0 0 0-.118 3.542zm5.93-4.02a1.77 1.77 0 1 1-3.33-1.204 1.77 1.77 0 0 1 3.33 1.204zm-1.928-7.055a1.77 1.77 0 1 1-2.174 2.795 1.77 1.77 0 0 1 2.174-2.795zm-3.949 6.624a1.77 1.77 0 1 0 .114-3.54 1.77 1.77 0 0 0-.114 3.54zM228 78.28a1.77 1.77 0 1 0 1.942 2.958A1.77 1.77 0 0 0 228 78.28zm-2.485 6.878a1.77 1.77 0 1 0 3.412-.931 1.77 1.77 0 0 0-3.411.93zm-.899.245a2.702 2.702 0 0 0 4.27 1.417 2.702 2.702 0 1 0 5.113.43 2.701 2.701 0 1 0 1.637-4.863 2.7 2.7 0 0 0 .4-4.48 2.702 2.702 0 0 0-4.367 1.736A2.702 2.702 0 1 0 227.46 82a2.702 2.702 0 0 0-2.846 3.404zm6.672 4.245a1.77 1.77 0 1 0 .167-3.537 1.77 1.77 0 0 0-.167 3.537zm5.99-3.932a1.77 1.77 0 1 1-3.315-1.255 1.77 1.77 0 0 1 3.315 1.255zm-1.825-7.083a1.77 1.77 0 1 1-2.215 2.761 1.77 1.77 0 0 1 2.215-2.761zm-4.046 6.564a1.77 1.77 0 1 0 .167-3.538 1.77 1.77 0 0 0-.167 3.538z" class="st3"/><path d="m243.6 86.22 1.318 17.57c.094 1.26.384 2.316.836 3.055.394.641.955 1.114 1.54 1.296.528.164 1.136.05 1.667-.312.553-.376.92-.959.986-1.559.164-.811-.536-1.675-1.33-1.63-.959.055-2.107 1.047-1.976 2.088-.952-1.436-.864-3.38 1.87-4.906-2.257-2.734-4.403-7.89-.96-10.72.056 4.403 1.93 7.516 3.114 9.695.982 1.805 1.91 3.51 1.668 5.752-.144 1.342-.89 2.564-2.048 3.352-1.128.77-2.47.994-3.684.617-1.148-.356-2.17-1.189-2.878-2.344-.67-1.094-1.075-2.503-1.2-4.188l-1.32-17.57c-.197-2.649-2.152-3.45-4.936-4.276 3.84-.647 6.94-1.154 7.332 4.086zM236.9 112.8c1.048.479 2.277.6 3.418.23 1.298-.42 2.299-1.343 2.744-2.533.421-1.125.39-2.443-.09-3.711-.452-1.2-1.32-2.383-2.572-3.516-3.486-3.15-7.96-7.184-11.64-10.51-1.482-1.668-1.13-3.092-.18-5.567-2.857 2.416-4.91 4.255-1.006 7.77 3.614 3.255 7.804 7.003 11.21 10.08.938.847 1.595 1.723 1.9 2.534.266.704.296 1.437.082 2.01-.194.518-.658.93-1.268 1.128-.876.283-1.409.138-2.04-.467-.36-.474-.441-1.174-.059-1.606.624-.705 1.95-.832 2.652-.218-.634-1.603-1.84-2.965-4.655-1.596-.555-3.277-2.944-6.338-7.224-5.647 2.446 2.174 3.738 3.98 5.15 6.827.853 1.706 1.434 3.432 3.11 4.53.151.1.306.184.472.26z" class="st2"/><path d="m257.4 134-8.303-15.54c-.596-1.114-.917-2.161-.93-3.027-.013-.753.208-1.452.605-1.919.358-.422.932-.652 1.575-.63.668.021 1.291.316 1.668.788.573.597.446 1.7-.248 2.089-.84.468-2.341.246-2.788-.704-.034 1.723 1.082 3.316 4.209 3.14-.442 3.518.51 9.022 4.935 9.57-2.313-3.749-2.4-7.38-2.566-9.856-.138-2.05-.269-3.987-1.673-5.75-.841-1.056-2.126-1.687-3.526-1.733-1.365-.044-2.62.486-3.441 1.454-.779.916-1.195 2.167-1.174 3.522.02 1.283.433 2.69 1.23 4.18l8.303 15.54c1.252 2.342.032 4.065-1.876 6.256 3.589-1.512 6.477-2.744 4-7.378z" class="st2"/><path d="M237.6 115.1c.628-.966 1.601-1.727 2.762-2.025 1.322-.34 2.661-.098 3.675.668.959.724 1.638 1.854 1.913 3.181.261 1.256.163 2.72-.288 4.347-1.256 4.526-2.872 10.33-4.2 15.11-.358 2.202.7 3.217 2.831 4.796-3.708-.508-6.427-.96-5.014-6.02 1.308-4.685 2.837-10.09 4.065-14.52.339-1.219.424-2.309.248-3.158-.153-.737-.52-1.372-1.009-1.74-.441-.335-1.054-.434-1.675-.273-.891.23-1.264.639-1.473 1.487-.05.593.257 1.227.81 1.387.905.261 2.093-.341 2.357-1.236.323 1.694.035 3.489-3.075 3.842 1.287 3.064.91 6.928-3.073 8.639.9-3.146 1.022-5.364.688-8.523-.193-1.898-.627-3.666.199-5.491.074-.166.16-.32.259-.473z" class="st2"/><path d="M218 79.67c2.245 3.123 5.338 3.283 9.279 2.226-2.799-1.104-3.886-2.169-5.07-4.365-.381.57-.411 2.16.436 3.127-1.43-.187-2.589-.337-4.646-.987zM231.8 69.84c2.468 2.95 1.856 5.986-.145 9.541-.376-2.985-1.138-4.302-2.972-5.994.647-.227 2.194.137 2.92 1.198.175-1.432.316-2.592.197-4.746z" class="st3"/><path d="m257 154.7-8.999 15.15c-.645 1.086-1.014 2.117-1.067 2.982-.046.751.143 1.46.518 1.945.339.438.902.693 1.545.701.669.009 1.304-.257 1.702-.712.6-.57.523-1.68-.153-2.098-.817-.505-2.328-.351-2.816.577.044-1.723 1.23-3.264 4.346-2.946-.282-3.534.918-8.99 5.364-9.335-2.48 3.639-2.731 7.263-3.01 9.728-.23 2.042-.449 3.97-1.932 5.668-.888 1.016-2.2 1.589-3.601 1.57-1.365-.017-2.594-.603-3.372-1.607-.736-.95-1.095-2.22-1.013-3.571.078-1.281.555-2.667 1.418-4.12l8.999-15.15c1.358-2.283.216-4.06-1.59-6.334 3.516 1.673 6.345 3.035 3.662 7.552zM236.3 172.6c.584.994 1.521 1.798 2.668 2.149 1.305.4 2.654.218 3.702-.501.99-.68 1.72-1.778 2.055-3.091.318-1.243.286-2.71-.09-4.356-1.05-4.578-2.4-10.45-3.513-15.28-.257-2.216.847-3.182 3.046-4.663-3.727.34-6.464.668-5.282 5.788 1.094 4.739 2.377 10.21 3.403 14.69.283 1.23.319 2.325.105 3.165-.187.729-.583 1.347-1.086 1.693-.456.313-1.072.385-1.686.196-.88-.27-1.234-.695-1.404-1.552-.023-.595.311-1.214.872-1.349.916-.22 2.074.436 2.298 1.342.4-1.677.194-3.484-2.898-3.977 1.424-3.002 1.224-6.88-2.679-8.77.757 3.184.779 5.405.302 8.545-.28 1.887-.793 3.634-.05 5.495.067.169.145.327.237.484z" class="st2"/><path d="m241 201.7 2.113-17.49c.151-1.254.488-2.296.974-3.014.422-.623 1.004-1.07 1.597-1.225.535-.14 1.137.001 1.652.387.535.401.876 1 .914 1.602.127.818-.611 1.65-1.402 1.568-.956-.098-2.058-1.142-1.88-2.175-1.016 1.392-1.016 3.337 1.646 4.986-2.38 2.63-4.757 7.683-1.446 10.67.255-4.396 2.267-7.42 3.55-9.544 1.063-1.759 2.067-3.42 1.928-5.67-.083-1.347-.774-2.602-1.894-3.442-1.092-.82-2.423-1.105-3.653-.783-1.162.304-2.222 1.09-2.981 2.212-.72 1.062-1.187 2.452-1.39 4.129l-2.114 17.49c-.317 2.637-2.305 3.349-5.124 4.048 3.807.82 6.879 1.468 7.509-3.749z" class="st2"/><path d="M235.6 174.9c1.069-.431 2.302-.496 3.425-.074 1.278.478 2.236 1.446 2.627 2.655.37 1.143.278 2.458-.258 3.703-.506 1.179-1.426 2.32-2.729 3.396-3.625 2.986-8.278 6.814-12.11 9.967-1.556 1.6-1.27 3.037-.431 5.552-2.746-2.543-4.714-4.473-.654-7.808 3.758-3.087 8.113-6.64 11.66-9.56.975-.803 1.672-1.648 2.014-2.444.297-.69.36-1.422.172-2.004-.17-.526-.615-.959-1.216-1.183-.862-.324-1.402-.202-2.059.373-.381.457-.494 1.152-.132 1.6.592.733 1.91.92 2.64.34-.707 1.572-1.972 2.878-4.722 1.382-.704 3.248-3.228 6.198-7.473 5.314 2.541-2.06 3.913-3.808 5.451-6.586.93-1.666 1.59-3.363 3.312-4.385a3.54 3.54 0 0 1 .484-.238zM26.47 154.7l8.999 15.15c.645 1.086 1.014 2.117 1.067 2.982.046.751-.143 1.46-.518 1.945-.339.438-.902.693-1.546.701-.668.009-1.304-.257-1.702-.712-.599-.57-.522-1.68.154-2.098.817-.505 2.328-.351 2.816.577-.044-1.723-1.23-3.264-4.346-2.946.282-3.534-.918-8.99-5.364-9.335 2.48 3.639 2.731 7.263 3.01 9.728.23 2.042.448 3.97 1.932 5.668.888 1.016 2.2 1.589 3.601 1.57 1.365-.017 2.594-.603 3.372-1.607.736-.95 1.095-2.22 1.013-3.571-.078-1.281-.555-2.667-1.418-4.12l-8.999-15.15c-1.358-2.283-.217-4.06 1.59-6.334-3.516 1.673-6.345 3.035-3.662 7.552z" class="st2"/><path d="M47.13 172.6c-.584.994-1.521 1.798-2.668 2.149-1.305.4-2.654.218-3.702-.501-.99-.68-1.72-1.778-2.055-3.091-.317-1.243-.286-2.71.09-4.356 1.05-4.578 2.4-10.45 3.513-15.28.257-2.216-.847-3.182-3.046-4.663 3.727.34 6.464.668 5.282 5.788-1.094 4.739-2.377 10.21-3.403 14.69-.283 1.23-.319 2.325-.105 3.165.187.729.583 1.347 1.086 1.693.456.313 1.072.385 1.686.196.88-.27 1.234-.695 1.404-1.552.023-.595-.311-1.214-.872-1.349-.916-.22-2.074.436-2.298 1.342-.4-1.677-.194-3.484 2.898-3.977-1.424-3.002-1.224-6.88 2.679-8.77-.757 3.184-.779 5.405-.302 8.545.28 1.887.793 3.634.05 5.495a3.516 3.516 0 0 1-.237.484zM42.5 201.7l-2.113-17.49c-.151-1.254-.488-2.296-.974-3.014-.422-.623-1.004-1.07-1.597-1.225-.535-.14-1.137.001-1.652.387-.535.401-.876 1-.914 1.602-.127.818.611 1.65 1.402 1.568.956-.098 2.058-1.142 1.88-2.175 1.016 1.392 1.016 3.337-1.646 4.986 2.38 2.63 4.757 7.683 1.446 10.67-.255-4.396-2.267-7.42-3.55-9.544-1.063-1.759-2.067-3.42-1.928-5.67.083-1.347.774-2.602 1.894-3.442 1.092-.82 2.423-1.105 3.653-.783 1.162.304 2.222 1.09 2.981 2.212.72 1.062 1.187 2.452 1.39 4.129l2.114 17.49c.317 2.637 2.305 3.349 5.124 4.048-3.807.82-6.879 1.468-7.509-3.749z" class="st2"/><path d="M47.9 174.9c-1.069-.431-2.302-.496-3.425-.074-1.278.478-2.236 1.446-2.627 2.655-.37 1.143-.278 2.458.258 3.703.506 1.179 1.426 2.32 2.729 3.396 3.625 2.986 8.278 6.814 12.11 9.967 1.556 1.6 1.27 3.037.431 5.552 2.746-2.543 4.714-4.473.654-7.808-3.758-3.087-8.113-6.64-11.66-9.56-.975-.803-1.672-1.648-2.014-2.444-.297-.69-.36-1.422-.172-2.004.17-.526.615-.959 1.216-1.183.862-.324 1.402-.202 2.06.373.38.457.493 1.152.13 1.6-.59.733-1.908.92-2.638.34.706 1.572 1.972 2.878 4.722 1.382.703 3.248 3.228 6.198 7.473 5.314-2.542-2.06-3.914-3.808-5.452-6.586-.93-1.666-1.59-3.363-3.312-4.385a3.548 3.548 0 0 0-.484-.238zM188.8 58.38c-.735-.226-1.318-.677-1.579-1.411-.377-1.058-.403-2.511-.26-3.152.604-2.704 2.238-5.835 3.422-8.376 1.559-3.348 4.259-4.41 7.889-3.907-2.58 1.499-3.556 2.35-4.836 5.042-.81 1.704-1.596 2.948-2.16 4.554-1.4 3.989 2.905 4.388 4.509 1.109-.455.05-.896.022-1.306-.161-1.176-.525-1.585-1.513-1.094-2.643.515-1.184 1.798-1.386 2.743-.975.714.31 1.089.847 1.248 1.574.988-.537 1.332-1.854 1.167-2.892-.168-1.055.38-.716.744-.023.779 1.482-.25 4.173-1.95 4.531-.81 3.596-4.407 7.999-8.537 6.729zm6.215-7.501c.346.155.735.098 1.121-.055.03-.482-.039-.942-.533-1.157-.89-.387-1.613.754-.588 1.212zm-13.37-3.249c1.097-2.424 2.501-4.993 3.685-6.52 1.674-2.159 4.185-3.09 7.135-2.681-2.579 1.499-3.822 2.814-5.102 5.506-.81 1.704-1.48 3.128-2.045 4.734-.836 2.379-.185 3.145 1.119 2.868-.046.083-2.224 4.562-4.815 3.482-2.877-1.199-.828-5.508.023-7.388zm19.29-7.654c.352.416-.277.604-.597.574-.555-.052-1.151-.32-1.723-.632-.181-.098-.143-.106-.317-.207-.254-.148-.716-.387-.945-.511.252-.124.587-.306.88-.346a1.92 1.92 0 0 1 .516.008c.799.11 1.764.616 2.186 1.114zm-14.29-3.527c-3.63-.503-6.33.559-7.889 3.907-.94 2.019-1.763 4.566-2.932 6.425-.48.764-1.436.96-2.199.66-1.87-.737-1.515-3.674-.738-5.045.246.44.56.753.95.916.903.375 1.972-.012 2.335-.845.362-.834-.097-1.902-.983-2.287-.352-.153-.716-.193-1.256-.042.169-1.642.48-2.97 1.677-4.128 4.298-4.155 12.66.042 16.91 2.104 1.188.644 1.279.646 5.238 2.8 1.219.642 4.302 2.14 5.19.168.68-1.516-1.71-2.604-2.721-3.018-1.452-.595-2.944-.935-4.464-.369-.766.298-.651.3-1.42-.108-5.043-2.67-14.54-7.589-19.68-2.504-1.541 1.523-2.078 3.566-2.09 5.715-1.91 1.323-3.433 5.72-2.625 7.925a4.366 4.366 0 0 0 2.364 2.508c1.99.866 4.535.26 5.677-1.506 1.707-2.639 2.814-6.019 4.12-8.882 1.214-2.657 1.938-2.885 4.534-4.394zm-11.98 4.939c.58.252.268.958-.321.713-.302-.126-.381-.434-.368-.714a.849.849 0 0 1 .689.001zM128.1 34.22c-1.581 3.463-2.282 7.324-3.688 11.11-.86-2.731-1.798-5.409-2.904-8.013-.757-1.782-1.361-2.799-2.388-4.344-.677.795-.114 2.234.074 3.363.484 2.912 1.26 6.062 1.264 8.958.004 2.102-1.799 3.996-3.94 4.354a4.366 4.366 0 0 1-3.35-.816c-1.88-1.41-2.996-5.926-2.114-8.076-1.16-1.808-1.823-3.815-1.36-5.93 1.543-7.067 11.71-8.034 17.4-8.54.867-.078.77-.017 1.25-.683.967-1.303 2.402-1.831 3.944-2.122 1.074-.203 3.671-.594 3.926 1.049.33 2.137-3.072 2.56-4.444 2.685-4.493.35-4.57.399-5.918.505-4.689.587-13.52 1.544-14.86 7.37-.373 1.622.09 2.905.842 4.375.371-.421.699-.586 1.076-.65.953-.159 1.92.487 2.07 1.383.15.896-.535 1.803-1.496 1.979-.416.076-.85-.015-1.296-.25.096 1.574 1.396 4.23 3.366 3.829.804-.164 1.498-.848 1.485-1.751-.031-2.196-.728-4.78-1.04-6.986-.434-3.077.35-6.525 3.661-7.48 1.926 3.076 3.443 6.943 4.694 10.34.673-2.933 1.628-5.817 3.228-8.41 1.09-1.765 2.642-3.256 4.492-4.123-1.435 3.317-.802 5.838-.478 9.039.093.918.198 1.79.424 2.72.997 4.109 4.827 2.099 4.386-1.524-.355.29-.74.506-1.183.576-1.272.2-2.153-.406-2.356-1.62-.213-1.274.753-2.142 1.769-2.312.768-.128 1.374.117 1.904.64.536-.988.108-2.28-.596-3.061-.716-.793-.072-.808.611-.425 1.46.819 2.064 3.636.833 4.862 1.278 3.457.66 9.109-3.496 10.29-.74.21-1.474.15-2.093-.324-.892-.682-1.705-1.886-1.935-2.502-.966-2.596-1.3-6.113-1.692-8.889a13.047 13.047 0 0 1-.07-.596zm-14.97 5.887a.847.847 0 0 0-.578.374c.14.242.375.458.697.398.627-.115.504-.876-.119-.772zm21.88-3.253c.374-.059.669-.318.91-.657-.236-.42-.545-.769-1.076-.68-.958.16-.942 1.511.166 1.337zm-3.963-11.57c-.223.193-.414.472-.559.713 1.001-.078 2.362-.033 3.239-.493.285-.15.719-.594.198-.75-.769-.233-2.236-.024-2.878.53zM71.25 64.35c1.345 1.49 2.79 2.989 4.238 4.025.534.382 1.882.925 3.003.992.777.046 1.421-.314 1.916-.902 2.783-3.306.135-8.337-2.858-10.49.335-1.704-1.741-3.702-3.409-3.564-.78.064-1.306.436-.27.694 1.021.253 2.098 1.085 2.206 2.205-.732-.139-1.372-.003-1.937.533-.747.71-1.063 1.97-.174 2.906.848.894 1.917.903 2.86.027.329-.307.527-.702.659-1.14 2.392 2.758.341 6.565-2.783 3.717-1.258-1.147-2.097-2.356-3.35-3.768-1.65-1.862-3.49-3.431-4.27-5.621.278-.217.56-.438.847-.665 1.068-.87 3.652-3.124 2.184-4.711-1.13-1.22-3.064.556-3.842 1.326-1.115 1.104-1.49 1.85-1.564 3.472-.025.82-.515 1.189-1.174 1.759-3.519 3.239-7.484 7.63-5.428 12.8.8 2.013 2.471 3.306 4.445 4.156.471 2.276 3.922 5.396 6.27 5.513a4.364 4.364 0 0 0 3.231-1.196c1.575-1.495 2.011-4.073.833-5.814-1.03-1.522-2.375-2.954-3.738-4.346a2.852 2.852 0 0 0 1.345-.726c.365-.346.62-.76.76-1.187zm-2.876-14.27c.528-.131.382.423.23.706-.37.686-1.274 1.238-1.89 1.727-.015-.281-.033-.64.044-.925.197-.724.847-1.317 1.616-1.508zm-4.462 20.33c.458-.435.986.128.53.574-.233.229-.548.182-.8.06a.847.847 0 0 1 .27-.634zm4.526-7.034c.5-.474 1.16-.587 1.476-.254.316.333.168.987-.331 1.46-.499.474-1.16.588-1.476.254-.316-.332-.168-.986.331-1.46zm7.493-3.561c-.821.764-1.59-.347-.886-1.015.392-.371.842-.255 1.273-.038-.01.416-.11.795-.387 1.054zm-8.4 2.605a2.843 2.843 0 0 0-.81 1.36c-.136-.145-.27-.29-.402-.433-1.972-2.155-1.614-3.856-1.56-6.68-1.994 3.028-2.672 6.836-.2 9.579 1.491 1.654 3.514 3.406 4.768 5.21.516.74.323 1.697-.252 2.282-1.41 1.434-3.972-.04-4.931-1.292.5-.055.911-.222 1.214-.518.698-.683.76-1.818.133-2.478-.625-.659-1.788-.653-2.489.012-.278.263-.457.583-.529 1.14-1.446-.798-2.547-1.602-3.145-3.157-.603-1.57-.473-3.177.105-4.746 1.27-3.445 3.317-5.344 5.818-7.314.716 2.254 2.278 4.728 3.633 6.306a2.857 2.857 0 0 0-1.354.728zM101 44.88c-1 .508-1.432-.772-.572-1.22.479-.249.88-.013 1.235.314-.125.397-.326.735-.664.906zm-4.58-11.44c.544.02.251.512.026.742-.545.558-1.565.838-2.293 1.14.064-.275.145-.625.298-.877.389-.642 1.177-1.032 1.97-1.004zm-5.291 5.335c-2.751 2.36-4.453 5.834-2.832 9.152.978 2.001 2.439 4.243 3.148 6.322.291.855-.158 1.72-.872 2.124-1.749.99-3.808-1.134-4.384-2.601.497.086.938.039 1.31-.162.86-.465 1.231-1.54.812-2.345-.42-.806-1.54-1.121-2.396-.676-.34.178-.6.435-.823.95-1.17-1.164-2.007-2.241-2.153-3.9-.148-1.675.42-3.184 1.409-4.533 2.17-2.961 4.661-4.222 7.608-5.427.07 2.499.983 5.497 1.903 7.379 1.23 2.519 2.635 5.76 4.356 7.93.408.515 1.554 1.408 2.613 1.782.735.258 1.452.09 2.09-.34 3.587-2.41 2.427-7.977.144-10.87.791-1.546-.653-4.038-2.295-4.366-.768-.153-1.375.06-.45.593.91.526 1.718 1.622 1.513 2.728-.666-.334-1.318-.38-2.01-.02-.914.476-1.564 1.6-.968 2.744.569 1.092 1.594 1.396 2.742.814.4-.204.7-.53.947-.914 1.54 3.31-1.48 6.405-3.7 2.806-.893-1.449-1.366-2.843-2.18-4.545-1.073-2.244-2.41-4.26-2.556-6.58.328-.131.66-.266.998-.405 1.267-.543 4.372-1.996 3.397-3.927-.75-1.484-3.1-.31-4.058.215-1.377.753-1.943 1.369-2.461 2.906-.25.782-.823 1-1.613 1.367-4.276 2.144-9.297 5.272-8.747 10.81.214 2.156 1.464 3.859 3.127 5.22-.174 2.318 2.283 6.268 4.506 7.028a4.365 4.365 0 0 0 3.437-.26c1.926-1.002 3.056-3.36 2.403-5.358-.977-2.987-2.907-5.976-4.31-8.792-1.301-2.615-.488-4.152.343-6.851zm-4.601 12.98c.56-.292.913.394.352.698-.288.156-.577.023-.786-.164a.847.847 0 0 1 .434-.534z" class="st2"/><path d="M226.7 60.81c.206.504-.45.489-.746.361-.51-.22-.995-.66-1.444-1.133-.14-.149-.102-.145-.236-.295-.197-.219-.562-.589-.742-.778.279-.04.653-.11.944-.057.156.028.322.086.49.167.724.352 1.487 1.131 1.733 1.735zm-14.12-3.026c1.6 3.337 2.161 7.532-.767 10.72-2.074 2.255-5.244 3.426-7.855 1.075-1.062-.956-1.345-1.994-1.267-3.237a4.93 4.93 0 0 1-3.864-1.166 4.363 4.363 0 0 1-1.473-3.116c-.087-2.348 2.72-6.058 4.946-6.726.675-2.04 1.818-3.817 3.753-4.79 5.68-2.854 11.44 2.172 15.11 5.958.606.625.498.588 1.318.542 1.621-.069 2.934.715 4.132 1.73.834.707 2.772 2.48 1.655 3.712-1.454 1.6-3.923-.777-4.884-1.765-3.1-3.271-3.187-3.301-4.117-4.281-3.09-2.971-8.01-6.966-12.61-4.722-1.496.73-2.202 1.898-2.87 3.408.56.023.894.174 1.181.427.724.64.83 1.798.228 2.48-.602.68-1.738.718-2.48.082-.321-.275-.523-.67-.621-1.164-1.163 1.064-2.408 3.747-.857 5.025.633.522 1.602.631 2.295.053 1.687-1.407 3.256-3.575 4.774-5.205 2.517-2.702 4.595-3.602 7.892-2.001-3.102.67-4.708 3.278-6.647 5.557-1.022 1.202-2.061 2.438-3.158 3.549-.72.73-.722 1.98.122 2.718 1.757 1.624 3.692-.206 4.761-2.642 1.004-2.288 1.167-5.504 1.295-6.218zm-8.471-1.244c.473.419-.041.994-.526.579-.248-.213-.228-.53-.129-.793a.848.848 0 0 1 .655.214zm6.769 19.27c-.629-.442-1.044-1.051-1.066-1.83-.031-1.123.392-2.512.727-3.078 1.409-2.385 3.932-4.858 5.842-6.909 2.517-2.702 4.595-3.602 7.892-2.001-3.1.668-4.624 3.348-6.732 5.429-.74.73-1.424 1.414-2.07 2.26-2.564 3.36 1.408 5.071 3.947 2.448-.448-.093-.86-.256-1.192-.557-.956-.863-1.04-1.929-.224-2.85.856-.968 2.138-.763 2.91-.08.583.515.775 1.142.7 1.883 1.107-.205 1.84-1.352 2.005-2.39.166-1.055.583-.564.715.208.282 1.65-1.526 3.892-3.254 3.707-1.883 3.169-6.664 6.246-10.2 3.76zm8.229-5.214c.281.254.668.32 1.083.294.178-.448.254-.907-.15-1.265-.726-.643-1.766.22-.933.97z" class="st3"/><path d="M155.9 37.99c-.277 1.989-.496 4.058-.36 5.834.051.655.502 2.036 1.17 2.938.465.625 1.155.886 1.924.887 4.322.008 6.473-5.255 6.198-8.93 1.52-.84 1.717-3.713.539-4.903-.55-.557-1.174-.72-.705.24.462.944.517 2.304-.27 3.106-.365-.65-.88-1.052-1.655-1.14-1.024-.117-2.192.45-2.338 1.733-.14 1.223.541 2.05 1.818 2.208.447.056.876-.047 1.296-.228-.575 3.605-4.81 4.481-4.636.258.07-1.701.457-3.12.734-4.987.366-2.461.385-4.88 1.56-6.884.345.074.696.149 1.054.222 1.354.259 4.74.79 5.012-1.356.208-1.65-2.396-1.99-3.485-2.091-1.563-.145-2.376.047-3.665 1.033-.645.508-1.242.37-2.102.23-4.744-.612-10.66-.827-13.3 4.073-1.028 1.907-.944 4.018-.327 6.076-1.44 1.824-1.612 6.473-.194 8.346a4.364 4.364 0 0 0 2.994 1.707c2.158.246 4.413-1.077 4.99-3.1.503-1.767.736-3.717.926-5.656.385.297.874.502 1.42.564.5.057.98-.013 1.397-.18zm9.084-11.38c.44.32-.078.565-.393.63-.764.158-1.767-.18-2.538-.338.206-.191.47-.436.737-.56.681-.315 1.554-.198 2.194.268zm-18.44 9.649c.628.071.536.837-.098.775-.326-.031-.492-.303-.56-.575a.846.846 0 0 1 .658-.2zm8.297-1.054c.684.078 1.195.511 1.144.967-.052.457-.648.764-1.332.686-.683-.078-1.195-.511-1.143-.968.052-.456.648-.763 1.331-.685zm7.544 3.451c-1.113-.138-.756-1.441.208-1.331.536.06.737.481.848.95-.325.26-.68.428-1.056.38zm-7.395-4.76a2.843 2.843 0 0 0-1.562.255c.023-.197.047-.394.073-.588.383-2.896 1.916-3.715 4.114-5.488-3.6.418-6.954 2.347-7.466 6.004-.309 2.206-.35 4.882-.925 7.002-.236.872-1.093 1.338-1.91 1.274-2.004-.157-2.523-3.069-2.18-4.608.363.35.755.557 1.177.598.972.096 1.88-.587 1.984-1.49.103-.903-.649-1.79-1.608-1.9-.381-.044-.741.025-1.214.328-.319-1.62-.41-2.981.396-4.438.815-1.471 2.13-2.404 3.703-2.97 3.455-1.241 6.226-.894 9.342-.245-1.265 1.997-2.156 4.785-2.495 6.837a2.855 2.855 0 0 0-1.429-.57z" class="st2"/><path d="m194.6 93.12-14.13-3.851-11.66 3.825-8.858-4.013-2.77 1.178-8.643-2.111-7.204 3.439-8.079-3.02-8.925-.183-5.248 2.074-5.857 2.87-9.579-2.444-10.14.646-4.893 1.557-5.332.471 10.54-7.63 4.912-5.537 7.762 3.295 6.833-8.117 2.598 1.394 5.778-7.003 4.965 3.5 6.218-8.71 2.691.24 3.328-3.711 7.957 4.383 9.102 7.134 2.943-2.114 4.255 2.276 1.901 3.42 2.49.062 5.795 3.254 2.156 3.69 9.09-3.485 7.932 9.466 5.022 4.558z" style="fill-rule:evenodd;clip-rule:evenodd;fill:#fff"/><path d="M89.02 92.96v-.003l9.442-4.17 4.042.104 7.714-2.116 5.251.166 2.328.996 5.298-5.167 4.36 2.54 5.934-5.766 2.422.152 3.055-2.742 7.102 3.131 7.726 4.582 2.735-1.54 3.785 1.607 1.682 2.482 2.242.022 4.934-3.214 2.717 2.348 8.362-2.727 7.262 5.741 6.842 3.635-13.77-3.753-11.66 3.825-8.858-4.013-2.77 1.178-8.643-2.111-7.204 3.439-8.079-3.02-8.925-.183-5.248 2.074-5.857 2.87-9.579-2.444-10.14.646zm110.7 86.05c1.421 1.435 2.881 3.556 3.846 5.642.703 1.521 1.047 2.96 1.32 4.464.44 2.419.451 4.597-.036 6.991-.421 2.064-1.057 4.141-1.504 6.232-.488 2.278-.453 3.8-.174 4.637.197.59.446.806.716.79.854-.05 2.498-3.247 3.084-4.156 1.085-1.68 1.622-3.464 2.466-4.831 1.892-3.068 6-3.391 9.217-3.004 2.047.246 4.022.721 5.722 1.834 1.273.833 2.384 1.956 3.53 3.06.717.689 2.729 2.65 5.103 4.577 1.709 1.387 3.604 2.537 5.16 4.074 1.25 1.234 2.314 2.742 2.497 4.54.066.652.202 1.497-.227 1.938 1.532 1.629 2.256 3.506 1.917 5.188-.247 1.228-1.102 2.334-2.413 3.264.189 2.423-1.787 5.293-4.76 5.33.075 1.444-.486 2.025-1.12 2.679-1.21 1.248-3.196 1.639-5.094.934-1.132-.42-2.034-1.369-2.772-1.997-1.143-.175-2.305-1.344-2.366-2.508-.064-1.216-.07-2.11.131-2.974.295-1.262.943-2.407 1.754-3.945.695-1.314.916-2.292.904-3.709-.006-.705.037-1.439-.272-2.045-.442-.867-1.163-1.419-1.953-1.93-1.791-1.158-3.795-1.582-5.887-1.498-.637.026-1.417.077-1.773.473-.404.448-.71 1.034-1.06 1.57-.894 1.37-1.71 2.863-2.486 4.186-.432.735-.84 1.514-1.34 2.13-.807 1.02-1.845 1.62-2.89 2.356-2.625 1.85-5.033 3.588-7.963 4.946-3.706 1.73-7.76.566-11.36-.971.45 2.186 1.022 4.185 2.352 6.002 1.26 1.722 1.882 3.234 1.823 4.57-.082 1.833-1.441 3.42-3.493 5.93-1.111 1.36-2.633 2.196-3.851 3.703-2.326 2.879-4.404 6.497-6.418 8.88-1.241 1.47-2.512 2.925-3.906 4.252-.023 1.85-1.543 3.96-3.608 4.81-1.711.704-4.206.204-5.208-.393-.744.674-2.087 1.195-3.457 1.325-1.37.13-2.874-.103-4.035-.245-1.591.5-3.17.97-4.5.845-4.04-.38-4.058-4.241-3.482-7.396.965-5.292 4.648-6.158 8.609-7.17 2.386-.61 5.856-1.504 7.662-3.333 2.164-2.192 3.925-5.5 5.403-8.246.755-1.404 1.202-2.678 1.074-3.802-.348-3.053-3.637-5.642-8.426-10.12-2.336-2.186-4.598-5.141-5.852-8.78-1.21-3.507-1.524-7.511-.443-10.95 1.257-4 4.656-6.95 6.71-10.54 1.391-2.433 1.567-3.948 1.061-4.276-.934-.605-2.512.074-4.466 2.355-3.043 3.55-4.396 8.029-7.736 11.48-2.903 3.003-6.516 5.446-12.16 8.322-3.984 2.029-8.17 3.946-12.36 4.7-3.7.667-8.277.015-10.85-.935.464 2.304 1.088 4.967 1.641 7.251 1.363 5.626 3.233 11.56 5.842 16.73 1.698 3.365 3.392 6.714 5.212 10.01l.467.845.131 2.508c-.842 1.697-1.59 2.557-2.932 3.912.162 3.082-1.977 6.204-4.094 7.422-2.4 1.382-5.953.408-7.898-1.183-2.385 1.12-4.939-.148-6.489-1.594-1.468.16-2.943-.127-4.298-.688-2.995-1.24-5.537-3.945-3.888-7.166.89-1.738 3.417-2.98 5.11-3.819 2.32-1.149 4.722-2.023 5.76-2.509-3.343-5.538-7.134-10.87-9.88-16.75-1.373-2.935-1.783-6.265-3.29-9.417-.772-1.615-1.94-3.12-4.159-5.623-2.364.365-4.683.507-7.082.34-6.369-.443-9.832-2.887-13.57-6.018-3.277-2.746-6.122-6.103-10.74-5.939-3.344.119-6.437 1.636-9.175 3.438.372.664.778 1.671.747 2.453-.034.845-.87 1.547-1.477 2.022.54.79 1.124 1.543 1.196 2.536.072 1.005-.353 1.992-1.09 2.815-1.008 1.125-2.548 1.731-4.172 2.044-4.33.833-9.06-.97-11.44-4.695-1.112-1.743-1.232-3.066-1.218-5.152.03-4.545 2.555-8.11 5.764-11 3.15-2.838 7.897-6.166 11.78-7.908 1.507-.677 2.71-1.073 3.84-1.18.869-.083 2.009.062 2.943.13 1.557.115 2.934.24 4.39.383-8.37-6.542-12.65-15.91-14.71-26.14-4.034-20.08 1.482-45.44 20.04-56.79.155-.095.316-.186.468-.287-.189-2.43-.187-4.932.32-7.34.115-.541.296-.958.627-1.193.343-.244.991.13 1.621.59 2.09 1.524 4.1 2.83 6.681 3.383 5.545 1.187 12.58-.545 17.29 3.428 2.143 1.81 2.826 4.585 4.884 6.34 1.325 1.12 3.065 2.336 4.331 3.805 1.122 1.302 1.723 3.203.922 4.968-.426.937-.978 1.114-1.94 1.247.037 1.99-.751 4.435-1.857 5.571-.032.286-.161 1.97-.2 2.197-.593 3.422-3.603 4.924-7.117 2.93-1.167-.686-3.36-2.113-4.756-1.326-3.075 1.566-6.93 1.361-10.22.824.686 22.34 14.26 16.05 24.29 23.96 2.281 1.8 5.346 4.446 5.841 7.396 23.71 11.93 33.48-9.544 54.56-6.676 11.48 1.561 21.95 7.71 28.78 6.106 5.707-1.39 12.16-7.472 15.25-12.61 2.778-4.622 3.348-10.39 2.82-15.66-.566-5.66-2.787-11.78-7.58-15.23-4.49-3.233-11.07-3.92-15.88-3.246-1.98.278-3.936.79-5.528 1.987-2.292 1.723-5.792 7.39-4.204 10.4.526.998 1.561 1.628 2.987 1.953-.164-3.259.559-5.59 4.228-7.186 2.756-1.198 5.995-.702 8.238.787 1.99 1.32 3.256 3.736 3.871 6.196.824 3.3.423 7.14-4.012 11.28-7.095 6.62-17.66 4.691-23.81-1.14-5.604-5.309-8.214-15.47-4.792-23.6 4.62-10.98 17.94-16.64 27.26-16.13 7.49.407 14.7 3.41 20.15 8.354 7.502 6.807 10.88 15.55 11.54 24.14.621 8.182.028 16.76-4.478 24.54-4.267 7.374-12.08 13.61-21.54 17.64-.873.372-1.755.738-2.639 1.083z" class="st5"/><path d="M94.11 109.9c-.042-.144.107-.22.215-.25.798-.234 2.297.52 2.898 1.068.748.683 1.32 1.602 1.608 2.156.39.75.608 1.68.626 2.396.005.195-1.074.42-1.208.089-.385-.96-.527-2.081-1.068-2.98-.495-.822-1.161-1.388-1.863-1.798-.421-.246-1.09-.27-1.21-.681zm105.5 72.12c.658 4.011.807 7.74.438 11.13-.54 4.975-2.33 9.77-5.042 13.5-4.08 5.613-6.989 10.24-6.644 17.39 1.726.828 3.636 1.457 5.42 1.964 2.609.744 4.59.693 6.315-.111 1.488-.69 4.258-2.41 6.642-4.071 1.342-.937 2.621-1.717 3.337-2.623.414-.51 1.683-2.92 2.938-4.902.975-1.542 2.047-2.752 2.03-3.08 1.086-1.205 2.487-1.158 3.343-1.191 2.761-.112 5.371.522 7.49 1.893 1.521.985 2.626 2.09 3.12 3.45.208.572.21 1.41.228 2.258.02.902.044 1.818-.075 2.464-.292 1.588-1.157 2.812-1.852 4.189-.607 1.204-1.287 2.633-.866 4.02.046.152.167.26.24.314a.433.433 0 0 0 .328.064c.116-.015.234-.058.35-.024a.412.412 0 0 1 .216.164c.034.047.074.119.112.185l.6.507c.223.2.506.483.799.737.597.517 1.284.803 2.095.776.56-.02.884-.282 1.266-.677.626-.645.35-1.206.303-2.1-.208-.25-.329-.55-.363-.899-.035-.359.052-.49.465-.483 1.183.018 2.356.48 3.492-.238.57-.36 1.093-1 1.098-1.635.003-.393-.279-.613-.554-.87-1.209-1.13-.649-.938.771-1.576.372-.167.74-.29 1.065-.494 1.1-.688 1.478-1.66 1.121-2.878-.323-1.1-1.327-2.032-2.51-2.557-.413-.182.177-.712.337-.952.44-.654.73-1.22.647-1.803-.112-.8-.685-1.673-1.73-2.91-.847-.838-1.86-1.578-2.93-2.36l-2.048-1.552c-2.327-1.889-4.294-3.785-5.133-4.595l-.51-.492c-.952-.92-1.849-1.787-2.782-2.397-1.14-.747-2.574-1.192-4.644-1.441-1.58-.19-5.406-.393-6.776 1.828-.298.483-.585 1.116-.888 1.787-.601 1.328-1.293 2.562-2.036 3.81-.851 1.464-3.512 5.882-5.995 4.625-.64-.324-1.464-1.326-1.872-2.55-.475-1.425-.442-3.43.099-5.96l.748-3.077.751-3.132c.411-2.015.419-3.877.026-6.04-.506-2.793-1.604-5.205-2.978-7.392zm-128.9 9.255.31.562c-.408-3.412-.103-6.813 1.034-9.892.28-.927.577-.5.504.303-1.029 15.07 5.172 24.21 15.03 30.37 1.204.69.653 1.125-.45.78-7.747-2.94-13.36-10.19-15.43-17.96-3.296-.71-7.69-1.41-10.66-1.133-.78.074-1.72.374-3.05.972-2.116.95-4.551 2.516-6.795 4.052-3.176 2.174-6.05 4.57-7.781 7.497-1.125 1.902-1.72 4.353-1.536 6.58.32 3.846 5.183 6.327 8.636 6.124.777-.046 1.885-.321 2.766-.751 3.117-1.523.258-3.824-1.214-4.926 2.072-.771 2.726-1.384 2.687-2.202-.032-.677-.461-1.084-1.041-1.36-.658-.314-1.51-.46-2.196-.643.68-.27 1.443-.392 2.154-.677 1.042-.416 2.036-1.216 2.992-1.809 1.23-.764 2.486-1.487 3.799-2.018 3.064-1.238 5.923-1.559 9.086-.634 2.973.87 5.042 2.57 7.335 4.604 2.023 1.763 3.646 3.542 5.374 4.602 1.382.848 2.858 1.225 4.39 1.584 2.39.56 5.84.88 9.384.622-.496-1.28-1.081-3.028-1.567-4.578-.315-.988-.797-2.092-.956-3.11-.114-.73.488-.531.734-.33 1.432 1.174 2.075 3.166 2.657 4.844.685 1.977 1.912 3.557 3.294 5.104 1.427 1.758 3.378 3.413 4.229 5.543 1.115 2.792 1.04 6 2.911 9.279 1.095 1.917 2.68 3.307 4.23 5.839.798 1.302 1.592 2.924 2.304 4.422a81.876 81.876 0 0 0 2.825 5.443c.669 1.174 1.419 2.337 2.075 3.512-4.71.815-7.99 1.648-10.9 3.729-.83.593-2.246 1.758-2.031 2.986.184 1.054 1.442 2.07 2.933 2.673 1.855.75 2.878.48 4.087-1.114.216-.285.637-.129.636.176-.01 1.978.433 2.622 2.33 3.199 1.625.493 1.923-.524 2.545-2.076.08-.202.52-.265.584-.01.536 2.145.166 1.928 2.154 2.893 1.162.564 2.609.879 3.84.552 1.394-.37 1.835-1.512 2.383-2.65.62-1.29 1.184-2.724-.934-4.225-.247-.176-.152-.627.073-.651.758-.082 2.86-.264 3.291-.701 2.026-2.053 1.034-3.016-.057-5.022-1.557-2.864-2.922-5.628-4.325-8.407-2.372-4.704-4.337-10.53-5.973-17.29-.566-2.334-1.162-4.48-1.633-6.82-.996-4.79-3.039-9.778-3.523-14.58-.527-5.236.765-9.572-1.247-14.69-.304-.773.038-1.05.476-.485 1.39 1.792 2.071 3.442 2.395 5.068.577 2.899.02 5.726.328 9.16.308 3.446 1.861 7.32 3.31 11.91 3.59 1.279 6.634 1.63 10.1 1.175 4.455-.586 8.708-2.438 12.8-4.57 3.108-1.616 6.162-3.343 8.728-5.483 3.339-2.784 5.758-5.955 7.802-9.091 1.283-1.97 2.285-3.831 3.355-5.125 2.44-2.953 5.372-3.305 6.683-2.372 1.485 1.057 1.755 3.066.95 5.075-.615 1.53-1.643 2.81-2.62 4.092-2.203 2.885-3.987 5.152-4.872 7.753-.667 1.96-.745 4.11-.552 6.849.183 2.608 1.314 5.592 4.582 9.572 2.402 2.925 5.106 5.67 7.842 8.28.738.705 1.456 1.375 2.012 2.418 1.113 2.087 1.049 3.169-.195 5.665-.717 1.44-1.59 2.944-2.413 4.502-1.202 2.279-2.437 4.588-4.078 6.255-3 3.046-6.97 3.238-10.78 4.48-2.678.873-4.328 3.13-4.664 5.668-.082.621-.077 1.198-.044 1.835-.032 1.102.415 1.632 1.11 1.826.602.166 1.108.034 1.704-.035.298-.034.948-.133 1.208-.31.588-.398.96-1.158 1.12-1.786.118-.46.18-.8.279-1.114l.402.092c.101.594.188 1.22.33 1.747.234.862.404 1.006 1.188 1.244a4.402 4.402 0 0 0 3.339-.339c.322-.175.592-.357.856-.74.53-.767.582-1.923.726-3.119l.49-.025c.48 1.369.635 2.66 2.266 3.057.62.15 1.29.243 1.837.167 1.484-.206 2.583-1.369 2.777-3.207-.508-.38-.895-1.023-1.035-1.722 2.65.24 3.53-.922 5.333-2.812.719-.753 1.259-1.53 1.879-2.366 1.404-1.89 2.462-4.049 3.737-5.865.93-1.326 2.012-2.343 3.259-3.57 1.524-1.499 3.593-3.217 4.2-5.36.344-1.214.11-2.495-1.1-3.714-1.235-1.963-1.98-3.548-2.562-5.865-.462-1.836-.817-3.33-.86-5.189-.165-7.333 2.95-12.27 6.985-17.82 2.543-3.498 4.223-8.008 4.732-12.7.433-3.99.116-8.488-.943-13.4-.183-.85-.87-1.694-.985-1.839 2.837-1.296 5.913-2.51 8.746-3.933 3.056-1.534 6.13-3.394 8.822-5.588 3.446-2.808 5.916-5.946 7.877-9.335 3.559-6.148 4.877-13.49 4.147-23.09-.474-6.244-2.72-15.21-10.72-22.47-5.06-4.592-11.66-7.329-18.6-7.707-8.773-.478-20.75 4.967-24.8 14.6-2.276 5.41-1.768 11.7.56 16.33 2.948 5.864 10.54 9.86 16.98 8.95a12.799 12.799 0 0 0 7.026-3.358c2.467-2.303 3.347-4.326 3.527-6.05.264-2.536-.903-6.057-3.06-7.489-2.398-1.592-6.46-1.399-8.11 1.206-1.114 1.76-.826 4.618.313 6.246-3.39.02-6.796-.713-8.49-3.927-2.465-4.67 2.33-11.64 4.916-13.58 2.242-1.685 4.893-2.215 6.691-2.467 3.02-.423 6.692-.132 10.39.766 4.465 1.083 7.946 3.212 10.51 6.153 3.094 3.55 4.856 8.285 5.407 13.8.468 4.668.298 11.44-3.167 17.21-3.298 5.486-10.31 12.17-16.83 13.76-4.586 1.079-9.955-.631-16.17-2.611-4.344-1.384-8.836-2.814-13.52-3.451-8.25-1.123-14.61 1.809-21.34 4.913-9.275 4.278-18.86 8.699-32.99 2.018.17 1.9-.202 3.661-.799 5.571l-.556-.037c-.244-2.004-.335-4.366-.775-6.477-.542-2.594-1.278-3.534-3.254-5.342-1.582-1.447-3.235-2.898-5.397-3.638-2.525-.863-5.232-.954-7.766-1.809-3.946-1.332-7.751-3.906-10.76-9.285-1.214-2.174-2.634-4.684-3.096-8.334-.15-1.18.065-3.243-.046-4.85-4.645-3.378-4.794-8.06-4.822-11.86.006-.426 1.053-.802 1.101-.416.393 2.851.547 5.997 1.765 8 1.724 2.833 5.66 3.265 8.945 3.017 2.3-.173 4.56-.738 6.91-.844 1.643-.074 2.583.569 4.121 1.576 1.323.866 3.384 1.242 4.135.342.301-.362.532-2.102.893-3.208-2.846-.28-6.299-1.156-8.905-2.337-1.403-.637-2.151-1.315-2.162-2.276-.011-1.002.744-1.224.946-.437.071.28.012.544.167.804.322.539 1.246 1.016 2.327 1.435 1.301.504 2.841.855 3.284.97 1.261.33 2.305.308 3.474.323.809.01 1.25.032 1.556-.278.728-.738 1.234-3.316 1.242-4.265-1.376-.524-2.14-.566-2.525-2.162-.362-1.105 1.062-1.178 1.328-.803.189.266.62 1.694 1.964 1.525 1.104-.14.887-1.911.626-2.811-.256-.888-.957-1.328-1.847-2.12-1.289-1.143-3.103-2.065-4.195-3.44-1.288-1.62-1.352-2.895-2.209-3.928-1.887-2.274-4.417-3.281-9.666-3.524-2.819-.13-5.452-.183-7.89-.706-2.488-.532-5.01-1.423-6.747-2.73-.215 1.212-.302 3.12-.139 4.64.085.795.104 1.212.294 1.661.263.62.738 1.133 1.188 1.621.61.661 1.081 1.064 2.021 1.02.197.01.313.366-.041.67-.484.414-1.338.771-1.943.395-.696-.433-1.445-1.894-2.138-3.215-9.552 5.8-15.32 14.55-18.44 26.33-2.671 10.09-3.152 19.29-.523 29.51 2.594 10.08 5.295 17.89 14.51 24.37zm8.617-80.18c-.564-.813-1.003-1.833-.908-2.812.023-.234.097-.468.32-.512.173-.034.347.055.508.195.46.398.925.937 1.407 1.305.41.313.884.514 1.375.666.148.046.294.093.43.16.099.033.147.11.161.2.037.233-.117.445-.251.619-.318.414-.888.893-1.368 1.024-.663.18-1.32-.334-1.673-.845zm15.65 5.136a1.63 1.63 0 0 1-3.223-.328c0-1.061.122-.95-.85-1.026-.248-.02-.36.069-.324.375.052.43.487 1.447.833 2.054.157.276.267.608.17.706-.766.773-2.005-2.327-2.136-2.845-.092-.362-.796-.653-1.05-.995-.905-1.216 5.334-.39 5.637-.378.181.006-.143-.482-.543-.945-.354-.41-.798-.784-.568-1.003.52-.496 2.047 1.08 2.842 1.96.822.91 1.004 1.862 1.398 3.026.407 1.202.519 2.212-.105 2.148-2.932.178-2.31-.718-1.894-.985.767-.203.789-1.184.507-1.695-.24-.433-.587-.585-.692-.069z" style="fill:#fff"/><ellipse cx="207.2" cy="210.1" class="st5" rx="1.304" ry="1.211"/><ellipse cx="225.6" cy="205.1" class="st5" rx="1.211" ry="1.118"/><ellipse cx="220.2" cy="200.5" class="st5" rx="1.211" ry="1.118"/><ellipse cx="198.2" cy="218.3" class="st5" rx="2.096" ry="1.77"/><circle cx="205.7" cy="217" r="1.351" class="st5"/><ellipse cx="213.6" cy="204.7" class="st5" rx="1.211" ry="1.118"/><ellipse cx="211.8" cy="210.7" class="st5" rx="1.211" ry="1.118"/><ellipse cx="199.4" cy="210.1" class="st5" rx="2.142" ry="1.956"/><ellipse cx="96.17" cy="202.6" class="st5" rx="2.334" ry="1.849"/><ellipse cx="97.94" cy="209.3" class="st5" rx="2.334" ry="1.849"/><ellipse cx="217.4" cy="118.2" class="st5" rx="1.77" ry="1.49"/><ellipse cx="224.8" cy="133.1" class="st5" rx="1.211" ry="1.304"/><ellipse cx="221.5" cy="157.2" class="st5" rx="1.304" ry="1.397"/><ellipse cx="178.3" cy="138.7" class="st5" rx="1.77" ry="2.068"/><ellipse cx="174.8" cy="130.7" class="st5" rx="1.77" ry="2.049"/><ellipse cx="185.8" cy="143.1" class="st5" rx="1.584" ry="1.863"/><circle cx="193.5" cy="134.5" r="1.584" class="st5"/><ellipse cx="207.6" cy="112.5" class="st5" rx="1.304" ry="1.211"/><ellipse cx="191.9" cy="115.1" class="st5" rx="1.211" ry="1.118"/><ellipse cx="201.6" cy="114.1" class="st5" rx="1.956" ry="1.77"/><ellipse cx="177" cy="120.6" class="st5" rx="1.677" ry="1.77"/><ellipse cx="188.4" cy="111.6" class="st5" rx="1.491" ry="1.211"/><ellipse cx="211.9" cy="119.1" class="st5" rx="1.584" ry="1.398"/><ellipse cx="215.9" cy="165.4" class="st5" rx="1.211" ry="1.304"/><ellipse cx="221.1" cy="152.3" class="st5" rx="2.236" ry="2.05"/><ellipse cx="207.1" cy="168.7" class="st5" rx="2.236" ry="2.05"/><circle cx="87.15" cy="164.5" r="1.211" class="st5"/><circle cx="92.61" cy="159.4" r="1.211" class="st5"/><circle cx="106.2" cy="177.9" r="1.211" class="st5"/><circle cx="110.9" cy="194.8" r="1.211" class="st5"/><circle cx="181.7" cy="186.5" r="1.211" class="st5"/><circle cx="174.9" cy="199.5" r="1.211" class="st5"/><circle cx="178" cy="208.7" r="1.211" class="st5"/><circle cx="182.7" cy="220.9" r="1.211" class="st5"/><circle cx="141.8" cy="197.7" r="1.211" class="st5"/><circle cx="125.9" cy="199.5" r="1.211" class="st5"/><ellipse cx="48.72" cy="208.4" class="st5" rx="1.211" ry="1.397"/><circle cx="67.74" cy="141.9" r="1.211" class="st5"/><circle cx="94.69" cy="194.5" r="1.211" class="st5"/><ellipse cx="60.74" cy="157.5" class="st5" rx="1.211" ry="1.304"/><ellipse cx="67.21" cy="165" class="st5" rx="1.211" ry="1.397"/><ellipse cx="186.7" cy="238.9" class="st5" rx="1.4" ry="1.301" transform="rotate(-30.39 186.747 238.899)"/><ellipse cx="66.01" cy="197.4" class="st5" rx="1.211" ry="1.118"/><ellipse cx="53.24" cy="203" class="st5" rx="1.794" ry="1.373" transform="rotate(-12.638 53.204 203.012)"/><ellipse cx="74.22" cy="134.9" class="st5" rx="1.304" ry="1.397"/><ellipse cx="72.18" cy="143.1" class="st5" rx="1.304" ry="1.397"/><ellipse cx="60.97" cy="202.9" class="st5" rx="1.845" ry="1.694" transform="rotate(-55.75 60.945 202.934)"/><ellipse cx="169.8" cy="204.7" class="st5" rx="1.397" ry="1.49"/><ellipse cx="181.9" cy="212.5" class="st5" rx="2.422" ry="2.236"/><ellipse cx="190.6" cy="200.9" class="st5" rx="2.515" ry="2.236"/><ellipse cx="178.4" cy="226.5" class="st5" rx="1.91" ry="1.723"/><ellipse cx="172.7" cy="214.2" class="st5" rx="1.391" ry="1.868" transform="rotate(-11.058 172.694 214.215)"/><ellipse cx="186.3" cy="233.5" class="st5" rx="1.394" ry="1.68" transform="rotate(-18.457 186.296 233.458)"/><ellipse cx="176.6" cy="192.1" class="st5" rx="1.677" ry="1.863"/><ellipse cx="185" cy="193.8" class="st5" rx="2.702" ry="2.422"/><ellipse cx="195.5" cy="189.2" class="st5" rx="2.888" ry="2.143"/><ellipse cx="195.1" cy="182.8" class="st5" rx="2.329" ry="1.677"/><ellipse cx="101.1" cy="183.6" class="st5" rx="1.583" ry="1.863"/><ellipse cx="83.41" cy="177.1" class="st5" rx="1.583" ry="1.863"/><ellipse cx="105.9" cy="200.5" class="st5" rx="1.677" ry="1.956"/><ellipse cx="89.66" cy="200" class="st5" rx="1.677" ry="1.956"/><ellipse cx="95.03" cy="165.1" class="st5" rx="1.77" ry="2.049"/><ellipse cx="108" cy="170.7" class="st5" rx="1.774" ry="2.325" transform="rotate(-12.735 107.902 170.664)"/><ellipse cx="81.31" cy="148.4" class="st5" rx="1.863" ry="2.049"/><ellipse cx="87.27" cy="157.3" class="st5" rx="1.583" ry="1.584"/><ellipse cx="70.03" cy="153.9" class="st5" rx="1.583" ry="1.584"/><ellipse cx="80.03" cy="140.1" class="st5" rx="1.397" ry="1.863"/><ellipse cx="70.93" cy="163.5" class="st5" rx="1.397" ry="1.863"/><ellipse cx="86.5" cy="128.5" class="st5" rx="1.85" ry="1.598" transform="rotate(-72.777 86.514 128.508)"/><ellipse cx="90.08" cy="130.1" class="st5" rx="1.118" ry="1.304"/><ellipse cx="91.57" cy="124.3" class="st5" rx="1.211" ry="1.304"/><ellipse cx="84.01" cy="123.3" class="st5" rx="1.584" ry="1.397" transform="rotate(-78.989 83.995 123.3)"/><ellipse cx="120.8" cy="204.8" class="st5" rx="1.489" ry="1.678" transform="rotate(-14.715 120.827 204.814)"/><ellipse cx="137" cy="203.3" class="st5" rx="1.768" ry="1.864" transform="rotate(-19.678 136.983 203.325)"/><ellipse cx="132.2" cy="198.2" class="st5" rx="1.765" ry="2.24" transform="rotate(-19.678 132.236 198.167)"/><ellipse cx="110.6" cy="228.2" class="st5" rx="1.677" ry="2.142" transform="rotate(-10.003 110.657 228.147)"/><ellipse cx="118.3" cy="229.9" class="st5" rx="1.677" ry="2.142" transform="rotate(-10.003 118.285 229.867)"/><ellipse cx="112.8" cy="234.8" class="st5" rx="1.677" ry="2.142" transform="rotate(-10.003 112.797 234.683)"/><ellipse cx="107.2" cy="220.5" class="st5" rx="2.234" ry="2.051" transform="rotate(-19.421 107.231 220.486)"/><ellipse cx="115.5" cy="221.7" class="st5" rx="2.329" ry="2.142" transform="rotate(-20.016 115.455 221.687)"/><ellipse cx="112.6" cy="213.2" class="st5" rx="2.218" ry="2.504" transform="rotate(-15.549 112.635 213.218)"/><ellipse cx="73.09" cy="118.4" class="st5" rx="2.143" ry="1.677" transform="rotate(-61.79 73.118 118.47)"/><ellipse cx="65.08" cy="173.1" class="st5" rx="2.424" ry="3.071" transform="rotate(-14.579 65.07 173.044)"/><ellipse cx="68.2" cy="180.8" class="st5" rx="1.961" ry="2.511" transform="rotate(-19.421 68.21 180.846)"/><ellipse cx="62.48" cy="162.7" class="st5" rx="2.327" ry="2.889" transform="rotate(-8.583 62.516 162.736)"/><ellipse cx="61.22" cy="152" class="st5" rx="2.705" ry="2.25" transform="rotate(-77.009 61.193 151.926)"/><ellipse cx="65.09" cy="133.3" class="st5" rx="2.693" ry="2.152" transform="rotate(-69.86 65.085 133.3)"/><ellipse cx="62.43" cy="142.3" class="st5" rx="2.699" ry="2.144" transform="rotate(-67.797 62.42 142.256)"/><ellipse cx="68.79" cy="125.3" class="st5" rx="2.601" ry="2.057" transform="rotate(-62.561 68.78 125.292)"/><ellipse cx="91.88" cy="178.3" class="st5" rx="2.701" ry="2.143" transform="rotate(-51.239 91.847 178.31)"/><ellipse cx="92.11" cy="189.8" class="st5" rx="2.701" ry="2.144" transform="rotate(-51.194 92.08 189.756)"/><ellipse cx="109" cy="186.4" class="st5" rx="2.701" ry="2.143" transform="rotate(-51.244 108.982 186.406)"/><ellipse cx="123.6" cy="175.8" class="st5" rx="2.049" ry="2.422" transform="rotate(-88.12 123.58 175.74)"/><ellipse cx="146.9" cy="174.4" class="st5" rx="2.508" ry="2.057" transform="rotate(-6.332 146.846 174.35)"/><ellipse cx="148.9" cy="186.1" class="st5" rx="2.508" ry="2.057" transform="rotate(-6.332 148.955 186.129)"/><ellipse cx="135.1" cy="176.4" class="st5" rx="2.328" ry="1.957" transform="rotate(-5.526 135.198 176.515)"/><ellipse cx="170.2" cy="170.4" class="st5" rx="2.049" ry="2.515" transform="rotate(-88.47 170.267 170.46)"/><ellipse cx="172" cy="180.7" class="st5" rx="2.049" ry="2.329" transform="rotate(-87.541 172.017 180.69)"/><ellipse cx="158.5" cy="170.3" class="st5" rx="2.509" ry="2.055" transform="rotate(-6.471 158.515 170.363)"/><ellipse cx="182.5" cy="178.7" class="st5" rx="2.049" ry="2.515" transform="rotate(-88.47 182.548 178.704)"/><ellipse cx="161.1" cy="182.4" class="st5" rx="2.51" ry="2.055" transform="rotate(-7.387 161.118 182.419)"/><ellipse cx="181.8" cy="170.8" class="st5" rx="2.049" ry="2.422" transform="rotate(-88.12 181.866 170.822)"/><ellipse cx="124.3" cy="189.7" class="st5" rx="2.919" ry="2.401"/><ellipse cx="136.4" cy="188.5" class="st5" rx="2.514" ry="2.051" transform="rotate(-4.211 136.38 188.443)"/><path d="M132 168.1c-.935-2.001-1.749-3.329-3.793-4.37-.945-.481-2.184-.835-3.473-1.223-3.167-.954-5.751-2.623-8.204-4.803-3.287-2.922-5.085-6.858-6.335-10.99-1.353-4.47-2.203-9.222-3.567-12.02-.52-1.068-.931-2.006-1.567-2.908.194-.784.436-1.551.613-2.341 2.072 2.687 3.378 5.978 4.264 9.234.31 1.138.602 2.288.902 3.435.5 1.914.657 3.434 2.195 4.77 1.013.88 2.212 1.395 3.408.721 2.728-1.537.84-6.019.823-8.254-.01-1.319.516-2.14 1.469-2.956-.26.655-.663 1.304-.683 2.012-.096 3.244 2.514 6.936-.013 9.868-1.227 1.424-3.285 1.56-4.974.95 1.057 2.6 2.454 5.035 4.535 7.128 2.918 2.937 6.083 4.008 9.827 2.26-.135.398-.363.816-.62 1.202a14.853 14.853 0 0 0 3.253-.59c1.852-.547 3.805-1.133 4.405-3.16.325-1.097.233-2.3-1.013-2.484-.493-.072-1.218.192-1.857.693.24-1.523 2.086-2.21 3.248-1.52.909.538 1.238 1.841 1.062 3.01 3.472-3.774 3.12-9.249 3.874-13.9.363 4.953.897 10.76-2.301 14.57 3.857-.598 7.868-2.13 11.39-3.72-1.432 1.48-3.791 2.953-7.228 4.051.869.568 1.438 1.624 1.465 2.64a3.866 3.866 0 0 1-.57 2.088c-.385.615-.913 1.03-1.53 1.333-1.176.58-2.59.93-3.362 2.708-.215-1.834.4-2.327 1.128-2.683-.528-1.302-.256-2.663 1.318-3.078-.6.576-.925 1.585-.493 1.95.472.398 1.334.043 1.9-.641.933-1.13.562-2.53-.867-2.851-1.825-.41-3.932.45-5.619 1.111-1.73.678-3.357 1.462-5.198 1.81-.739.14-1.518.236-2.335.3.954.536 2.45 1.234 3.753 3.047.77 1.071.702 2.341.77 3.595zm-39.49-23.63c-1.527.795-3.398-.244-4.026-2.875-1.146 5.236 4.217 5.854 6.158 3.471 1.542 2.148 4.566 1.254 4.33-2.013-1.073 1.899-2.371 1.881-3.002 1.013-.632-.868-.585-2.582-.474-4.316.238-3.735 1.59-9.35 2.369-10.42a20.187 20.187 0 0 1-1.644-.699c-1.532 3.087-2.612 9.058-2.51 12.8.037 1.358.184 2.322-1.201 3.041z" style="fill-rule:evenodd;clip-rule:evenodd;fill:#0f0"/><g id="Flowers"><path d="m149.2 116.8-1.505 1.492c-.665.916.109 2.612 1.729 3.789s3.473 1.389 4.138.473l.954-1.893.954 1.893c.665.916 2.519.704 4.138-.473 1.62-1.177 2.394-2.874 1.729-3.789l-1.505-1.492 2.095-.323c1.076-.35 1.447-2.178.828-4.082-.618-1.904-1.993-3.165-3.07-2.815l-1.884.97.341-2.091c0-1.132-1.624-2.05-3.626-2.05s-3.626.919-3.626 2.05l.34 2.092-1.883-.97c-1.076-.35-2.451.91-3.07 2.814-.619 1.904-.248 3.732.828 4.082zm2.85-.487-.902.972c-.379.522-.17 1.32.466 1.782.636.463 1.46.414 1.839-.107l.65-1.156a2.758 2.758 0 0 1-2.053-1.49zm2.88 1.49.65 1.156c.379.522 1.202.57 1.839.108.636-.462.844-1.26.465-1.782l-.902-.973a2.758 2.758 0 0 1-2.052 1.49zm2.307-2.277 1.304-.263c.613-.2.914-.967.67-1.716-.243-.748-.937-1.193-1.55-.993l-1.21.56a2.75 2.75 0 0 1 .785 2.412zm-1.449-2.895.153-1.327c0-.645-.637-1.168-1.424-1.168-.786 0-1.424.523-1.424 1.168l.158 1.324a2.748 2.748 0 0 1 2.538.003zm-3.205.482-1.211-.559c-.613-.199-1.308.246-1.551.994-.243.748.057 1.516.67 1.716l1.305.263a2.749 2.749 0 0 1 .787-2.414zm-1.781 3.168-1.052 1.043c-.465.64.076 1.826 1.208 2.648s2.428.97 2.892.33l.667-1.322.666 1.323c.465.64 1.76.492 2.892-.331s1.673-2.01 1.208-2.648l-1.052-1.043 1.464-.225c.752-.244 1.011-1.522.58-2.853-.433-1.331-1.395-2.212-2.147-1.968l-1.317.678.239-1.462c0-.791-1.135-1.432-2.534-1.432s-2.534.641-2.534 1.432l.237 1.462-1.317-.678c-.752-.245-1.713.636-2.146 1.968-.432 1.33-.173 2.609.58 2.853zm3.715.437a1.64 1.64 0 1 0 0-3.28 1.64 1.64 0 0 0 0 3.28zM119.7 116.8l-1.505 1.492c-.665.916.109 2.612 1.729 3.789s3.473 1.389 4.138.473l.954-1.893.954 1.893c.665.916 2.519.704 4.138-.473 1.62-1.177 2.394-2.874 1.729-3.789l-1.505-1.492 2.095-.323c1.076-.35 1.447-2.178.829-4.082-.619-1.904-1.993-3.165-3.07-2.815l-1.884.97.34-2.091c0-1.132-1.624-2.05-3.626-2.05s-3.626.919-3.626 2.05l.341 2.092-1.884-.97c-1.076-.35-2.451.91-3.07 2.814-.619 1.904-.248 3.732.829 4.082zm2.85-.487-.902.972c-.379.522-.17 1.32.466 1.782.636.463 1.46.414 1.839-.107l.65-1.156a2.757 2.757 0 0 1-2.052-1.49zm2.879 1.49.65 1.156c.379.522 1.202.57 1.839.108.636-.462.844-1.26.465-1.782l-.902-.973a2.758 2.758 0 0 1-2.052 1.49zm2.307-2.277 1.304-.263c.613-.2.914-.967.67-1.716-.242-.748-.937-1.193-1.55-.993l-1.21.56a2.75 2.75 0 0 1 .786 2.412zm-1.449-2.895.153-1.327c0-.645-.637-1.168-1.424-1.168s-1.424.523-1.424 1.168l.157 1.324a2.749 2.749 0 0 1 2.538.003zm-3.205.482-1.21-.559c-.613-.199-1.308.246-1.551.994-.243.748.057 1.516.67 1.716l1.305.263a2.75 2.75 0 0 1 .787-2.414zm-1.781 3.168-1.052 1.043c-.465.64.076 1.826 1.208 2.648 1.132.823 2.428.97 2.893.33l.667-1.322.666 1.323c.465.64 1.761.492 2.893-.331s1.673-2.01 1.208-2.648l-1.052-1.043 1.464-.225c.752-.244 1.011-1.522.58-2.853-.434-1.331-1.395-2.212-2.147-1.968l-1.317.678.238-1.462c0-.791-1.135-1.432-2.534-1.432-1.4 0-2.534.641-2.534 1.432l.238 1.462-1.317-.678c-.752-.245-1.713.636-2.146 1.968-.432 1.33-.173 2.609.58 2.853zm3.715.437a1.64 1.64 0 1 0 0-3.28 1.64 1.64 0 0 0 0 3.28z" class="st8"/><path d="m152.7 133-1.505 1.492c-.665.916.109 2.612 1.729 3.789s3.473 1.389 4.138.473l.954-1.893.954 1.893c.665.916 2.519.704 4.138-.473 1.62-1.177 2.394-2.874 1.729-3.789L163.332 133l2.095-.323c1.076-.35 1.447-2.178.828-4.082s-1.993-3.165-3.07-2.815l-1.884.971.341-2.092c0-1.132-1.624-2.049-3.626-2.049s-3.626.918-3.626 2.049l.34 2.092-1.884-.97c-1.076-.35-2.45.91-3.07 2.814-.618 1.904-.248 3.732.829 4.082zm2.85-.487-.901.972c-.38.522-.171 1.32.465 1.782.636.462 1.46.414 1.84-.108l.649-1.156a2.758 2.758 0 0 1-2.052-1.49zm2.88 1.49.65 1.156c.379.522 1.202.57 1.839.108.636-.462.844-1.26.465-1.782l-.902-.973a2.758 2.758 0 0 1-2.052 1.49zm2.307-2.277 1.304-.263c.613-.2.914-.968.67-1.716-.243-.748-.937-1.193-1.55-.994l-1.21.56a2.75 2.75 0 0 1 .785 2.412zm-1.449-2.896.153-1.327c0-.645-.637-1.168-1.424-1.168-.786 0-1.424.523-1.424 1.168l.158 1.324a2.75 2.75 0 0 1 2.538.003zm-3.205.482-1.21-.558c-.613-.2-1.308.245-1.551.993-.243.748.057 1.516.67 1.716l1.304.263a2.75 2.75 0 0 1 .787-2.414zm-1.781 3.168-1.052 1.043c-.465.64.076 1.826 1.208 2.648 1.132.822 2.428.97 2.893.33l.666-1.322.667 1.323c.465.64 1.76.491 2.892-.331 1.132-.823 1.673-2.01 1.208-2.648l-1.052-1.043 1.464-.225c.752-.245 1.011-1.522.58-2.853-.433-1.331-1.395-2.212-2.147-1.968l-1.317.678.238-1.462c0-.791-1.135-1.432-2.534-1.432-1.399 0-2.534.641-2.534 1.432l.238 1.462-1.317-.678c-.752-.245-1.713.636-2.146 1.968-.432 1.33-.173 2.609.58 2.853zm3.715.437a1.64 1.64 0 1 0 0-3.28 1.64 1.64 0 0 0 0 3.28zM134.4 128.5l-1.505 1.492c-.665.916.109 2.612 1.729 3.789s3.473 1.389 4.138.473l.954-1.893.954 1.893c.665.916 2.519.704 4.138-.473 1.62-1.177 2.394-2.874 1.729-3.789l-1.505-1.492 2.095-.323c1.076-.35 1.447-2.178.828-4.082-.618-1.904-1.993-3.165-3.07-2.815l-1.884.971.341-2.092c0-1.132-1.624-2.049-3.626-2.049s-3.626.918-3.626 2.049l.34 2.092-1.883-.97c-1.076-.35-2.451.91-3.07 2.814-.619 1.904-.248 3.732.828 4.082zm2.85-.487-.902.972c-.379.522-.17 1.32.466 1.782.636.462 1.46.414 1.839-.108l.65-1.156a2.758 2.758 0 0 1-2.053-1.49zm2.88 1.49.65 1.156c.379.522 1.202.57 1.839.108.636-.462.844-1.26.465-1.782l-.902-.973a2.758 2.758 0 0 1-2.052 1.49zm2.307-2.277 1.304-.263c.613-.2.914-.968.67-1.716-.243-.748-.937-1.193-1.55-.994l-1.21.56a2.749 2.749 0 0 1 .785 2.412zm-1.449-2.896.153-1.327c0-.645-.637-1.168-1.424-1.168-.786 0-1.424.523-1.424 1.168l.158 1.324a2.75 2.75 0 0 1 2.538.003zm-3.205.482-1.211-.558c-.613-.2-1.308.245-1.551.993-.243.748.057 1.516.67 1.716l1.305.263a2.75 2.75 0 0 1 .787-2.414zm-1.781 3.168-1.052 1.043c-.465.64.076 1.826 1.208 2.648 1.132.822 2.428.97 2.892.33l.667-1.322.666 1.323c.465.64 1.76.491 2.892-.331 1.132-.823 1.673-2.01 1.208-2.648l-1.052-1.043 1.464-.225c.752-.245 1.011-1.522.58-2.853-.433-1.331-1.395-2.212-2.147-1.968l-1.317.678.239-1.462c0-.791-1.135-1.432-2.534-1.432s-2.534.641-2.534 1.432l.237 1.462-1.317-.678c-.752-.245-1.713.636-2.146 1.968-.432 1.33-.173 2.609.58 2.853zm3.715.437a1.64 1.64 0 1 0 0-3.28 1.64 1.64 0 0 0 0 3.28zM116.2 133l-1.505 1.492c-.665.916.109 2.612 1.729 3.789s3.473 1.389 4.138.473l.954-1.893.954 1.893c.665.916 2.518.704 4.138-.473s2.394-2.874 1.729-3.789L126.832 133l2.095-.323c1.076-.35 1.447-2.178.829-4.082s-1.993-3.165-3.07-2.815l-1.884.971.34-2.092c0-1.132-1.623-2.049-3.625-2.049s-3.626.918-3.626 2.049l.34 2.092-1.884-.97c-1.076-.35-2.451.91-3.07 2.814s-.248 3.732.829 4.082zm2.85-.487-.901.972c-.38.522-.171 1.32.465 1.782.636.462 1.46.414 1.84-.108l.649-1.156a2.758 2.758 0 0 1-2.052-1.49zm2.879 1.49.65 1.156c.379.522 1.202.57 1.839.108.636-.462.844-1.26.465-1.782l-.902-.973a2.758 2.758 0 0 1-2.052 1.49zm2.307-2.277 1.304-.263c.613-.2.914-.968.67-1.716-.242-.748-.937-1.193-1.55-.994l-1.21.56a2.75 2.75 0 0 1 .786 2.412zm-1.449-2.896.153-1.327c0-.645-.637-1.168-1.424-1.168-.786 0-1.424.523-1.424 1.168l.158 1.324a2.75 2.75 0 0 1 2.538.003zm-3.205.482-1.21-.558c-.613-.2-1.308.245-1.551.993-.243.748.057 1.516.67 1.716l1.304.263a2.75 2.75 0 0 1 .787-2.414zm-1.781 3.168-1.052 1.043c-.465.64.076 1.826 1.208 2.648 1.132.822 2.428.97 2.893.33l.666-1.322.667 1.323c.465.64 1.76.491 2.893-.331 1.132-.823 1.673-2.01 1.208-2.648l-1.052-1.043 1.464-.225c.752-.245 1.011-1.522.58-2.853-.433-1.331-1.394-2.212-2.147-1.968l-1.317.678.238-1.462c0-.791-1.135-1.432-2.534-1.432-1.4 0-2.534.641-2.534 1.432l.238 1.462-1.317-.678c-.752-.245-1.713.636-2.145 1.968-.432 1.33-.173 2.609.58 2.853zm3.715.437a1.64 1.64 0 1 0 0-3.28 1.64 1.64 0 0 0 0 3.28z" class="st8"/><path d="m142.7 145.5-1.505 1.492c-.665.916.109 2.612 1.729 3.789s3.473 1.389 4.138.474l.954-1.893.954 1.893c.665.915 2.519.703 4.138-.474 1.62-1.177 2.394-2.874 1.729-3.789l-1.505-1.492 2.095-.322c1.076-.35 1.447-2.178.828-4.082-.618-1.904-1.993-3.165-3.07-2.815l-1.884.97.341-2.092c0-1.132-1.624-2.05-3.626-2.05s-3.626.918-3.626 2.05l.34 2.092-1.883-.97c-1.076-.35-2.451.91-3.07 2.815-.619 1.904-.248 3.732.828 4.082zm2.85-.487-.902.972c-.379.522-.17 1.32.466 1.782.636.462 1.46.414 1.839-.107l.65-1.156a2.758 2.758 0 0 1-2.053-1.49zm2.88 1.49.65 1.156c.379.522 1.202.57 1.839.108.636-.462.844-1.26.465-1.782l-.902-.972a2.758 2.758 0 0 1-2.052 1.49zm2.307-2.277 1.304-.263c.613-.199.914-.967.67-1.716-.243-.748-.937-1.192-1.55-.993l-1.21.56a2.75 2.75 0 0 1 .785 2.412zm-1.449-2.895.153-1.327c0-.645-.637-1.168-1.424-1.168-.786 0-1.424.523-1.424 1.168l.158 1.324a2.748 2.748 0 0 1 2.538.003zm-3.205.482-1.211-.558c-.613-.2-1.308.245-1.551.993-.243.748.057 1.516.67 1.716l1.305.263a2.749 2.749 0 0 1 .787-2.414zm-1.781 3.167-1.052 1.043c-.465.64.076 1.826 1.208 2.648 1.132.823 2.428.971 2.892.331l.667-1.323.666 1.323c.465.64 1.76.492 2.892-.33 1.132-.823 1.673-2.01 1.208-2.649l-1.052-1.043 1.464-.225c.752-.244 1.011-1.522.58-2.853-.433-1.33-1.395-2.212-2.147-1.968l-1.317.678.239-1.462c0-.79-1.135-1.432-2.534-1.432s-2.534.642-2.534 1.432l.237 1.462-1.317-.678c-.752-.244-1.713.637-2.146 1.968-.432 1.331-.173 2.61.58 2.853zm3.715.437a1.64 1.64 0 1 0 0-3.28 1.64 1.64 0 0 0 0 3.28z" class="st8"/><path d="m126.2 145.5-1.505 1.492c-.665.916.109 2.612 1.729 3.789s3.473 1.389 4.138.474l.954-1.893.954 1.893c.665.915 2.519.703 4.138-.474 1.62-1.177 2.394-2.874 1.729-3.789l-1.505-1.492 2.095-.322c1.076-.35 1.447-2.178.829-4.082-.619-1.904-1.993-3.165-3.07-2.815l-1.884.97.34-2.092c0-1.132-1.624-2.05-3.626-2.05s-3.626.918-3.626 2.05l.341 2.092-1.884-.97c-1.076-.35-2.451.91-3.07 2.815s-.248 3.732.829 4.082zm2.85-.487-.902.972c-.379.522-.17 1.32.466 1.782.636.462 1.46.414 1.839-.107l.65-1.156a2.757 2.757 0 0 1-2.052-1.49zm2.879 1.49.65 1.156c.379.522 1.202.57 1.839.108.636-.462.844-1.26.465-1.782l-.902-.972a2.758 2.758 0 0 1-2.052 1.49zm2.307-2.277 1.304-.263c.613-.199.914-.967.67-1.716-.242-.748-.937-1.192-1.55-.993l-1.21.56a2.75 2.75 0 0 1 .786 2.412zm-1.449-2.895.153-1.327c0-.645-.637-1.168-1.424-1.168s-1.424.523-1.424 1.168l.157 1.324a2.749 2.749 0 0 1 2.538.003zm-3.205.482-1.21-.558c-.613-.2-1.308.245-1.551.993-.243.748.057 1.516.67 1.716l1.305.263a2.75 2.75 0 0 1 .787-2.414zm-1.781 3.167-1.052 1.043c-.465.64.076 1.826 1.208 2.648 1.132.823 2.428.971 2.893.331l.667-1.323.666 1.323c.465.64 1.761.492 2.893-.33 1.132-.823 1.673-2.01 1.208-2.649l-1.052-1.043 1.464-.225c.752-.244 1.011-1.522.58-2.853-.434-1.33-1.395-2.212-2.147-1.968l-1.317.678.238-1.462c0-.79-1.135-1.432-2.534-1.432-1.4 0-2.534.642-2.534 1.432l.238 1.462-1.317-.678c-.752-.244-1.713.637-2.146 1.968-.432 1.331-.173 2.61.58 2.853zm3.715.437a1.64 1.64 0 1 0 0-3.28 1.64 1.64 0 0 0 0 3.28z" class="st8"/><path id="_152613672_1_" d="m134.4 110-1.505 1.492c-.665.916.109 2.612 1.729 3.789s3.473 1.389 4.138.473l.954-1.893.954 1.893c.665.916 2.519.704 4.138-.473 1.62-1.177 2.394-2.874 1.729-3.789L145.032 110l2.095-.323c1.076-.35 1.447-2.178.829-4.082-.619-1.904-1.993-3.165-3.07-2.815l-1.884.97.34-2.091c0-1.132-1.624-2.05-3.626-2.05s-3.626.919-3.626 2.05l.341 2.092-1.884-.97c-1.076-.35-2.451.91-3.07 2.814-.619 1.904-.248 3.732.829 4.082zm2.85-.487-.902.972c-.379.522-.17 1.32.466 1.782.636.463 1.46.414 1.839-.107l.65-1.156a2.757 2.757 0 0 1-2.052-1.49zm2.879 1.49.65 1.156c.379.522 1.202.57 1.839.108.636-.462.844-1.26.465-1.782l-.902-.973a2.758 2.758 0 0 1-2.052 1.49zm2.307-2.277 1.304-.263c.613-.2.914-.967.67-1.716-.242-.748-.937-1.193-1.55-.993l-1.21.56a2.75 2.75 0 0 1 .786 2.412zm-1.449-2.895.153-1.327c0-.645-.637-1.168-1.424-1.168s-1.424.523-1.424 1.168l.157 1.324a2.749 2.749 0 0 1 2.538.003zm-3.205.482-1.21-.559c-.613-.199-1.308.246-1.551.994-.243.748.057 1.516.67 1.716l1.305.263a2.75 2.75 0 0 1 .787-2.414zm-1.781 3.168-1.052 1.043c-.465.64.076 1.826 1.208 2.648 1.132.823 2.428.97 2.893.33l.667-1.322.666 1.323c.465.64 1.761.492 2.893-.331s1.673-2.01 1.208-2.648l-1.052-1.043 1.464-.225c.752-.244 1.011-1.522.58-2.853-.434-1.331-1.395-2.212-2.147-1.968l-1.317.678.238-1.462c0-.791-1.135-1.432-2.534-1.432-1.4 0-2.534.641-2.534 1.432l.238 1.462-1.317-.678c-.752-.245-1.713.636-2.146 1.968-.432 1.33-.173 2.609.58 2.853zm3.715.437a1.64 1.64 0 1 0 0-3.28 1.64 1.64 0 0 0 0 3.28z" class="st8"/></g></svg>