<svg xmlns="http://www.w3.org/2000/svg" width="400" height="400"><rect width="100%" height="100%" fill="#fff" /><g fill-rule="evenodd"><path fill="#343434" d="M47.203 257.871c-.768.107-1.488.32-1.6.475-.111.154-1.368.515-2.793.802-1.424.286-3.712 1.045-5.083 1.686-1.372.641-2.681 1.166-2.91 1.166a.41.41 0 0 0-.417.4c0 .22-.225.4-.5.4-.275.001-1.023.451-1.662 1-.639.55-1.291 1-1.448 1-.499 0-3.95 3.644-4.202 4.438-.133.419-.403.762-.599.762-1.32 0-2.098 8.808-1.008 11.415 1.834 4.39 11.422 7.65 18.281 6.217 3.493-.73 3.753-3.64.373-4.18-4.889-.782-8.957-6.599-6.483-9.272.193-.209.561-1.037.817-1.839.43-1.346.817-1.92 2.79-4.141 6.242-7.024 19.05-6.691 21.569.56.863 2.484-.022 16.116-1.093 16.834-.168.113-.532 1.376-.808 2.806-.276 1.43-.646 2.78-.821 3-.175.22-.634 1.84-1.019 3.6-.386 1.76-.825 3.29-.977 3.4-.151.11-.511 1.37-.8 2.8-.288 1.43-.766 3.2-1.061 3.933-.294.733-.756 2.893-1.024 4.8-.269 1.907-.671 3.592-.893 3.744-.633.433-.568 16.409.068 16.622.275.092.5.577.5 1.078 0 2.304 4.002 7.797 6.175 8.474.454.141.934.426 1.066.632.954 1.481 13.93 1.412 15.759-.084.22-.18 1.084-.455 1.92-.611.835-.157 1.735-.495 2-.751.264-.257 1.375-.806 2.468-1.219 1.094-.413 2.174-.902 2.4-1.086.227-.184 1.353-.964 2.503-1.734l2.09-1.398.682 1.1c.999 1.613 3.02 3.7 3.582 3.7.269 0 .554.196.634.436.402 1.208 9.815 2.523 11.687 1.632.458-.219 1.904-.594 3.212-.835 1.308-.241 2.478-.571 2.6-.735.122-.164 1.212-.635 2.422-1.047 1.21-.411 2.29-.881 2.4-1.043.11-.162 1.01-.684 2-1.16 2.324-1.118 3.646-1.891 3.954-2.312 1.171-1.601 2.456-1.338 3.239.664.553 1.413.92 1.942 2.36 3.4 1.329 1.347 1.842 1.675 3.474 2.229.865.294 1.744.678 1.953.853.514.43 6.518.407 6.785-.026.117-.189.983-.45 1.924-.58 1.851-.256 6.711-2.506 6.711-3.107 0-.203.232-.369.515-.369.283 0 1.131-.514 1.884-1.143l1.37-1.143 1.459 1.565c2.9 3.11 13.274 3.783 14.852.964.198-.354.625-.643.948-.643.324 0 .794-.45 1.045-1 .25-.55.598-1 .771-1 .174 0 .729-.9 1.234-2 .946-2.063 3.522-3.087 3.522-1.4 0 .33.18.6.4.6.22 0 .4.528.4 1.174 0 6.999 12.089 8.586 15.589 2.046.685-1.279 1.089-.977 1.31.98.703 6.24 6.627 2.576 8.552-5.289.15-.611.399-1.201.554-1.311.155-.11.708-1.1 1.229-2.2l.947-2 .099 2.2c.143 3.179.932 7.6 1.356 7.6.2 0 .364.251.364.559 0 2.779 8.887 4.565 9.877 1.985.115-.299.453-.544.752-.544.298 0 .758-.401 1.02-.892.263-.49.719-1.133 1.014-1.428.295-.296.537-.794.537-1.109 0-.314.18-.571.4-.571.22 0 .4.242.4.539 0 1.82 2.579 4.837 4.456 5.212 2.221.444 5.872.264 7.783-.385 1.935-.657 2.185-.814 4.278-2.691 1.389-1.246 1.794-.938 1.855 1.411.059 2.272 7.628 2.744 7.628.475 0-.309.18-.561.4-.561.22 0 .4-.732.4-1.626 0-.895.186-1.975.414-2.4.418-.781 1.586-1.083 1.586-.411 0 .378 2.795 3.297 4.374 4.569 4.113 3.311 13.038 2.363 17.32-1.84.692-.679.802-.626 2.683 1.285 1.079 1.096 2.425 2.109 2.992 2.251.567.142 1.031.419 1.031.615 0 .197 1.71.357 3.8.357s3.8-.136 3.8-.303c0-.166.765-.537 1.7-.825 1.985-.61 4.548-2.229 5.734-3.622.881-1.034 1.766-.892 1.766.284 0 2.865 6.697 5.069 7.795 2.566.217-.495.532-.9.7-.9.168 0 .305-1.508.305-3.351 0-3.806.098-3.96 2.994-4.689 1.091-.275 2.439-.736 2.995-1.025l1.011-.525.441 3.312c.526 3.947.835 4.596 3.01 6.319 2.58 2.043 9.795 2.162 12.262.202 1.33-1.057 3.198-2.953 3.613-3.668.431-.743.45-.739.462.112.035 2.584-.907 15.142-1.149 15.313-.155.11-.606 1.73-1.001 3.6-.395 1.87-.924 3.527-1.174 3.683-1.045.649-.562 5.254.596 5.666 2.366.842 8.644-4.25 11.02-8.939 1.118-2.207 1.12-2.222 1.12-10.41 0-11.228-.955-39.082-1.399-40.8-.687-2.659-.827-13.2-.175-13.2.316 0 .574.154.574.342 0 .188 2.25.667 5 1.066 2.75.398 5 .848 5 .999 0 .151 1.935.51 4.3.798 2.365.288 4.39.657 4.5.821.339.504 12.344 1.26 15.356.967 7.643-.744 10.165-4.986 5.673-9.542-1.857-1.884-5.968-5.051-6.556-5.051-.199 0-.997-.431-1.774-.958-.776-.527-2.106-1.202-2.955-1.5-.849-.298-1.775-.76-2.057-1.026-.282-.267-1.137-.602-1.9-.745-.763-.143-1.387-.4-1.387-.571 0-.171-1.215-.635-2.7-1.031-1.485-.396-2.79-.839-2.9-.984-.245-.323-6.441-1.585-7.785-1.585-.532 0-1.079-.18-1.215-.4-.308-.499-10.066-.54-10.373-.044-.121.195-.716.478-1.323.628-2.554.632-5.304 5.947-5.304 10.252 0 1.923-.056 2.038-.9 1.839-.495-.117-2.97-.435-5.5-.707-2.53-.272-4.78-.623-5-.781-.22-.158-2.83-.505-5.8-.773-2.97-.267-5.76-.64-6.2-.829-2.406-1.032-27.743-1.742-31.32-.877-4.92 1.19-6.817 5.675-5.259 12.434 1.195 5.181 3.679 5.724 7.579 1.658 1.477-1.54 2.805-2.8 2.951-2.8.147 0 .937-.438 1.758-.973.82-.536 2.661-1.188 4.091-1.45 1.43-.261 3.033-.678 3.562-.926 1.313-.616 31.32-.605 32.095.012.299.237 2.042.529 3.874.648 1.832.12 3.452.339 3.6.486.606.606.561 38.01-.048 39.443-.949 2.234-3.75 5.088-5.511 5.616-3.726 1.116-4.384-.747-3.621-10.256.663-8.257-.303-10.2-5.073-10.2-2.766 0-3.582 1.052-4.115 5.309-.493 3.933-.185 3.584-3.692 4.174-1.579.266-3.482.605-4.228.754l-1.357.271.291-2.954c.16-1.625.482-3.184.715-3.464 1.945-2.345-4.461-6.188-7.162-4.296-1.296.908-3.032 12.268-2.312 15.135.26 1.035-2.852 4.573-4.737 5.388-3.447 1.489-7.333-.15-9.279-3.913l-.587-1.134 2.168-.682c1.192-.375 2.263-.931 2.38-1.235.116-.304.443-.553.726-.553.571 0 2.711-2.122 2.711-2.689 0-.198.394-.783.875-1.299 2.403-2.579 1.308-8.675-1.825-10.161-4.397-2.087-14.25 3.446-14.25 8.002 0 .264-.17.54-.379.614-.556.196-1.289 5.333-1.189 8.333.128 3.826-1.199 5.2-5.021 5.2-2.153 0-6.211-2.487-6.211-3.807 0-.179-.267-.611-.592-.959a82.6 82.6 0 0 1-1.571-1.761c-.538-.619-1.487-1.265-2.108-1.435l-1.129-.308 1.653-1.665c1.741-1.754 2.003-1.87 2.912-1.295.476.301.457.465-.121 1.043-1.086 1.086-.721 3.476.6 3.937 3.557 1.243 6.556-2.905 6.556-9.067v-3.517l-1.4-1.227c-1.436-1.259-6.03-1.555-6.75-.435-.138.214-.665.518-1.171.676-1.636.51-7.353 6.809-8.189 9.02-.125.33-.241-1.425-.258-3.9-.018-2.494-.198-4.5-.405-4.5-.205 0-.491-.37-.634-.823-.708-2.231-4.54-1.785-6.178.718-.883 1.35-1.027 2.166-1.4 7.94-.401 6.215-.455 6.488-1.599 8-2.065 2.73-5.393 4.588-6.572 3.667-1.673-1.305-1.683-1.372-1.441-10.102.248-8.983.288-8.756-1.766-10.191-3.734-2.61-6.634-.957-7.003 3.991-.389 5.207-1.019 9.395-1.434 9.533-.22.074-.4.375-.4.67 0 .931-2.031 2.997-2.947 2.997-2.025 0-2.433-1.264-2.705-8.4-.139-3.63-.274-6.648-.3-6.707-1.133-2.546-5.053-3.6-7.412-1.993-2.248 1.53-6.236 7.5-6.236 9.333 0 .312-.18.567-.4.567-.22 0-.414.315-.432.7-.019.441-.18.292-.433-.401-.675-1.847-4.335-1.582-4.335.314 0 .286-.209.59-.464.675-.255.085-.593 1.248-.751 2.584-.172 1.46-.585 2.772-1.036 3.288-2.634 3.021-3.557 3.416-5.149 2.207-.901-.684-1.094-13.002-.209-13.297 1.936-.646-.35-5.442-2.831-5.938-.638-.128-1.16-.389-1.16-.582 0-.565-2.006-.401-2.621.214-.311.311-.764.631-1.008.712-.591.197-1.571 4.071-1.571 6.211 0 .942-.18 1.713-.4 1.713-.22 0-.4.879-.4 1.953 0 1.5-.163 2.011-.7 2.201a15.73 15.73 0 0 0-1.2.48c-.348.162-.5-.182-.5-1.129 0-5.266-10.433-4.199-11.441 1.17-.458 2.442.548 3.665 3.541 4.305 1.421.304 1.388.83-.142 2.26-1.983 1.851-5.158.506-5.158-2.186 0-.554-.18-1.118-.4-1.254-.473-.292-.546-3.8-.08-3.8.176 0 .558-2.115.848-4.7.291-2.585.693-4.906.894-5.158.634-.794-.803-3.16-2.234-3.677-3.081-1.115-6.572.153-6.615 2.402-.007.366-.183.726-.39.8-.584.206-1.216 4.921-1.225 9.133-.012 4.987-1.159 7.077-4.589 8.352-.225.084-.721.424-1.102.755-1.278 1.114-4.702.843-6.479-.513-3.316-2.529-6.099-12.994-3.456-12.994.151 0 .608-.765 1.015-1.7.408-.935.856-1.79.995-1.9.37-.293 2.286-4.36 2.873-6.1.278-.825.626-1.5.773-1.5.148 0 .502-.855.788-1.9.285-1.045.849-2.527 1.252-3.294.402-.767.732-1.632.732-1.922 0-.29.34-1.283.756-2.206s.985-2.713 1.264-3.978c.279-1.265.631-2.3.781-2.3.151 0 .601-1.575 1.001-3.5.4-1.925.852-3.59 1.004-3.7.982-.707 2.485-15.897 1.675-16.927-.204-.26-.495-.994-.648-1.631-.367-1.533-2.498-3.749-3.902-4.057-.617-.136-1.225-.413-1.35-.616-.126-.203-1.557-.369-3.181-.369s-3.055.166-3.181.369c-.125.203-.74.482-1.366.619-2.514.552-8.053 6.364-8.053 8.45 0 .255-.258.679-.574.941-.316.262-.697 1.049-.846 1.749-.149.699-.593 1.992-.987 2.872-.395.88-.926 2.77-1.182 4.2-.255 1.43-.623 2.898-.817 3.261-.194.364-.557 2.614-.807 5-.251 2.387-.665 4.699-.921 5.139-.329.565-.488 5.312-.539 16.139l-.073 15.338-1.591 1.362c-.875.748-1.787 1.361-2.027 1.361-.24 0-.436.153-.436.34 0 1.016-8.685 4.46-11.25 4.46-1.811 0-5.55-1.621-5.55-2.406 0-.185-.269-.605-.597-.934-.597-.597-1.803-4.582-1.803-5.958 0-.656 1.01-2.591 1.62-3.102.247-.207 1.981-3.778 3.691-7.6.541-1.21 1.112-2.785 1.268-3.5.157-.715.437-1.3.624-1.3s.561-.99.832-2.2c.271-1.21.614-2.2.762-2.2.148 0 .605-1.35 1.016-3 .411-1.65.863-3 1.005-3 .141 0 .584-1.575.984-3.5s.848-3.59.996-3.7c.259-.193 1.002-3.349 2.258-9.6 1.631-8.114.711-15.343-2.23-17.517-2.301-1.702-7.499-2.754-8.646-1.75-.209.182-1.145.55-2.08.816-.935.266-1.7.656-1.7.867 0 .211-.225.384-.5.384-.617.001-3.5 2.922-3.5 3.547 0 .249-.167.453-.371.453s-.626.495-.939 1.1c-.313.605-.854 1.64-1.201 2.3-1.172 2.226-2.598 5.99-2.88 7.6-.155.88-.419 1.78-.587 2-.383.498-1.104 4.359-1.459 7.8-.147 1.43-.413 2.786-.591 3.012-1.021 1.299-1.389 23.23-.553 32.988l.223 2.6-1.521 1.017c-.837.559-2.151 1.268-2.921 1.577-.77.308-1.49.676-1.6.818-1.891 2.43-11.839 1.796-13.974-.892-1.432-1.801-1.487-17.12-.062-17.12.148 0 .598-1.98 1-4.4.403-2.42.862-4.4 1.02-4.4.158 0 .518-1.305.798-2.9.281-1.595.66-3.086.841-3.313.182-.227.619-2.207.971-4.4.353-2.193.801-4.279.996-4.636.622-1.143 1.321-10.423 1.073-14.244-.381-5.843-4.717-13.003-8.443-13.938-.561-.141-1.02-.389-1.02-.552 0-.349-3.772-1.617-4.813-1.617-.396 0-.789-.205-.872-.455-.16-.479-10.415-.85-13.112-.474m63.606 12.757c.496 1.502-.506 13.096-1.207 13.972-.176.22-.544 1.84-.818 3.6-.274 1.76-.631 3.38-.793 3.6-.162.22-.601 1.929-.975 3.797-.374 1.869-.814 3.579-.978 3.8-.165.222-.636 1.798-1.049 3.503-.412 1.705-.873 3.1-1.025 3.1-.151 0-.386.585-.522 1.3-.135.715-.531 1.84-.878 2.5-.347.66-.904 1.995-1.236 2.967-.333.972-.882 2.045-1.221 2.383-.709.709-.38-14.589.329-15.33.2-.209.364-1.019.364-1.8.001-2.402 1.237-12.195 1.567-12.414.172-.113.433-1.016.582-2.006.401-2.667 2.653-9.642 3.507-10.862.409-.584.744-1.207.744-1.385 0-.445 2.092-2.121 2.669-2.139.258-.008.681.629.94 1.414m35.834-.728c.59.776.776 6.318.224 6.659-.183.113-.572 2.013-.865 4.223-.292 2.21-.652 4.018-.8 4.018-.147 0-.598 1.8-1.002 4s-.86 4-1.015 4c-.154 0-.501 1.125-.771 2.5-.269 1.375-.816 3.22-1.216 4.1-.399.88-.852 2.275-1.006 3.1-.155.825-.413 1.5-.573 1.5-.161 0-.627 1.125-1.036 2.5-.41 1.375-.864 2.59-1.01 2.7-.146.11-.635 1.01-1.086 2l-.82 1.8-.033-1.676c-.019-.922.146-1.788.366-1.924.22-.136.4-1.531.4-3.101 0-4.152.777-13.966 1.18-14.899.19-.44.645-3.047 1.011-5.794.366-2.747.812-5.087.991-5.2.178-.113.538-1.238.798-2.499.261-1.261.615-2.38.788-2.487.172-.107.627-1.015 1.01-2.019 1.247-3.263 3.377-4.934 4.465-3.501m206.157 3.61c0 .17 1.374.528 3.054.796 1.679.267 3.254.635 3.5.818.245.182 1.256.573 2.246.867 1.985.589 6.739 2.758 7.455 3.401.251.224.836.721 1.3 1.104 1.923 1.585-.459 3.89-4.031 3.902-.372.001-.772.156-.888.344-.681 1.102-12.207.788-21.336-.579l-4.5-.675v-3.13c0-3.678 1.255-5.707 3.831-6.19.753-.141 1.369-.417 1.369-.613 0-.195 1.8-.355 4-.355s4 .139 4 .31m-69.052 43.329c.593 1.696-.065 3.958-1.6 5.493-1.809 1.809-2.298 1.338-2.079-2.001.27-4.101 2.668-6.377 3.679-3.492m-238.01 28.978c-.374.976.069 7.268.553 7.854.241.291.756 1.327 1.146 2.301.389.975.951 2.055 1.249 2.4 2.256 2.62 4.53 4.79 5.707 5.449.766.428 1.635 1.006 1.932 1.282.881.823 4.555 2.419 6.275 2.726.88.158 1.728.485 1.885.729.407.63 17.055.607 18.354-.026.529-.257 2.665-.763 4.749-1.124 2.083-.361 3.973-.801 4.2-.979.226-.179 1.402-.551 2.612-.829 1.21-.278 2.38-.639 2.6-.804.22-.165 1.48-.608 2.8-.986 1.32-.377 2.58-.831 2.8-1.009.22-.177 1.21-.538 2.2-.801.99-.263 2.565-.825 3.5-1.249.935-.424 2.24-.879 2.9-1.011.66-.132 1.2-.374 1.2-.537 0-.164 1.125-.611 2.5-.993 1.375-.383 2.68-.831 2.9-.996.22-.165 1.66-.63 3.2-1.032 1.54-.403 2.89-.853 3-.999.11-.146 1.46-.499 3-.783 1.54-.284 2.89-.642 3-.795.213-.295 9.101-1.618 10.82-1.61.561.003 1.214-.189 1.452-.427.639-.639 12.366-.69 13-.056.821.821 1.893.567 2.164-.511.368-1.469-.021-2.091-1.509-2.409-.73-.157-1.58-.489-1.889-.738-.801-.647-26.744-.635-28.078.012-.528.257-2.94.691-5.36.964-2.42.274-4.49.614-4.6.756-.11.142-2.36.587-5 .988-2.64.402-4.98.865-5.2 1.029-.22.164-2.56.615-5.2 1.002s-4.98.834-5.2.992c-.22.158-2.11.509-4.2.779-2.09.271-4.232.702-4.76.958-1.339.65-19.149.645-20.478-.005-.529-.259-1.952-.688-3.162-.953-1.21-.264-2.38-.607-2.6-.761-.22-.155-1.03-.519-1.8-.81-2.216-.837-5.436-3.077-7.812-5.434-2.293-2.275-4.324-2.926-4.85-1.554"/><path fill="#ec4424" d="M101.202 85.743c.002 46.323.275 61.235 1.159 63.257.192.44.564 2.689.827 4.998.262 2.309.618 4.379.791 4.6.173.221.625 2.157 1.005 4.302.379 2.145.817 3.9.973 3.9.156 0 .515 1.125.799 2.5.284 1.375.847 3.226 1.251 4.114.404.888.865 2.148 1.025 2.8.16.652.399 1.276.532 1.386.132.11.488.92.792 1.8.644 1.869 4.448 9.907 4.827 10.2.142.11.591.92.997 1.8s.867 1.69 1.023 1.8c.157.11.606.83.997 1.6.391.77.824 1.49.961 1.6.137.11.967 1.271 1.844 2.58.877 1.309 1.865 2.699 2.195 3.088.33.39 1.005 1.209 1.5 1.82 4.302 5.315 12.006 12.842 16.286 15.912.613.44 2.037 1.473 3.165 2.297 1.127.823 2.673 1.813 3.437 2.2.763.386 1.708 1.018 2.1 1.403.391.385.982.7 1.312.7.33 0 .6.165.6.367 0 .202.81.676 1.8 1.054s1.8.808 1.8.954c0 .147.9.591 2 .986 1.1.396 2 .862 2 1.036 0 .174.489.439 1.087.589.598.15 2.01.71 3.139 1.243 1.946.921 3.774 1.269 3.774.718 0-.322-1.631-1.747-1.999-1.747-.152 0-.8-.45-1.439-1-.639-.549-1.381-.999-1.648-1-.267 0-.679-.36-.914-.8-.235-.44-.632-.8-.881-.8s-.954-.459-1.566-1.019c-2.607-2.385-8.623-8.497-9.441-9.592a215.54 215.54 0 0 0-2.1-2.744c-.667-.855-1.212-1.697-1.212-1.871 0-.174-.265-.582-.589-.906-.714-.714-2.882-4.447-3.467-5.968-.232-.605-.565-1.1-.739-1.1-.174 0-.433-.624-.576-1.387-.143-.763-.488-1.618-.767-1.9-.279-.282-.831-1.683-1.228-3.113-.396-1.43-.857-2.78-1.024-3-.168-.22-.532-1.66-.81-3.2-.278-1.54-.644-2.98-.813-3.2-1.508-1.959-1.499-27.663.01-29.6.171-.22.533-1.75.803-3.4s.633-3.18.806-3.4c.173-.22.621-1.631.996-3.136.376-1.505.933-3.215 1.238-3.8.305-.585.556-1.211.558-1.39.001-.179.452-1.309 1.002-2.511.55-1.203 1-2.279 1-2.392 0-.112.54-1.359 1.2-2.771.66-1.412 1.2-2.739 1.2-2.95 0-.211.15-.443.333-.517.184-.073 1.028-1.393 1.877-2.933.848-1.54 1.657-2.89 1.797-3 .139-.11.6-.825 1.023-1.588.85-1.532.805-1.466 2.771-4.012.765-.99 1.393-1.954 1.395-2.142.002-.189.454-.697 1.004-1.129.55-.433 1-.941 1-1.13 0-.856 12.757-13.599 13.614-13.599.188 0 .576-.318.863-.707.288-.389 1.063-1.052 1.723-1.473.66-.422 1.414-.959 1.676-1.193.262-.235 1.135-.877 1.941-1.427.805-.55 1.766-1.27 2.136-1.6.369-.33 1.206-.87 1.859-1.2 1.328-.671 3.584-2.09 4.769-3 .43-.33.981-.6 1.225-.6.244 0 .792-.317 1.219-.705.426-.388 1.54-1.045 2.475-1.461.935-.416 1.7-.887 1.7-1.048 0-.161.36-.387.8-.502 1.095-.286 1.006-1.002-.4-3.22-.66-1.04-1.2-1.968-1.2-2.06 0-.19-1.693-2.784-2.613-4.004-3.644-4.833-5.092-6.6-5.41-6.6-.207 0-.377-.236-.377-.525 0-.892-7.196-8.009-11.327-11.204a20.284 20.284 0 0 1-1.972-1.771c-.465-.495-1.074-.9-1.353-.9-.28 0-.652-.239-.828-.531-.176-.292-.95-.877-1.72-1.3-.77-.423-1.544-.994-1.72-1.269-.176-.275-.559-.5-.851-.5-.292 0-.758-.273-1.035-.607-.277-.334-1.154-.91-1.949-1.28-.795-.369-1.535-.789-1.645-.933-.11-.144-.92-.594-1.8-1s-1.69-.848-1.8-.982c-.327-.4-5.341-2.718-6.515-3.012-.597-.15-1.085-.414-1.085-.586s-.489-.436-1.086-.586c-.597-.15-1.812-.601-2.7-1.002a29.63 29.63 0 0 0-3.414-1.241c-.99-.281-1.98-.638-2.2-.792-.22-.155-1.84-.611-3.6-1.014s-3.29-.848-3.4-.99c-.11-.142-1.46-.478-3-.746s-3.16-.65-3.6-.848c-.957-.431-9.2-1.581-11.334-1.581-.828 0-1.677-.158-1.886-.352-.209-.193-2.315-.444-4.68-.557l-4.3-.205.002 49.257M301.4 36.686c-1.32.074-2.67.249-3 .39-.33.14-2.732.577-5.338.972-2.606.394-4.946.878-5.2 1.075-.254.196-1.592.59-2.974.874-1.381.285-2.593.649-2.692.809-.099.16-1.444.619-2.988 1.02-1.544.4-2.808.874-2.808 1.051 0 .178-.261.323-.581.323-.676 0-7.123 2.773-7.419 3.191-.11.155-1.055.605-2.1 1-1.045.395-1.9.854-1.9 1.02 0 .166-.495.426-1.1.577-.605.15-1.896.8-2.869 1.443-.972.643-2.007 1.169-2.3 1.169-.292 0-.531.178-.531.395 0 .217-.626.656-1.391.975-.764.32-1.788.952-2.275 1.406-.487.453-1.121.824-1.409.824-.289 0-.525.142-.525.315 0 .321-4.204 3.285-4.659 3.285-.137 0-.665.405-1.173.9-1.951 1.902-2.449 2.3-2.879 2.3-.244 0-.679.329-.966.731-.288.402-.839.905-1.226 1.117C239.068 64.964 226.6 77.055 222.379 82c-1.409 1.65-2.97 3.448-3.47 3.996S218 87.12 218 87.278c0 .157-.463.789-1.028 1.404-.565.615-1.285 1.403-1.6 1.752-.315.348-.572.834-.572 1.08 0 .245-.239.59-.531.766-.292.176-.877.95-1.3 1.72-.423.77-.994 1.544-1.269 1.72-.275.176-.5.479-.5.675 0 .195-.788 1.506-1.752 2.914-.964 1.407-1.875 2.947-2.026 3.422-.151.476-.497 1.09-.769 1.367-.272.276-1.197 1.942-2.056 3.702-.858 1.76-1.674 3.29-1.812 3.4-.138.11-.596 1.19-1.017 2.4-.422 1.21-.977 2.423-1.235 2.696-.257.273-.589 1.05-.738 1.727-.149.677-.52 1.713-.826 2.302-.305.588-.767 2.016-1.026 3.173-.259 1.156-.622 2.102-.807 2.102-.185 0-.336.426-.336.948 0 1.04 1.296 1.439 4.7 1.448.935.002 1.7.184 1.7.404 0 .22.418.4.93.4 1.502 0 8.452 1.265 8.67 1.578.11.158 1.325.522 2.7.809 1.375.287 2.5.671 2.5.852 0 .182.71.521 1.577.755 2.732.735 5.994 2.544 10.37 5.749 3.746 2.743 9.253 9.067 9.253 10.624 0 .207.232.614.515.904.56.574 2.094 5.321 2.756 8.529.502 2.429.241 12.732-.341 13.47-.23.292-.74 1.925-1.133 3.63-.394 1.705-.832 3.1-.974 3.1-.141 0-.594.99-1.005 2.2-.411 1.21-.899 2.2-1.083 2.2-.184 0-.335.193-.335.428s-.54 1.213-1.2 2.172c-.66.959-1.2 1.942-1.2 2.185 0 .242-.27.544-.6.67-.33.127-.6.421-.6.653 0 .81-6.328 7.629-8.245 8.885-.624.409-1.319.89-1.545 1.069-2.156 1.713-2.992 2.265-4.11 2.713-.715.287-1.3.666-1.3.841 0 .176-.945.631-2.1 1.011-1.155.38-2.191.828-2.301.996-.111.168-1.371.54-2.8.828-1.43.287-2.727.708-2.884.936-.394.57-12.013.551-12.754-.021-.308-.239-1.636-.665-2.949-.948-1.313-.283-2.753-.747-3.2-1.032-.447-.284-1.577-.741-2.512-1.015-.935-.274-1.7-.627-1.7-.786 0-.158-.528-.507-1.173-.774-4.071-1.686-4.052-2.66.073-3.772 1.485-.4 2.7-.888 2.7-1.083 0-.196.315-.365.7-.375.385-.011 1.267-.326 1.96-.7.693-.375 1.947-1.035 2.787-1.468.839-.432 1.836-1.062 2.214-1.4a31.578 31.578 0 0 1 1.768-1.413c1.001-.742 2.799-2.479 4.553-4.4.402-.44.852-1.205 1.001-1.7.149-.495.424-.9.612-.9.187 0 .638-.945 1.001-2.1.364-1.155.873-2.532 1.133-3.061.626-1.277.57-9.339-.067-9.552-.254-.084-.462-.495-.462-.912 0-.991-1.213-4.028-1.879-4.704-.287-.29-.521-.664-.521-.831 0-.498-6.012-6.44-6.516-6.44-.137 0-.88-.429-1.653-.953-.772-.524-2.085-1.081-2.917-1.237-.831-.156-1.641-.492-1.798-.747-.398-.643-12.235-.636-13.553.008-.529.26-1.908.769-3.063 1.133-1.155.363-2.1.808-2.1.989 0 .181-.54.517-1.2.747-.66.23-1.2.608-1.2.839 0 .232-.246.421-.546.421-1.483 0-7.616 7.563-8.677 10.7-.241.715-.58 1.3-.753 1.3-.173 0-.55 1.125-.837 2.5-.287 1.375-.717 2.628-.954 2.785-.598.395-.592 13.99.007 14.754.242.308.672 1.686.955 3.061.283 1.375.65 2.5.815 2.5.166 0 .416.611.556 1.357.315 1.679 4.514 9.925 5.277 10.363.306.176.557.579.557.896 0 .318.36.802.8 1.077.44.275.8.705.8.955 0 .487 7.576 8.152 8.057 8.152.157 0 .524.225.814.5 1.091 1.032 3.379 2.57 4.812 3.234.816.378 1.576.838 1.69 1.022.113.184 1.021.562 2.017.841.995.279 1.81.635 1.81.792 0 .156.765.504 1.7.773.935.269 2.24.728 2.9 1.021.66.292 2.55.746 4.2 1.007 1.65.261 3.303.634 3.672.829 2.27 1.193 24.301 1.199 26.665.007.365-.184 2.643-.642 5.063-1.019 2.42-.377 4.49-.817 4.6-.979.11-.161 1.37-.534 2.8-.828 1.43-.294 2.69-.651 2.8-.792.11-.141 1.415-.581 2.9-.977 1.485-.396 2.7-.857 2.7-1.025 0-.168.571-.42 1.27-.56.698-.14 2.408-.792 3.801-1.45 1.392-.658 2.711-1.196 2.93-1.196.219 0 .399-.14.399-.312s.9-.661 2-1.088c1.1-.427 2-.903 2-1.057 0-.155.63-.489 1.4-.743.77-.254 1.4-.601 1.4-.77 0-.17.72-.633 1.6-1.03.88-.397 1.602-.829 1.605-.961.002-.131.712-.578 1.577-.993.866-.414 1.668-.999 1.783-1.3.116-.3.479-.546.808-.546.33 0 .792-.36 1.027-.8.235-.44.682-.8.991-.8.31 0 .799-.329 1.086-.731.288-.402.82-.897 1.182-1.1.902-.505 6.574-5.651 8.1-7.35a153.88 153.88 0 0 1 2.041-2.226c.44-.465 1.52-1.732 2.4-2.815.88-1.083 1.915-2.331 2.3-2.773 1.547-1.779 1.819-2.147 2.545-3.45.415-.745.879-1.449 1.031-1.564.407-.308 2.035-2.812 2.723-4.191.33-.66.698-1.29.819-1.4.506-.462 5.182-10.331 5.182-10.937 0-.365.158-.663.351-.663.427 0 1.453-3.628 2.546-9 .448-2.2.966-4.36 1.152-4.8.416-.987 1.035-6.219 1.396-11.8.15-2.31.412-4.292.583-4.405.442-.291.587-20.266.472-65.095l-.1-38.9-.9.076c-.495.041-1.98.136-3.3.21"/></g></svg>