<svg xmlns="http://www.w3.org/2000/svg" xml:space="preserve" width="1000" height="500" style="shape-rendering:geometricPrecision;text-rendering:geometricPrecision;image-rendering:optimizeQuality;fill-rule:evenodd;clip-rule:evenodd"><defs><style>.fil2{fill:#000}.fil3{fill:#03f}.fil0{fill:#090}.fil8{fill:#4c99e6}.fil7{fill:#e66619}.fil4{fill:red}.fil5{fill:#fe0}.fil1{fill:#fff}</style></defs><g id="Слой_x0020_1"><path d="M0 0h1000v100H0z" class="fil0"/><path d="M0 100h1000v100H0z" class="fil1"/><path d="M0 200h1000v100H0z" class="fil0"/><path d="M0 300h1000v100H0z" class="fil1"/><path d="M0 400h1000v100H0z" class="fil0"/><path d="M571 122h-1c-1 2-12 6-15 7-5 3-12 5-17 6-7 2-13 3-19 4l-17 1h-4l-21-1c-7-1-13-2-19-4-7-2-29-8-33-13h-1c-1 2-8 8-9 10l-28 29c6 13 9 15 15 31 3 9 7 30 6 39-2 18-1 19-7 38-3 8-7 17-11 24-2 4-2 4 0 8 5 11 10 19 18 28 16 18 33 29 57 36 6 1 13 2 19 3 13 3 11 5 14 9 4-18 47 2 91-50 6-7 16-22 18-30-1-4-5-11-7-15-3-5-5-10-7-15-10-30-7-64 7-92 2-2 8-12 8-14 0-1-24-25-27-29-3-2-8-7-10-10z" class="fil2"/><path d="m391 161 9 18c4 9 7 20 9 30l2 21-1 16h55c0-2 1-2 1-4l-2-12c-2-5-4-8-6-12l13-15c8 4 17 6 26 6v-66l-11-1c-9 0-20-1-29-4-5-2-11-3-17-5-3-2-13-6-16-7l-16 18c-6 5-11 11-17 17zM419 336h46c2-4 2-1 5-3-3-2-6-2-10-5-10-11-20-1-24 0-3 0-5 1-7 1-3 0-9 2-11 0s6-4 9-5c0-1-2-2-2-3-1-2-2-4-3-5-3-2-6 0-8-5 1-2 4-5 7-5v-2c3 0 2 0 3 1s3 2 4 2c3 3 3 5 7 5s17-6 27 1c5 4 6 6 9 9 13 13 13-8 20-6 4 1 4 11-4 14-4 2-8 2-12 0 0 5-1 3-3 6h25v-42c-6-5-17 0-33-17-1-1-6-9-6-10 4-8 6-11 7-19h-56c0 3-1 10-2 13-2 7-7 18-10 24-1 2-5 11-5 12-1 3 9 18 11 22 4 6 11 13 16 17z" class="fil3"/><path d="M498 174v24h24v6l2-1 13 14-3 6h12v23h24v-23h14c0-4 1-10 2-13 0-3 2-10 2-12h-18v-24h25v5l2-5h-2v-22l-2-3h-23v25h-24v-25h-24v25h-24z" class="fil4"/><path d="m436 160-8-8-1 12-9-6c0 6 6 13 6 18 0 3-3 5-5 7-2 3-1 6 2 7-3 12 1 7-1 14 3 5 3 2 4 5 2 3-2 11 5 7 3 3 5 6 10 7 2 1 5 1 7 0 2-2 4-4 4-5 7 1 3-1 6-6 1-3 1-3 1-5 2-1 3 0 4-3 0-1-1-2-1-4-1-4 2-2 0-11l1-2c0-5-1-4-3-7-4-9 9-17 8-22-2 0-6 3-9 3v-8c-4 1-7 5-10 7l-6-11-5 11z" class="fil2"/><path d="M498 315h96c4-7 6-11 10-18l-3-5H500l-2 2v21z" class="fil0"/><path d="M498 337h77c6-4 15-16 19-22h-96v22zM501 292h100c0-2-3-7-5-10-2-4-4-8-4-12h-57c-4 7-5 10-13 15-4 2-5 3-9 4-5 2-10 3-12 3z" class="fil1"/><path d="M575 337h-77v33c3-1 1-2 10-4 10-3 22-3 33-8 8-3 30-15 34-21zM497 370v-33h-24c-2 0-3 1-4 1-2 0-3-1-5-1h-43c4 7 25 18 33 21 13 6 32 5 43 12z" class="fil0"/><path d="M460 218c2 3 4 8 5 11 1 1 3 12 3 13-1 9-3 17-8 25 1 2 4 7 6 9v-16h9c1-6 1-6 4-10 6-13 4-7 11-10 0 0 4-4 5-4 0-4 0-6 4-8 5-1 4-2 7-6 1-2 2-5 4-7 3-4 5-1 6-7-3 2-7 3-10 3-7 1-18 1-24-2-3-1-7-2-10-3l-12 12zM425 178c-1 1-1 2-3 4s-3 2-2 6c2-1-1-1 2-2 1 2 0 2 0 4-2 11-1 4 0 13 3-3 1-3 2-5 2 3 0 4-2 7 4-1 4-5 4-5 2 2 0 1 0 7v4c1 2 0 2 0 4l3-1c2 1 2 2 3 3s1 1 2 3h3v2c2-1 1 0 2-2l1 2c2-2 0 0 1-2l2 2c7-4 2 1 7-6h4c0-4 0-3 1-6 1-1 1-4 1-5h2c-1-2-2-3-1-5 1 2-1 2 3 4-1-4-2-2-1-7 1-9-4-4 1-11-5-10-3-8-12-9h-7l-16 1z" class="fil5"/><path d="M535 270h57c-4-7-5-15-7-22h-56c5 18 10 15 6 22z" class="fil0"/><path d="M422 307c-2 0-3 0-4 2-2 2-5 3 1 5 2 0 4 1 5 2 0 1 1 3 2 4 1 2 2 3 3 4-3 3-8 2-10 5 7 0 5-1 8-1 16-1 13-6 20-9 3-1 5-1 8 0 4 1 3 2 5 5 3 7 7 5 11 8-1 5-4 1-5 4h5c2-2 4-4 2-7 4 0 9 4 15 0 3-2 7-9 2-12-4 1-7 13-15 9-3-1-9-9-14-12-4-2-12-3-16-2-2 0-4 0-6 1-9 3-7-2-12-5-3-2-2 0-4-3l-1 2z" style="fill:#900"/><path d="M570 149h-24v25h24zM546 222h24v-24h-24zM498 174h24v-25h-24zM522 198h24v-24h-24z" class="fil1"/><path d="M528 225v1c-2 0-1 0-2-2-3 4-5 14-5 19 1 2 4 4 5 7-3-1-5-5-8-7-1 5-4 11-7 15 2 4 7 8 7 12-2-1-2-3-3-4-1 4-3 10-2 14 1 1 1 1 4 1-1-3-1-8-1-11h2v11h6c1-5-6-9-3-15 5-10 0-5 0-17 2 0 1-1 2 4 0 2 1 4 2 5 1-2 0-2 2-2-1 4-2 0 0 9 1 3 2 7 3 9 1 0 4-6 5-8-5-6-9-20-8-26 0-4 0-8 2-12 1-2 2-3 2-5l-3 2z" class="fil7"/><path d="M588 198c0-1 6-17 7-19v-5h-25v24h18z" class="fil1"/><path d="M546 136v13h24v-22c-1-1-1 0-2 0l-15 6c-2 1-5 2-7 3z" class="fil4"/><path d="M479 268v18h22v-19l-11 1h-11z" class="fil8"/><path d="M546 246v-23h-12c-3 2-5 12-5 16v7h17z" class="fil1"/><path d="m436 162-6-7-2 11c-3-1-5-4-8-5 1 3 2 6 4 9 4 0 6-2 17-2 7 0 13 1 17 1 2-2 5-5 6-8l-8 2v-8c-4 2-6 6-10 8l-5-11-5 10z" class="fil5"/><path d="M432 276h-7c0 2 2 4 3 6l-3 7c11 2 4-4 11 6v1l4-7c3 0 5 1 8 0l-4-7c2-2 3-4 4-6-8 0-7 0-9-3-1-2-1-3-3-4-2 2-2 6-4 7z" class="fil2"/><path d="M570 246h15c0-6-1-13-1-18v-5h-14v23z" class="fil1"/><path d="M521 207c1 1 1 4 0 5 0-1 0-4-1-5l-2 1c-1 2-2 5-3 8-2 3-3 5-3 9 3-1 0-2 3-2 0 2-1 2-2 4-1 3 0 5-1 7-1-2 0-2-1-4l-6 13c3-1 6-3 8-5 1-1 2-2 4-3 2-2 1-3 3-3 0 2 0 0-1 2 0 1 1 0 0 2s-2 3-2 5l2 1c1-3 2-7 3-10 0-4 2-7 3-10l-6-9c3 0 1 1 3 2 0-1 3-7 2-8s-2-1-3 0z" class="fil7"/><path d="M522 141v8h24v-13c-4 1-7 2-11 3-3 1-11 1-13 2zM570 149h23l-23-22zM522 204v-6h-24v11c3 0 11 0 13-1 3-1 9-3 11-4z" class="fil1"/><path d="M433 277h-6l3 5-3 6h6l3 5 4-5h6l-3-6c1-1 3-4 3-5h-6l-3-5-4 5z" class="fil5"/><path d="M467 276c1 4 8 7 11 10v-18l-11-6v14zM502 281v6h-20c2 1 5 2 7 2 3 1 5 1 8 2 3 0 3-1 6-1 5-1 15-4 18-8-4 0-6 0-9-1h-10z" class="fil8"/><path d="M498 149h24v-8c-4 0-4 2-12 1l-12 1v6z" class="fil4"/><path d="M497 232c0 2-1 4-1 5 3 0 3-2 7-2l1 2c-1 2-2 3-5 2-10 10-3 8-5 12-2-1 0 0-2-3-1 2-1 6 2 7l-2 6c5-1 4-14 4-18 3 1 1 0 2 5 0 0 2 3 4 3 1-4-2-2 3-10 0-1 1-4 1-5s-1-4-1-5c-3 1-5 1-8 1z" class="fil7"/><path d="m495 262 7 5v13c1-2 1-3 1-6s2-18 3-19l-7-4c-1 2-1 4-2 6s-2 3-2 5z" class="fil7"/><path d="M597 174c2-2 6-10 7-13l-9-9v22h2z" class="fil1"/><path d="M510 280c1-1 1 0 1-3 1-2 1-3 1-4 1-3 1-6 1-9 0-1-5-6-6-8-1 6-3 8-1 13 2 4 2 3 3 8 0 3 0 2 1 3z" class="fil7"/><path d="M480 265h5c0-4 3-12 5-15 3-5 5-8 9-12 3 0 4 1 4-2-8 0-16 13-19 19-2 3-2 7-4 10z" class="fil8"/><path d="M432 210c3 3 4 0 8 0 3-1 4 2 8-1v-2l-2-2c-5 3-3 2-6 1-2 0 0 0-2 1-2 0-2-2-5-2-1 2-1 3-1 5z" class="fil2"/><path d="m525 279 4-3c-2-3-3-11-4-15-1 2-4 7-3 9 0 2 3 8 3 9z" class="fil7"/><path d="M437 176h9v-7h-9v7z" class="fil5"/><path d="M506 248c0 4 0 7 4 9 2-7 2-6 2-16l-6 7zM527 223c3-1 6-3 7-6l-2-2c-2 2 0 2-2 2l1-3-3-3c-1 7-4 9-1 12zM507 225v9l4-6v-4c-1-3 0-2 0-4-1 1-4 3-4 5z" class="fil7"/><path d="M427 170c1 2 1 1 1 4-2 1-1 1-3 1v1h7v-6c-2-1-4 0-5 0z" class="fil5"/><path d="m495 264 1 1c-6 1-10 1-15 1-2 0-6-2-8-3-2-3 4-2-4-2 2 1 9 6 12 6h9c7 0 3 0 9-1l-4-2z" class="fil8"/><path d="M445 322h7c3 1 4 2 6 2 0-6-10-5-13-2z" class="fil1"/><path d="M504 276v4h4c0-3-1-7-3-9v-1l-1-1v7z" class="fil7"/><path d="M456 174c-1 1 0 1-3 0l1-3h2v2l1-2c-1-1-4-1-5-2l-1 7 5 1v-3z" class="fil5"/><path d="m478 254 2 1c0-2 0-2 1-3 2 2 0 0 0 6 3-5 2-7 2-13-1 1-3 6-5 9z" class="fil7"/><path d="M447 176h3c0-2 1-4 1-7h-4v7z" class="fil5"/><path d="M484 243v8c1-1 2-2 3-4 2-3 1-1 1-5-2 1-2 1-4 1z" class="fil7"/><path d="M433 170v6h3v-7c-2 0-2 0-3 1z" class="fil5"/><path d="M439 170c0 3 0 4 4 4 3-4-1-6-4-4z" style="fill:#00f"/><path d="m427 188 1 1 2-2 2 2 1-3 1 2c-3 2-2 0-5 1 2 2 6 1 6-3-2-1-6 0-8 2zM449 188c1 0 1 1 1-2-2 0-3-1-4 0-1 2 2 4 4 4l2-2c2 1 1 1 2 0-1-1-1-1-3-1l-1 2-1-1z" class="fil2"/><path d="M525 219c0-2 2-9 1-10-1 0-1 3-2 5s-2 3 1 5zM513 251l4-9-2-1c-2 2-2 7-2 10zM488 259h3c1-2 0-4-1-7-1 2-2 6-2 7z" class="fil7"/><path d="M441 200c1 1 3-1 4-2 2 2 2 4 5 4-1-1-4-5-5-6-1 1-4 3-4 4z" class="fil2"/><path d="M425 175c2 0 1 0 3-1 0-3 0-2-1-4l-3 1 1 4z" class="fil4"/><path d="M436 213c2 1 1 0 4 0 2 0 2 0 4 1 0-1 1-2-3-3-2 0-4 0-5 2zM445 184c11 0 5 1 9 2-2-4-5-3-9-3v1zM427 184h9v-1c-3 0-7-1-9 1z" class="fil2"/><path d="M456 174v-3h-2l-1 3c3 1 2 1 3 0z" class="fil4"/><path d="M433 201c1 0 2-1 3-2 2 1 1 1 3 1 0-1 0 1-3-3-1 0-3 3-3 4z" class="fil2"/><path d="M510 218c3-1 0 0 3 0 0-1 1-3 1-4-2 1-4 1-4 4zM503 252l2 1c0-2 0-4-1-6-1 2-1 3-1 5z" class="fil7"/><path d="M495 264c-2-2-5-4-8-4l2 1c3 1 3 2 6 3zM487 265c2-1 2-1 1-3-2 0-2 1-1 3z" class="fil8"/><path d="M419 311c2 0 1 0 3-1-2-2-4-2-3 1z" class="fil2"/><path d="M499 230h5v-2c-1 0 0 0-2 1-1 0-2 1-3 1z" class="fil7"/><path d="M457 190c1-2 1-4 0-5-1 1-1 3 0 5z" class="fil2"/><path d="M515 240c1-1 1-2 2-4-2 2-4 2-2 4z" class="fil7"/><path d="M478 264c2 1 2 0 2-2-2 1-2 0-2 2z" class="fil8"/><path d="M479 259h2c-1-1-2-2-2 0z" class="fil7"/><path d="M449 188c-1-2-1-1-2-2 0 2 0 1 2 2z" class="fil5"/><path d="M506 229c0-2 0-1-1-3-1 1 0 2 1 3z" class="fil7"/><path d="M424 206h1v-2z" class="fil5"/><path d="M489 243c2-2 2-1 0-1v1z" class="fil7"/></g></svg>