<svg xmlns="http://www.w3.org/2000/svg" width="1066.667" height="711.111" viewBox="0 0 1000 666.667"><defs><clipPath id="c" clipPathUnits="userSpaceOnUse"><path d="M0 0h841.89v595.276H0V0Z"/></clipPath><clipPath id="b" clipPathUnits="userSpaceOnUse"><path d="M0 0h841.89v595.276H0V0Z"/></clipPath><clipPath id="a" clipPathUnits="userSpaceOnUse"><path d="M0 0h841.89v595.276H0V0Z"/></clipPath></defs><path d="M-268.701 82.65h1000v666.667h-1000z" style="color:#000;clip-rule:nonzero;display:inline;overflow:visible;visibility:visible;opacity:1;isolation:auto;mix-blend-mode:normal;color-interpolation:sRGB;color-interpolation-filters:linearRGB;solid-color:#000;solid-opacity:1;fill:#84092b;fill-opacity:.98823529;fill-rule:nonzero;stroke:none;stroke-width:15;stroke-linecap:butt;stroke-linejoin:miter;stroke-miterlimit:4;stroke-dasharray:none;stroke-dashoffset:0;stroke-opacity:1;color-rendering:auto;image-rendering:auto;shape-rendering:auto;text-rendering:auto;enable-background:accumulate" transform="translate(268.7 -82.65)"/><g style="fill:#fff;fill-opacity:1"><g style="fill:#fff;fill-opacity:1"><path d="M0 0c-.442 0-.637-.053-1.067-.208-.429-.156-.793-.56-.793-.56l-.065.676H-3.72v-.689s.195-.013.39-.065l.468-.129V-4.93l-.754-.389v-.509h2.627v.495l-.689.364s.017 2.74.017 3.179c0 .438.239.607.372.704.2.147.547.292 1.094.292a.954.954 0 0 0 .132-.009c.383.25.818.427 1.285.511C.865-.069.372 0 0 0" style="fill:#fff;fill-opacity:1;fill-rule:nonzero;stroke:none" transform="matrix(7.05245 0 0 -7.05245 147.03 457.147)"/></g><g style="fill:#fff;fill-opacity:1"><path d="M0 0c-4.689 0-8.503-3.814-8.503-8.504 0-4.688 3.814-8.503 8.503-8.503 4.69 0 8.504 3.815 8.504 8.503C8.504-3.814 4.69 0 0 0m0-16.37c-4.338 0-7.867 3.529-7.867 7.866C-7.867-4.166-4.338-.636 0-.636c4.339 0 7.868-3.53 7.868-7.868 0-4.337-3.529-7.866-7.868-7.866" style="fill:#fff;fill-opacity:1;fill-rule:nonzero;stroke:none" transform="matrix(7.05245 0 0 -7.05245 159.967 423.413)"/></g><g style="fill:#fff;fill-opacity:1"><path d="M0 0h-.717v5.826c.203 0 1.103.028 1.572.028.9 0 1.424-.064 1.783-.431.303-.296.45-.754.45-1.14 0-1.094-.919-1.471-1.241-1.599.542-.966 1.121-1.682 1.396-1.976.065-.055.323-.322.809-.405L3.961.019c-.019-.064-.083-.064-.147-.064-.882 0-1.296.147-2.702 2.563C.91 2.49.662 2.454 0 2.481V0Zm0 2.968c.147-.018.358-.028.615-.028.727 0 1.682.102 1.682 1.26 0 1.148-.882 1.176-1.488 1.176-.138 0-.543-.01-.809-.028v-2.38z" style="fill:#fff;fill-opacity:1;fill-rule:nonzero;stroke:none" transform="matrix(7.05245 0 0 -7.05245 224.984 579.417)"/></g><g style="fill:#fff;fill-opacity:1"><path d="M0 0h3.06v-.524H-.717v5.826h3.749v-.514H0V2.831h2.693v-.514H0V0Z" style="fill:#fff;fill-opacity:1;fill-rule:nonzero;stroke:none" transform="matrix(7.05245 0 0 -7.05245 265.36 575.724)"/></g><g clip-path="url(#a)" style="fill:#fff;fill-opacity:1" transform="matrix(7.05245 0 0 -7.05245 -1999.077 719.108)"><g style="fill:#fff;fill-opacity:1"><path d="M0 0v-2.739c-.698-.137-1.516-.248-2.141-.248-1.388 0-2.159.405-2.656 1.03-.505.635-.597 1.351-.597 1.801 0 1.314.809 3.207 3.575 3.207.744 0 1.452-.156 1.516-.184.046-.019.11-.045.11-.11l.028-.45c0-.092-.129-.156-.129-.156-.027 0-.22.091-.266.109a3.993 3.993 0 0 1-1.471.304c-1.479 0-2.545-.938-2.545-2.564 0-1.379.845-2.509 2.619-2.509.579 0 1.002.102 1.231.156V0H0Z" style="fill:#fff;fill-opacity:1;fill-rule:nonzero;stroke:none" transform="translate(330.375 22.693)"/></g></g><path d="M521.762 395.655h5.045v41.053h-5.045v-41.053z" style="fill:#fff;fill-opacity:1;fill-rule:nonzero;stroke:none" transform="matrix(1.001 0 0 -1.001 -179.998 975.471)"/><g clip-path="url(#b)" style="fill:#fff;fill-opacity:1" transform="matrix(7.05245 0 0 -7.05245 -1999.077 719.108)"><g style="fill:#fff;fill-opacity:1"><path d="M0 0c0-1.618-1.158-3.144-3.152-3.144-1.811 0-3.023 1.471-3.023 3.042 0 1.334.983 3.097 3.244 3.097C-1.103 2.995 0 1.552 0 0m-4.457 2.031c-.551-.424-.9-1.149-.9-1.986 0-1.405.982-2.656 2.352-2.656 1.406 0 2.187 1.268 2.187 2.445 0 1.112-.699 2.628-2.169 2.628-.441 0-.964-.045-1.47-.431" style="fill:#fff;fill-opacity:1;fill-rule:nonzero;stroke:none" transform="translate(340.338 22.795)"/></g></g><g style="fill:#fff;fill-opacity:1"><path d="m0 0-.322-.111-4.199 4.852.138-4.769h-.643v5.826h.533l3.988-4.632-.138 4.632H0V0Z" style="fill:#fff;fill-opacity:1;fill-rule:nonzero;stroke:none" transform="matrix(7.05245 0 0 -7.05245 445.858 579.218)"/></g><g style="fill:#fff;fill-opacity:1"><path d="m0 0-.322-.111-4.2 4.852.138-4.769h-.643v5.826h.533l3.988-4.632-.137 4.632H0V0Z" style="fill:#fff;fill-opacity:1;fill-rule:nonzero;stroke:none" transform="matrix(7.05245 0 0 -7.05245 510.409 579.218)"/></g><g clip-path="url(#c)" style="fill:#fff;fill-opacity:1" transform="matrix(7.05245 0 0 -7.05245 -1999.077 719.108)"><g style="fill:#fff;fill-opacity:1"><path d="M0 0c0-1.618-1.157-3.144-3.152-3.144-1.811 0-3.023 1.471-3.023 3.042 0 1.334.983 3.097 3.243 3.097C-1.102 2.995 0 1.552 0 0m-4.457 2.031c-.552-.424-.9-1.149-.9-1.986 0-1.405.983-2.656 2.352-2.656 1.406 0 2.187 1.268 2.187 2.445 0 1.112-.698 2.628-2.168 2.628-.442 0-.965-.045-1.471-.431" style="fill:#fff;fill-opacity:1;fill-rule:nonzero;stroke:none" transform="translate(363.362 22.795)"/></g><g style="fill:#fff;fill-opacity:1"><path d="M0 0h-.717v5.826c.203 0 1.103.028 1.572.028.901 0 1.424-.064 1.783-.431.303-.296.45-.754.45-1.14 0-1.094-.919-1.471-1.24-1.599.542-.966 1.121-1.682 1.396-1.976.064-.055.322-.322.809-.405L3.961.019c-.018-.064-.083-.064-.147-.064-.882 0-1.295.147-2.702 2.563C.91 2.49.662 2.454 0 2.481V0Zm0 2.968c.147-.018.359-.028.616-.028.726 0 1.682.102 1.682 1.26 0 1.148-.882 1.176-1.489 1.176-.138 0-.542-.01-.809-.028v-2.38z" style="fill:#fff;fill-opacity:1;fill-rule:nonzero;stroke:none" transform="translate(365.404 19.807)"/></g><g style="fill:#fff;fill-opacity:1"><path d="M0 0c.376 0 1.011.047 2.04.047.882 0 1.636 0 2.279-.561.588-.505.909-1.37.909-2.279 0-1.232-.624-2.003-.992-2.325-.799-.708-2.04-.708-2.509-.708H0V0Zm.717-5.366h1.057c.79 0 1.497.184 1.865.504.524.46.772 1.315.772 2.033 0 .421-.083 1.111-.533 1.699-.542.717-1.36.717-1.939.717-.367 0-.478 0-1.222-.037v-4.916z" style="fill:#fff;fill-opacity:1;fill-rule:nonzero;stroke:none" transform="translate(370.413 25.634)"/></g><g style="fill:#fff;fill-opacity:1"><path d="M0 0v-4.962c0-.891 0-1.461-.606-2.068-.294-.294-.69-.533-1.204-.533-.45 0-.745.193-.745.349 0 .111 0 .111.055.156l.24.239c.027.029.036.029.147.029.018 0 .027-.01.119-.055a.945.945 0 0 1 .459-.121c.818 0 .818.718.818 2.04V0H0Z" style="fill:#fff;fill-opacity:1;fill-rule:nonzero;stroke:none" transform="translate(377.874 25.634)"/></g></g><g style="fill:#fff;fill-opacity:1"><path d="m0 0 1.645-2.784L3.381 0h.809L1.893-3.263v-2.563h-.726v2.528L-.827 0H0Z" style="fill:#fff;fill-opacity:1;fill-rule:nonzero;stroke:none" transform="matrix(7.05245 0 0 -7.05245 676.882 538.329)"/></g><g style="fill:#fff;fill-opacity:1"><path d="M0 0v-5.293h2.932v-.533H-.717V0H0Z" style="fill:#fff;fill-opacity:1;fill-rule:nonzero;stroke:none" transform="matrix(7.05245 0 0 -7.05245 715.44 538.329)"/></g><g style="fill:#fff;fill-opacity:1"><path d="M0 0v-5.293h2.932v-.533H-.717V0H0Z" style="fill:#fff;fill-opacity:1;fill-rule:nonzero;stroke:none" transform="matrix(7.05245 0 0 -7.05245 747.387 538.329)"/></g><g style="fill:#fff;fill-opacity:1"><path d="M0 0h-.736l2.702 5.826h.57L4.787 0h-.781l-.689 1.884H.781L0 0Zm3.143 2.343-1.02 2.73-1.149-2.73h2.169z" style="fill:#fff;fill-opacity:1;fill-rule:nonzero;stroke:none" transform="matrix(7.05245 0 0 -7.05245 774.658 579.417)"/></g><g style="fill:#fff;fill-opacity:1"><path d="m0 0-.321-.111-4.2 4.852.138-4.769h-.644v5.826h.533l3.989-4.632-.138 4.632H0V0Z" style="fill:#fff;fill-opacity:1;fill-rule:nonzero;stroke:none" transform="matrix(7.05245 0 0 -7.05245 850.031 579.218)"/></g><g style="fill:#fff;fill-opacity:1"><path d="M0 0c.376 0 1.011.047 2.04.047.882 0 1.636 0 2.279-.561.588-.505.91-1.37.91-2.279 0-1.232-.625-2.003-.993-2.325-.799-.708-2.04-.708-2.509-.708H0V0Zm.717-5.366h1.056c.791 0 1.499.184 1.866.504.524.46.772 1.315.772 2.033 0 .421-.083 1.111-.533 1.699-.542.717-1.36.717-1.939.717-.368 0-.478 0-1.222-.037v-4.916z" style="fill:#fff;fill-opacity:1;fill-rule:nonzero;stroke:none" transform="matrix(7.05245 0 0 -7.05245 863.123 538.329)"/></g><g style="fill:#fff;fill-opacity:1"><path d="M0 0s-.018 3.051-.031 3.298a2.65 2.65 0 0 1-.052.395 2.473 2.473 0 0 1-1.075-.26l.003-.042-.003-3.405-.637-.389V-.9l2.497.001v.513L0 0Z" style="fill:#fff;fill-opacity:1;fill-rule:nonzero;stroke:none" transform="matrix(7.05245 0 0 -7.05245 160.33 491.9)"/></g></g></svg>