<svg xmlns="http://www.w3.org/2000/svg" width="1066.667" height="711.111" viewBox="0 0 1000 666.667"><path fill="#0081ab" d="M-282.857 1102.838h1000v666.667h-1000z" color="#000" overflow="visible" style="isolation:auto;mix-blend-mode:normal;solid-color:#000;solid-opacity:1" transform="translate(282.857 -1102.838)"/><path fill="#fff" d="M549.166 326.39c3.83 27.301-15.158 52.534-42.499 56.376-27.274 3.83-52.506-15.198-56.336-42.485-3.843-27.274 15.172-52.547 42.446-56.376 27.327-3.857 52.546 15.171 56.39 42.485m-14.644-197.72c2.362 16.665-9.26 32.104-25.953 34.439-16.706 2.322-32.104-9.274-34.453-25.94-2.335-16.693 9.274-32.131 25.967-34.48 16.706-2.335 32.117 9.274 34.44 25.98m-81.46 36.43c2.882 20.508-11.422 39.51-31.931 42.391-20.549 2.87-39.55-11.435-42.406-31.97-2.895-20.536 11.396-39.524 31.958-42.406 20.496-2.856 39.497 11.449 42.379 31.984m-17.005 103.773c3.296 23.67-13.184 45.54-36.815 48.85-23.644 3.31-45.488-13.157-48.824-36.788-3.295-23.645 13.144-45.528 36.788-48.824 23.658-3.362 45.528 13.144 48.85 36.762m171.646-114.878c1.761 12.476-6.939 24.005-19.441 25.78-12.53 1.76-24.059-6.926-25.847-19.456-1.761-12.516 6.952-24.098 19.468-25.833 12.517-1.76 24.099 6.94 25.82 19.509M464.961 537.982c-2.349-16.68 9.274-32.078 25.98-34.427 16.652-2.335 32.064 9.274 34.44 25.94 2.334 16.72-9.275 32.131-25.967 34.48-16.666 2.348-32.105-9.3-34.453-25.993m81.467-36.425c-2.909-20.51 11.409-39.47 31.944-42.366 20.536-2.855 39.51 11.422 42.393 31.931 2.882 20.55-11.409 39.51-31.931 42.432-20.55 2.856-39.524-11.422-42.406-31.997m17.555-103.788c-3.323-23.658 13.143-45.475 36.788-48.811 23.631-3.322 45.488 13.143 48.797 36.775 3.349 23.671-13.13 45.54-36.788 48.837-23.645 3.336-45.475-13.157-48.797-36.801M391.779 512.72c-1.788-12.53 6.952-24.071 19.468-25.873 12.503-1.708 24.071 6.965 25.833 19.522 1.721 12.476-6.979 24.071-19.468 25.82-12.517 1.747-24.112-6.94-25.833-19.469m-36.058-57.678c-1.335-9.394 5.177-18.054 14.597-19.375 9.394-1.321 18.027 5.217 19.375 14.584 1.321 9.42-5.23 18.094-14.611 19.375-9.38 1.334-18.067-5.19-19.361-14.584"/></svg>