<svg xmlns="http://www.w3.org/2000/svg" width="1066.667" height="711.111" viewBox="0 0 1000 666.667"><defs><clipPath id="a" clipPathUnits="userSpaceOnUse"><path d="M431.716 24.674h132.449v68.948H431.716V24.674z"/></clipPath></defs><path d="M0 0h1000v666.667H0z" style="color:#000;clip-rule:nonzero;display:inline;overflow:visible;visibility:visible;opacity:1;isolation:auto;mix-blend-mode:normal;color-interpolation:sRGB;color-interpolation-filters:linearRGB;solid-color:#000;solid-opacity:1;fill:#fff;fill-opacity:1;fill-rule:nonzero;stroke:none;stroke-width:15;stroke-linecap:butt;stroke-linejoin:miter;stroke-miterlimit:4;stroke-dasharray:none;stroke-dashoffset:0;stroke-opacity:1;color-rendering:auto;image-rendering:auto;shape-rendering:auto;text-rendering:auto;enable-background:accumulate"/><path d="M-282.857 1169.505h1000v600h-1000z" style="color:#000;clip-rule:nonzero;display:inline;overflow:visible;visibility:visible;opacity:1;isolation:auto;mix-blend-mode:normal;color-interpolation:sRGB;color-interpolation-filters:linearRGB;solid-color:#000;solid-opacity:1;fill:#fff;fill-opacity:1;fill-rule:nonzero;stroke:none;stroke-width:15;stroke-linecap:butt;stroke-linejoin:miter;stroke-miterlimit:4;stroke-dasharray:none;stroke-dashoffset:0;stroke-opacity:1;color-rendering:auto;image-rendering:auto;shape-rendering:auto;text-rendering:auto;enable-background:accumulate" transform="translate(282.857 -1136.172)"/><g clip-path="url(#a)" transform="matrix(6.04008 0 0 -6.04008 -2507.604 688.942)"><path d="M0 0c-1.74-3.69-3.17-5.459-3.619-5.526-.359.34-.539.979-.539 1.923 0 1.95.76 5.174 2.272 9.637 0 0 .158.48.218.657l.588.539c2.948 2.731 3.698 2.527 3.703 2.524.127-.168.186-.461.186-.856C2.809 7.204 1.717 3.639 0 0m-10.369 3.615c-.904.754-1.912 2.905-1.912 8.754 0 .772.02 1.607.055 2.515.027.621.041 1.231.041 1.835 0 1.537-.094 3.001-.262 4.389 2.518 2.41 4.901 3.231 6.899 2.346 2.396-1.064 3.933-4.457 3.933-8.564 0-.228-.004-.46-.012-.693-.082-1.912-.47-4.292-1.148-7.062-5.316-4.638-6.672-4.286-7.594-3.52m-12.037-.001c-3.545-2.535-6.426-3.955-8.109-4.002-1.449-.039-2.635.377-3.526 1.241-1.252 1.221-1.916 3.309-1.916 6.038 0 7.268-2.117 10.558-3.985 13.465-1.595 2.476-2.971 4.616-3.023 8.785.081 2.857 1.404 5.428 3.538 6.846 2.82 1.877 7.031 1.822 12.179-.16 7.34-2.83 11.522-7.504 12.797-14.269-4.168-4.426-7.439-13.407-7.955-17.944m1.979.047 1.408.959c1.598 1.029 2.004 1.029 2.098 1.002.029-.055.058-.147.058-.325 0-.565-.273-1.942-1.607-5.318-1.53-3.89-2.352-4.065-2.362-4.065-.172.138-.505.988-.505 3.159 0 .305.005.642.021 1.006.037.856.139 1.902.307 3.182.205.138.582.4.582.4m24.05 7.476c-.345.211-1.343.819-4.611-2.183.715 2.785 1.086 5.338 1.086 7.557 0 4.137-1.225 7.162-3.613 8.591-2.614 1.564-6.186.77-9.276-1.99-1.5 7.151-7.216 13.572-14.806 16.505-5.647 2.186-10.299 2.186-13.459-.002-2.634-1.825-4.004-5.023-3.962-9.253-.131-4.361 1.691-6.995 3.616-9.783 2.199-3.182 4.469-6.475 4.027-12.843-.279-4.065-.521-7.575 1.352-9.375 1.041-1.001 2.639-1.37 4.891-1.129 3.414.372 6.927 3.308 8.55 4.767l-.017-.155c-.186-1.559-.336-3.017-.336-4.261 0-1.663.271-2.936 1.09-3.522.338-.243.812-.3 1.302-.157.936.275 2.362 1.394 3.856 5.186 1.523 3.864 1.783 6.855 1.256 7.7a1.055 1.055 0 0 1-.744.477c-.879.134-2.375-.64-4.547-2.369.84 4.119 3.205 9.826 6.592 14.254a30.734 30.734 0 0 0 .091-4.191 59.202 59.202 0 0 1-.06-2.615c0-5.081.76-8.123 2.345-9.484 2.055-1.75 4.329-1.162 8.395 2.314-.07-.249-.174-.606-.174-.606C-4.539 1.183-5.41-2.025-5.41-4.27c0-1.446.362-2.489 1.285-2.915C-2.351-8.006.219-4.683 2.032-1.3c1.672 3.114 2.929 6.681 2.929 9.268 0 1.449-.394 2.587-1.338 3.169" style="fill:#6ea31b;fill-opacity:1;fill-rule:nonzero;stroke:none" transform="translate(544.626 51.82)"/><path d="M0 0c0 1.356-.677 2.037-2.035 2.037h-1.816v-4.113h1.816C-.677-2.076 0-1.383 0 0m2.057-10.039H-.119l-2.115 6.087h-1.617v-6.087h-1.956V3.93h3.931c1.119 0 2.023-.301 2.715-.898.785-.679 1.178-1.67 1.178-2.974 0-1.876-.732-3.1-2.196-3.672l2.236-6.425z" style="fill:#5a6771;fill-opacity:1;fill-rule:nonzero;stroke:none" transform="translate(437.524 38.567)"/><path d="M0 0c-.026.798-.197 1.44-.509 1.926-.313.486-.737.729-1.268.729-1.012 0-1.597-.885-1.758-2.655H0Zm1.956-.979a7.97 7.97 0 0 0-.02-.678h-5.471c.12-1.981.777-2.973 1.969-2.973.703 0 1.332.258 1.89.778l1.174-1.217C.659-6.002-.379-6.468-1.617-6.468c-1.223 0-2.175.493-2.854 1.478-.665.944-.997 2.254-.997 3.93 0 1.782.345 3.159 1.038 4.129.651.918 1.55 1.378 2.693 1.378 1.091 0 1.97-.445 2.635-1.336.705-.971 1.058-2.334 1.058-4.09" style="fill:#5a6771;fill-opacity:1;fill-rule:nonzero;stroke:none" transform="translate(445.683 34.775)"/><path d="M0 0v5.427c-.413.625-.966.939-1.657.939-1.012 0-1.518-1.153-1.518-3.454 0-2.58.539-3.87 1.617-3.87C-.905-.958-.386-.639 0 0m1.916-1.622c0-1.529-.312-2.653-.938-3.372C.313-5.75-.799-6.217-2.355-6.39l-.539 1.537c1.144.146 1.913.427 2.304.84.394.412.59 1.118.59 2.117v.078c-.559-.626-1.211-.939-1.956-.939-2.102 0-3.153 1.856-3.153 5.568 0 1.729.286 3.052.857 3.969.572.918 1.385 1.378 2.436 1.378.706 0 1.31-.258 1.816-.776v.556h1.916v-9.56z" style="fill:#5a6771;fill-opacity:1;fill-rule:nonzero;stroke:none" transform="translate(453.62 31.064)"/><path d="M459.169 28.528h-1.915v10.474h1.915V28.528zm.22 13.294c0-.318-.117-.594-.35-.828a1.129 1.129 0 0 0-.827-.349c-.333 0-.616.116-.849.349-.233.234-.349.51-.349.828 0 .333.116.617.349.851.233.232.516.348.849.348.318 0 .595-.116.827-.348.233-.234.35-.518.35-.851" style="fill:#5a6771;fill-opacity:1;fill-rule:nonzero;stroke:none"/><path d="M0 0c0 2.421-.62 3.632-1.857 3.632-1.213 0-1.819-1.211-1.819-3.632 0-2.409.614-3.613 1.838-3.613.586 0 1.039.326 1.359.978C-.161-1.983 0-1.105 0 0m1.934.037c0-1.796-.343-3.159-1.028-4.09-.685-.932-1.62-1.398-2.804-1.398-1.13 0-2.022.446-2.673 1.338-.693.93-1.039 2.288-1.039 4.07 0 1.796.34 3.172 1.018 4.129.653.918 1.576 1.378 2.775 1.378 1.143 0 2.048-.447 2.714-1.336.691-.959 1.037-2.322 1.037-4.091" style="fill:#5a6771;fill-opacity:1;fill-rule:nonzero;stroke:none" transform="translate(466.2 33.758)"/><path d="M0 0h-1.917v6.446c0 .878-.097 1.504-.288 1.877-.193.373-.53.558-1.008.558-.652 0-1.172-.319-1.557-.957V0h-1.915v10.474h1.915v-.715c.492.623 1.171.935 2.035.935.985 0 1.687-.317 2.106-.949C-.21 9.115 0 8.119 0 6.763V0Z" style="fill:#5a6771;fill-opacity:1;fill-rule:nonzero;stroke:none" transform="translate(476.158 28.528)"/><path d="M0 0c0-1.144-.333-2.069-.998-2.774-.665-.706-1.604-1.058-2.814-1.058-1.57 0-2.801.759-3.692 2.277l1.537 1.237c.651-1.037 1.41-1.557 2.274-1.557 1.117 0 1.677.592 1.677 1.776 0 .547-.156 1.018-.47 1.418-.312.398-.937.907-1.875 1.526-.938.62-1.6 1.18-1.986 1.686-.546.705-.818 1.557-.818 2.555 0 1.037.32 1.879.957 2.525.639.645 1.498.967 2.575.967 1.397 0 2.528-.631 3.393-1.896l-1.437-1.277c-.346.467-.661.785-.947.959-.288.172-.643.259-1.069.259-.971 0-1.456-.491-1.456-1.477 0-.518.143-.958.429-1.317.285-.36.821-.792 1.606-1.298 1.037-.665 1.777-1.271 2.215-1.815C-.3 1.97 0 1.065 0 0" style="fill:#5a6771;fill-opacity:1;fill-rule:nonzero;stroke:none" transform="translate(488.889 32.14)"/><path d="m0 0-4.13-14.161h-1.877l1.138 3.689L-7.783 0h2.036l1.217-4.968c.253-1.01.459-1.96.619-2.851.146.825.358 1.782.64 2.872L-2.035 0H0Z" style="fill:#5a6771;fill-opacity:1;fill-rule:nonzero;stroke:none" transform="translate(496.7 39.002)"/><path d="M0 0v5.427c-.411.625-.964.939-1.657.939-1.01 0-1.516-1.153-1.516-3.454 0-2.58.538-3.87 1.617-3.87C-.904-.958-.385-.639 0 0m1.917-2.536H0v.699c-.571-.613-1.222-.92-1.955-.92-2.101 0-3.153 1.856-3.153 5.568 0 1.729.286 3.052.858 3.969.572.918 1.384 1.378 2.434 1.378.705 0 1.312-.258 1.816-.776v3.622l1.917.995V-2.536z" style="fill:#5a6771;fill-opacity:1;fill-rule:nonzero;stroke:none" transform="translate(502.053 31.064)"/><path d="M0 0v5.427c-.414.625-.967.939-1.656.939-1.014 0-1.52-1.153-1.52-3.454 0-2.58.541-3.87 1.617-3.87C-.906-.958-.387-.639 0 0m1.916-2.536H0v.699c-.572-.613-1.225-.92-1.957-.92-2.102 0-3.152 1.856-3.152 5.568 0 1.729.286 3.052.859 3.969.57.918 1.383 1.378 2.436 1.378.703 0 1.308-.258 1.814-.776v3.622l1.916.995V-2.536z" style="fill:#5a6771;fill-opacity:1;fill-rule:nonzero;stroke:none" transform="translate(510.476 31.064)"/><path d="M0 0v2.096c-.439.266-.965.4-1.576.4-1.012 0-1.518-.552-1.518-1.657 0-1.211.44-1.816 1.317-1.816C-.965-.977-.373-.65 0 0m1.916-2.494H0v.718c-.545-.626-1.265-.939-2.156-.939-.811 0-1.475.294-1.996.88-.57.625-.858 1.502-.858 2.633 0 1.106.319 1.964.959 2.576.612.572 1.428.858 2.456.858.584 0 1.115-.113 1.595-.34v1.019c0 .998-.453 1.497-1.357 1.497-.639 0-1.324-.221-2.055-.659l-.82 1.455c.998.665 2.002.996 3.013.996 1.147 0 1.954-.233 2.426-.698.473-.466.709-1.278.709-2.434v-7.562z" style="fill:#5a6771;fill-opacity:1;fill-rule:nonzero;stroke:none" transform="translate(518.466 31.022)"/><path d="M0 0h-1.916v6.446c0 .878-.096 1.504-.289 1.877-.194.373-.53.558-1.01.558-.65 0-1.17-.319-1.555-.957V0h-1.916v10.474h1.916v-.715c.492.623 1.172.935 2.035.935.985 0 1.688-.317 2.108-.949.416-.63.627-1.626.627-2.982V0Z" style="fill:#5a6771;fill-opacity:1;fill-rule:nonzero;stroke:none" transform="translate(528.903 28.528)"/><path d="M0 0h-1.914v6.446c0 .786-.029 1.303-.08 1.556-.147.586-.487.879-1.018.879-.652 0-1.172-.319-1.558-.957V0h-1.914v6.446c0 .786-.026 1.303-.081 1.556-.146.586-.486.879-1.017.879-.652 0-1.17-.319-1.557-.957V0h-1.916v10.474h1.916v-.715c.492.623 1.145.935 1.955.935.985 0 1.692-.372 2.116-1.115.652.743 1.47 1.115 2.453 1.115 1.011 0 1.711-.338 2.097-1.017.346-.611.518-1.65.518-3.112V0Z" style="fill:#5a6771;fill-opacity:1;fill-rule:nonzero;stroke:none" transform="translate(541.773 28.528)"/><path d="M0 0v2.096c-.442.266-.967.4-1.577.4-1.011 0-1.517-.552-1.517-1.657 0-1.211.439-1.816 1.316-1.816C-.965-.977-.373-.65 0 0m1.914-2.494H0v.718c-.547-.626-1.266-.939-2.157-.939-.812 0-1.476.294-1.996.88-.572.625-.857 1.502-.857 2.633 0 1.106.318 1.964.957 2.576.613.572 1.43.858 2.455.858.586 0 1.117-.113 1.598-.34v1.019c0 .998-.453 1.497-1.36 1.497-.638 0-1.324-.221-2.054-.659l-.819 1.455c.998.665 2.004.996 3.014.996 1.144 0 1.951-.233 2.424-.698.472-.466.709-1.278.709-2.434v-7.562z" style="fill:#5a6771;fill-opacity:1;fill-rule:nonzero;stroke:none" transform="translate(547.824 31.022)"/><path d="m0 0-.459-1.914c-.371.214-.817.32-1.338.32-.625 0-1.123-.273-1.496-.818v-7.924h-1.914V.138h1.914v-.715c.492.623 1.111.935 1.857.935C-.866.358-.385.239 0 0" style="fill:#5a6771;fill-opacity:1;fill-rule:nonzero;stroke:none" transform="translate(556.782 38.864)"/><path d="M0 0h-2.095l-1.737 4.891-1.039-1.657V0h-1.914v13.538l1.914.997V8.258c0-.808-.013-1.56-.039-2.251.147.306.432.845.86 1.615l1.576 2.852H-.3l-2.254-3.632L0 0Z" style="fill:#5a6771;fill-opacity:1;fill-rule:nonzero;stroke:none" transform="translate(564.165 28.528)"/></g></svg>