<svg xmlns="http://www.w3.org/2000/svg" xml:space="preserve" width="272.309" height="82.4"><rect width="100%" height="100%" fill="#fff"/><defs><clipPath id="a" clipPathUnits="userSpaceOnUse"><path d="M0 0h2042v618H0Z"/></clipPath><clipPath id="b" clipPathUnits="userSpaceOnUse"><path d="M412.219 618.398V412.813H206.016v205.585H0V0h206.016v206.27h206.203V0h206.047v618.398H412.219"/></clipPath><radialGradient id="c" cx="0" cy="0" r="1" fx="0" fy="0" gradientTransform="matrix(703.621 0 0 -703.621 632.237 -21.396)" gradientUnits="userSpaceOnUse" spreadMethod="pad"><stop offset="0" style="stop-opacity:1;stop-color:#a7b9d1"/><stop offset="1" style="stop-opacity:1;stop-color:#244571"/></radialGradient></defs><path d="M884.512 468.762h-29.129v-39.621h27.722c22.836 0 26.34 10.488 26.34 21.672 0 11.648-8.156 17.949-24.933 17.949zm27.949-124.895-31.695 58.028h-25.383v-58.028h-34.961V497.41h67.109c38.207 0 58.496-17.019 58.496-46.121 0-23.555-12.851-37.519-30.074-42.891l37.516-64.531h-41.008M1007.22 434.512c-12.161 0-15.654-7.696-16.365-19.805h31.235c-.47 13.496-4.87 19.805-14.87 19.805zm-17.279-41.707c.469-14.914 6.985-22.844 17.949-22.844 11.88 0 14.65 6.758 16.52 14.668l31.46-5.566c-5.12-26.348-24.45-37.989-47.76-37.989-33.997 0-53.368 23.067-53.368 60.821 0 33.554 18.66 61.281 52.218 61.281 44.01 0 50.79-34.504 50.79-70.371h-67.809M1119.82 436.133c-9.57 0-13.3-6.055-13.3-14.453 0-7.91 2.79-14.668 13.3-14.668 8.84 0 13.26 5.605 13.26 14.668 0 8.633-3.96 14.453-13.26 14.453zm15.36-91.336h-27.97c-4.64 0-7.21-3.274-7.21-7.219 0-5.82 4.66-10.488 20.27-10.488 16.77 0 21.88 6.289 21.88 11.64 0 2.344-1.14 6.067-6.97 6.067zm26.32 99.734c3.96-5.84 6.05-12.578 6.05-20.754 0-25.156-16.75-39.832-47.73-39.832-5.84 0-11.19.684-16.31 1.399-1.41-.93-3.3-2.793-3.3-5.832 0-3.035 1.89-5.586 8.16-5.586h34.97c24.45 0 33.54-8.613 33.54-27.957 0-28.196-21.89-41.477-59.4-41.477-30.98 0-51.26 11.641-51.26 30.528 0 8.601 4.4 17.468 18.87 19.335v.918c-10.73 5.372-13.3 13.528-13.3 21.446 0 7.461 4.92 14.668 14.71 18.64v.93c-9.12 6.055-14.47 15.391-14.47 27.488 0 27.512 19.81 39.399 47.79 39.399 9.07 0 13.51-1.184 20.93-3.52 4.94 12.129 17.25 17.949 30.77 17.949 2.09 0 4.22-.222 6.07-.457v-29.597c-7.24 0-12.59-.227-16.09-3.02M1193.34 343.867v116.504h34.93V343.867Zm0 124.649v28.894h34.93v-28.894h-34.93M1298.45 434.512c-12.59 0-17.97-7.93-17.97-32.395 0-23.054 5.15-32.156 17.97-32.156 12.34 0 17.47 9.102 17.47 32.156 0 24.465-5.36 32.395-17.47 32.395zm0-93.438c-38.91 0-52.9 24.707-52.9 61.043 0 35.637 14.45 61.059 52.9 61.059 37.98 0 52.42-25.422 52.42-61.059 0-36.336-13.98-61.043-52.42-61.043M1429.41 343.867v75.266c0 12.578-3.95 17-13.47 17-9.59 0-14.22-4.422-14.22-17.695v-74.571h-35v116.504h34.06V445h.94c4.43 11.641 14.43 18.176 27.01 18.176 22.85 0 35.64-13.293 35.64-41.965v-77.344h-34.96M908.746 130.371v65.242h-53.363v-65.242h-34.961v153.535h34.961v-59.16h53.363v59.16h35.887V130.371h-35.887M1013.6 221.016c-12.61 0-17.975-7.93-17.975-32.395 0-23.055 5.145-32.168 17.975-32.168 12.32 0 17.47 9.113 17.47 32.168 0 24.465-5.37 32.395-17.47 32.395zm0-93.438c-38.916 0-52.912 24.707-52.912 61.043 0 35.649 14.468 61.047 52.912 61.047 37.96 0 52.41-25.398 52.41-61.047 0-36.336-13.98-61.043-52.41-61.043M1140.73 130.371h-34.94l-36.59 116.504h36.59l14.45-62.441c.69-3.047 2.35-14.454 2.78-17.957h.47c.47 3.738 2.35 15.156 3.02 17.957l14.22 62.441h36.83l-36.83-116.504M1232.24 221.016c-12.14 0-15.62-7.696-16.32-19.825h31.23c-.48 13.516-4.89 19.825-14.91 19.825zm-17.25-41.719c.47-14.902 6.99-22.844 17.94-22.844 11.88 0 14.68 6.77 16.54 14.699l31.47-5.586c-5.11-26.328-24.48-37.988-47.77-37.988-34 0-53.37 23.074-53.37 60.82 0 33.555 18.65 61.27 52.2 61.27 44.04 0 50.79-34.492 50.79-70.371h-67.8M1346.5 222.871c-11.65 0-17.26-10.957-17.26-34.707 0-23.535 5.61-33.328 17.96-33.328 11.41 0 17.71 12.82 17.71 33.785 0 20.734-4.9 34.25-18.41 34.25zm19.34-92.5v15.606h-.93c-4.44-9.317-14.2-18.399-28.22-18.399-27.93 0-42.85 22.141-42.85 60.586 0 36.809 16.53 61.504 45.41 61.504 11.46 0 22.16-5.82 25.87-13.281v47.519h34.96V130.371h-34.24M1459.86 127.578c-22.85 0-44.04 9.551-49.42 33.543l31.47 7.219c1.63-8.856 7.24-13.731 17.47-13.731 7.93 0 17.94 2.559 17.94 11.172 0 16.543-63.38 3.504-63.38 46.836 0 24.934 23.55 37.051 48.46 37.051 24.03 0 43.85-13.035 45.92-30.977l-28.88-7.011c-3.03 7.011-7.71 11.191-17.04 11.191-7.45 0-14.67-2.324-14.67-8.633 0-15.351 63.62-3.027 63.62-45.422 0-28.894-26.35-41.238-51.49-41.238M1563.04 127.578c-24.92 0-33.77 13.516-33.77 34.942v57.324h-14.45v27.031h14.45v15.605l29.6 21.426h5.34v-37.031h22.59v-27.031h-22.59V167.41c0-6.519 2.11-10.105 8.39-10.105 3.27 0 6.24.879 8.57 2.519l9.62-23.164c-6.31-5.594-17.28-9.082-27.75-9.082M1657.73 179.766c-22.36-.235-26.58-4.903-26.58-15.371 0-6.297 2.34-11.883 12.13-11.883 11.18 0 14.45 6.054 14.45 14.429zm2.31-49.395v10.488c-7.69-9.328-15.14-13.281-31.7-13.281-20.24 0-32.13 14.207-32.13 34.942 0 31.679 23.99 39.375 61.52 39.628v5.332c0 9.336-3.98 13.536-13.05 13.536-7.91 0-13.75-2.793-14.94-10.723l-32.36 6.758c1.38 22.129 21.87 32.617 48.68 32.617 34.97 0 46.61-20.742 46.61-36.816v-69.903c0-7.453.69-8.144 1.63-12.578h-34.26M1758.84 222.871c-11.66 0-17.28-10.957-17.28-34.707 0-23.535 5.62-33.328 17.97-33.328 11.4 0 17.71 12.82 17.71 33.785 0 20.734-4.91 34.25-18.4 34.25zm19.31-92.5v15.606h-.91c-4.43-9.317-14.22-18.399-28.18-18.399-27.99 0-42.9 22.141-42.9 60.586 0 36.809 16.55 61.504 45.45 61.504 11.41 0 22.14-5.82 25.84-13.281v47.519h34.95V130.371h-34.25M1878.89 221.016c-12.14 0-15.64-7.696-16.31-19.825h31.19c-.46 13.516-4.86 19.825-14.88 19.825zm-17.25-41.719c.46-14.902 6.98-22.844 17.94-22.844 11.89 0 14.67 6.77 16.53 14.699l31.45-5.586c-5.11-26.328-24.45-37.988-47.76-37.988-33.96 0-53.36 23.074-53.36 60.82 0 33.555 18.67 61.27 52.21 61.27 44.01 0 50.77-34.492 50.77-70.371h-67.78M2007.38 130.371v75.274c0 12.578-3.98 16.992-13.52 16.992-9.56 0-14.23-4.414-14.23-17.715v-74.551h-34.93v116.504h34.03v-15.391h.9c4.44 11.661 14.47 18.184 27.05 18.184 22.84 0 35.64-13.281 35.64-41.941v-77.356h-34.94" style="fill:#5f666a;fill-opacity:1;fill-rule:nonzero;stroke:none" transform="matrix(.13333 0 0 -.13333 0 82.4)"/><g clip-path="url(#a)" transform="matrix(.13333 0 0 -.13333 0 82.4)"><g clip-path="url(#b)"><path d="M0 0v618h207V413h205v205h207V0H412v206H207V0" style="fill:url(#c);fill-opacity:1;fill-rule:nonzero;stroke:none"/></g></g><path d="M82.492 96.719c-1.848 0-3.41-.137-4.726-.469-1.243-.313-2.305-.918-3.157-1.914-.8-.977-1.406-2.48-1.757-4.434-.372-1.953-.551-4.629-.551-8.047v-13.73h22.117v13.008c0 3.457-.355 6.289-.996 8.418-.668 2.09-1.555 3.672-2.621 4.687-1.07 1.035-2.348 1.7-3.832 2.012-1.426.332-2.922.469-4.477.469zm69.735 4.355L114.82 81.719V68.125h37.407V40.723H50.317v43.3c0 7.754.574 14.22 1.671 19.415 1.172 5.214 2.895 9.375 5.293 12.5 2.36 3.183 5.469 5.429 9.266 6.777 3.8 1.308 8.394 1.992 13.762 1.992 6.386 0 11.773-1.562 16.097-4.707 4.336-3.164 7.992-7.305 10.957-12.461l44.864 24.883v-31.348M152.227 145.977H50.781v75.722h22.301v-48.496h15.25v39.57h22.332v-39.57h19.25v49.434h22.313v-76.66M127.621 320.078c6.633-2.07 11.883-4.961 15.75-8.613 3.887-3.692 6.688-8.223 8.305-13.516 1.637-5.254 2.449-11.133 2.449-17.597 0-6.973-.902-13.321-2.727-18.965-1.851-5.645-4.871-10.449-9.093-14.453-4.215-3.985-9.676-7.051-16.387-9.239-6.707-2.148-14.949-3.203-24.676-3.203-9.238 0-17.14 1.035-23.707 3.145-6.547 2.109-11.965 5.136-16.207 9.082-4.262 3.945-7.387 8.808-9.34 14.629-1.937 5.781-2.894 12.382-2.894 19.785 0 6.445.59 12.012 1.844 16.699 1.23 4.668 2.933 8.555 5.136 11.777 2.2 3.164 4.809 5.664 7.793 7.539 2.93 1.856 6.176 3.106 9.68 3.829l8.144-24.004c-4.406-1.133-7.332-2.95-8.703-5.547-1.363-2.578-2.054-6.406-2.054-11.543 0-2.852.316-5.43.972-7.695.657-2.247 2.059-4.161 4.192-5.762 2.097-1.602 5.152-2.852 9.129-3.692 3.992-.898 9.336-1.347 16.015-1.347 6.547 0 11.875.547 15.926 1.562 4.043 1.035 7.148 2.442 9.375 4.258 2.211 1.777 3.672 3.945 4.453 6.465.742 2.48 1.133 5.254 1.133 8.223 0 4.082-1.277 7.519-3.832 10.312-2.555 2.734-7.317 4.297-14.277 4.59v-15.84H95.234v42.168h7.536c9.976 0 18.226-1.016 24.851-3.047M50.781 340.645h101.445v27.246H50.781ZM101.418 450.527c-10.461 0-18.04-1.621-22.711-4.863-4.668-3.223-6.957-7.91-6.957-14.043 0-6.191 2.29-10.859 6.957-14.101 4.672-3.243 12.25-4.864 22.711-4.864 9.961 0 17.43 1.66 22.461 4.942 5.059 3.281 7.543 7.968 7.543 14.023 0 6.016-2.484 10.684-7.543 14.004-5.031 3.242-12.5 4.902-22.461 4.902zm.082 27.071c8.832 0 16.52-1.094 23.09-3.282 6.547-2.226 12.051-5.332 16.449-9.336 4.387-4.003 7.676-8.828 9.84-14.453 2.168-5.664 3.195-11.933 3.195-18.906 0-6.992-1.027-13.301-3.195-18.965-2.164-5.625-5.453-10.429-9.84-14.453-4.398-3.984-9.902-7.09-16.449-9.219-6.57-2.187-14.258-3.242-23.09-3.242-8.71 0-16.363 1.133-22.914 3.379-6.574 2.266-12.078 5.41-16.457 9.473-4.422 4.043-7.691 8.867-9.89 14.453-2.13 5.605-3.18 11.797-3.18 18.574 0 6.758 1.05 12.949 3.18 18.496 2.199 5.645 5.468 10.449 9.89 14.551 4.379 4.102 9.883 7.305 16.457 9.551 6.55 2.265 14.203 3.379 22.914 3.379M152.227 550l-61.883-32.656a526.9 526.9 0 0 0 8.62.644c3.196.176 6.196.352 9.095.43 3.371.098 6.816.156 10.296.156h33.872v-24.746H50.781v27.539l61.27 32.324c-1.934-.234-4.117-.332-6.465-.39-2.375-.078-4.559-.117-6.621-.254-2.45-.098-4.88-.156-7.242-.156H50.78v24.765h101.446V550" style="fill:#fff;fill-opacity:1;fill-rule:nonzero;stroke:none" transform="matrix(.13333 0 0 -.13333 0 82.4)"/></svg>