<svg xmlns="http://www.w3.org/2000/svg" width="600" height="400"><defs><linearGradient id="a" x1="82.289" x2="195.417" y1="167.234" y2="268.604" gradientUnits="userSpaceOnUse"><stop offset="0" stop-color="#0e3e5a"/><stop offset=".436" stop-color="#4f5f84"/><stop offset="1" stop-color="#979dc1"/></linearGradient></defs><path fill="#0e3e5a" d="M0 0h600v400H0z"/><path fill="url(#a)" stroke="#fff" stroke-width="2" d="M35 120v160h51.755v-53.445h56.49V280H195V120h-51.755v54.608h-56.49V120z"/><g fill="#fff"><path d="M63.785 262.86H74.87v6.574H46.9v-12.25q0-3.388.79-5.44.788-2.051 2.9-3.4 2.11-1.346 4.691-1.346 5.04 0 7.234 4.838l12.355-5.145v7.207l-11.085 4.287zm-11.905 0h7.13v-4.001q0-1.96-.276-2.848t-1.23-1.582a3.6 3.6 0 0 0-2.182-.694q-1.167-.001-2.09.694-.921.694-1.137 1.51t-.215 3.063zM52.228 222.009v13.29h5.738v-10.452h5.266v10.452h6.106v-13.29h5.532v19.925H46.9v-19.925zM59.912 196.368h5.039c4.133-.025 10.395 3.506 10.35 11.514q0 5.45-3.914 8.482t-10.122 3.032q-6.68 0-10.737-3.236-4.057-3.235-4.057-8.788 0-4.655 2.622-7.513a10.5 10.5 0 0 1 3.693-2.595l.837 6.457q-1.804 1.242-1.804 3.65 0 2.655 2.407 4.012 2.408 1.358 6.875 1.358 4.302 0 6.577-1.47t2.275-4.185q0-1.755-1.148-3.134-1.147-1.378-3.668-1.378v5.247h-5.225zM46.9 184.691h27.97v6.512H46.9zM75.3 168.645q0 5.634-4.241 8.717-4.242 3.083-10.266 3.083-6.126 0-10.224-3.124t-4.098-8.9q0-5.84 4.374-8.81 4.375-2.97 10.01-2.97 6.086 0 10.265 3.062 4.18 3.063 4.18 8.942m-23.481-.184q0 5.145 9.056 5.145 9.078 0 9.078-5.145 0-4.98-9.057-4.981-9.077 0-9.077 4.981M46.9 130.959h27.97v5.573l-18.892 10.922q.717-.02.943-.04a11 11 0 0 1 1.209-.082h16.74v5.083H46.9v-7.043l16.496-9.493q-1.23.123-1.865.122h-14.63z"/></g><g fill="#fff" stroke="#fff" stroke-width="2"><path d="M279.87 188.757h-7.299l-5.951-15.446h-9.714v15.446H250v-37.583h16.62q6.933 0 10.19 3.07t3.256 7.944q0 7.241-6.905 9.967zm-22.964-20.87h8.59q3.735 0 5.56-1.542t1.824-4.24q0-2.478-1.797-4.006t-5.025-1.528h-9.152zM304.602 179.891l5.783.77q-1.123 3.774-4.38 6.223-3.255 2.45-8.169 2.45-5.895 0-9.488-3.881-3.594-3.882-3.594-10.518 0-6.305 3.622-10.435t9.825-4.13q6.064 0 9.377 4.075 3.312 4.075 3.312 10.463l-.028.715h-19.454q0 2.836.547 4.543t2.176 2.974 4.07 1.267q4.745 0 6.401-4.516zm-.393-8.315q-.028-3-1.839-4.9t-4.477-1.9q-2.64 0-4.408 1.775-1.768 1.777-2.077 5.025zM342.641 155.635v4.818h-1.965q-1.291 0-2.26.303t-1.895 1.955q3.369 2.699 3.369 6.002 0 3.69-3.158 6.113-3.159 2.422-8.352 2.422-2.246 0-5.25-.715-1.965.881-1.965 2.725 0 1.02.955 1.873.954.853 2.891.853h8.422q4.323 0 6.78 2.189t2.456 5.438q0 3.938-3.72 6.525-3.72 2.589-11.018 2.588-13.728 0-13.728-7.516 0-3.717 4.127-5.645-2.64-2.201-2.639-4.598 0-3.633 4.52-5.782-3.93-2.34-3.93-6.442 0-3.47 2.891-5.92t8.787-2.45q2.695 0 5.474.578 1.291-5.314 6.822-5.314zm-14.542 17.897q5.222 0 5.222-4.819 0-1.845-1.306-3.111-1.305-1.266-3.804-1.267-2.526 0-3.916 1.322-1.39 1.321-1.39 3.304.001 2.038 1.376 3.304t3.818 1.266zm-7.018 13.711q-1.376 1.239-1.376 2.395 0 1.9 2.302 3.346 2.302 1.445 7.327 1.445 7.384 0 7.384-3.717 0-1.376-1.292-2.079-1.29-.702-2.947-.702h-6.794q-1.937 0-4.604-.688zM352.916 157.699h-6.4v-6.525h6.4zm0 31.057h-6.4v-27.808h6.4zM371.668 189.335q-6.288 0-9.601-4.433-3.312-4.433-3.313-10.16 0-6.166 3.664-10.27 3.663-4.102 9.671-4.102 5.7 0 9.362 3.993 3.664 3.992 3.664 10.38 0 6.58-3.804 10.586t-9.643 4.006zm.225-5.176q6.456 0 6.456-9.444 0-4.268-1.544-6.732-1.543-2.464-4.744-2.464-3.312 0-4.913 2.547-1.6 2.546-1.6 6.76 0 4.542 1.698 6.937 1.699 2.396 4.647 2.396zM414.48 188.757h-6.4v-17.373q0-2.754-1.292-4.144-1.291-1.39-3.116-1.39-2.499 0-4.38 2.147-1.88 2.148-1.88 6.47v14.29h-6.401v-27.808h5.84v6.442q3.06-7.02 8.59-7.02 3.733 0 6.386 2.312 2.653 2.313 2.653 8.122zM279.273 244.309h-6.906v-16.327h-14.626v16.327h-6.906v-37.583h6.906v15.446h14.626v-15.446h6.906zM298.391 244.888q-6.288 0-9.601-4.433-3.312-4.433-3.313-10.16 0-6.166 3.664-10.27 3.663-4.102 9.671-4.102 5.7 0 9.362 3.993 3.664 3.992 3.664 10.38 0 6.58-3.804 10.586-3.804 4.005-9.643 4.006zm.225-5.176q6.456 0 6.456-9.444 0-4.268-1.544-6.732-1.543-2.464-4.744-2.464-3.312 0-4.913 2.547-1.6 2.546-1.6 6.76 0 4.542 1.699 6.937 1.697 2.396 4.646 2.396zM339.069 216.501l-9.629 27.808h-5.306l-9.853-27.808h6.68l6.626 18.86 6.457-18.86zM361.358 235.444l5.783.77q-1.123 3.774-4.38 6.223-3.255 2.45-8.169 2.45-5.895 0-9.488-3.881-3.594-3.882-3.594-10.518 0-6.305 3.622-10.435t9.825-4.13q6.064 0 9.377 4.075 3.312 4.075 3.312 10.463l-.028.715h-19.454q0 2.836.547 4.543t2.176 2.974 4.07 1.267q4.745 0 6.401-4.516zm-.393-8.315q-.029-3-1.839-4.9t-4.477-1.9q-2.64 0-4.408 1.775-1.768 1.777-2.077 5.025zM396.843 244.309h-5.98v-5.617q-2.47 6.195-8.365 6.195-5.222 0-8.001-4.267-2.78-4.268-2.78-10.6 0-5.893 2.892-10.27 2.892-4.378 8.226-4.378 5.474 0 7.607 4.9v-13.546h6.401zm-6.4-16.41q0-3.386-1.643-5.272-1.642-1.886-4.253-1.886-2.835 0-4.436 2.423t-1.6 7.24q0 9.307 5.952 9.307 2.357 0 4.169-1.996 1.81-1.995 1.81-5.108zM401.082 237.922l6.008-1.129q1.375 3.387 6.063 3.387 5.952 0 5.952-3.442 0-1.101-.927-1.817-.925-.716-2.19-.964l-5.165-.963q-8.59-1.624-8.59-8.233 0-3.69 2.723-6.264t8.113-2.574q8.984 0 10.977 6.47l-5.7 1.13q-.897-3.14-5.108-3.14-5.11 0-5.11 3.14 0 2.175 4.127 3l6.092 1.24q7.102 1.43 7.102 7.984 0 4.597-3.65 6.87-3.649 2.27-8.674 2.27-4.35 0-7.692-1.72-3.34-1.721-4.351-5.245zM443.837 239.409v4.9q-2.863.607-4.436.607-2.582 0-4.435-1.005t-2.71-2.754-.855-5.382v-14.4h-3.538V216.5h3.903l-.037-2.44 5.876-5.269v7.71h5.699v4.873h-5.7v13.574q0 2.615.97 3.565.967.95 3.663.95.758 0 1.6-.055zM473.482 244.309h-6.092q-.814-2.532-.982-5.617-2.556 6.195-9.601 6.195-4.24 0-6.808-2.436-2.57-2.437-2.569-6.127 0-9.58 17.153-9.581.673 0 1.825.027v-2.092q0-4.323-6.008-4.323-5.84 0-6.625 4.323l-5.446-.799q.449-3.469 3.65-5.713 3.199-2.244 9.263-2.244 3.285 0 5.362.537t3.51 1.817q1.43 1.281 1.978 2.781t.548 5.08v12.555q0 2.726.842 5.617zm-7.074-14.152q-12.41 0-12.409 5.81 0 1.733 1.25 2.96 1.248 1.225 3.775 1.225 3.65 0 5.517-2.272t1.867-5.162zM503.632 244.309h-5.98v-5.617q-2.47 6.195-8.365 6.195-5.221 0-8.001-4.267t-2.78-10.6q0-5.893 2.892-10.27 2.892-4.378 8.226-4.378 5.474 0 7.607 4.9v-13.546h6.401zm-6.4-16.41q0-3.386-1.643-5.272-1.642-1.886-4.253-1.886-2.835 0-4.436 2.423t-1.6 7.24q0 9.307 5.952 9.307 2.358 0 4.169-1.996t1.81-5.108zM529.347 235.444l5.783.77q-1.123 3.774-4.38 6.223-3.255 2.45-8.169 2.45-5.895 0-9.488-3.881-3.594-3.882-3.594-10.518 0-6.305 3.622-10.435t9.825-4.13q6.064 0 9.377 4.075 3.312 4.075 3.312 10.463l-.028.715h-19.454q0 2.836.547 4.543t2.176 2.974 4.07 1.267q4.745 0 6.401-4.516zm-.393-8.315q-.028-3-1.839-4.9t-4.477-1.9q-2.64 0-4.408 1.775-1.768 1.777-2.077 5.025zM565 244.309h-6.4v-17.373q0-2.754-1.292-4.144-1.291-1.39-3.116-1.39-2.499 0-4.38 2.147-1.88 2.148-1.88 6.47v14.29h-6.401V216.5h5.84v6.442q3.06-7.02 8.59-7.02 3.733 0 6.386 2.312 2.653 2.313 2.653 8.122z"/></g></svg>