<svg xmlns="http://www.w3.org/2000/svg" width="1066.667" height="711.111" viewBox="0 0 1000 666.667"><defs><clipPath id="a" clipPathUnits="userSpaceOnUse"><path d="M1089.221 797.102h109.834v53.291h-109.834v-53.291z"/></clipPath><clipPath id="b" clipPathUnits="userSpaceOnUse"><path d="M1108.309 841.132h71.658v-34.769h-71.658v34.769z"/></clipPath><clipPath id="c" clipPathUnits="userSpaceOnUse"><path d="M1108.309 841.132h71.658v-34.769h-71.658v34.769z"/></clipPath><clipPath id="d" clipPathUnits="userSpaceOnUse"><path d="M1100.541 852.026h85.323v-60.917h-85.323v60.917z"/></clipPath></defs><path d="M0 0h1000v666.667H0z" style="color:#000;clip-rule:nonzero;display:inline;overflow:visible;visibility:visible;opacity:1;isolation:auto;mix-blend-mode:normal;color-interpolation:sRGB;color-interpolation-filters:linearRGB;solid-color:#000;solid-opacity:1;fill:#fff;fill-opacity:1;fill-rule:nonzero;stroke:none;stroke-width:15;stroke-linecap:butt;stroke-linejoin:miter;stroke-miterlimit:4;stroke-dasharray:none;stroke-dashoffset:0;stroke-opacity:1;color-rendering:auto;image-rendering:auto;shape-rendering:auto;text-rendering:auto;enable-background:accumulate"/><path d="M-282.857 1169.505h1000v600h-1000z" style="color:#000;clip-rule:nonzero;display:inline;overflow:visible;visibility:visible;opacity:1;isolation:auto;mix-blend-mode:normal;color-interpolation:sRGB;color-interpolation-filters:linearRGB;solid-color:#000;solid-opacity:1;fill:#fff;fill-opacity:1;fill-rule:nonzero;stroke:none;stroke-width:15;stroke-linecap:butt;stroke-linejoin:miter;stroke-miterlimit:4;stroke-dasharray:none;stroke-dashoffset:0;stroke-opacity:1;color-rendering:auto;image-rendering:auto;shape-rendering:auto;text-rendering:auto;enable-background:accumulate" transform="translate(282.857 -1136.172)"/><g clip-path="url(#a)" transform="matrix(11.17117 0 0 -11.17117 -12281.134 9534.031)"><g clip-path="url(#b)"><g clip-path="url(#c)"><g clip-path="url(#d)"><path d="M1113.326 812.141c-.658 0-1.06-.111-1.351-.231v-3.666h-.683v4.444h.624l.042-.368c.299.24.881.436 1.291.436.119 0 .436-.008.649-.034v-.581h-.572zM1117.411 811.483c0 .607-.317.743-.881.743h-.606c-.658 0-.889-.29-.889-.837v-.53h2.376v.624zm.068-1.137h-2.444v-.803c0-.538.213-.821.871-.821h2.043v-.324c-.179-.154-.53-.257-.897-.257h-1.163c-.794 0-1.538.368-1.538 1.445v1.658c0 1.247.752 1.546 1.718 1.546h.393c.863 0 1.615-.265 1.615-1.452v-.889l-.598-.103zM1122.273 811.902c-.205.136-.615.29-1.128.29h-.641c-.239 0-.521-.119-.521-.632v-2.043c0-.512.359-.547.624-.547h.521c.564 0 .957.103 1.145.154v2.778zm-.82-5.538h-1.043c-.273 0-.752.025-.974.205v.401h2.094c.538 0 .743.274.743.795v1c-.324-.333-.735-.419-1.188-.419h-.606c-.77 0-1.18.308-1.18 1.094v2.111c0 .829.547 1.239 1.333 1.239h.659c.35 0 .811-.153 1.034-.435l.094.333h.538v-4.871c0-1.017-.513-1.453-1.504-1.453M1124.606 812.688h.684v-4.444h-.684v4.444zm0 1.812h.684v-.855h-.684v.855zM1129.811 811.432c0 .41-.197.811-.658.811h-1.111c-.496 0-.692-.358-.692-.811v-1.923c0-.453.196-.821.692-.821h1.111c.461 0 .658.402.658.812v1.932zm-.778-3.291h-.854c-.923 0-1.513.487-1.513 1.436v1.778c0 .948.59 1.435 1.513 1.435h.854c.94 0 1.462-.564 1.462-1.487v-1.675c0-.923-.522-1.487-1.462-1.487M1134.682 808.244v3.47c0 .367-.299.461-.572.461h-.693c-.47 0-.854-.077-1.025-.128v-3.803h-.684v4.444h.65l.025-.308c.308.291.778.41 1.18.41h.683c.573 0 1.12-.247 1.12-1v-3.546h-.684z" style="fill:#785d47;fill-opacity:1;fill-rule:nonzero;stroke:none"/><path d="M1142.365 808.244v3.47c0 .367-.299.461-.573.461h-.453c-.444 0-.846-.077-1.025-.128v-3.803h-.684v3.47c0 .367-.299.461-.573.461h-.504c-.402 0-.735-.068-.974-.128v-3.803h-.684v4.444h.65l.025-.308c.308.291.769.41 1.171.41h.453c.427 0 .838-.136 1.017-.512.265.342.786.512 1.29.512h.428c.572 0 1.119-.247 1.119-1v-3.546h-.683zM1144.527 812.688h.684v-4.444h-.684v4.444zm0 1.812h.684v-.855h-.684v.855zM1149.398 811.902c-.205.136-.615.29-1.128.29h-.641c-.239 0-.521-.119-.521-.632v-2.256c0-.513.359-.547.624-.547h.521c.564 0 .957.102 1.145.153v2.992zm.068-3.658-.059.325c-.317-.325-.77-.428-1.197-.428h-.709c-.487 0-1.077.222-1.077 1.026v2.376c0 .812.53 1.247 1.273 1.247h.641c.402 0 .838-.145 1.06-.393v2.103h.684v-6.256h-.616zM1152.834 808.141c-.761 0-1.223.205-1.223.94v2.974h-.786v.513h.786v1.239l.684.094v-1.333h1.538v-.513h-1.538v-2.862c0-.214.017-.496.419-.496h1.119v-.385c-.205-.111-.7-.171-.999-.171" style="fill:#36220f;fill-opacity:1;fill-rule:nonzero;stroke:none"/><path d="M1155.235 814.5h.684v-.855h-.684v.855zm-.701-8.136c-.085 0-.41.017-.666.085v.479h.547c.589 0 .82.111.82.88v4.88h.684v-4.914c0-1.068-.539-1.41-1.385-1.41M1158.585 806.432h-.649l.7 1.88-1.743 4.376h.718l1.358-3.495h.026l1.214 3.495h.666l-2.29-6.256zM1161.755 814.5h.684v-6.256h-.684v6.256zM1163.986 814.5h.684v-6.256h-.684v6.256zM1168.832 810.346h-1.607c-.393 0-.632-.137-.632-.572v-.539c0-.384.282-.53.606-.53h.906c.368 0 .727.163.727.727v.914zm.17-2.102c-.017.145-.017.154-.051.427h-.025c-.146-.282-.445-.53-.983-.53h-.889c-.658 0-1.145.385-1.145 1.009v.513c0 .846.496 1.196 1.265 1.196h1.658v.752c0 .479-.265.564-.71.564h-1.914v.419c.248.154.752.196 1.051.196h.949c.709 0 1.307-.247 1.307-1.119v-1.957c0-.684.034-1.034.086-1.47h-.599zM1173.985 808.244v3.47c0 .367-.299.461-.573.461h-.692c-.47 0-.855-.077-1.026-.128v-3.803h-.683v4.444h.649l.026-.308c.308.291.778.41 1.179.41h.684c.573 0 1.12-.247 1.12-1v-3.546h-.684zM1178.959 811.902c-.205.136-.616.29-1.128.29h-.641c-.24 0-.522-.119-.522-.632v-2.256c0-.513.359-.547.624-.547h.521c.564 0 .958.102 1.146.153v2.992zm.068-3.658-.06.325c-.316-.325-.769-.428-1.196-.428h-.71c-.487 0-1.077.222-1.077 1.026v2.376c0 .812.53 1.247 1.274 1.247h.641c.402 0 .837-.145 1.06-.393v2.103h.683v-6.256h-.615z" style="fill:#785d47;fill-opacity:1;fill-rule:nonzero;stroke:none"/><path d="M1119.025 834.934c-.967 0-1.915-.004-2.822-.011-2.856-.022-6.089-.059-7.482-.24-.238-.028-.325-.213-.344-.412-.02-.2-.068-1.075-.066-1.273.01-.198.122-.37.338-.41.181-.035 2.71-.505 2.71-2.097v-12.91c0-.189.074-.403.396-.416.631-.03 1.385-.047 2.127-.047.681 0 1.351.014 1.907.047.324.017.414.233.414.423v13.248c0 .244.187.35.405.379.133.017.64.034 1.275.034.472 0 1.014-.009 1.526-.034 1.219-.061 1.76-.554 1.76-2.121v-11.515c0-.187.048-.397.416-.414a44.803 44.803 0 0 1 2.027-.048c.643 0 1.303.015 2.028.048.351.017.412.227.412.414v13.237c0 .262.2.37.423.399.165.022.403.033.787.033.374 0 .886-.011 1.604-.033 1.467-.048 2.254-.48 2.254-2.215v-9.047c0-1.818.162-2.742 2.219-2.81.488-.017.893-.023 1.226-.023.716 0 1.095.029 1.242.04.209.02.362.164.38.406.015.24 0 6.198 0 10.074 0 6.213-.157 6.799-7.349 7.122-2.811.125-6.423.172-9.813.172M1141.49 834.72c-1.32 0-2.59-.039-3.385-.12-.277-.039-.327-.229-.342-.436a21.404 21.404 0 0 1-.061-1.251.43.43 0 0 1 .335-.41c.181-.046 2.71-.582 2.71-2.154v-12.772c0-.19.118-.382.41-.412.69-.042 1.396-.063 2.111-.063.724 0 1.456.021 2.188.063.281.015.379.222.379.412v16.587c0 .19-.105.373-.438.421-1 .089-2.483.135-3.907.135M1179.488 819.143c-.648.172-1.104.159-2.694.541-1.911.46-1.84.791-1.926 2.797-.063 1.481-.129 5.665-.056 7.792.06 1.72 3.079 2.026 3.296 2.084.216.058.319.187.337.403.018.217-.044 1.106-.075 1.322-.031.216-.166.318-.344.344-.609.089-2.208.191-3.107.245a.525.525 0 0 0-.498.408c-.064.238-.189.981-.384 2.156-.16.965-.107 1.368-1.312 1.608-2.782.555-2.754.293-2.772-.563a3143.37 3143.37 0 0 1-.126-15.993c0-3.934.738-5.25 5.07-5.25.935 0 2.966.077 3.972.156.958.076.943.095 1.029 1.098.053.63.069.726-.41.852m-18.988 1.788c0-.6-.434-.629-.805-.674-.37-.045-.532-.039-1.784-.03-2.355 0-4.073.601-4.073 5.656 0 5.056 1.189 5.725 3.997 5.725 0 0 1.143.006 1.869-.08.427-.056.744-.166.762-.624.086-2.25.046-6.267.034-9.973m7.869-1.485c-1.656.511-2.687.294-2.787 1.813-.1 1.519-.035 15.501-.141 17.666-.058 1.195.177 1.248-2.41 1.719-2.683.488-2.395.105-2.439-.808-.048-.997-.072-3.928-.106-4.472-.024-.393-.132-.522-.497-.506a94.78 94.78 0 0 1-3.777.091c-3.022 0-7.29-1.006-7.29-9.302 0-8.538 5.037-8.417 6.969-8.544 1.342-.089 7.885-.174 12.219.031.285.031.372.178.429.418.057.239.118 1.316.112 1.505-.01.188-.055.319-.282.389" style="fill:#92082e;fill-opacity:1;fill-rule:nonzero;stroke:none"/></g></g></g></g></svg>