<svg xmlns="http://www.w3.org/2000/svg" width="750" height="468.75" version="1.0"><path d="M.001.501h750V468.75h-750z" style="fill:#fed517;fill-opacity:1;stroke:none" transform="matrix(1 0 0 1.00107 0 -.501)"/><g style="stroke:none"><g style="stroke:none"><g style="stroke:none"><g style="stroke:none"><path d="M-316.434 715.484c3.383 2.177 11.915 3.471 15.056 5.828.867 2.207.343 4.692.486 7.043-1.663-6.709-16.888-7.074-15.542-12.87zM-402 849.374c3.088-11.292 19.753-10.797 20.779 3.263.928.594 1.49 2.287 3.262.344-.068-8.788-4.626-12.62-13.394-14.081-8.334-.05-12.512 4.305-13.91 9.96.068 1.71 1.96 2.623 3.263.515zm-14.94-34.515c-20.747 5.067-18.34-1.462-27.131-1.718-15.921 1.828-21.874 8.64-25.072 16.83-2.981-8.096-5.628-16.476-17.515-17.001-.969.895-2.26 1.66-1.03 3.434 6.491-.087 11.252 4.152 14.08 13.223 2.48.285 3.76 4.409 3.95 12.02.89-.597 3.725-.05 3.435-6.01 2.883-20.599 31.523-26.767 45.162.172 2.184 1.756 3.597 1.39 3.95-1.89-3.346-6.522-6.844-11.38-10.647-12.878 14.34-4.03 30.446-6.547 41.9-13.051l-6.869-.859c-6.01 3.165-15.064 5.46-24.212 7.728zm79.391 9.717c-4.471 8.626-18.642 11.673-23.054 17.617-4.023 12.794-14.08 20.248-27.187 19.139-5.64 1.77-9.583 7.22-11.744 16.53-13.409-4.989-8.225-14.396-8.483-25.665-4.95-2.192-2.955-13.877.218-14.79-.766-14.718 25.786-15.738 38.714-6.09l3.045-1.304c-7.825-5.116-16.109-8.701-25.665-8.047 5.37-5.476 18.458-7.21 23.925-13.92l-3.698-.217c-4.619 4.11-18.898 7.995-22.836 14.354-10.317.87-20.862 1.45-20.445 15.877.198 8.892 2.443 20.433-6.742 17.182-7.801 6.832-14.376 5.081-20.444-.217-8.625 5.237-11.16 13.18-9.353 23.054-18.778-2.49-20.085-15.84-17.617-31.537-7.427-.762-12.85-2.436-13.92-6.09-6.888 5.872-3.54 15.838-2.174 25.012-19.782-12.312-28.398-26.857-13.485-46.108-2.496-15.637 4.676-23.218 19.575-24.36 9.596-3.112 19.192-4.523 28.788-.15 14.118-17.866 25.924-4.522 38.034 4.706 7.32.651 14.639-.394 21.958-3.921 7.277-12.85 14.015-26.24 19.213-41.17-6.692-1.512-7.759-4.148-9.41-6.666-4.66 6.32-10.395 11.563-19.214 13.723-1.703-4.574 5.442-9.149 2.745-13.723-6.679 10.774-16.327 16.799-28.231 19.212-.67-4.452-.718-8.593 2.745-10.978-23.183 8.327-32.902 1.607-38.426-9.803 20.571 1.367 33.907-5.707 35.68-26.27-14.31 8.991-25.414 7.717-34.504 0-5.75-7.581-10.979-7.32-15.684.784-1.003-10.38 6.243-18.754 19.605-12.94 20.307 5.114 22.14-20.73 16.86-39.21-5.948-24.305-10.063-48.48-1.568-71.754l-2 22.731c.416-2.51 1.341 2.45 1.479-.09 1.149-21.293 21.973-43.974 51.2-55.701 11.272-4.848 19.658-7.805 22.005-20.45-5.408-.209-7.483 13.408-21.56 17.56 8.466-37.41 35.03-57.936 63.126-61.57 28.481-3.224 41.24-.401 60.459 8.669 11.944 21.888 14.147 72.19 4.223 81.353.548 47.75 7.716 99.79-63.349 101.135.6 10.456 6.886 24.953 22.006 26.45 2.638.642 4.07 2.369 5.112 4.446 1.097 5.898 2.354 11.716 5.78 16.449.802 2.86.97 5.51 0 7.78-4.91 6.818-7.658 10.752-10.892 15.336-1.793 1.92-1.313 4.975.444 8.67 11.002 6.952 6.298 22.548 2.89 30.895l-4.223-2.89c-3.696 10.578-8.087 18.608-13.56 22.673-.05-2.198-.6-5.423-1.458-8.915-4.334-4.126-5.27-17.995-8.1-18.87-.21 6.825 2.347 19.57 7.114 20.894-1.643 12.936-8.715 16.433-15.337 21.117-.382-10.152-2.053-20.42 3.778-30.008-1.79-.463-3.248 1.725-4.445 6.002-2.702 4.003-2.746 8.892-1.913 14.074zm11.251-157c-.009-31.731 17.385-48.424 30.703-54.22 2.514 28.285 2.739 61.14-30.703 54.22zm-2.336-.669c-6.96 1.763-7.058 30.876-.277 30.065l.277-30.065zm-116.468 49.384c3.594 7.323 24.311-1.43 24.557-10.132-8.496-.073-13.184 10.65-24.557 10.132zm10.132 34.516c.356-2.505 10.302-5.227 14.1-8.914 4.524-4.39 7.78-15.257 11.143-15.127.872 12.782-13.613 26.203-25.243 24.04zm28.334-1.374c6.401-1.24 9.263-8.692 7.727-21.98-2.171-.425-2.834 6.222-3.434 12.879-1.75 2.874-4.777 6.999-4.293 9.1zm14.081 1.545c2.401-3.366.75-27.797 4.98-23.526.354 11.752 2.104 26.213-4.98 23.526zm14.253-8.757c2.889 19.159 32.952-1.682 27.304-17.516-4.07.215-1.297 12.808-10.674 17.393-12.367 8.27-14.401-1.465-16.63.123zm-122.78 93.416c2.306-10.925 12.149-11.775 10.99-20.95-3.69 6.893-14.232 9.243-10.99 20.95zm41.04 5.667c4.928 2.38 7.936-12.023 18.576-6.26 6.112 3.31 10.256 9.381 2.031 14.33 2.158 3.475 7.001.246 8.071-6.01-2.296-10.723-8.503-12.618-15.798-14.253-9.99 2.528-12.483 6.467-12.88 12.193zm11.497-44.95c-3.096 6.752 27.862 10.572 34 5.828-12.253-1.484-24.295-3.072-34-5.829zm133.568-18.457c3.465 4.337 13.084 16.607 8.5 19.913-6.244-7.49-7.3-13.683-8.5-19.913zm7.285-12.629c2.98 8.33 11.57 10.425 9.472 19.186-5.075-9.897-12.1-7.046-9.472-19.186zm-18.7-49.541c1.01 7.99 8.76 11.768 14.572 16.757 1.193 23.523.02 15.09-8.014 28.413-1.994.438-3.627.298-2.429-4.371 3.685-3.878 8.814-5.486 8.257-16.028l-4.371-8.986c-6.913-3.67-11.394-8.254-8.014-15.785z" style="fill:#040404;fill-opacity:1;fill-rule:evenodd;stroke:none" transform="matrix(.43927 0 0 .43974 564.956 36.454)"/><path d="M-703.97 700.357c1.58-5.535 20.38-9.233 10.165-24.395-15.882-2.204-18.732 12.633-25.267 22.652-3.022-5.318 9.66-22.699 15.102-25.266 5.2-1.897 16.385-3.962 17.135 11.036-1.572 8.255-13.336 17.045-17.135 15.973zm30.203 6.098c11.118-17.631 23.923-14.686 21.2.581.17 1.888 1.29 1.874 2.615 1.452 2.641-4.926 1.837-17.276-9.003-19.458-6.711 1.197-11.967 6.176-14.812 17.425zm-59.1-52.71c5.664-9.055 16.693-10.564 17.135 2.614.605 1.016.314 3.21 4.211 2.032.052-7.317.301-14.27-10.164-16.698-5.688-.15-11.64 4.023-14.666 9.874.13 2.65 1.82 2.21 3.485 2.178zm290.97-38.872c2.704-20.277 16.136-36.521 31.369-43.523.88-15.022 10.13-36.905 16.86-48.62-11.665-13.829-23.881-23.737-37.642-33.33l-2.542 4.038c-38.51 6.478-82.428 4.853-124.233 6.06-20.873 3.551-42.488 16.276-50.96 37.463-4.592 9.519-12.308 10.114-22.037 4.958-1.215 15.172 10.732 22.14 23.69 18.18-.18 11.8-4.513 20.35-21.486 19.007-4.772-18.925-17.094-13.686-22.313-6.06 6.592-1.634 10.556-.64 9.09 5.785 2.285 17.655 17.113 33.566 33.607 21.486 2.209 11.792 12.516 5.914 22.588.55 2.087 9.122-5.455 12.627-11.845 16.804 3.147 3.96 10.563 4.186 19.558 3.03 6.663 5.515 6.644 11.984 8.539 18.18-3.144 7.188-7.711 10.106-11.57 15.15-19.803-.548-36.082-5.057-55.643-3.03-10.097-5.212-20.2-11.47-26.72-23.69-12.56-.226-17.919-.635-28.833 3.291-3.075-2.744-16.388-5.676-30.115-1.913-9.753 2.362-18.533 14.037-16.252 27.27-6.737 9.057-8.957 19.404-1.105 32.628 4.385-5.597 5.396-13.123 16.468-14.9 1.064 4.164 2.877 7.58 7.058 8.627-11.398 16.362-9.903 31.604 2.744 45.876 3.49-8.68 2.708-23.053 11.763-24.31 7.674 6.909 16.404 3.255 25.095 0-2.657 10.393-5.783 20.815 7.842 30.191.584-7.216 3.991-13.303 9.802-18.429 17.404 9.905 30.185 4.542 37.642-13.723 7.048-7.388 15.925-1.975 23.918-2.745-3.113 7.58-5.115 15.161-5.097 22.742 8.813-8.08 19.168-7.675 27.447-18.037 1.134 10.472-21.643 14.535-3.921 29.8.18-12.105 14.048-3.073 21.173-18.037 2.19 4.901 5 8.56 8.234 11.371 3.325 5.204-1.41 7.72-3.92 10.979 10.553-.326 17.022-8.823 19.212-25.879 3.97 5.49 1.31 10.98-.784 16.469 2.395-.391 5.327-1.587 9.802-5.098 11.773-4.177 15.277-13.077 10.98-23.526-5.08-7.278 5.392-11.77 11.762-10.586 2.515-6.973 14.66-25.675 4.705-41.17-16.67-8.359-9.604-35.76 3.185-40.87 9.428-3.646 21.626-6.849 54.454-10.496l-1.568 18.037zm-260.185 15.929c8.591-2.326 14.76 12.57 29.041 14.52 3.57 3.038 17.624 2.387 23.67 4.793-.893 4.64-18.402 1.842-22.217-1.452-18.323.968-21.358-7.911-30.494-17.861zm-14.376 39.642c5.904-18.522 24.028-19.69 40.368-5.663 5.254-5.8 21.781-.221 34.27-1.452 2.553 1.5 3.26 3 3.92 4.501-13.008.139-27.157-4.466-38.77 1.597-10.496-10.51-30.848-14.89-35.286 1.307-3.17 3.722-5.336 1.402-4.502-.29zm34.56 24.685c2.355-1.484 4.184 5.214 3.194 6.39-3.515 2.95-7.743-3.528-3.194-6.39zm2.292-4.226c5.99-16.08 29.677-22.523 44.462-13.849 6.924-1.942 13.023-.583 19.534-.874.516-5.507-14.475-2.923-22.012-4.228-22.275-9.84-39.448 2.191-43.15 16.181-2.953 3.721-.19 3.192 1.166 2.77zm58.237-136.311c6.267 2.361 13.833-1.74 17.633-1.15-3.625 4.236-14.775 7.455-17.633 1.15zm23.792 30.544c-.108 22.284 10.043 7.486 19.646.238 4.145-1.743 3.348-.336 4.524 0-10.632 11.994-18.105 16.589-24.408 16.907-7.87-4.245-3.046-10.307-1.667-16.788l1.905-.357zm-39.41-5.834c3.536 9.324 12.723 27.058 23.575 13.93 2.117-.751 3.064.45 4.286 1.19-6.247 2.462-10.33 9.625-15.24 6.31-10.45-5.205-12.68-13.347-14.407-21.669l1.786.239zm50.721 32.98c12.457 2.043 18.748-11.735 19.407-16.669.412-.662.911-.285 3.215 1.548.231 6.957-.042 15.195 3.81 16.788 6.193-.25 10.699-3.539 15.36-6.549 1.748-.957 2.486.107 2.976 1.667-6.364 5-12.017 9.867-20.24 9.287-4.178-2.45-4.33-8.331-5.24-14.05-5.851 11.358-17.677 13.435-19.288 7.978zm25.678 90.414c1.742 8.722-3.542 20.21-9.045 19.118-.694-6.587 7.315-11.46 9.045-19.118zm45.02 3.495c.104 8.328-4.533 11.913-9.251 15.418l-1.44-1.028c3.506-3.759 7.356-7.172 8.224-13.568l2.466-.822zm11.306-59.41c6.721 5.432 8.417 13.69 6.372 24.052-4.122.927-1.4-10.432-2.672-14.184-1.872-4.27-6.953-1.136-3.7-9.868zm-18.296-4.522c-3.526 8.211 10.846 16.959 11.718 26.313-.553 5.91-1.933 10.856-5.756 12.95-6.358.07-12.413.138-17.68.206.913-1.367 2.292-2.668 6.99-3.494 6.907 1.073 11.115-2.17 12.54-9.868-.598-4.703-6.916-5.313-6.578-9.867-5.586-10.013-5.51-14.994-1.234-16.24z" style="fill:#040404;fill-opacity:1;fill-rule:evenodd;stroke:none" transform="matrix(.43927 0 0 .43974 564.956 36.454)"/></g><path d="M-172.36 681.136c25.826-8.437 37.777-13.812 42.723-52.048-1.636-9.58-4.032-45.35-28.126-67.567 20.055 9.92 35.642-3.066 39.764-12.608 1.027 25.803-2.98 44.221-14.87 51.08 1.409 6.58 3.252 13.596 3.879 19.396 23.19-11.673 37.008-55.771 18.427-93.106 10.778-10.148 14.829-24.577 16.164-40.733.834-13.902-7.826-23.277-8.729-41.057 2.326-12.163 3.894-23.72-2.263-29.096-2.29 21.898-15.945 26.959-19.397 43.32-13.74 22.158 2.748 42.902 0 57.868-26.43-14.648-53.837 7.001-41.38 36.854-31.166-30.407-78.239-60.717-107.977-69.506-53.59-10.51-90.485 2.106-116.382 38.148-7.015 11.95-12.998 29.46-17.134 46.553l14.871-7.113c11.242-42.868 37.576-64.243 77.265-66.596 16.487-1.086 32.975 1.317 49.462 9.698 29.81 19.836 32.363 18.964 42.027 59.485 4.518 18.773 7.635 37.424 31.359 57.867-23.787 1.862-30.829 15.11-32.359 32.106.38 14.72 10.104 23.435 23.832 29.256 1.395.592 1.512 1.812 3.038 2.316-40.797 20.674-25.451 74.367-40.64 80.61l7.053-1.008c-1.073 11.75-9.055 14-17.13 16.122 13.822 7.26 25.699 2.365 35.939-12.763l3.694 14.443c1.902-20.268 14.846-17.779 15.45-52.397.078-27.433 12.066-36.457 21.44-49.524zm44.663-149.034c-12.477-6.897-25.466-10.91-25.216 11.315 12.183 16.465 27.001-1.697 25.216-11.315zm-37.824 131.9c48.083-29.691-6.297-105.813-42.35-120.585.193 30.41 18.68 76.005 53.833 67.115 2.046 4.958 3.263 9.873 3.711 15.323-11.88 2.06-20.439 2.46-27.156 1.94 11.272 7.465 14.908 19.491 11.962 36.207zm-21.225 6.2c10.061-9.55 7.936-35.2-12.092-31.571-16.612 9.547-4.277 30.166 12.092 31.572z" style="fill:#040404;fill-opacity:1;fill-rule:evenodd;stroke:none" transform="matrix(.43927 0 0 .43974 564.956 36.454)"/></g><g style="stroke:none"><path d="M-659.66 71.921c0-.098 0-.196 0 0z" style="fill:none;stroke:none" transform="matrix(.43927 0 0 .43974 565.158 36.642)"/><path d="M289.375 26.594c-1.1.045-2.142.172-3.156.343-21.03 3.774-31.46 20.228-30.125 39.532 2.531 24.798 17.192 32.777 35.594 35.562l47.062-.625c4.777.06 17.734.292 22.656 9.875-12.227-7.156-22.607-5.067-26.75-1 10.849 4.792 17.174 12.301 15.969 26.406-2.52 15.77-9.743 47.977-40.031 53.125l1.906 5c-12.01 9.603-24.022 15.305-36.031 13.844-.1 5.945.199 9.653 4.437 11.906-10.326 14.656-23.757 19.937-38.5 21.344 1.086 3.88 1.873 7.745 5.813 11.625-7.959 5.532-15.495 11.402-20.531 19.125-3.672-8.372-10.51-15.163-10.25-25.5-3.787 5.312-8.89 9.991-9.97 16.656-1.72 6.667-3.723 12.93-3.312 22.438-7.657-5.267-15.309-10.621-24.406-9.406-1.353 4.131-3.172 8.156-.25 13l-12.75-.813c-8.94.135-17.258 1.676-21.094 12.75 21.857 6.962 37.917 38.497 36.313 48.781-3.649 19.693-22.846 10.617-19.469 29.782 11.095-7.332 19.64-9.417 21.25 1.281L194.219 388c10.934-8.657 22.794-3.722 30.375.469 5.496-8.13 15.777-10.836 30.187-1.406 2.924-3.19 8.004-2.587 13.406-1.438l-9.656 4.031-2.125 21.188c-8.231 23.558-24.84 18.438-35.687 9.906-3.32 4.08-20.207 4.523-23.656-.375-8.29 4.378 8.603 19.842 22.125 28.781 22.985 9.794 46.926 19.47 75.03 28.531 14.214 5.924 47.844 1.08 73.376 16.594l3.625-5.5c14.117 7.833 27.468 20.738 38.594 32.281 22.865-37.287 65.68-49.522 117.312-39.656-10.113-14.747-22.364-25.533-34.75-37.25 1.904-3.97 4.836-4.008 7.5-4.937 4.604-.885 36.896 36.5 61.219 43.031-9.747-6.73-23.206-19.146-38.25-33.344-15.622-14.743-32.851-31.431-42.875-46.937 12.62.262 87.34 112.66 165.562 62.094-45.13-14.352-83.08-61.707-101.843-78.657 31.48 21.948 60.873 52.417 95.218 62.906-27.86-20.9-59.098-39.256-81.125-64.53 39.919 19.075 80.915 74.478 134.782 28.593-37.93-6.165-45.204-20.565-57.75-32l-33.22-28.719c25.617 17.088 49.86 37.942 78.407 46.969h1.188c-28.285-18.17-55.997-36.42-77.22-55.375 13.551 5.256 37.918 31.435 67.032 32.469 15.069.535 34.987-3.272 48.188-24.969-39.82 5.326-85.993-45.73-101.157-59.25 28.897 16.072 62.738 54.68 86.5 47.281-38.585-13.75-61.754-36.81-81.093-56.25 25.888 19.001 69.162 58.482 91.28-4.812-31.842 18.132-74.2-31.353-77.53-37.688 22.517 10.104 50.233 39.07 67.03 28.438-22.012 2.237-61.968-34.907-67.312-42.5 22.06 18.926 66.959 41.352 81.094-9.906-34.933 5.291-40.574-10.185-52.063-21.532 11.856 6.404 22.023 16.346 40.688 8.375-26.445-.34-39.616-17.212-47.563-24.844 23.366 13.778 44.78 15.743 61-14.937-37.639 1.83-41.211-27.808-51.75-48.188-15.584-34.956-39.256-82.522-77.187-48.78-7.98-17.431-16.564-30.589-24.844-36.813 2.348 17.07 3.669 34.002.875 51.468-2.21-3.49-5.383-5.01-9.187-5.312v9.25c-7.753-27.49-36.107-50.146-50.813-40.563 26.693 24.645 6.518 63.902 2.313 76.532-6.033 18.09-21.79 40.945-4.281 53.719-2.067 1.446-3.11 3.386-2.094 6.375-9.654 11.293-17.95 23.363-9.875 44.28-3.582 3.16-3.257 7.301-3.281 10.97-8.09 6.806-12.716 16.028-15.657 27.468-24.036-.392-49.969-3.623-69.562 11.781l.969-18.718c1.445 3.643 4.467 5.693 10.03 5.219.628-10.822-.024-21.679 2.938-32.5 2.128 1.888 4.458 3.637 9.625 3.5 3.074-17.457 6.102-34.919 12.188-52.375 1.457 2.237 3.795 4.01 7.312 5.218 4.642-32.947 23.546-46.166 19.875-79.906 17.006-.204 31.954-5.503 39.75-28.219-5.83 1.83-11.754 4.45-17.094 2.344 6.91-3.934 10.14-3.859 11.094-13.406-30.497 4.16-40.246-10.153-56.844-19.906-10.794-7.827-42.02-22.303-47.593-1.376-5.235-.56-9.91-.553-9.563 4.47-6.813-1.917-40.127-30.125-54 6.562-1.798 7.83-2.185 23.86 2.844 24.687 4.937-7.417 8.634-11.774 16.031-11.812 3.81 1.774 6.803 3.218 8.188 9.844 16.494 2.514 20.937 14.677 25.406 26.812-9.007-14.18-22.083-22.177-34.656-22.656H311.03c-10.788-1.69-15.685-6.323-16.625-12.938 11.088-1.851 22.367-6.797 20.656-23.594-.55-14.347-14.433-20.217-25.218-19.968-.16.003-.312-.007-.469 0zm74.156 22.031c5.723.081 11.898 3.106 17.063 7.5 1.162 3.125 1.402 9.484-2.281 6.281-6.17-5.181-12.868-9.53-20.282-12.843 1.76-.683 3.593-.965 5.5-.938zm30.406.594c.058 6.254 2.908 12.093 6.47 14.125-2.186 3.16-4.434 5.95-6 13.437l1.218 43.625c-2.323 11.602-5.202 17.707-8.156 23-4.953-.964-12.635-2.28-18.219-.719-.9-11.583-7.424-27.248-15.094-30.687 7.34-1.62 14.51 7.766 17.469 25.188 5.149 1.852 9.895 1.553 14.406.218 9.314-13.675 9.735-40.098-3.125-52.469v-3.843c3.207.665 5.532 5.767 8.156 9.344.729-9.386-1.203-20.828 4.782-26.126-5.36-6.851-5.49-12.075-1.906-15.093zm4.72 1.687c.03-.005.062.003.093 0h.031c2.161-.075 3.347 3.11 4.75 5.563 3.33.85 6.256 2.385 7.219 4.406-10.256 1.609-11.776-2.395-12.344-9.906.083-.017.173-.05.25-.063zm185.437 9.282c4.913 5.921 7.329 8.224 3.843 33.218 1.861-5.648 3.4-10.221 6.782-20.937 13.398 8.843 11.124 18.386 13.75 27.719 5.024-3.834 10.413-5.538 15.968-6.188l-.187 6 8.563.375c1.751 15.508-12.766 21.032-19.157 31.75-5.855 8.865-9.388 23.034-18.562 24.313-9.219-1.127-15.957-.67-13.563 5.593 2.289 5.93 9.928-3.382 16.782-1.594 9.325.903 15.194 10.414 14.562 17.344-2.521 10.434-10.885 13.873-21.344 14.781-3.425-.73-4.64-6.15-8.406-6-3.117 1.487-4.989 7.32-.375 10 4.848.895 7.037-3.543 13.563-.812 4.771.61 10.322 9.224 11.968 16.75-3.96 11.201-13.185 15.02-21.156 15.375-5.821-.372-8.836-11.828-12.969-4.594-1.875 2.737.304 4.972 2.594 7.188 24.411-3.012 21.706 10.875 22.469 24.062-6.942 3.17-11.396 5.737-19.657 4.469-7.034 1.193-12.499-5.56-15.562-6.594-5.852.599-7.788 9.376-.406 11.969 9.33-5.593 17.574-.912 19.75 2.781 2.894 12.154 2.193 19.684-2.407 21.156-5.378 3.88-11.66 5.014-19.875 5.438-9.164-.689-10.464-9.267-15.03-11.406-1.885-1.209-3.773.157-5.657 1.875-1.097 1.981-3.233 3.733.375 6.656 2.906.475 5.813-.185 8.719 2.063 10.065 7.643 9.628 15.109 10.031 23.718-10.82 3.946-20.743 7.079-31.563 5.594-14.071-6.644-9.606-18.128-15.75-17.25-4.48-.525-10.014 2.324-7.968 5.563 3.363 6.68 12.274-1.219 14.281 11.312-.865 11.895-7.55 19.969-18 18.344-10.355-.45-24.19-.669-26.344-9.813.114-4.898 1.848-9.833-1.844-14.094-5.701-1.93-6.997.544-8.906 2.407-.88 3.628 2.499 5.542 6.5 7.219 5.497 14.492-6.248 25.421-10.594 25.78-12.84-.46-21.467-5.584-25.406-15.937 1.157-4.15 2.402-8.339.188-10.562-3.474-1.679-5.497-.739-6.5 2.031-.686 4.317 3.369 3.561 5.375 9.625 4.284 7.82-3.457 26.194-13.156 21.531-6.121-1.134-12.254-2.526-18.375-7.062 3.344 11.268-3.047 14.26-12.782 11.687 17.859 33.082 60.851 83.175 109.25 71.063-44.41 21.066-96.42-34.94-116.125-78.094 3.786-1.992 8.818 5.625 13.375 5 3.744-1.82 6.065-4.42 2.406-10.188-2.088-3.716-20.065-7.746-9.468-20.593 11.343-3.555 11.44 8.504 14.469 16.5 4.018 6.338 11.761 7.07 19.656 7.594 6.632.305 8.735-8.334 9.281-12.782-2.36-7.414-8.268-8.23-8.156-14.469-.589-7.642 11.287-8.497 14.094-4.468 1.914 3.524 1.476 7.07-.563 10.594-1.275 5.229 9.185 17.113 22.063 13.906 2.657.059 12.893-9.14 6.5-19.844-2.746-4.597-7.51-6.248-5.375-11.313 3.728-2.882 7.2-6.208 14.28-3.343 4.058 3.514 3.94 9.288 2.594 15.75 1.239 5.723 11.116 7.356 22.625 8.187 11.598 1.52 14.4-5.773 15.22-15.031-2.175-9.25-14.384-3.134-15.75-11.313.225-4.189 7.623-9.105 14.468-8.906 8.22.785 3.384 13.85 15.188 18.188 9.663 2.47 18.398-1.209 27.093-5.031 1.976-1.083-2.174-17.608-9.093-19.844l-9.094-1.094c-4.16-3.46-3.807-7.682.937-12.625 2.368-.64 5.974-4.893 10.282-1.75 3.782 2.346 5.267 12.572 14.968 11.781 10.55-.707 17.737-3.968 17.157-13.156-.777-7.693.322-11.298-7.188-13.188l-9.969 2c-4.75-.399-8.343-1.945-7.781-9.78.123-6.732 4.528-8.218 10.063-6.594 2.81.824 3.136 2.657 8.906 4.625 9.313 4.175 14.838.164 21.125-2.22.79-24.201-12.45-18.36-22.719-18.937-3.23-3.435-6.107-6.967-3.594-11.969 3-4.954 7.647-4.819 9.938-3.75 2.706 1.264 3.692 4.908 8.406 5.344 6.794 1.131 14.434-3.766 15.969-12.156-8.128-22.672-19.909-7.477-23.938-11.969-6.159-4.487-4.27-15.59 2.188-16.187 5.9-1.136 5.189 4.472 10.968 6.406 7.99-.897 15.157-4.884 16.563-12.563-1.233-7.143-4.79-11.427-12.563-13.375-4.654-1.09-11.323 6.174-17.375 4.594-2.618-4.19-2.823-8.404-1.187-12.594 4.242-4.203 10.896-1.97 16.563-2.375 8.28-6.333 11.136-15.395 16.562-23.156 5.573-8.143 16.917-15.916 14.938-24.531l-9.375.813 1.406-6.188c-15.604 2.391-17.922 13.212-22.344 22.719-.254 6.88.205 13.631-5.594 15.375-4.724.258-7.332-2.47-8.156-5.594 0-6.946 6.06-8.713 10.563-12.156 2.589-6.255 5.785-11.902 9.968-16.563 1.322-12.228-1.19-20.623-6.781-25.937-4.588 8.738-4.873 23.93-14.219 25.531 2.531-12.791 5.476-24.779 1.813-43.188zM416.062 62.53c7.357.144 8.073 9.864 19.75 10.094-.233 4.432-6.567 3.856-9.156 2.438-2.599-1.424-7.104-9.162-12.469-12.344.395-.069.764-.134 1.125-.157.252-.015.513-.035.75-.03zm-9.25.875c1.739 0 3.157 1.35 3.157 3.032 0 1.68-1.418 3.062-3.156 3.062-1.739 0-3.157-1.382-3.157-3.063 0-1.68 1.418-3.03 3.156-3.03zm-6.875 3.719c1.335-.44 2.516 5.33 5.688 5.656 6.067.623 9.411-8.957 12.375-4.062.397.655-7.2 4.343-8.031 7.187 6.318 1.53 11.219-5.22 11.219-2.906 0 2.62-4.554 7.406-11.125 7.406-6.572 0-11.594-4.005-11.594-6.625 0-.716 3.432 2.02 4.875 1.375-.559-1.124-4.673-4.633-3.688-7.844a.8.8 0 0 1 .281-.187zm1.532 16.125c3.161 5.989 5.916 14.382 18.156 15.563 5.08.937 8.215 2.522 9.156 6.218-5.47-3.122-10.89-5.398-15.906-.344.588 21.417-2.436 24.196-9 37.376-1.927-.091-1.684-1.487-.844-4.344 9.017-21.844 6.6-32.157.688-40.625-2.028-4.825-2.987-9.48-2.25-13.844zm163.906 12.906c.063-.005.11 0 .156.031-7.668 26.061-30.205 57.01-21.593 83.438.145.035.287.06.437.094v1.156c-.153-.419-.3-.829-.438-1.25-17.658-4.286-8.321-26.132.97-47.031 8.313-18.703 18.51-36.268 20.468-36.438zm61.063 30.594c5.569.032 12.856 2.36 18.812 2.906-3.458 2.673-6.995 5.406-9.438 7.063 7.331 2.88 9.1 4.367 12.563 6.281-4.973 8.255-13.64 12.82-21.594 18.094 7.753 2.01 14.232 6.1 18.844 13.344-4.871 4.372-7.315 3.937-10.188 4.312 3.548 4.577 8.58 9.067 8.844 15.844-5.887 6.565-13.489 6.96-21.437 7.344 7.044 4.251 10.509 9.242 11.781 15.718l-4.313 1.188c-1.201 1.845 2.814 2.489 2.375 9.812-7.595 4.022-15.216 3.059-22.812 4.313 8.388 6.326 17.812 11.988 22.406 20.844l-7.468 1.562c4.552 4.88 8.24 10.162 7.062 17.688-4.856 4.382-14.751 1.54-22.375 1.968 4.47 2.914 6.895 6.415 8.25 10.219l-7.469.375c6.427 5.76 8.36 12.568 9.032 19.656-9.649 9.559-26.115 6.483-36.532 5.875 5.214 5.894 9.463 11.794 9.813 17.688l-6.282-.781c5.857 7.465 9.308 14.94 9.813 22.406-18.975 2.933-36.274-2.81-53.031-11.406 3.468 7.374 6.343 14.66 6.281 21.593l-5.094.406c3.938 5.354 6.353 11.038 6.282 17.282-27.518 4.393-45.657-4.207-61.688-15.719 3.265 3.813 5.534 9.314 7.469 15.344-1.572 1.507-3.446 1.981-5.906.375-.667 4.078 7.504 13.454 1.093 18.375-11.243-.691-19.972.352-37.219-9.344l-9.437-.375-.406 9.031c-18.806.029-35.384-18.532-35.344-27.5 8.295 7.782 14.473 20.89 33.781 23.563l-2.75-10.219 7.469 1.594c-6.861-8.326-15.621-16.893-15.313-24.375 1.469-.446 1.297-.276 2.22 1.437 11.568 21.493 37.183 35.379 56.093 32.75.675-8.33-5.166-13.294-7.656-19.25l7.875 1.188c-1.355-9.346-10.297-19.344-16.5-29.094 18.858 15.289 40.974 31.508 71.906 29.875 1.372-6.68-5.27-13.352-8.25-20.031l8.625 1.562c-1.736-13.587-9.528-21.117-16.875-29.094 18.67 8.53 33.42 20.675 62.469 19.657-.986-8.621-7.543-15.38-12.188-22.781h7.469c-3.94-10.34-13.656-16.827-21.219-24.75 12.654 6.39 36.679 13.823 49.5 3.53-.741-8.435-6.499-14.09-11-20.437l6.282-1.562c-4.663-6.07-15.914-9.848-16.907-15.313 11.509 5.857 22.75 6.467 33.813 4.313.563-8.51-5.984-13.153-9.844-19.25l7.875.781c-5.367-7.938-15.62-14.311-21.625-21.625 4.75-3.733 18.326-.176 25.156-5.5l-7.468-11 8.25 1.969c-3.976-10.2-13.672-15.519-22.782-20.813 9.77 2.77 19.332 6.147 33-2.344-2.522-6.7-7.858-11.556-12.968-16.53 4.817-.704 9.555-1.455 12.187-3.907-4.303-7.448-15.99-8.317-26.313-10.625 11.675-4.041 22.347-9.062 28.282-18.844-3.158-3.941-7.406-4.13-11.407-5.125l4.313-5.094c-5.239-4.397-10.449-4.025-15.688-3.156 1.448-2.506 4.159-3.3 7.5-3.281zm-175.532 32.813-4.656 21.718-4-2.656c2.419-7.85 4.228-17.575 8.656-19.063zm61.594 14.25c.02 1.785.722 3.778-2.656 4.593 2.156 3.494-.626 4.521-3.438 5.531-.748-2.712-5.424-9.198 6.094-10.125zm-184.563 10.875c.586 1.578 2.204 2.623-4.625 6.593 3.182.369 6.302-.401 10.657-.093.894 5.236-12.659 8.117-18.438 2.312-1.435-3.418 8.26-5.88 12.406-8.812zm208.22 1.718c.086 2.714-5.645 11.88-6.095 26.125-.522 16.79 5.142 24.187 5.344 29.188-20.037-5.913-21.514-46.73.75-55.313zm-174.313 1.938c1.047-.006 1.924.622 2.531 2.281-.886 1.774-12.618 13.29-19.75 12.25-1.74-4.201-1.568-14.079 4.375-13.188.944.616 1.058 3.722 1.563 5.657 3.451-1.188 8.139-6.982 11.28-7zm22.375 9.094 1.062 5.062 5.875-1.875c-2.878 4.05-3.803 8.27-9.625 8.281-3.504-6.264.04-8.622 2.688-11.469zm30.406 13.062c4.725 3.139 8.203 12.564 12.281 18.938-7.243 1.384-14.197-12.764-12.281-18.938zm-134.375 2.531c5.187 2.303 10.375 3.93 15.563 4.75-5.487 9.17-18.228.315-15.563-4.75zm73.906 4.344c1.05-.101 1.86.26 2.406 2.344-3.223 4.328-5.922 8.81-6.937 13.875 1.891 1.191 2.206 1.934 2.781 5 5.07-3.944 8.197-8.573 10.563-13.5 2.583-.782 4.418.213 4.531 3.125.46 1.088-11.69 17.347-16.125 16.031-3.438-1.581-8.538-1.805-7.125-7.313.195-5.585 3.58-12.982 7.781-19.156.778-.097 1.496-.345 2.125-.406zm-37.844 1.031c.148-.014.294-.004.438 0 .635 3.613-3.38 7.232-5.375 10.844-.213 1.482-.125 2.955 1.375 4.438 4.878-3.088 10.618-11.163 15.469-15.094.7.74 1.773.401 1.312 4.625 1.075.878-16.6 18.501-17.344 17.531-3.302.154-6.548-5.107-6.187-8.438-.42-4.335 5.73-13.466 10.313-13.906zm183.782 6.813c.452.007.887.103 1.344.281-2.09 3.853-4.869 6.731-4.563 13.938-8.402-.865-3.145-13.677 2.75-14.188.152-.013.318-.034.469-.031zm-116.219 5.406c-.127 4.814-.429 9.623.438 14.438 3.449-2.067 6.894-.63 10.343.656-.12 3.31-1.455 6.295-3.875 9.031-2.856-1.362-3.888-3.791-3.875-6.875-1.967 1.419-2.051 4.09-7.125 3.438-4.85-7.739-1.701-18.56 4.094-20.688zm143.688 9.563c3.022.068 4.479 2.1 3.437 7.25 3.994.196 4.42 2.205 4.406 4.406-7.602 2.148-11.89-7.599-7.843-11.656zm-281.875 2.937c9.398 10.314 18.471-.371 23.187.594-6.256 7.684-19.377 15.259-23.188-.594zm38.093.031c4.146 4.515-9.769 14.713-7.437 27.375 4.338.521 10.818-4.972 15.781-2.562-6.09 8.884-14.152 9.427-21.969 11.062-2.24-12.785 5.424-13.949 2.281-16.437l-2.812-1.344c.742-8.146 8.392-12.626 14.156-18.094zM405 243.97c4.281 2.862 7.143 8.57 10.344 13.594-7.307 2.586-13.924-9.067-10.344-13.594zm-44.031 2.125c.212-.008.417-.006.625.031-1.73 10.122-10.57 25.125-2.031 28.187 3.8.586 6.565-2.657 9.312-5.937 5.671 4.246-5.595 11.955-12.281 11.875-10.434-12.42-2.195-33.907 4.375-34.156zm-24.313 6.094c3.458 7.263-12.29 26.996-19.719 26.312-8.77-8.057-5.372-22.641.407-23.469 2.634 2.29-4.42 13.65 2.844 17.125 6.2-4.509 11.317-12.315 16.468-19.969zm189.594 2.875c-6.258 7.419-13.12 14.127-16.969 24.437-2.62-7.336 4.462-22.727 16.969-24.438zm-301.031 22.843c3.164 11.884-18.006 27.846-28.063 34.375l8.219 1.313c1.722 1.569.052 2.461-1.156 4.031-9.121-.7-15.037-4.361-11.063-8.656 12.847-6.162 23.75-16.1 32.063-31.063zm171.375 2.281 10.562 6.907c-7.505 1.463-13.295 1.299-10.562-6.906zm102.375 1.22c2.143 2.489 4.8 2.925 7.437 3.437-3.32-.304-9.661 2.41-7.437-3.438zm-168.25 4.78c3.162 4.176-8.64 19.295-4.781 29.813 2.884.664 4.958-1.825 6.78-5.406l1 6.406c3.99 1.159 8.644-9.81 12.407-10-2.462 6.491-4.15 13.542-12.781 15.406-2.472.27-1.643-2.78-2.219-4.406-2.37.597-3.751 5.161-7.406 4.188-6.587-15.724 1.749-33.18 7-36zm-90.25.407c2.793 3.037-11.077 16.05-4.781 28.406 6.736-1.669 10.108-8.266 15.406-12.813l1 2.813c-7.404 8.138-16.336 16.598-19.813 16.188-3.008-1.675-1.473-5.223-.812-8.594h-4c3.239-9.951 6.622-19.712 13-26zm246.781 1.594c1.816.024 3.882.317 5.813.468l-10.875 7.063c-1.811-6.398 1.067-7.585 5.062-7.531zm-32.5 1.125c7.966-.14 15.638 1.305 22.656 5.812-28.646-9-84.118 23.217-95.375-1.125.49-1.311 2.416-.584 3.469 0 18.874 10.473 45.353-4.267 69.25-4.688zm-180.438 2.062c-1.684 10.954-6.365 25.273-.625 27.813 4.568-2.493 6.61-9.414 11.813-11.594 1.195 2.986-.673 6.75-1.406 10.219 8.315-2.22 16.196-22.133 20.406-23.032-4.92 13.07-11.522 24.175-22.813 29.813l-2.375-5.781c-2.885 4.593-6.862 6.07-10.812 8-2.809-17.612-1.5-29.547 5.813-35.438zm-107 1.438c.707-.018 1.435-.007 2.157 0 3.462.033 6.98.3 9.281.25l1.188 3.656c-7.266.085-14.07-.994-21.782.281-.096-3.194 4.21-4.061 9.156-4.188zm32.282 26.718c.409-.027.802.066 1.156.281 1.182 1.583-4.741 10.242-6.875 16.188-1.774 4.943-3.938 15.262-4.969 16.344-6.946-6.175 4.55-32.399 10.688-32.813zm35.5 15.719c1.32 17.03-3.676 10.902-4.281 24.594-3.401 5.765-8.526 10.798-10.72 9.187-2.482-4.314 4.552-7.341 7.626-11.656.874-3.6 2.994-20.947 7.375-22.125zm13.062.781c2.754 14.017-7.81 20.628-7.75 32.625.005.938-.834 1.454-1.156.625-3.302-.322-9.443-14.266-4.813-14.625 3.152-1.473 1.454 6.765 3.375 6.875 1.791-14.715 6.592-10.302 8.938-23.812.196-1.127.04-1.668 1.406-1.688zm61.969 7c2.316 15.322-7.48 36.733-43.688 36l14.75 6.75c-2.289 7.76-4.878 15.228-12 18.156 4.693 2.83 8.597 7.681 14.782 6.782-7.978 5.582-14.95 18.243-22.156 29.219 15.252.952 25.806-8.147 35.375-19.375.744 2.677.066 7.464-2.47 15.062 5.03-.234 18.904-10.587 30.47-14.156l-6.47 20c26.494-2.625 32.259-18.772 40.626-33.219-4.173 30.078-25 37.294-48.625 40.625l7.687-19.406c-10.031 3.134-20.873 12.315-30.437 11.406 1.679-2.525 4.445-3.975 3.062-9.563-12.613 13.694-25.23 12.731-37.844 12.938 9.174-9.276 13.996-26.856 23.094-30.781l-14.469-8.594c6.115-4.583 11.935-9.314 13.22-16.313-5.083-4.344-14.132-7.546-17.22-12.312 32.297.91 45.28-13.756 52.313-33.219zM196 354.656c.618 10.815-12.464 15.873-23.563 15.531-.89-5.521 7.677-4.84 12.032-6.968 4.066-2.683 6.776-7.604 11.531-8.563z" style="fill:#040404;fill-opacity:1;stroke:#000;stroke-width:.35433072;stroke-linecap:round;stroke-linejoin:round;stroke-miterlimit:4;stroke-opacity:1" transform="matrix(.4371 0 0 .43757 213.914 37.342)"/><g style="stroke:none"><g style="stroke:none"><path d="M-468.643 82.621c.263 0 .527 0 0 0z" style="fill:none;stroke:none" transform="matrix(.43927 0 0 .43974 565.158 36.642)"/></g><path d="M-430.01 125.48c1.213 9.86 12.301 11.217 14.481-.012-1.964-36.162-32.903-42.019-59.852-38.266-23.029 2.126-34.9-3.269-35.097-19.618 18.376-2.273 21.75-7.853 19.399-21.592-10.65-24.978-45.333-9.29-47.588 11.284-4.35 22.143 9.018 38.23 26.983 42.19 21.211 1.02 34.564-3.214 52.741-1.24 15.218 2.44 26.231 5.91 28.933 27.253z" style="fill:#ee531f;fill-opacity:1;fill-rule:evenodd;stroke:none" transform="matrix(.43927 0 0 .43974 565.158 36.642)"/><path d="M-375.35 228.838c-.266 0-.531 0 0 0zM-417.026 204.682c0-.088 0-.177 0 0zM-266.477 188.027l1.519 55.61" style="fill:none;stroke:none" transform="matrix(.43927 0 0 .43974 565.158 36.642)"/><path d="M-264.389 179.296c-8.301 4.654 4.937 12.677 7.782 6.073-8.472-.849-6.19-3.848-7.782-6.073z" style="fill:#f5f710;fill-opacity:1;fill-rule:evenodd;stroke:none" transform="matrix(.43927 0 0 .43974 565.158 36.642)"/><path d="M-328.159 329.984c-.061 0-.123 0 0 0z" style="fill:none;stroke:none" transform="matrix(.43927 0 0 .43974 565.158 36.642)"/></g><path d="M-560.513 287.153c.067 0 .133 0 0 0zM-526.862 291.932c.066 0 .133 0 0 0z" style="fill:none;stroke:none" transform="matrix(.43927 0 0 .43974 565.158 36.642)"/></g></g><g style="stroke:none"><path d="M-628.17 406.923c-2.254.833-3.582 3.868-4.824 7.108-.252 3.045 3.09 1.296 5.332 1.016 1.28-1.6.341-4.896-.508-8.124zm-58.9-25.642c1.644 4.67 8.238 5.1 14.47 5.839-5.201-6.132-11.706-6.541-14.47-5.84zm-.254 27.419c.46-3.043 5.044-4.318 14.979-3.3-3.014 2.254-4.247 5.548-14.98 3.3zm-40.432-79.606c-4.339 2.19-7.756 6.233-9.945 11.288-5.024-6.618 2.78-14.94 9.945-11.288zm126.953 90.781c-3.803-.594-6.306-4.697-6.062-7.094-3.529 8.587-11.068 10.246-22.875 4.344-8.358 1.748-13.355-2.358-22.844 0-1.387 1.57.437 4.55-5.531 4.156-.526 8.807.042 19.203-4.657 21.75 5.776 4.408 3.022 7.879 1.625 11.281.417 19.331-11.692 21.24-24.218 22.594-20.09 7.101-33.711 3.201-41.313-11 6.855 1.054 13.1 3.51 22.031-.281-5.49-16.087 3.294-22.66 12.938-28.656 2.385-4.691 4.976-8.757 8.812-9.094.237-3.096-.668-4.688-2.75-4.688-3.565 4.172-9.153 3.314-14.062 4.125-3.083 3.712-7.645 5.936-15.125 5.25-1.87 5.317-7.221 5.783-12.688 6.063-8.298 12.783-17.953 16.97-26.156 9.094-17.859-.97-26.312-8.5-27.281-21.219 4.872 3.75 8.27 11.918 16.531 5.5.736-31.123 12.532-29.01 24.781-25.594 4.132-2.292 8.275-1.627 12.407-.281 4.141-3.002 8.824-4.412 15.156-.844 11.43-3.792 17.537.693 38.844-1.375l-21.22-3.312c-6.104 1.076-11.612.687-16.25-1.906-6.718 2.06-12.46 1.672-16.25-3.594-16.34 1.92-32.8 4.037-35.53-16.25-7.335-7.268-12.777-.198-18.75 2.75-1.484-11.522 10.502-16.532 21.218-22.313 9.997-10.367 19.386-5.964 28.657 1.094 3.764.192 7.516.783 11.28 3.875 1.248.081 1.992-.082 2.376-.375a.997.997 0 0 0 .187-.188c.44-.682-.254-1.88-.906-3.03l-8.812-4.688c-15.163-2.376-17.266-11.612-18.75-21.188-10.157-4.953-15.877-.213-22.563 2.469 7.693-18.516 22.571-15.442 36.625-14.875 14.848-7.222 25.736-3.956 30.313 15.969 2.642 3.143 5.528 7.203 9.625 15.437 6.276 3.329 8.526 7.957 8.53 10.75 5.97 2.479 10.277 6.62 11.845 13.5 10.201 7.72 24.15 8.86 40.218 6.313 5.785-2.926 11.59-3.777 17.375-3.031l13.12 7.177c8.936-2.814 18.297-1.392 27.95 2.956 10.196-9.104 20.894-9.928 32.52 4.57-.406 4.706-.779 9.378-1.881 14.78-10.79 15.092-22.988 18.922-37.358 5.376-7.044 5.406-14.088 4.601-21.132 3.703zm-153.292-57.723c.624 5.361-2.812 7.9-2.418 15.946-1.921.498-4.176 1.662-4.032-1.97.879-6.948 2.048-13.372 6.45-13.976zm-4.8 56.09c-4.267 10.878-.485 27.928 11.221 25.941-6.216-5.855-9.096-25.612-11.22-25.94zm57.353 35.649c5.307 6.208 8.559 13.329 19.55 17.01l1.268 3.047c-8.506.933-23.499-7.416-20.818-20.057zm45.191-47.984c-7.044-2.044-19.722 9.808-15.74 23.611 2.952 1.566.159-8.946 15.74-23.61zm8.632-5.585c-2.772 3.152-14.457 6.684-13.202 0h13.202zM-656.232 72.216c-7.076 1.571-11.975 4.23-15.917 7.369.518-4.707 7.044-9.95 15.917-7.37zm-23.58 77.815c4.559-4.25 18.19 11.303 16.21 18.57l-16.21-18.57zm-38.908-69.857-6.78 15.917c-5.166-3.714 1.313-15.23 6.78-15.917zm-20.633 67.794c.91 8.075 1.43 15.515-3.832 13.558-.715-9.999 1.46-12.047 3.832-13.558zm15.032 76.341c-1.558-5.488-2.939-10.8-2.947-14.738-1.976-1.43-3.813-2.166-5.011.295.287 6.234 3.781 10.543 7.958 14.443zm75.457 5.6c-1.395-4.467 3.254-4.904 8.843-4.716-1.187 2.746-3 5.074-8.843 4.716zM-619.636 290c-6.473-3.85-3.723-9.983-1.656-15.969 7.774-.923 16.114 1.863 23.156 6.063.662-7.943 1.184-13.022 3.313-16.563 1.06-17.386-6.18-22.687-12.969-28.656 1.25-11.358-5.587-20.235-13.781-28.688-2.196-9.877-4.574-19.456-9.657-24.28l-4.125-13.5c-.362-8.182.804-16.351-2.218-24.532 3.354-6.124 3.338-13.093.812-20.688 3.28-7.153 3.882-17.559-1.375-23.437 9.11-16.56-2.351-33.32-19.844-33.094-14.773-13.967-26.95-10.76-38.062-.562 12.469.125 26.132-.695 21.5 12.969-10.56 11.832-7.242 20.981 4.969 28.406-.033 6.313.09 12.564 5.812 16-.079 4.412-.364 8.806 3.844 13.219l7.187 24c-6.57-10.494-7.226-24.997-17.125-30.625.783-8.091-4.09-11.061-8.25-12.125 1.909-9.46-3.966-15.664-10.75-21.5-3.947-16.717-7.609-33.916-30.906-21.25-21.806-1.331-35.097 12.261-37.5 21.25 8.437-4.701 16.877-9.376 26.75.28-2.656 15.795.938 26.945 20.969 25.907 3.093 3.126 3.822 7.65 10.187 8.813.853 3.974 1.295 8.1 8.563 9.937 1.045 3.14 1.758 6.032-4.406 4.125-4.881-9.598-11.36-9.651-17.657-10.75-10.752-12.641-36.399-14.52-36.406 9.375-14.609 4.893-20.12-.692-25.375-6.594-1.192 15.992 9.478 24.057 30.344 25.344 3.76 18.24 29.516 9.358 28.156 6.125 6.267 2.511 11.618 2.834 15.688.219 2.099 2.447 6.284 3.343 11.312 3.594-1.057 6.457-8.274 6.179-10.5 12.125l-10.469 3.875c-9.687 3.271-22.976-.39-24.53 18.468-9.778 10.277-16.513 5.356-23.438 1.375-1.147 8.761 6.903 15.575 33.625 18.469 18.57 4.913 31.432.686 35.312-17.906 3.169-.386 4.991-3.748 5.219-10.75 4.442-2.62 7.623-6.206 9.125-11.031 1.838-1.839 3.662-1.857 5.5-.157 6.8 12.364 7.424 27.696 16.281 39.031-.451 12.076.855 23.445 11.313 31.157.33 11.095-2.108 22.715 9.375 31.719l12.687.812zm-17.732-30.32c-.377-2.694-.322-5.172 8.548-3.243.536 3.113-1.255 4.828-8.548 3.243z" style="fill:#000;fill-opacity:.99526068;fill-rule:evenodd;stroke:none" transform="matrix(.43927 0 0 .43974 564.981 36.454)"/></g></g></svg>