<svg xmlns="http://www.w3.org/2000/svg" xml:space="preserve" width="470" height="470" viewBox="-206.276 -206.676 470 470"><path fill="#fff" d="M-206.276-206.676h470v470h-470z"/><g fill="#010202"><path d="M90.409 41.503H-23.534L-53.467 236.26l50.744-39.586 36.147 40.375v.032-.032l36.159-40.375 50.747 39.586zM102.39 29.918c0-4.125-3.26-7.473-7.263-7.473-.062 0-.122.02-.168.02H-28.329c-.046 0-.106-.02-.156-.02-4.031 0-7.264 3.348-7.264 7.473 0 4.133 3.233 7.477 7.264 7.477h.034v.03H95.157v-.03c3.99-.017 7.234-3.36 7.234-7.477M95.56-18.786c0-4.113-2.94-7.457-6.556-7.457-.03 0-.076.016-.138.016h-111.1c-.03 0-.088-.016-.134-.016-3.617 0-6.542 3.344-6.542 7.457 0 4.129 2.925 7.488 6.542 7.488 0 0 .016-.016.023-.016v.047H89.018v-.047c3.617 0 6.542-3.343 6.542-7.472M101.95-6.672H-34.988c-6.595 0-11.96 5.512-11.96 12.313 0 6.78 5.372 12.297 11.982 12.297H101.95c6.61-.001 11.96-5.517 11.96-12.298 0-6.793-5.357-12.312-11.96-12.312M-62.629-91.344c2.918-14.258 21.76-19.563 33.572.254 4.62 7.754 7.553 50.793-41.367 49.297-29.685-.918-50.868-37.535-42.343-76.832 8.56-39.457 47.214-62.656 80.793-61.785 58.645 1.504 88.58 47.832 97.106 73.809 7.78 23.777 12.37 55.68 12.172 75.875h-87.846c6.14-36.664 2.428-51.61 2.428-51.61s-8.536-37.272-34.07-37.272c-25.544 0-30.911 23.266-30.911 23.266s-2.808 18.215 9.968 21.016c3.423.758 10.113.223 10.113-8.52-.008-4.354-3.476-8.26-9.615-7.498"/></g></svg>