<?xml version="1.0" encoding="UTF-8" standalone="no"?>
<!-- Creator: CorelDRAW -->
<svg
   xmlns:dc="http://purl.org/dc/elements/1.1/"
   xmlns:cc="http://web.resource.org/cc/"
   xmlns:rdf="http://www.w3.org/1999/02/22-rdf-syntax-ns#"
   xmlns:svg="http://www.w3.org/2000/svg"
   xmlns="http://www.w3.org/2000/svg"
   xmlns:sodipodi="http://inkscape.sourceforge.net/DTD/sodipodi-0.dtd"
   xmlns:inkscape="http://www.inkscape.org/namespaces/inkscape"
   xml:space="preserve"
   x="-287.00821"
   y="191.3391"
   width="900pt"
   height="600pt"
   style="shape-rendering:geometricPrecision; text-rendering:geometricPrecision; image-rendering:optimizeQuality"
   viewBox="-3189 0 6378 4252"
   id="svg2"
   sodipodi:version="0.32"
   inkscape:version="0.43"
   sodipodi:docname="臺北市旗.svg"
   sodipodi:docbase="D:\維基"
   version="1.0"><metadata
   id="metadata161"><rdf:RDF><cc:Work
       rdf:about=""><dc:format>image/svg+xml</dc:format><dc:type
         rdf:resource="http://purl.org/dc/dcmitype/StillImage" /></cc:Work></rdf:RDF></metadata><sodipodi:namedview
   inkscape:window-height="1000"
   inkscape:window-width="1680"
   inkscape:pageshadow="2"
   inkscape:pageopacity="0.0"
   borderopacity="1.0"
   bordercolor="#666666"
   pagecolor="#ffffff"
   id="base"
   inkscape:zoom="0.48735583"
   inkscape:cx="349.15056"
   inkscape:cy="426.42692"
   inkscape:window-x="-8"
   inkscape:window-y="-8"
   inkscape:current-layer="svg2" />
 <defs
   id="defs4">
  <style
   type="text/css"
   id="style6">
   
    .str0 {stroke:#FFFFFF;stroke-width:14}
    .fil7 {fill:none}
    .fil0 {fill:#FFFFFF}
    .fil6 {fill:#05A53C}
    .fil4 {fill:#223B86}
    .fil5 {fill:#2A2B2C}
    .fil1 {fill:#767B79}
    .fil3 {fill:#D62B24}
    .fil2 {fill:#F5C800}
   
  </style>
 
  
  
  
  
  
  
  
  
  
  
  
  
  
  
  
  
  
  
  
  
  
  
  
  
  
  
  
  
  
  
  
  
  
  
  
  
  
  
  
  
  
  
  
  
  
  
  
  
  
  
  
  
  
  
  
  
  
  
  
  
  
  
  
  
  
  
  
  
  
  
  
  
  
  
  
  
  
  
  
  
  
  
  
  
  
  
  
  
  
  
  
  
  
  
  
  
  
  
  
  
  
  
  
  
  
  
 
   
   
  
   
   
   
   
   
   
  
   
   
   
   
   
   
  
   
   
   
   
   
   
   
   
   
   
   
   
   
   
   
   
  
   
   
   
   
   
   
   
   
   
   
  </defs>
 <rect
   style="fill:#ffffff"
   height="4252"
   width="6378"
   y="0"
   x="-3189"
   class="fil0"
   id="61644168" /><g
   id="g2481"><path
     style="fill:#4c4c4c;fill-opacity:1"
     d="M 284,3283 L 160,3283 L 158,3275 L 284,3275 L 284,3250 C 292,3252 299,3253 308,3254 C 311,3255 312,3257 312,3260 C 309,3264 306,3267 303,3271 L 303,3275 L 386,3275 L 405,3255 L 430,3274 L 426,3283 L 303,3283 L 303,3306 L 359,3306 L 379,3287 L 403,3306 L 399,3315 L 191,3315 L 189,3306 L 284,3306 L 284,3283 z M 229,3374 C 228,3377 228,3379 226,3380 C 225,3381 222,3381 219,3382 C 216,3381 213,3381 212,3380 C 211,3379 210,3377 210,3374 L 210,3322 L 227,3332 L 227,3332 L 360,3332 L 370,3324 L 386,3335 C 388,3336 388,3338 388,3340 C 387,3343 386,3345 383,3346 C 381,3346 380,3347 380,3349 L 380,3377 C 379,3379 378,3380 375,3380 C 371,3381 368,3381 364,3381 C 362,3382 361,3381 361,3379 L 361,3370 L 229,3370 L 229,3374 z M 361,3361 L 361,3341 L 229,3341 L 229,3361 L 361,3361 z M 167,3434 C 164,3437 161,3438 157,3438 C 154,3438 152,3437 150,3434 C 147,3429 149,3424 156,3418 C 168,3408 175,3396 176,3381 L 182,3381 C 182,3384 182,3386 182,3389 L 407,3389 L 420,3377 L 438,3392 C 442,3394 443,3397 442,3400 C 441,3404 438,3406 433,3405 C 430,3405 427,3406 426,3408 C 418,3419 412,3428 406,3435 L 400,3432 C 405,3420 409,3409 411,3398 L 181,3398 C 179,3415 174,3427 167,3434 L 282,3505 L 195,3505 L 193,3496 L 282,3496 L 282,3474 C 252,3476 225,3478 202,3479 C 201,3479 200,3480 200,3483 C 200,3487 198,3489 194,3489 C 190,3489 188,3487 187,3482 C 185,3475 184,3467 182,3458 C 199,3460 216,3461 233,3462 C 240,3451 246,3440 250,3427 L 200,3427 L 198,3418 L 345,3418 L 363,3400 L 386,3418 L 381,3427 L 271,3427 C 263,3440 254,3451 245,3462 C 275,3461 310,3458 347,3451 C 340,3447 334,3445 328,3444 L 330,3437 C 339,3438 349,3440 361,3444 C 373,3449 381,3454 386,3459 C 388,3462 389,3464 390,3467 C 390,3471 389,3473 388,3475 C 385,3476 383,3477 381,3477 C 378,3477 376,3476 374,3474 C 369,3468 364,3463 359,3459 C 341,3463 322,3467 300,3471 L 300,3496 L 353,3496 L 372,3478 L 394,3496 L 390,3505 L 300,3505 L 300,3534 L 390,3534 L 409,3515 L 433,3534 L 429,3542 L 157,3542 L 155,3534 L 282,3534 L 282,3505 L 167,3434 z "
     class="fil1"
     id="61644256" /><path
     style="fill:#4c4c4c;fill-opacity:1"
     d="M 565,3352 L 481,3352 L 478,3344 L 565,3344 L 565,3253 C 573,3254 580,3255 587,3256 C 592,3257 594,3259 595,3261 C 595,3265 593,3267 589,3269 C 585,3270 583,3272 583,3275 L 583,3545 C 583,3547 582,3548 580,3548 C 575,3549 571,3550 567,3550 C 565,3550 565,3549 565,3547 L 565,3470 C 551,3479 530,3490 503,3501 C 492,3505 486,3508 486,3510 C 487,3514 486,3517 483,3519 C 480,3520 477,3518 475,3514 C 472,3508 469,3499 465,3490 C 495,3488 528,3478 565,3459 L 565,3352 z M 737,3300 C 743,3304 748,3308 753,3312 C 755,3314 756,3315 756,3317 C 756,3320 755,3321 753,3322 C 751,3322 749,3322 747,3321 C 746,3321 744,3321 744,3322 C 723,3346 695,3364 660,3376 L 660,3508 C 660,3513 661,3516 662,3518 C 663,3521 665,3522 669,3523 C 674,3524 684,3525 696,3525 C 710,3525 720,3524 726,3523 C 728,3523 730,3522 732,3520 C 737,3517 741,3505 746,3484 L 754,3484 C 754,3504 755,3515 757,3517 C 762,3519 764,3522 764,3526 C 764,3531 760,3535 751,3538 C 742,3541 724,3543 698,3544 C 681,3543 668,3542 658,3541 C 653,3539 649,3536 645,3531 C 643,3526 641,3521 642,3515 L 642,3250 L 664,3255 C 668,3256 670,3258 670,3261 C 670,3264 667,3266 662,3268 C 661,3268 660,3269 660,3271 L 660,3368 C 693,3351 719,3328 737,3300 z "
     class="fil1"
     id="61644344" /></g><path
   id="61644520"
   class="fil2"
   d="M 169,2105 C 193,2105 156,2101 174,2110 C 169,2109 154,2105 169,2105 z "
   style="fill:#ffe600;fill-opacity:1" /><path
   id="61644608"
   class="fil2"
   d="M 158,2579 C 182,2578 161,2585 169,2590 C 165,2588 157,2590 153,2590 C 153,2588 153,2586 153,2584 C 174,2574 129,2580 158,2579 z "
   style="fill:#ffe600;fill-opacity:1" /><path
   id="61644696"
   class="fil2"
   d="M 163,2674 C 173,2674 168,2687 169,2695 L 158,2695 C 159,2687 154,2674 163,2674 z "
   style="fill:#ffe600;fill-opacity:1" /><path
   id="61644784"
   class="fil2"
   d="M 327,3070 C 351,3070 314,3066 332,3075 C 327,3074 312,3070 327,3070 z "
   style="fill:#ffe600;fill-opacity:1" /><path
   id="61644872"
   class="fil2"
   d="M 265,2900 C 265,2903 265,2905 265,2908 C 264,2907 227,2913 272,2923 C 271,2913 277,2897 265,2900 z "
   style="fill:#ffe600;fill-opacity:1" /><path
   id="61644960"
   class="fil2"
   d="M 167,2870 C 176,2872 168,2876 175,2900 L 160,2900 C 161,2891 155,2867 167,2870 z "
   style="fill:#ffe600;fill-opacity:1" /><path
   id="61645048"
   class="fil2"
   d="M 235,2840 C 237,2847 233,2856 235,2863 C 237,2863 240,2863 242,2863 C 247,2880 244,2876 250,2893 L 265,2893 C 265,2885 267,2877 265,2870 C 264,2867 250,2865 242,2863 C 242,2859 242,2845 242,2840 C 240,2840 237,2840 235,2840 z "
   style="fill:#ffe600;fill-opacity:1" /><path
   id="61645136"
   class="fil2"
   d="M 167,2817 C 167,2820 167,2823 167,2825 C 167,2840 164,2827 175,2832 C 175,2839 173,2849 175,2855 C 174,2854 162,2861 160,2863 L 160,2848 C 157,2848 155,2848 152,2848 C 151,2840 160,2817 167,2817 z "
   style="fill:#ffe600;fill-opacity:1" /><path
   id="61645224"
   class="fil2"
   d="M 160,2750 C 161,2751 160,2769 160,2772 C 171,2768 174,2792 152,2787 C 158,2785 144,2757 144,2757 C 147,2757 150,2757 152,2757 C 153,2757 148,2741 160,2750 z "
   style="fill:#ffe600;fill-opacity:1" /><path
   id="61645312"
   class="fil2"
   d="M 220,2652 C 217,2674 216,2687 212,2712 C 215,2712 217,2712 220,2712 L 220,2727 L 235,2727 C 236,2726 232,2712 242,2720 C 246,2693 245,2683 250,2659 C 52,2611 428,2716 242,2652 C 235,2649 226,2657 220,2652 z "
   style="fill:#ffe600;fill-opacity:1" /><path
   id="61645400"
   class="fil2"
   d="M 144,2419 C 159,2422 150,2435 152,2449 L 137,2449 L 137,2434 C 140,2434 142,2434 144,2434 C 144,2431 144,2429 144,2426 C 135,2426 131,2415 144,2419 z "
   style="fill:#ffe600;fill-opacity:1" /><path
   id="61645488"
   class="fil2"
   d="M 160,2035 C 161,2036 160,2055 160,2058 C 157,2058 155,2058 152,2058 C 153,2051 148,2029 160,2035 z "
   style="fill:#ffe600;fill-opacity:1" /><path
   id="61645576"
   class="fil2"
   d="M 160,1975 C 170,1977 159,1974 167,1997 L 152,1997 C 153,1988 147,1972 160,1975 z "
   style="fill:#ffe600;fill-opacity:1" /><path
   id="61645664"
   class="fil2"
   d="M 175,1840 C 173,1840 175,1860 175,1862 C 162,1859 167,1871 182,1870 C 181,1863 187,1833 175,1840 z "
   style="fill:#ffe600;fill-opacity:1" /><path
   id="61645752"
   class="fil2"
   d="M 175,1749 C 176,1742 186,1762 167,1772 C 161,1775 176,1781 175,1787 L 160,1787 C 165,1766 151,1769 167,1757 C 184,1744 147,1751 175,1749 z "
   style="fill:#ffe600;fill-opacity:1" /><path
   id="61645840"
   class="fil2"
   d="M 581,666 C 589,672 595,677 603,681 C 603,684 603,686 603,689 C 609,692 624,691 626,696 C 631,709 622,728 626,741 C 632,741 638,737 649,734 C 649,731 649,729 649,726 L 664,726 C 667,730 668,738 671,741 C 672,742 701,763 701,764 C 705,772 699,784 701,794 C 704,794 706,794 709,794 C 710,803 709,807 709,816 C 711,816 714,816 716,816 C 719,828 714,835 716,847 C 719,847 721,847 724,847 C 728,876 726,883 731,914 C 734,914 736,914 739,914 C 741,930 734,952 739,967 C 741,967 744,967 746,967 L 746,982 C 750,984 760,987 761,989 C 768,1004 762,1012 769,1027 C 771,1027 774,1027 776,1027 C 781,1047 772,1068 776,1087 C 776,1087 786,1091 784,1102 C 781,1102 779,1102 776,1102 L 776,1117 C 779,1117 782,1117 784,1117 C 785,1135 784,1153 784,1170 C 787,1170 789,1170 791,1170 C 796,1215 791,1260 791,1305 C 789,1305 787,1305 784,1305 C 782,1330 786,1356 784,1381 C 781,1381 779,1381 776,1381 C 776,1401 777,1420 776,1441 C 774,1441 771,1441 769,1441 C 764,1497 769,1536 761,1591 C 759,1591 756,1591 754,1591 C 749,1621 751,1624 746,1651 C 744,1651 741,1651 739,1651 C 734,1683 739,1718 739,1749 C 726,1750 730,1759 724,1764 C 726,1764 729,1764 731,1764 C 731,1782 732,1800 731,1817 C 729,1817 726,1817 724,1817 C 719,1857 721,1876 716,1915 C 714,1915 711,1915 709,1915 C 708,1923 717,1937 716,1937 C 714,1937 711,1937 709,1937 C 709,1968 709,1997 709,2028 C 706,2028 704,2028 701,2028 C 701,2028 708,2049 709,2035 L 709,2050 C 706,2050 704,2050 701,2050 C 699,2085 704,2120 701,2155 C 699,2155 696,2155 694,2155 C 694,2225 686,2271 686,2344 C 684,2344 681,2344 679,2344 C 678,2360 688,2363 686,2389 C 684,2389 681,2389 679,2389 C 679,2419 679,2448 679,2479 C 676,2479 674,2479 671,2479 C 670,2494 671,2509 671,2524 C 674,2524 676,2524 679,2524 L 679,2539 C 676,2539 674,2539 671,2539 C 668,2553 672,2570 671,2584 C 668,2584 666,2584 664,2584 C 664,2587 664,2589 664,2592 C 672,2596 673,2601 671,2614 C 668,2614 666,2614 664,2614 C 659,2636 662,2638 656,2659 C 653,2659 651,2659 649,2659 C 649,2662 649,2665 649,2667 C 651,2667 654,2667 656,2667 C 654,2683 661,2668 649,2675 C 649,2683 652,2705 649,2712 L 633,2712 C 632,2715 627,2727 626,2727 L 611,2727 C 611,2739 614,2761 611,2772 C 561,2772 643,2778 603,2765 C 593,2761 577,2769 573,2772 L 573,2787 C 558,2795 571,2778 566,2795 C 567,2781 573,2802 573,2802 C 571,2802 568,2802 566,2802 C 565,2816 564,2805 573,2810 C 571,2826 579,2811 566,2817 C 566,2829 569,2845 566,2855 L 543,2870 C 538,2884 543,2908 543,2923 C 540,2924 528,2930 528,2930 C 524,2947 540,2942 536,2953 C 533,2953 531,2953 528,2953 C 523,2969 527,2968 521,2983 C 519,2983 499,2981 498,2983 C 496,2982 492,2972 491,2968 C 488,2968 470,2970 468,2968 L 468,2953 C 465,2953 463,2953 460,2953 C 458,2951 455,2942 453,2938 L 438,2938 C 438,2935 438,2933 438,2930 C 419,2923 441,2934 430,2938 C 419,2942 415,2930 415,2930 C 404,2927 390,2931 378,2930 L 378,2945 C 377,2946 366,2951 363,2953 C 363,2955 363,2958 363,2960 C 339,2965 335,2946 333,2945 C 320,2942 300,2948 287,2945 L 287,2960 C 290,2961 302,2968 302,2968 L 302,2983 L 325,2998 C 330,3009 322,3003 318,3006 C 324,3023 309,3005 325,3013 L 325,3028 C 328,3028 330,3028 333,3028 C 335,3037 330,3041 333,3051 C 331,3049 319,3045 318,3043 C 311,3034 318,3026 310,3021 C 303,3016 287,3018 280,3013 C 283,3024 277,3032 280,3043 C 282,3043 285,3043 287,3043 L 287,3058 C 290,3058 293,3058 295,3058 C 298,3069 291,3077 295,3088 C 286,3092 286,3082 287,3096 C 290,3096 293,3096 295,3096 L 295,3111 C 291,3111 274,3108 272,3111 C 267,3090 282,3112 265,3103 C 265,3093 268,3075 265,3066 L 250,3058 C 244,3049 251,3042 242,3036 C 236,3031 223,3034 220,3028 C 215,3020 222,3007 220,2998 C 217,2998 215,2998 212,2998 L 212,2983 C 196,2975 210,2994 205,2975 C 211,2972 216,2980 212,2968 C 210,2968 207,2968 205,2968 L 205,2953 C 202,2953 200,2953 197,2953 C 190,2934 195,2920 190,2900 C 187,2900 185,2900 182,2900 C 180,2886 181,2897 190,2893 C 188,2881 187,2888 182,2878 C 185,2878 187,2878 190,2878 C 188,2860 195,2877 182,2870 C 182,2857 186,2837 182,2825 C 182,2825 168,2816 167,2810 C 170,2810 172,2810 175,2810 C 178,2797 174,2802 182,2795 C 182,2792 182,2790 182,2787 C 161,2777 188,2745 167,2735 C 167,2732 167,2730 167,2727 C 170,2727 172,2727 175,2727 C 175,2712 176,2696 175,2682 C 172,2682 170,2682 167,2682 C 165,2670 167,2657 167,2644 C 150,2636 166,2655 160,2637 C 155,2626 152,2652 152,2652 C 143,2655 138,2614 152,2614 C 150,2627 160,2629 160,2629 C 160,2626 158,2600 160,2599 C 162,2599 165,2599 167,2599 C 171,2584 163,2587 160,2577 C 160,2577 186,2566 175,2562 C 172,2562 170,2562 167,2562 L 160,2539 C 145,2533 145,2552 137,2547 C 143,2523 140,2516 144,2494 C 151,2492 154,2499 160,2501 L 160,2486 C 162,2486 165,2486 167,2486 C 171,2476 161,2457 160,2449 C 162,2449 165,2449 167,2449 C 245,2410 84,2466 175,2441 C 175,2439 175,2436 175,2434 C 174,2433 163,2428 160,2426 C 160,2424 161,2406 160,2404 C 159,2403 147,2410 144,2411 C 137,2384 149,2407 137,2396 L 137,2381 C 159,2378 145,2398 160,2396 L 160,2381 C 162,2381 165,2381 167,2381 C 170,2381 172,2381 175,2381 L 175,2366 L 160,2366 C 156,2356 160,2340 160,2328 C 119,2306 158,2353 144,2313 C 121,2311 150,2292 152,2291 C 150,2292 152,2310 152,2313 C 155,2313 157,2313 160,2313 C 164,2305 155,2299 160,2291 L 175,2291 C 179,2274 176,2267 182,2253 C 159,2253 158,2258 144,2261 L 144,2246 C 150,2243 160,2246 167,2246 C 171,2232 164,2238 175,2231 C 168,2219 171,2214 167,2201 L 152,2201 L 152,2186 C 197,2173 127,2204 160,2178 C 162,2178 165,2178 167,2178 L 167,2163 C 164,2163 162,2163 160,2163 C 157,2163 155,2163 152,2163 C 152,2159 154,2142 152,2140 C 158,2137 168,2140 175,2140 C 178,2126 173,2133 182,2125 C 177,2115 180,2121 175,2110 C 172,2110 170,2110 167,2110 L 167,2095 C 164,2095 162,2095 160,2095 C 144,2084 174,2081 175,2080 C 172,2072 175,2066 175,2058 C 158,2049 172,2069 167,2050 C 176,2045 176,2056 175,2043 C 165,2044 142,2018 182,2020 C 177,2018 179,1969 182,1967 C 181,1967 162,1955 167,1952 C 170,1952 172,1952 175,1952 C 179,1938 182,1930 182,1930 C 175,1926 171,1927 175,1915 C 175,1915 188,1908 190,1907 L 190,1892 C 187,1892 185,1892 182,1892 L 182,1877 C 170,1872 168,1882 160,1885 C 158,1870 160,1854 160,1840 C 145,1832 155,1849 152,1832 C 169,1823 160,1830 182,1832 C 183,1815 176,1788 182,1772 C 185,1772 187,1772 190,1772 C 195,1760 194,1769 197,1757 C 190,1752 190,1753 182,1749 C 183,1747 193,1736 190,1734 C 173,1726 188,1745 182,1727 C 189,1723 193,1732 190,1719 C 188,1715 173,1714 167,1712 C 168,1707 167,1694 167,1689 C 170,1689 172,1689 175,1689 C 180,1657 175,1617 175,1584 C 177,1584 180,1584 182,1584 C 182,1584 173,1569 175,1554 C 177,1554 180,1554 182,1554 C 182,1535 178,1511 182,1493 C 185,1493 187,1493 190,1493 C 191,1487 190,1478 190,1471 C 192,1471 195,1471 197,1471 C 198,1460 199,1444 197,1433 C 195,1433 192,1433 190,1433 C 186,1418 195,1417 182,1411 C 182,1408 182,1406 182,1403 C 185,1403 187,1403 190,1403 C 192,1392 198,1371 197,1366 C 197,1366 185,1363 190,1351 C 192,1351 195,1351 197,1351 C 199,1349 203,1337 205,1336 C 207,1333 218,1331 220,1328 C 229,1308 221,1292 227,1268 C 230,1268 232,1268 235,1268 L 235,1253 C 237,1253 240,1253 242,1253 C 245,1242 239,1226 242,1215 L 257,1208 C 260,1201 255,1192 257,1185 C 260,1185 263,1185 265,1185 L 265,1170 C 267,1170 270,1170 272,1170 C 276,1158 269,1144 272,1132 C 275,1132 278,1132 280,1132 C 291,1110 265,1136 287,1125 L 287,1110 C 290,1110 293,1110 295,1110 C 297,1104 293,1094 295,1087 C 298,1087 300,1087 302,1087 L 302,1072 C 305,1072 308,1072 310,1072 L 310,1057 L 325,1050 C 330,1043 330,1022 333,1020 L 348,1020 C 348,1017 348,1015 348,1012 C 361,1008 367,1012 378,1005 L 378,989 C 379,985 395,986 400,982 C 408,976 404,969 408,959 C 410,959 413,959 415,959 C 419,950 413,939 415,929 C 418,929 420,929 423,929 C 427,903 426,892 430,869 C 412,872 409,878 385,877 C 387,871 385,860 385,854 C 388,853 400,848 400,847 C 400,847 397,827 393,839 C 393,836 393,834 393,831 C 393,831 406,825 408,824 C 408,821 408,819 408,816 L 423,816 L 423,801 C 425,801 428,801 430,801 C 430,799 430,796 430,794 C 448,785 451,772 468,764 C 468,761 468,759 468,756 C 471,756 473,756 475,756 L 475,741 C 479,737 492,744 498,741 L 498,726 L 521,711 C 521,709 521,706 521,704 L 536,704 C 539,707 543,734 543,734 C 552,742 573,736 588,741 C 589,741 595,755 596,756 L 611,756 L 611,741 C 608,741 606,741 603,741 L 596,726 L 581,726 C 580,726 575,714 573,711 C 571,711 568,711 566,711 L 566,696 C 563,696 561,696 558,696 C 554,683 556,683 551,674 C 573,668 562,675 581,666 z "
   style="fill:#ffcc00;fill-opacity:1" /><path
   id="61646016"
   class="fil3"
   d="M -517,1688 C -507,1689 -513,1701 -512,1709 L -522,1709 C -522,1707 -522,1706 -522,1704 C -530,1711 -529,1687 -517,1688 z "
   style="fill:#e60000;fill-opacity:1" /><path
   id="61646104"
   class="fil3"
   d="M -538,1720 C -520,1721 -523,1738 -538,1736 C -538,1734 -538,1732 -538,1730 C -548,1730 -544,1719 -538,1720 z "
   style="fill:#e60000;fill-opacity:1" /><path
   id="61646192"
   class="fil3"
   d="M -579,1756 C -568,1754 -559,1756 -547,1756 C -547,1757 -542,1766 -542,1767 C -530,1770 -544,1774 -547,1777 C -547,1779 -547,1781 -547,1782 C -564,1779 -569,1779 -584,1777 C -583,1768 -588,1757 -579,1756 z "
   style="fill:#e60000;fill-opacity:1" /><path
   id="61646280"
   class="fil3"
   d="M -554,2263 C -544,2263 -550,2271 -548,2279 L -559,2279 C -558,2271 -564,2263 -554,2263 z "
   style="fill:#e60000;fill-opacity:1" /><path
   id="61646368"
   class="fil3"
   d="M -457,1621 C -457,1621 -452,1632 -450,1636 L -465,1636 C -463,1629 -469,1619 -457,1621 z "
   style="fill:#e60000;fill-opacity:1" /><path
   id="61646456"
   class="fil3"
   d="M -397,1569 C -385,1571 -372,1569 -360,1569 C -360,1571 -360,1574 -360,1576 C -351,1578 -345,1572 -337,1576 L -314,1606 C -308,1609 -297,1603 -292,1606 L -284,1629 C -277,1633 -270,1627 -262,1629 C -262,1631 -262,1634 -262,1636 C -249,1641 -248,1639 -239,1644 C -239,1647 -239,1649 -239,1651 C -233,1655 -223,1649 -217,1651 L -209,1666 C -196,1675 -193,1667 -179,1674 C -178,1674 -171,1689 -171,1689 L -156,1689 C -155,1692 -150,1704 -149,1704 L -134,1704 C -134,1707 -134,1709 -134,1712 L -119,1712 C -119,1712 -111,1727 -111,1727 C -107,1729 -93,1732 -89,1734 C -89,1737 -89,1739 -89,1742 C -86,1742 -84,1742 -81,1742 C -79,1748 -84,1758 -81,1764 L -59,1779 C -52,1794 -56,1799 -51,1817 C -48,1817 -46,1817 -44,1817 C -41,1826 -47,1831 -44,1840 C -41,1840 -38,1840 -36,1840 L -36,1855 C -33,1855 -31,1855 -29,1855 C -27,1861 -31,1871 -29,1877 C -26,1877 -23,1877 -21,1877 C -16,1895 -21,1889 -13,1907 C -11,1907 -8,1907 -6,1907 C -4,1916 -11,1929 -6,1937 C -6,1937 16,1952 17,1952 C 17,1955 17,1958 17,1960 L 32,1960 C 32,1962 32,1965 32,1967 L 47,1967 C 47,1970 47,1973 47,1975 L 77,1997 C 79,2003 73,2015 77,2020 C 82,2027 93,2022 99,2028 L 99,2043 C 99,2043 121,2057 122,2058 C 122,2060 122,2063 122,2065 L 137,2065 C 142,2075 137,2099 137,2110 C 140,2112 152,2117 152,2118 C 154,2122 148,2137 152,2140 C 157,2144 174,2141 182,2148 L 182,2163 L 167,2163 C 167,2166 167,2168 167,2171 L 167,2186 L 152,2186 C 146,2198 150,2225 144,2238 C 143,2241 133,2244 129,2246 L 129,2261 C 127,2261 125,2261 122,2261 C 120,2266 125,2279 122,2283 L 99,2291 L 99,2306 C 99,2307 85,2313 84,2313 C 84,2316 84,2319 84,2321 C 79,2324 66,2323 62,2328 L 62,2344 C 59,2344 57,2344 54,2344 L 54,2359 C 52,2359 49,2359 47,2359 C 40,2374 45,2381 39,2396 C 22,2395 23,2407 2,2404 C 2,2401 2,2399 2,2396 L -13,2396 C -14,2396 -14,2386 -29,2389 C -29,2391 -29,2394 -29,2396 L -44,2396 C -44,2399 -44,2401 -44,2404 C -50,2407 -66,2426 -66,2426 C -75,2430 -88,2434 -96,2434 C -96,2431 -96,2429 -96,2426 C -102,2426 -113,2424 -119,2426 C -141,2434 -94,2439 -126,2434 C -126,2431 -126,2429 -126,2426 C -135,2426 -140,2428 -149,2426 C -149,2424 -149,2421 -149,2419 C -158,2416 -163,2422 -171,2419 C -171,2419 -178,2404 -179,2404 C -192,2397 -196,2403 -209,2396 C -209,2394 -209,2391 -209,2389 C -231,2382 -224,2404 -224,2404 C -234,2405 -239,2389 -239,2389 C -245,2386 -255,2392 -262,2389 C -264,2388 -267,2375 -269,2374 L -284,2374 C -284,2371 -284,2369 -284,2366 C -287,2366 -289,2366 -292,2366 C -292,2364 -292,2361 -292,2359 C -298,2356 -308,2362 -314,2359 L -314,2344 C -330,2338 -351,2348 -367,2344 L -375,2328 C -381,2326 -390,2331 -397,2328 L -412,2306 C -427,2299 -445,2307 -457,2298 L -457,2283 L -472,2283 C -472,2281 -472,2278 -472,2276 C -481,2273 -496,2281 -502,2276 C -502,2273 -502,2271 -502,2268 C -515,2262 -505,2259 -510,2246 L -525,2238 L -525,2223 C -528,2223 -530,2223 -533,2223 C -533,2221 -533,2218 -533,2216 C -537,2216 -552,2218 -555,2216 C -555,2213 -555,2211 -555,2208 C -545,2228 -555,2186 -555,2186 L -570,2186 C -573,2179 -568,2170 -570,2163 C -573,2163 -575,2163 -578,2163 C -581,2161 -583,2143 -585,2140 C -586,2139 -597,2135 -600,2133 C -600,2130 -600,2128 -600,2125 C -603,2125 -605,2125 -608,2125 L -608,2110 C -613,2106 -627,2108 -630,2103 C -634,2097 -628,2087 -630,2080 C -631,2079 -642,2074 -645,2073 L -645,2058 L -668,2050 C -672,2042 -664,2028 -668,2020 C -661,2014 -655,2018 -645,2013 C -643,2011 -638,2002 -630,1997 C -632,1996 -630,1970 -645,1982 C -646,1981 -652,1968 -653,1967 L -668,1967 C -663,1954 -660,1945 -660,1945 C -651,1942 -647,1947 -638,1945 C -638,1942 -638,1940 -638,1937 C -611,1933 -604,1935 -578,1930 C -578,1927 -578,1925 -578,1922 C -569,1920 -563,1926 -555,1922 C -555,1920 -555,1917 -555,1915 C -522,1907 -548,1907 -548,1907 L -548,1892 L -533,1892 C -533,1890 -533,1887 -533,1885 C -512,1889 -509,1891 -487,1892 C -484,1885 -487,1870 -487,1862 C -474,1855 -483,1872 -480,1855 L -465,1855 C -459,1851 -480,1844 -472,1832 L -457,1832 C -446,1811 -472,1836 -450,1824 C -450,1822 -452,1805 -450,1802 L -427,1794 C -424,1775 -432,1785 -442,1779 C -442,1763 -439,1743 -442,1727 C -441,1726 -421,1727 -420,1727 L -420,1712 L -405,1712 C -400,1698 -400,1670 -397,1659 L -382,1659 C -383,1662 -390,1697 -390,1697 C -376,1694 -359,1697 -344,1697 C -344,1694 -344,1692 -344,1689 C -344,1686 -344,1684 -344,1682 C -357,1678 -363,1665 -375,1659 C -375,1656 -375,1654 -375,1651 L -390,1651 C -390,1649 -390,1647 -390,1644 C -400,1649 -419,1645 -427,1651 C -436,1658 -420,1666 -420,1666 C -421,1667 -420,1687 -420,1689 C -442,1689 -441,1681 -450,1682 C -450,1684 -450,1687 -450,1689 C -454,1689 -467,1689 -472,1689 C -475,1685 -486,1660 -487,1659 C -472,1653 -473,1655 -450,1651 C -450,1649 -450,1647 -450,1644 C -450,1644 -438,1638 -435,1636 C -435,1628 -439,1606 -435,1599 L -420,1599 C -423,1612 -419,1603 -412,1606 C -412,1606 -393,1571 -412,1584 C -412,1581 -412,1579 -412,1576 C -411,1576 -397,1569 -397,1569 z "
   style="fill:#e60000;fill-opacity:1" /><path
   id="61646632"
   class="fil4"
   d="M 2151,1815 C 2151,1815 2156,1824 2157,1825 C 2153,1825 2144,1824 2141,1825 C 2145,1822 2143,1814 2151,1815 z "
   style="fill:#0000ff;fill-opacity:1" /><path
   id="61646720"
   class="fil4"
   d="M 2744,2486 C 2744,2486 2748,2508 2751,2509 C 2763,2515 2757,2499 2759,2494 C 2748,2489 2754,2492 2744,2486 z "
   style="fill:#0000ff;fill-opacity:1" /><path
   id="61646808"
   class="fil4"
   d="M 2902,2434 L 2902,2449 C 2904,2449 2907,2449 2909,2449 C 2906,2439 2916,2434 2902,2434 z "
   style="fill:#0000ff;fill-opacity:1" /><path
   id="61646896"
   class="fil4"
   d="M 2864,2404 L 2871,2419 C 2885,2421 2877,2412 2879,2404 L 2864,2404 z "
   style="fill:#0000ff;fill-opacity:1" /><path
   id="61646984"
   class="fil4"
   d="M 2902,2351 L 2902,2366 C 2904,2366 2907,2366 2909,2366 C 2906,2357 2916,2351 2902,2351 z "
   style="fill:#0000ff;fill-opacity:1" /><path
   id="61647072"
   class="fil4"
   d="M 2917,2185 L 2924,2201 C 2938,2203 2929,2193 2932,2185 L 2917,2185 z "
   style="fill:#0000ff;fill-opacity:1" /><path
   id="61647160"
   class="fil4"
   d="M 1969,1930 L 1969,1945 C 1971,1945 1974,1945 1976,1945 C 1974,1936 1982,1930 1969,1930 z "
   style="fill:#000000;fill-opacity:1" /><path
   id="61647248"
   class="fil4"
   d="M 2751,1764 C 2751,1767 2751,1769 2751,1772 L 2766,1772 C 2765,1772 2765,1764 2751,1764 z "
   style="fill:#0000ff;fill-opacity:1" /><path
   id="61647336"
   class="fil4"
   d="M 2683,1727 C 2683,1727 2683,1748 2683,1749 C 2701,1749 2701,1727 2683,1727 z "
   style="fill:#0000ff;fill-opacity:1" /><path
   id="61647424"
   class="fil4"
   d="M 2541,1699 C 2541,1702 2541,1704 2541,1707 C 2559,1707 2583,1703 2601,1707 C 2601,1709 2601,1712 2601,1714 C 2610,1716 2614,1714 2623,1714 C 2623,1717 2623,1719 2623,1722 C 2660,1724 2604,1723 2631,1714 C 2640,1711 2644,1717 2653,1714 C 2709,1695 2595,1710 2661,1707 C 2661,1709 2661,1712 2661,1714 C 2679,1714 2703,1711 2721,1714 C 2721,1717 2721,1719 2721,1722 C 2726,1722 2740,1721 2744,1722 C 2744,1724 2744,1727 2744,1729 C 2754,1731 2771,1725 2781,1729 L 2789,1744 C 2799,1748 2815,1741 2827,1744 C 2827,1747 2827,1750 2827,1752 L 2842,1752 C 2842,1755 2842,1757 2842,1759 C 2848,1761 2859,1756 2864,1759 C 2864,1762 2864,1765 2864,1767 C 2881,1775 2886,1789 2902,1797 C 2902,1800 2902,1802 2902,1805 C 2908,1809 2917,1807 2924,1812 C 2924,1812 2911,1832 2909,1835 C 2897,1832 2905,1833 2894,1827 C 2897,1837 2891,1847 2894,1857 C 2897,1857 2899,1857 2902,1857 L 2902,1872 L 2917,1880 L 2917,1895 C 2919,1895 2922,1895 2924,1895 C 2926,1909 2918,1900 2909,1902 C 2905,1920 2909,1920 2902,1932 C 2916,1940 2919,1931 2924,1947 C 2922,1947 2919,1947 2917,1947 C 2915,1951 2912,1961 2909,1963 C 2907,1963 2904,1963 2902,1963 C 2902,1963 2890,1986 2894,1985 C 2911,1979 2903,2018 2909,2030 C 2909,2030 2920,2035 2924,2038 L 2924,2053 L 2939,2053 C 2967,2075 2917,2053 2947,2068 C 2947,2070 2947,2073 2947,2075 L 2962,2075 C 2958,2082 2962,2097 2962,2105 C 2934,2105 2972,2104 2954,2113 C 2952,2111 2928,2108 2947,2121 L 2947,2136 C 2949,2136 2952,2136 2954,2136 C 2957,2136 2960,2136 2962,2136 C 2965,2147 2951,2141 2954,2158 C 2957,2158 2960,2158 2962,2158 L 2962,2173 C 2964,2173 2967,2173 2969,2173 C 2969,2173 2983,2193 2984,2196 C 2987,2196 2990,2196 2992,2196 L 2992,2211 C 2995,2211 2997,2211 3000,2211 C 3000,2211 2999,2229 2992,2218 C 2996,2231 2994,2231 3000,2241 C 3002,2241 3005,2241 3007,2241 L 3007,2256 C 3010,2256 3012,2256 3015,2256 C 3015,2261 3015,2274 3015,2278 C 3012,2278 3010,2278 3007,2278 C 3004,2294 3005,2316 3007,2331 C 3010,2331 3012,2331 3015,2331 C 3016,2342 3015,2349 3015,2361 C 3017,2361 3020,2361 3022,2361 C 3024,2373 3019,2380 3022,2391 C 3019,2393 2994,2397 2992,2399 L 2992,2414 C 2989,2414 2987,2414 2984,2414 C 2980,2436 2983,2438 2977,2459 C 2967,2460 2962,2474 2962,2474 C 2941,2480 2942,2461 2924,2467 L 2924,2482 C 2909,2489 2922,2472 2917,2489 C 2916,2489 2895,2488 2894,2489 C 2890,2494 2894,2512 2894,2519 C 2873,2530 2898,2506 2887,2527 C 2862,2527 2836,2527 2811,2527 C 2811,2529 2811,2532 2811,2534 C 2796,2536 2773,2529 2759,2534 C 2758,2535 2759,2556 2759,2557 C 2741,2556 2749,2565 2736,2564 C 2736,2562 2736,2559 2736,2557 C 2725,2557 2709,2554 2699,2557 L 2684,2579 C 2679,2581 2632,2587 2631,2587 C 2631,2587 2624,2573 2616,2572 C 2614,2586 2616,2602 2616,2617 C 2602,2624 2611,2607 2608,2625 C 2599,2620 2582,2625 2571,2625 C 2567,2613 2576,2613 2563,2609 C 2563,2607 2563,2605 2563,2602 C 2561,2602 2558,2602 2556,2602 C 2554,2603 2556,2622 2556,2625 C 2553,2625 2548,2632 2548,2632 C 2537,2636 2529,2628 2518,2632 C 2518,2635 2518,2637 2518,2640 C 2504,2643 2499,2648 2480,2647 C 2480,2645 2480,2642 2480,2640 C 2470,2640 2452,2643 2443,2640 L 2435,2625 C 2414,2618 2395,2624 2375,2617 L 2368,2602 C 2361,2598 2320,2591 2307,2594 C 2307,2597 2307,2600 2307,2602 C 2295,2609 2282,2626 2262,2625 L 2247,2602 C 2239,2598 2227,2604 2217,2602 C 2217,2599 2217,2597 2217,2594 C 2199,2594 2175,2596 2157,2594 C 2150,2574 2161,2574 2149,2572 C 2136,2569 2118,2572 2104,2572 C 2104,2574 2104,2577 2104,2579 C 2076,2581 2072,2570 2044,2572 C 2044,2574 2044,2577 2044,2579 C 2032,2579 2019,2582 2007,2579 L 1992,2557 L 1976,2557 L 1961,2534 L 1946,2534 C 1945,2534 1940,2522 1939,2519 C 1936,2519 1934,2519 1931,2519 C 1931,2517 1931,2514 1931,2512 L 1916,2512 C 1914,2510 1902,2490 1901,2489 L 1886,2489 C 1886,2489 1880,2476 1879,2474 L 1864,2474 C 1860,2471 1861,2453 1856,2452 L 1841,2452 L 1841,2436 L 1811,2414 C 1805,2404 1812,2397 1803,2391 L 1788,2391 C 1788,2389 1788,2386 1788,2384 L 1773,2384 C 1773,2381 1773,2379 1773,2376 C 1767,2375 1757,2379 1751,2376 C 1751,2374 1751,2371 1751,2369 C 1747,2369 1733,2369 1728,2369 L 1728,2354 C 1722,2351 1712,2355 1706,2354 C 1706,2351 1706,2349 1706,2346 C 1702,2346 1688,2347 1683,2346 C 1683,2344 1683,2341 1683,2339 C 1676,2338 1668,2339 1661,2339 C 1661,2341 1661,2344 1661,2346 C 1649,2348 1642,2345 1630,2346 L 1630,2331 C 1635,2332 1649,2331 1653,2331 C 1653,2329 1653,2326 1653,2324 C 1634,2319 1632,2321 1615,2316 C 1617,2303 1613,2292 1615,2278 C 1618,2278 1621,2278 1623,2278 C 1623,2265 1626,2247 1623,2233 C 1620,2233 1618,2233 1615,2233 L 1615,2218 L 1593,2203 C 1590,2196 1590,2166 1593,2158 L 1615,2143 C 1626,2133 1630,2120 1645,2113 C 1645,2110 1645,2108 1645,2105 C 1662,2097 1657,2116 1676,2113 L 1683,2098 C 1695,2093 1712,2098 1721,2090 C 1721,2090 1728,2053 1728,2053 L 1743,2053 C 1745,2052 1749,2040 1751,2038 L 1766,2038 C 1773,2027 1767,1994 1773,1985 C 1774,1983 1794,1985 1796,1985 C 1797,1982 1803,1970 1803,1970 C 1806,1970 1809,1970 1811,1970 L 1811,1955 C 1811,1955 1798,1948 1796,1947 C 1796,1933 1795,1924 1796,1910 C 1798,1910 1801,1910 1803,1910 C 1805,1900 1811,1857 1811,1857 L 1781,1835 C 1784,1826 1793,1825 1788,1812 C 1786,1812 1783,1812 1781,1812 C 1778,1812 1776,1812 1773,1812 L 1773,1797 C 1776,1797 1779,1797 1781,1797 C 1781,1797 1795,1777 1796,1774 C 1809,1776 1820,1774 1834,1774 C 1834,1777 1834,1780 1834,1782 C 1846,1783 1866,1779 1879,1782 C 1879,1785 1879,1787 1879,1790 C 1886,1791 1894,1788 1901,1790 C 1901,1792 1901,1795 1901,1797 C 1908,1797 1917,1796 1924,1797 C 1924,1800 1924,1802 1924,1805 C 1936,1807 1949,1802 1961,1805 C 1961,1807 1961,1810 1961,1812 C 1978,1814 1998,1809 2014,1812 C 2014,1815 2014,1817 2014,1820 C 2031,1823 2043,1822 2059,1827 C 2059,1830 2059,1832 2059,1835 C 2077,1838 2095,1829 2112,1835 L 2119,1850 C 2128,1853 2133,1847 2142,1850 C 2142,1852 2142,1855 2142,1857 L 2157,1857 C 2157,1860 2157,1862 2157,1865 C 2164,1866 2173,1863 2180,1865 C 2189,1844 2167,1867 2187,1857 C 2187,1850 2184,1841 2187,1835 L 2202,1827 C 2203,1824 2200,1807 2202,1805 C 2207,1799 2221,1804 2225,1797 C 2230,1786 2222,1792 2217,1790 C 2223,1773 2209,1790 2225,1782 L 2225,1767 C 2225,1767 2239,1760 2240,1759 C 2240,1757 2240,1755 2240,1752 L 2255,1752 C 2255,1755 2255,1757 2255,1759 C 2269,1762 2287,1773 2307,1767 C 2313,1765 2302,1748 2307,1744 C 2312,1742 2326,1744 2330,1744 C 2333,1734 2332,1724 2338,1722 C 2344,1719 2354,1723 2360,1722 C 2360,1719 2360,1717 2360,1714 C 2388,1714 2416,1716 2443,1714 C 2443,1712 2443,1709 2443,1707 C 2469,1707 2509,1715 2533,1707 C 2569,1694 2495,1698 2541,1699 z "
   style="fill:#0000cc;fill-opacity:1" /><g
   id="g2491"><path
     style="fill:#000000;fill-opacity:1"
     d="M -2235,3543 L -2399,3543 L -2399,3067 L -2590,3067 L -2590,2945 L -2044,2945 L -2044,3067 L -2235,3067 L -2235,3543 z "
     class="fil5"
     id="61647600" /><path
     style="fill:#000000;fill-opacity:1"
     d="M -225,3067 L -505,3067 L -505,3178 L -244,3178 L -244,3298 L -505,3298 L -505,3420 L -222,3420 L -222,3543 L -664,3543 L -664,2945 L -225,2945 L -225,3067 z "
     class="fil5"
     id="61647688" /><path
     style="fill:#000000;fill-opacity:1"
     d="M -1,2945 L -1,3543 L -165,3543 L -165,2945 L -1,2945 z "
     class="fil5"
     id="61647776" /><path
     style="fill:#000000;fill-opacity:1"
     d="M -1294,2945 L -1294,3543 L -1458,3543 L -1458,2945 L -1294,2945 z "
     class="fil5"
     id="61647864" /><path
     style="fill:#000000;fill-opacity:1"
     d="M -1046,3543 L -1205,3543 L -1205,2945 L -940,2945 C -850,2945 -807,2955 -768,2985 C -728,3015 -704,3070 -704,3133 C -704,3211 -736,3273 -788,3299 C -829,3319 -870,3326 -956,3326 L -1046,3326 L -1046,3543 z M -1002,3215 C -910,3215 -878,3195 -878,3136 C -878,3084 -909,3062 -985,3062 L -1046,3062 L -1046,3215 L -1002,3215 z "
     class="fil5"
     id="61647952" /><path
     style="fill:#000000;fill-opacity:1"
     d="M -1984,3426 L -2029,3543 L -2192,3543 L -1931,2945 L -1739,2945 L -1472,3543 L -1654,3543 L -1703,3426 L -1984,3426 z M -1845,3073 L -1939,3310 L -1750,3310 L -1845,3073 z "
     class="fil5"
     id="61648040" /></g><path
   style="fill:#007f00;fill-opacity:1;stroke-width:14.00009918;stroke-miterlimit:4;stroke-dasharray:none"
   d="M 1139,1936 C 1149,1936 1143,1944 1144,1952 L 1134,1952 C 1135,1944 1129,1936 1139,1936 z "
   class="fil6"
   id="61648216" /><path
   style="fill:#007f00;fill-opacity:1;stroke-width:14.00009918;stroke-miterlimit:4;stroke-dasharray:none"
   d="M 1144,2400 C 1160,2392 1153,2413 1155,2421 C 1153,2421 1151,2421 1149,2421 C 1149,2422 1144,2431 1144,2432 C 1130,2438 1130,2418 1139,2421 C 1139,2419 1138,2400 1139,2400 C 1141,2400 1142,2400 1144,2400 z "
   class="fil6"
   id="61648304" /><path
   style="fill:#007f00;fill-opacity:1;stroke-width:14.00009918;stroke-miterlimit:4;stroke-dasharray:none"
   d="M 1139,2437 C 1157,2422 1135,2472 1134,2474 C 1126,2480 1129,2469 1128,2468 C 1125,2478 1123,2463 1123,2463 L 1134,2458 C 1135,2453 1134,2442 1134,2437 C 1135,2437 1137,2437 1139,2437 z "
   class="fil6"
   id="61648392" /><path
   style="fill:#007f00;fill-opacity:1;stroke-width:14.00009918;stroke-miterlimit:4;stroke-dasharray:none"
   d="M 1223,2442 C 1223,2444 1223,2446 1223,2447 C 1232,2447 1229,2456 1223,2453 C 1223,2454 1223,2456 1223,2458 C 1215,2457 1215,2443 1223,2442 z "
   class="fil6"
   id="61648480" /><path
   style="fill:#007f00;fill-opacity:1;stroke-width:14.00009918;stroke-miterlimit:4;stroke-dasharray:none"
   d="M 1255,2442 C 1275,2442 1256,2450 1265,2458 C 1261,2458 1254,2457 1250,2458 C 1250,2456 1250,2454 1250,2453 C 1240,2460 1245,2442 1255,2442 z "
   class="fil6"
   id="61648568" /><path
   style="fill:#007f00;fill-opacity:1;stroke-width:14.00009918;stroke-miterlimit:4;stroke-dasharray:none"
   d="M 1134,2490 C 1143,2487 1140,2495 1134,2495 C 1134,2497 1134,2498 1134,2500 C 1124,2502 1128,2491 1134,2490 z "
   class="fil6"
   id="61648656" /><path
   style="fill:#007f00;fill-opacity:1;stroke-width:14.00009918;stroke-miterlimit:4;stroke-dasharray:none"
   d="M 1186,2569 C 1172,2574 1192,2574 1192,2574 C 1191,2576 1187,2584 1186,2584 C 1176,2588 1171,2577 1181,2579 C 1183,2570 1177,2571 1186,2569 z "
   class="fil6"
   id="61648744" /><path
   style="fill:#007f00;fill-opacity:1;stroke-width:14.00009918;stroke-miterlimit:4;stroke-dasharray:none"
   d="M 1218,2569 C 1218,2570 1218,2572 1218,2574 L 1218,2584 C 1216,2584 1215,2584 1213,2584 C 1213,2583 1213,2581 1213,2579 C 1202,2586 1209,2568 1218,2569 z "
   class="fil6"
   id="61648832" /><path
   style="fill:#007f00;fill-opacity:1;stroke-width:14.00009918;stroke-miterlimit:4;stroke-dasharray:none"
   d="M 1012,2737 C 1056,2737 1007,2748 1007,2748 C 1009,2741 1002,2737 1012,2737 z "
   class="fil6"
   id="61648920" /><path
   style="fill:#007f00;fill-opacity:1;stroke-width:14.00009918;stroke-miterlimit:4;stroke-dasharray:none"
   d="M 1086,2764 C 1096,2763 1091,2782 1091,2790 L 1081,2790 C 1077,2789 1073,2769 1081,2774 C 1083,2767 1076,2764 1086,2764 z "
   class="fil6"
   id="61649008" /><path
   style="fill:#007f00;fill-opacity:1;stroke-width:14.00009918;stroke-miterlimit:4;stroke-dasharray:none"
   d="M 1113,2785 C 1113,2796 1110,2786 1118,2790 C 1118,2808 1118,2825 1118,2843 C 1114,2843 1099,2840 1097,2843 L 1097,2832 C 1096,2831 1088,2828 1086,2827 L 1086,2816 L 1102,2811 C 1104,2806 1102,2795 1102,2790 C 1104,2789 1112,2786 1113,2785 z "
   class="fil6"
   id="61649096" /><path
   style="fill:#007f00;fill-opacity:1;stroke-width:14.00009918;stroke-miterlimit:4;stroke-dasharray:none"
   d="M 970,3033 C 978,3037 965,3043 965,3043 C 966,3039 962,3028 970,3033 z "
   class="fil6"
   id="61649184" /><path
   style="fill:#007f00;fill-opacity:1;stroke-width:14.00009918;stroke-miterlimit:4;stroke-dasharray:none"
   d="M 1049,3059 C 1074,3059 1037,3055 1055,3064 C 1050,3063 1034,3059 1049,3059 z "
   class="fil6"
   id="61649272" /><path
   style="fill:#007f00;fill-opacity:1;stroke-width:14.00009918;stroke-miterlimit:4;stroke-dasharray:none"
   d="M 1176,3075 C 1185,3073 1180,3089 1181,3096 C 1172,3098 1173,3092 1171,3101 C 1159,3101 1164,3099 1160,3096 C 1144,3084 1162,3083 1171,3080 C 1212,3066 1127,3083 1176,3075 z "
   class="fil6"
   id="61649360" /><path
   style="fill:#007f00;fill-opacity:1;stroke-width:14.00009918;stroke-miterlimit:4;stroke-dasharray:none"
   d="M 960,3101 C 969,3101 964,3114 965,3122 L 954,3122 C 955,3114 950,3101 960,3101 z "
   class="fil6"
   id="61649448" /><path
   style="fill:#007f00;fill-opacity:1;stroke-width:14.00009918;stroke-miterlimit:4;stroke-dasharray:none"
   d="M 1044,3128 C 1044,3129 1044,3131 1044,3133 C 1053,3137 1047,3138 1049,3149 C 1047,3147 1041,3153 1039,3154 C 1039,3152 1039,3150 1039,3149 C 1035,3165 1035,3140 1033,3133 C 1035,3133 1037,3133 1039,3133 C 1044,3129 1032,3125 1044,3128 z "
   class="fil6"
   id="61649536" /><path
   style="fill:#007f00;fill-opacity:1;stroke-width:14.00009918;stroke-miterlimit:4;stroke-dasharray:none"
   d="M 1028,3164 C 1046,3166 1048,3180 1028,3180 L 1028,3170 C 1020,3170 1020,3164 1028,3164 z "
   class="fil6"
   id="61649624" /><path
   style="fill:#007f00;fill-opacity:1;stroke-width:14.00009918;stroke-miterlimit:4;stroke-dasharray:none"
   d="M 1107,3175 C 1128,3171 1128,3189 1118,3186 C 1114,3195 1116,3201 1113,3201 C 1113,3201 1103,3196 1102,3196 C 1103,3187 1097,3177 1107,3175 z "
   class="fil6"
   id="61649712" /><path
   style="fill:#007f00;fill-opacity:1;stroke:#ffffff;stroke-width:14.00009918;stroke-miterlimit:4;stroke-dasharray:none"
   d="M 1091,3212 C 1091,3214 1091,3216 1091,3217 C 1103,3214 1101,3214 1113,3212"
   class="fil7 str0"
   id="61649800" /><path
   style="fill:#007f00;fill-opacity:1;stroke:#ffffff;stroke-width:14.00009918;stroke-miterlimit:4;stroke-dasharray:none"
   d="M 1113,3212 L 1113,3222"
   class="fil7 str0"
   id="61649888" /><path
   style="fill:#007f00;fill-opacity:1;stroke:#ffffff;stroke-width:14.00009918;stroke-miterlimit:4;stroke-dasharray:none"
   d="M 1113,3222 C 1109,3222 1100,3221 1097,3222 C 1098,3233 1099,3225 1107,3228 C 1104,3249 1105,3255 1102,3275 C 1109,3279 1114,3271 1118,3270 C 1118,3272 1118,3274 1118,3275 C 1120,3275 1121,3275 1123,3275 C 1124,3281 1123,3290 1123,3296 C 1135,3302 1123,3288 1128,3302 C 1121,3306 1119,3304 1107,3307 C 1106,3317 1109,3308 1102,3312"
   class="fil7 str0"
   id="61649976" /><path
   style="fill:#007f00;fill-opacity:1;stroke:#ffffff;stroke-width:14.00009918;stroke-miterlimit:4;stroke-dasharray:none"
   d="M 1102,3312 L 1102,3323"
   class="fil7 str0"
   id="61650064" /><path
   style="fill:#007f00;fill-opacity:1;stroke:#ffffff;stroke-width:14.00009918;stroke-miterlimit:4;stroke-dasharray:none"
   d="M 1102,3323 C 1104,3323 1106,3323 1107,3323 C 1104,3331 1104,3327 1102,3338 C 1095,3338 1082,3336 1076,3338 C 1079,3326 1077,3329 1081,3317 C 1083,3317 1085,3317 1086,3317 C 1086,3314 1086,3305 1086,3302 C 1084,3302 1083,3302 1081,3302 C 1078,3284 1081,3261 1081,3244"
   class="fil7 str0"
   id="60929456" /><path
   style="fill:#007f00;fill-opacity:1;stroke:#ffffff;stroke-width:14.00009918;stroke-miterlimit:4;stroke-dasharray:none"
   d="M 1081,3244 L 1091,3244"
   class="fil7 str0"
   id="60929544" /><path
   style="fill:#007f00;fill-opacity:1;stroke:#ffffff;stroke-width:14.00009918;stroke-miterlimit:4;stroke-dasharray:none"
   d="M 1091,3244 C 1094,3235 1089,3218 1086,3228 C 1083,3226 1090,3216 1081,3222 C 1081,3222 1089,3202 1091,3212"
   class="fil7 str0"
   id="60929632" /><path
   style="fill:#007f00;fill-opacity:1;stroke-width:14.00009918;stroke-miterlimit:4;stroke-dasharray:none"
   d="M 997,3222 C 999,3222 1009,3222 1012,3222 C 1011,3230 1010,3226 1007,3233 C 1005,3233 1004,3233 1002,3233 C 997,3245 1004,3262 1002,3275 C 1000,3275 998,3275 997,3275 C 997,3278 997,3288 997,3291 C 1002,3294 1002,3287 1002,3296 C 1000,3296 998,3296 997,3296 C 997,3306 997,3313 997,3323 C 993,3323 978,3320 975,3323 C 975,3324 975,3326 975,3328 C 987,3331 986,3329 997,3333 C 995,3342 997,3350 997,3360 C 995,3360 993,3360 991,3360 C 990,3371 995,3386 991,3396 L 981,3402 C 978,3408 983,3411 981,3418 C 982,3418 984,3418 986,3418 C 985,3420 986,3430 986,3433 C 980,3436 981,3428 981,3439 C 981,3440 981,3442 981,3444 C 984,3445 998,3445 1002,3444 L 1002,3433 C 1007,3433 1017,3435 1023,3433 C 1023,3435 1023,3437 1023,3439 C 1013,3442 1014,3440 1007,3444 L 1018,3460 C 1029,3463 1033,3454 1033,3454 C 1037,3454 1046,3455 1049,3454 C 1049,3454 1057,3465 1033,3465 L 1033,3476 C 1035,3476 1037,3476 1039,3476 C 1036,3485 1040,3479 1044,3481 L 1044,3491 C 1042,3492 1034,3495 1033,3497 L 1033,3507 C 1040,3511 1040,3509 1049,3512 C 1049,3514 1052,3535 1044,3528 C 1040,3530 1049,3539 1039,3534 C 1039,3539 1040,3550 1039,3555 L 1028,3555 C 1025,3544 1031,3549 1023,3544 C 1023,3544 1026,3502 1028,3518 C 1025,3511 1014,3510 1012,3507 C 1010,3502 1009,3473 1007,3465 C 1006,3465 991,3465 991,3465 C 987,3474 990,3467 981,3470 C 979,3488 978,3491 975,3507 C 977,3507 979,3507 981,3507 C 981,3514 978,3527 981,3534 L 997,3539 C 997,3539 1001,3556 1002,3560 C 1004,3560 1005,3560 1007,3560 L 1007,3570 C 1009,3570 1011,3570 1012,3570 L 1007,3586 C 1004,3586 994,3584 991,3586 C 985,3581 990,3573 991,3560 C 991,3560 976,3560 975,3560 C 974,3565 975,3575 975,3581 C 974,3581 965,3586 965,3586 C 965,3586 967,3601 970,3592 C 970,3592 973,3606 975,3597 C 975,3602 974,3612 975,3618 C 969,3615 966,3620 960,3618 C 958,3617 955,3608 954,3607 C 951,3605 937,3604 933,3602 C 935,3597 932,3591 933,3586 C 935,3586 937,3586 939,3586 C 939,3583 938,3574 939,3570 C 940,3570 942,3570 944,3570 C 944,3566 945,3559 944,3555 C 944,3555 938,3554 939,3544 C 940,3544 942,3544 944,3544 C 944,3538 945,3529 944,3523 C 942,3523 940,3523 939,3523 C 939,3520 939,3510 939,3507 C 944,3504 943,3505 949,3502 C 949,3500 949,3498 949,3497 C 952,3498 956,3503 960,3502 C 959,3499 960,3489 960,3486 C 958,3486 956,3486 954,3486 C 951,3470 959,3448 954,3433 C 953,3433 951,3433 949,3433 C 949,3432 949,3430 949,3428 L 939,3428 C 936,3421 936,3411 933,3407 L 923,3402 L 923,3391 L 933,3391 C 936,3397 935,3396 939,3402 C 940,3402 942,3402 944,3402 L 944,3412 L 954,3412 C 954,3392 954,3369 954,3349 C 957,3347 974,3340 975,3338 C 975,3337 975,3335 975,3333 C 972,3333 963,3334 960,3333 C 961,3332 960,3315 960,3312 L 970,3312 C 970,3310 970,3309 970,3307 L 960,3307 C 960,3301 961,3291 960,3286 C 961,3286 963,3286 965,3286 L 965,3275 C 967,3275 968,3275 970,3275 C 971,3265 970,3272 965,3270 L 965,3259 C 967,3259 968,3259 970,3259 C 972,3249 969,3238 970,3228 C 975,3228 986,3229 991,3228 C 1027,3215 954,3229 997,3222 z "
   class="fil6"
   id="60929720" /><path
   style="fill:#007f00;fill-opacity:1;stroke-width:14.00009918;stroke-miterlimit:4;stroke-dasharray:none"
   d="M 1049,3296 C 1092,3296 1044,3307 1044,3307 C 1046,3300 1039,3296 1049,3296 z "
   class="fil6"
   id="60929808" /><path
   style="fill:#007f00;fill-opacity:1;stroke-width:14.00009918;stroke-miterlimit:4;stroke-dasharray:none"
   d="M 1118,3317 C 1131,3314 1118,3333 1118,3333 C 1107,3335 1112,3319 1118,3317 z "
   class="fil6"
   id="60929896" /><path
   style="fill:#007f00;fill-opacity:1;stroke-width:14.00009918;stroke-miterlimit:4;stroke-dasharray:none"
   d="M 939,3328 C 976,3328 933,3338 933,3338 C 935,3331 928,3328 939,3328 z "
   class="fil6"
   id="60929984" /><path
   style="fill:#007f00;fill-opacity:1;stroke-width:14.00009918;stroke-miterlimit:4;stroke-dasharray:none"
   d="M 1018,3354 C 1036,3356 1032,3372 1018,3370 C 1018,3368 1018,3367 1018,3365 C 1007,3365 1011,3354 1018,3354 z "
   class="fil6"
   id="60930072" /><path
   style="fill:#007f00;fill-opacity:1;stroke-width:14.00009918;stroke-miterlimit:4;stroke-dasharray:none"
   d="M 1044,3354 C 1054,3355 1048,3362 1049,3370 L 1039,3370 C 1039,3368 1039,3367 1039,3365 C 1029,3371 1034,3353 1044,3354 z "
   class="fil6"
   id="60930160" /><path
   style="fill:#007f00;fill-opacity:1;stroke-width:14.00009918;stroke-miterlimit:4;stroke-dasharray:none"
   d="M 1012,3375 C 1014,3375 1016,3375 1018,3375 C 1021,3389 1019,3390 1023,3402 L 1033,3402 C 1039,3399 1031,3393 1049,3391 C 1048,3405 1049,3419 1049,3433 C 1044,3432 1033,3433 1028,3433 L 1028,3423 C 1028,3423 1044,3423 1033,3418 C 1017,3409 1025,3416 1007,3418 C 1006,3395 997,3387 1012,3375 z "
   class="fil6"
   id="60930248" /><path
   style="fill:#007f00;fill-opacity:1;stroke-width:14.00009918;stroke-miterlimit:4;stroke-dasharray:none"
   d="M 1065,3428 C 1075,3428 1069,3441 1070,3449 L 1060,3449 C 1061,3441 1055,3428 1065,3428 z "
   class="fil6"
   id="60930336" /><path
   style="fill:#007f00;fill-opacity:1;stroke-width:14.00009918;stroke-miterlimit:4;stroke-dasharray:none"
   d="M 933,3439 C 929,3441 939,3460 939,3460 C 937,3460 935,3460 933,3460 C 933,3462 933,3463 933,3465 C 916,3476 923,3442 933,3439 z "
   class="fil6"
   id="60930424" /><path
   style="fill:#007f00;fill-opacity:1;stroke-width:14.00009918;stroke-miterlimit:4;stroke-dasharray:none"
   d="M 1086,3439 C 1131,3439 1081,3449 1081,3449 C 1083,3442 1076,3439 1086,3439 z "
   class="fil6"
   id="60930512" /><path
   style="fill:#007f00;fill-opacity:1;stroke-width:14.00009918;stroke-miterlimit:4;stroke-dasharray:none"
   d="M 1134,3444 C 1167,3444 1128,3454 1128,3454 C 1130,3447 1123,3444 1134,3444 z "
   class="fil6"
   id="60930600" /><path
   style="fill:#007f00;fill-opacity:1;stroke-width:14.00009918;stroke-miterlimit:4;stroke-dasharray:none"
   d="M 1081,3460 C 1092,3455 1082,3485 1081,3491 C 1079,3491 1077,3491 1076,3491 C 1076,3493 1076,3495 1076,3497 L 1065,3497 C 1068,3487 1063,3493 1060,3491 C 1068,3476 1064,3467 1081,3460 z "
   class="fil6"
   id="60930688" /><path
   style="fill:#007f00;fill-opacity:1;stroke-width:14.00009918;stroke-miterlimit:4;stroke-dasharray:none"
   d="M 1070,3507 C 1087,3510 1082,3535 1070,3534 C 1070,3532 1070,3530 1070,3528 C 1056,3528 1058,3505 1070,3507 z "
   class="fil6"
   id="60930776" /><path
   style="fill:#007f00;fill-opacity:1;stroke-width:14.00009918;stroke-miterlimit:4;stroke-dasharray:none"
   d="M 1007,3534 C 1015,3538 1002,3544 1002,3544 C 1003,3540 998,3529 1007,3534 z "
   class="fil6"
   id="60930864" /><path
   style="fill:#007f00;fill-opacity:1;stroke-width:14.00009918;stroke-miterlimit:4;stroke-dasharray:none"
   d="M 1028,3565 C 1033,3578 1022,3565 1033,3570 C 1033,3576 1032,3586 1033,3592 C 1044,3587 1035,3594 1039,3597 C 1041,3597 1042,3597 1044,3597 C 1044,3597 1039,3606 1039,3607 C 1034,3607 1027,3606 1023,3607 L 1018,3581 C 1019,3581 1021,3581 1023,3581 C 1023,3578 1022,3568 1023,3565 C 1025,3565 1026,3565 1028,3565 z "
   class="fil6"
   id="60930952" /><path
   style="fill:#007f00;fill-opacity:1;stroke-width:14.00009918;stroke-miterlimit:4;stroke-dasharray:none"
   d="M 997,3592 C 1012,3590 1017,3607 1007,3602 C 1007,3604 1007,3606 1007,3607 C 1004,3606 994,3607 991,3607 C 993,3599 986,3592 997,3592 z "
   class="fil6"
   id="60931040" /><path
   style="fill:#007f00;fill-opacity:1;stroke-width:14.00009918;stroke-miterlimit:4;stroke-dasharray:none"
   d="M 1049,3607 L 1060,3623 C 1064,3625 1076,3623 1081,3623 L 1081,3634 C 1080,3634 1070,3639 1070,3639 C 1067,3649 1074,3661 1070,3671 C 1070,3672 1060,3674 1060,3676 C 1061,3676 1055,3666 1055,3665 C 1052,3674 1049,3655 1049,3655 C 1066,3663 1058,3637 1060,3628 C 1056,3627 1048,3628 1044,3628 L 1044,3618 C 1042,3618 1041,3618 1039,3618 C 1041,3617 1035,3605 1044,3613 C 1052,3608 1034,3604 1049,3607 z "
   class="fil6"
   id="60931128" /><path
   style="fill:#007f00;fill-opacity:1;stroke-width:14.00009918;stroke-miterlimit:4;stroke-dasharray:none"
   d="M 1023,3613 C 1031,3617 1018,3623 1018,3623 C 1018,3620 1014,3608 1023,3613 z "
   class="fil6"
   id="60931216" /><path
   style="fill:#007f00;fill-opacity:1;stroke-width:14.00009918;stroke-miterlimit:4;stroke-dasharray:none"
   d="M 1033,3655 C 1039,3656 1043,3667 1033,3665 C 1033,3664 1033,3662 1033,3660 C 1027,3660 1024,3652 1033,3655 z "
   class="fil6"
   id="60931304" /><path
   style="fill:#007f00;fill-opacity:1;stroke-width:14.00009918;stroke-miterlimit:4;stroke-dasharray:none"
   d="M 1023,3660 L 1023,3671 C 1005,3675 1015,3662 1023,3660 z "
   class="fil6"
   id="60931392" /><path
   style="fill:#007f00;fill-opacity:1;stroke-width:14.00009918;stroke-miterlimit:4;stroke-dasharray:none"
   d="M 1055,3692 C 1083,3690 1055,3700 1070,3708 C 1070,3709 1070,3711 1070,3713 C 1074,3714 1083,3710 1086,3713 C 1089,3715 1083,3731 1086,3734 C 1069,3733 1068,3725 1055,3729 C 1053,3729 1057,3734 1044,3734 C 1047,3723 1051,3713 1049,3713 L 1060,3713 C 1060,3711 1060,3709 1060,3708 L 1049,3708 C 1051,3699 1044,3692 1055,3692 z "
   class="fil6"
   id="60931480" /><path
   style="fill:#007f00;fill-opacity:1;stroke-width:14.00009918;stroke-miterlimit:4;stroke-dasharray:none"
   d="M 1012,3708 C 1023,3711 1022,3709 1033,3713 C 1031,3722 1039,3740 1023,3734 L 1012,3718 C 1011,3718 1009,3718 1007,3718 L 1007,3708 C 1009,3708 1011,3708 1012,3708 z "
   class="fil6"
   id="60931568" /><path
   style="fill:#007f00;fill-opacity:1;stroke-width:14.00009918;stroke-miterlimit:4;stroke-dasharray:none"
   d="M 1323,3744 C 1348,3743 1326,3751 1334,3755 C 1330,3754 1322,3755 1318,3755 C 1320,3747 1313,3745 1323,3744 z "
   class="fil6"
   id="60931656" /><path
   style="fill:#007f00;fill-opacity:1;stroke-width:14.00009918;stroke-miterlimit:4;stroke-dasharray:none"
   d="M 1023,3750 C 1022,3759 1023,3752 1028,3755 C 1028,3763 1027,3774 1028,3781 C 1013,3778 1030,3784 1023,3787 C 1018,3788 1012,3785 1007,3787 C 1012,3784 1011,3764 1007,3760 L 1023,3750 z "
   class="fil6"
   id="60931744" /><path
   style="fill:#007f00;fill-opacity:1;stroke-width:14.00009918;stroke-miterlimit:4;stroke-dasharray:none"
   d="M 1055,3750 L 1065,3750 C 1065,3752 1064,3765 1065,3766 C 1067,3767 1080,3764 1081,3766 C 1085,3775 1077,3787 1081,3797 C 1080,3798 1070,3802 1070,3802 C 1070,3802 1060,3787 1060,3787 L 1049,3787 L 1049,3776 C 1045,3774 1042,3780 1039,3781 C 1039,3780 1039,3778 1039,3776 C 1037,3776 1035,3776 1033,3776 C 1033,3775 1034,3761 1033,3760 L 1044,3760 C 1045,3760 1048,3751 1049,3750 C 1051,3750 1053,3750 1055,3750 z "
   class="fil6"
   id="60931832" /><path
   style="fill:#007f00;fill-opacity:1;stroke-width:14.00009918;stroke-miterlimit:4;stroke-dasharray:none"
   d="M 1018,3813 C 1018,3815 1018,3817 1018,3818 C 1023,3816 1033,3824 1012,3829 C 1012,3827 1012,3825 1012,3824 C 1003,3830 1009,3811 1018,3813 z "
   class="fil6"
   id="60931920" /><path
   style="fill:#007f00;fill-opacity:1;stroke-width:14.00009918;stroke-miterlimit:4;stroke-dasharray:none"
   d="M 1018,3834 C 1036,3831 1027,3852 1023,3850 C 1023,3852 1023,3854 1023,3855 L 1012,3855 C 1011,3855 1008,3846 1007,3845 C 1009,3845 1011,3845 1012,3845 C 1015,3836 1007,3836 1018,3834 z "
   class="fil6"
   id="60932008" /><path
   style="fill:#007f00;fill-opacity:1;stroke-width:14.00009918;stroke-miterlimit:4;stroke-dasharray:none"
   d="M 1049,3887 C 1059,3887 1053,3895 1055,3903 L 1044,3903 C 1045,3895 1039,3887 1049,3887 z "
   class="fil6"
   id="60932096" /><path
   style="fill:#007f00;fill-opacity:1;stroke-width:14.00009918;stroke-miterlimit:4;stroke-dasharray:none"
   d="M 1049,3918 C 1059,3917 1053,3927 1055,3934 C 1016,3934 1042,3926 1033,3924 L 1044,3924 C 1060,3918 1027,3920 1049,3918 z "
   class="fil6"
   id="60932184" /><path
   style="fill:#007f00;fill-opacity:1;stroke-width:14.00009918;stroke-miterlimit:4;stroke-dasharray:none"
   d="M 1065,3929 C 1106,3929 1060,3940 1060,3940 C 1062,3932 1055,3929 1065,3929 z "
   class="fil6"
   id="60932272" /><path
   style="fill:#007f00;fill-opacity:1;stroke-width:14.00009918;stroke-miterlimit:4;stroke-dasharray:none"
   d="M 1199,4018 C 1222,4013 1199,4033 1199,4033 C 1178,4040 1187,4021 1199,4018 z "
   class="fil6"
   id="60932360" /><path
   style="fill:#007f00;fill-opacity:1;stroke-width:14.00009918;stroke-miterlimit:4;stroke-dasharray:none"
   d="M 1237,3981 C 1235,3997 1237,4016 1237,4033 C 1228,4029 1228,4039 1229,4026 C 1224,4053 1222,4003 1222,4003 C 1224,4003 1227,4003 1229,4003 C 1230,3999 1229,3986 1229,3981 C 1232,3981 1235,3981 1237,3981 z "
   class="fil6"
   id="60932448" /><path
   style="fill:#007f00;fill-opacity:1;stroke-width:14.00009918;stroke-miterlimit:4;stroke-dasharray:none"
   d="M 1199,3951 C 1199,3951 1218,3994 1199,3981 L 1199,3966 C 1183,3966 1195,3947 1199,3951 z "
   class="fil6"
   id="60932536" /><path
   style="fill:#007f00;fill-opacity:1;stroke-width:14.00009918;stroke-miterlimit:4;stroke-dasharray:none"
   d="M 1049,3853 C 1063,3857 1075,3890 1049,3883 L 1049,3868 C 1019,3875 1043,3851 1049,3853 z "
   class="fil6"
   id="60932624" /><path
   style="fill:#007f00;fill-opacity:1;stroke-width:14.00009918;stroke-miterlimit:4;stroke-dasharray:none"
   d="M 906,3702 C 901,3706 910,3728 906,3732 C 889,3747 893,3708 906,3702 z "
   class="fil6"
   id="60932712" /><path
   style="fill:#007f00;fill-opacity:1;stroke-width:14.00009918;stroke-miterlimit:4;stroke-dasharray:none"
   d="M 981,3657 C 985,3686 984,3702 989,3732 C 986,3732 984,3732 981,3732 C 982,3756 979,3777 981,3800 C 984,3800 986,3800 989,3800 C 989,3815 989,3830 989,3845 C 986,3845 984,3845 981,3845 C 981,3893 981,3941 981,3988 L 996,3988 L 1004,3973 L 1019,3973 C 1019,3971 1019,3968 1019,3966 C 1021,3966 1024,3966 1026,3966 C 1023,3975 1028,3979 1026,3988 C 1024,3988 1021,3988 1019,3988 L 1019,4003 C 1016,4003 1014,4003 1011,4003 C 1011,4005 1019,4048 1019,4048 C 1001,4057 1018,4077 1019,4086 C 1003,4086 1012,4137 1019,4131 C 1019,4134 1019,4136 1019,4139 C 1016,4139 1014,4139 1011,4139 C 1011,4171 1011,4204 1011,4236 C 1000,4242 1008,4241 996,4244 C 996,4246 996,4249 996,4251 C 999,4251 1001,4251 1004,4251 C 1006,4251 1009,4251 1011,4251 C 1011,4252 1011,4252 1011,4252 L 973,4252 C 973,4252 973,4252 974,4251 C 971,4251 969,4251 966,4251 C 966,4249 966,4246 966,4244 C 963,4242 955,4239 951,4236 C 962,4231 931,4229 929,4229 C 939,4237 917,4266 921,4244 C 918,4244 916,4244 913,4244 C 913,4227 916,4208 913,4191 C 927,4195 919,4184 921,4176 L 936,4176 C 935,4177 936,4196 936,4199 C 939,4199 941,4199 944,4199 C 944,4196 944,4194 944,4191 C 946,4191 949,4191 951,4191 L 951,4176 C 954,4176 956,4176 959,4176 L 959,4161 C 949,4159 945,4164 936,4161 C 918,4155 955,4148 929,4154 C 913,4157 946,4163 921,4161 C 918,4144 927,4160 913,4154 C 913,4139 915,4123 913,4109 C 911,4109 909,4109 906,4109 C 905,4094 904,4105 913,4101 C 914,4089 914,4090 906,4086 C 906,4083 906,4081 906,4078 C 909,4078 911,4078 913,4078 C 913,4064 913,4048 913,4033 C 911,4033 909,4033 906,4033 C 910,4008 911,3995 913,3973 L 898,3973 C 901,3961 913,3960 913,3958 C 925,3924 909,3874 913,3838 C 916,3838 919,3838 921,3838 C 921,3824 924,3806 921,3793 C 918,3793 916,3793 913,3793 L 913,3778 C 916,3778 919,3778 921,3778 C 921,3758 927,3728 921,3710 C 921,3710 907,3701 906,3695 C 918,3704 906,3682 921,3687 L 921,3702 C 926,3701 940,3715 944,3717 C 952,3698 932,3719 951,3710 C 951,3702 948,3686 951,3680 L 966,3680 L 966,3665 C 968,3663 981,3658 981,3657 z "
   class="fil6"
   id="60932800" /><path
   style="fill:#007f00;fill-opacity:1;stroke-width:14.00009918;stroke-miterlimit:4;stroke-dasharray:none"
   d="M 951,3657 C 972,3652 951,3680 951,3680 C 938,3682 942,3659 951,3657 z "
   class="fil6"
   id="60932888" /><path
   style="fill:#007f00;fill-opacity:1;stroke-width:14.00009918;stroke-miterlimit:4;stroke-dasharray:none"
   d="M 936,3650 C 933,3659 938,3663 936,3672 C 933,3672 931,3672 929,3672 L 929,3687 C 926,3687 924,3687 921,3687 C 921,3678 918,3665 921,3657 L 936,3650 z "
   class="fil6"
   id="60932976" /><path
   style="fill:#007f00;fill-opacity:1;stroke-width:14.00009918;stroke-miterlimit:4;stroke-dasharray:none"
   d="M 1147,3228 C 1157,3234 1139,3243 1139,3243 C 1140,3239 1135,3223 1147,3228 z "
   class="fil6"
   id="60933064" /><path
   style="fill:#007f00;fill-opacity:1;stroke-width:14.00009918;stroke-miterlimit:4;stroke-dasharray:none"
   d="M 1049,3206 C 1049,3208 1049,3211 1049,3213 C 1059,3205 1055,3231 1056,3236 C 1035,3239 1040,3240 1026,3243 C 1026,3246 1026,3249 1026,3251 C 1024,3251 1021,3251 1019,3251 C 1019,3248 1017,3232 1019,3228 L 1034,3228 L 1034,3213 C 1037,3211 1048,3207 1049,3206 z "
   class="fil6"
   id="60933152" /><path
   style="fill:#007f00;fill-opacity:1;stroke-width:14.00009918;stroke-miterlimit:4;stroke-dasharray:none"
   d="M 1102,3191 C 1112,3196 1094,3206 1094,3206 C 1095,3201 1090,3185 1102,3191 z "
   class="fil6"
   id="60933240" /><path
   style="fill:#007f00;fill-opacity:1;stroke-width:14.00009918;stroke-miterlimit:4;stroke-dasharray:none"
   d="M 1056,3168 C 1050,3171 1063,3197 1064,3198 C 1062,3197 1052,3204 1049,3206 C 1050,3198 1045,3163 1056,3168 z "
   class="fil6"
   id="60933328" /><path
   style="fill:#007f00;fill-opacity:1;stroke-width:14.00009918;stroke-miterlimit:4;stroke-dasharray:none"
   d="M 1079,3116 C 1079,3116 1101,3116 1102,3116 C 1102,3118 1101,3138 1102,3138 C 1104,3138 1107,3138 1109,3138 C 1109,3138 1106,3148 1102,3161 C 1099,3161 1097,3161 1094,3161 L 1094,3146 C 1091,3146 1075,3147 1071,3146 C 1077,3170 1063,3152 1056,3153 C 1056,3143 1059,3133 1056,3123 C 1065,3120 1078,3120 1079,3116 z "
   class="fil6"
   id="60933416" /><path
   style="fill:#007f00;fill-opacity:1;stroke-width:14.00009918;stroke-miterlimit:4;stroke-dasharray:none"
   d="M 1041,3100 C 1074,3099 1046,3110 1056,3116 C 1049,3113 1041,3116 1034,3116 C 1036,3106 1028,3101 1041,3100 z "
   class="fil6"
   id="60933504" /><path
   style="fill:#007f00;fill-opacity:1;stroke-width:14.00009918;stroke-miterlimit:4;stroke-dasharray:none"
   d="M 1109,3063 C 1109,3065 1109,3068 1109,3070 C 1122,3077 1114,3084 1117,3100 L 1102,3100 C 1102,3100 1086,3057 1102,3070 C 1104,3069 1097,3057 1109,3063 z "
   class="fil6"
   id="60933592" /><path
   style="fill:#007f00;fill-opacity:1;stroke-width:14.00009918;stroke-miterlimit:4;stroke-dasharray:none"
   d="M 1199,2943 C 1219,2945 1208,2943 1229,2950 C 1229,2953 1229,2955 1229,2958 C 1219,2958 1209,2961 1199,2958 C 1199,2955 1199,2953 1199,2950 C 1186,2950 1191,2941 1199,2943 z "
   class="fil6"
   id="60933680" /><path
   style="fill:#007f00;fill-opacity:1;stroke-width:14.00009918;stroke-miterlimit:4;stroke-dasharray:none"
   d="M 1026,2912 C 1023,2928 1023,2932 1019,2950 C 1016,2950 1014,2950 1011,2950 C 1011,2953 1011,2955 1011,2958 C 1014,2958 1016,2958 1019,2958 L 1019,2973 C 1016,2973 1014,2973 1011,2973 C 1009,2986 1011,2983 1019,2988 C 1019,2990 1019,2993 1019,2995 C 1004,3003 1014,3043 1011,3063 C 1009,3063 1006,3063 1004,3063 C 1004,3074 1005,3081 1004,3093 C 1001,3093 999,3093 996,3093 C 996,3098 996,3111 996,3116 C 999,3116 1001,3116 1004,3116 C 1006,3129 1004,3147 1004,3161 C 1001,3161 999,3161 996,3161 C 996,3181 997,3200 996,3221 C 987,3221 967,3216 959,3221 C 960,3204 954,3219 966,3213 C 966,3190 965,3170 966,3146 C 968,3145 981,3138 981,3138 C 982,3124 983,3135 974,3131 C 974,3122 976,3116 974,3108 C 971,3108 969,3108 966,3108 C 966,3105 966,3103 966,3100 C 982,3097 970,3084 974,3070 C 976,3070 979,3070 981,3070 C 982,3066 981,3053 981,3048 C 984,3048 986,3048 989,3048 C 991,3036 991,3014 989,3003 C 986,3003 984,3003 981,3003 C 981,2993 980,2989 981,2980 C 984,2980 986,2980 989,2980 C 990,2971 989,2967 989,2958 C 991,2958 994,2958 996,2958 C 998,2946 996,2939 996,2927 C 987,2923 988,2934 989,2920 C 1000,2918 1008,2923 1019,2920 C 1019,2917 1019,2915 1019,2912 C 1021,2912 1024,2912 1026,2912 z "
   class="fil6"
   id="60933768" /><path
   style="fill:#007f00;fill-opacity:1;stroke-width:14.00009918;stroke-miterlimit:4;stroke-dasharray:none"
   d="M 1132,2830 C 1159,2846 1141,2861 1139,2890 C 1137,2890 1134,2890 1132,2890 C 1129,2902 1132,2901 1139,2905 C 1150,2910 1124,2920 1124,2920 C 1125,2923 1132,2943 1132,2943 L 1117,2943 C 1115,2947 1117,2961 1117,2965 C 1105,2958 1104,2982 1102,2988 C 1116,2994 1117,2991 1132,2995 C 1132,2998 1132,3000 1132,3003 C 1129,3003 1127,3003 1124,3003 C 1124,3007 1121,3030 1124,3033 C 1082,3034 1148,3036 1117,3025 C 1106,3022 1090,3025 1079,3025 C 1079,3028 1079,3030 1079,3033 L 1064,3033 C 1064,3030 1064,3028 1064,3025 C 1051,3024 1065,3030 1041,3033 C 1043,3020 1041,3009 1041,2995 C 1054,2989 1047,3004 1049,2988 C 1039,2983 1040,2994 1041,2980 C 1044,2979 1061,2964 1056,2980 C 1059,2980 1062,2980 1064,2980 L 1064,2965 L 1079,2965 C 1077,2953 1088,2962 1086,2943 C 1084,2943 1082,2943 1079,2943 C 1077,2936 1079,2927 1079,2920 C 1065,2913 1075,2930 1071,2912 C 1084,2906 1090,2908 1109,2905 L 1109,2890 C 1109,2890 1096,2883 1094,2882 C 1094,2874 1096,2868 1094,2860 C 1105,2850 1099,2866 1102,2867 L 1117,2867 C 1121,2854 1121,2842 1124,2830 C 1127,2830 1129,2830 1132,2830 z "
   class="fil6"
   id="60933856" /><path
   style="fill:#007f00;fill-opacity:1;stroke-width:14.00009918;stroke-miterlimit:4;stroke-dasharray:none"
   d="M 1192,2822 C 1205,2820 1213,2832 1199,2830 C 1199,2832 1199,2835 1199,2837 C 1184,2836 1168,2842 1184,2830 C 1205,2813 1161,2828 1192,2822 z "
   class="fil6"
   id="60933944" /><path
   style="fill:#007f00;fill-opacity:1;stroke-width:14.00009918;stroke-miterlimit:4;stroke-dasharray:none"
   d="M 1139,2807 C 1150,2813 1132,2822 1132,2822 C 1133,2817 1128,2801 1139,2807 z "
   class="fil6"
   id="60934032" /><path
   style="fill:#007f00;fill-opacity:1;stroke-width:14.00009918;stroke-miterlimit:4;stroke-dasharray:none"
   d="M 1147,2785 C 1164,2780 1146,2788 1154,2792 C 1152,2792 1149,2792 1147,2792 C 1147,2795 1147,2797 1147,2800 C 1131,2803 1140,2786 1147,2785 z "
   class="fil6"
   id="60934120" /><path
   style="fill:#007f00;fill-opacity:1;stroke-width:14.00009918;stroke-miterlimit:4;stroke-dasharray:none"
   d="M 1252,2762 C 1269,2757 1252,2765 1260,2769 C 1257,2769 1255,2769 1252,2769 C 1252,2772 1252,2775 1252,2777 C 1236,2780 1245,2764 1252,2762 z "
   class="fil6"
   id="60934208" /><path
   style="fill:#007f00;fill-opacity:1;stroke-width:14.00009918;stroke-miterlimit:4;stroke-dasharray:none"
   d="M 1260,2717 C 1262,2717 1265,2717 1267,2717 C 1263,2733 1262,2736 1260,2754 C 1246,2754 1250,2714 1260,2717 z "
   class="fil6"
   id="60934296" /><path
   style="fill:#007f00;fill-opacity:1;stroke-width:14.00009918;stroke-miterlimit:4;stroke-dasharray:none"
   d="M 1267,2649 C 1287,2644 1267,2672 1267,2672 C 1254,2674 1259,2651 1267,2649 z "
   class="fil6"
   id="60934384" /><path
   style="fill:#007f00;fill-opacity:1;stroke-width:14.00009918;stroke-miterlimit:4;stroke-dasharray:none"
   d="M 1162,2597 C 1162,2599 1162,2602 1162,2604 C 1172,2609 1170,2611 1177,2619 C 1171,2622 1161,2616 1154,2619 C 1154,2622 1154,2624 1154,2627 C 1144,2631 1142,2636 1132,2642 C 1132,2646 1134,2661 1132,2664 C 1142,2664 1152,2661 1162,2664 C 1163,2662 1177,2642 1177,2642 C 1179,2642 1182,2642 1184,2642 C 1191,2630 1183,2622 1192,2619 L 1207,2619 L 1207,2604 C 1219,2597 1239,2602 1252,2597 C 1251,2598 1238,2618 1237,2619 C 1234,2619 1232,2619 1229,2619 C 1224,2631 1242,2636 1237,2642 C 1224,2654 1229,2653 1222,2672 C 1219,2672 1217,2672 1214,2672 L 1214,2687 C 1212,2687 1209,2687 1207,2687 C 1205,2694 1209,2703 1207,2709 C 1185,2711 1185,2701 1177,2702 C 1177,2704 1177,2707 1177,2709 C 1170,2711 1161,2707 1154,2709 C 1056,2743 1256,2699 1147,2717 C 1151,2734 1154,2754 1154,2754 C 1143,2761 1132,2739 1132,2739 C 1113,2735 1134,2753 1117,2747 C 1117,2750 1117,2752 1117,2754 C 1114,2754 1112,2754 1109,2754 C 1109,2762 1112,2770 1109,2777 L 1094,2785 C 1095,2772 1101,2770 1102,2769 C 1106,2752 1100,2727 1102,2709 L 1117,2709 C 1117,2707 1117,2704 1117,2702 C 1117,2699 1117,2697 1117,2694 C 1111,2694 1099,2696 1094,2694 C 1094,2692 1094,2689 1094,2687 C 1097,2687 1099,2687 1102,2687 C 1102,2683 1104,2650 1102,2649 L 1117,2649 C 1122,2640 1119,2618 1124,2612 L 1139,2612 C 1139,2609 1139,2607 1139,2604 C 1151,2600 1153,2602 1162,2597 z "
   class="fil6"
   id="60934472" /><path
   style="fill:#007f00;fill-opacity:1;stroke-width:14.00009918;stroke-miterlimit:4;stroke-dasharray:none"
   d="M 1244,2551 C 1239,2553 1246,2560 1252,2559 C 1252,2556 1252,2554 1252,2551 C 1255,2551 1257,2551 1260,2551 C 1259,2552 1260,2571 1260,2574 C 1253,2574 1243,2571 1237,2574 C 1237,2577 1237,2579 1237,2581 C 1220,2584 1231,2553 1244,2551 z "
   class="fil6"
   id="60934560" /><path
   style="fill:#007f00;fill-opacity:1;stroke-width:14.00009918;stroke-miterlimit:4;stroke-dasharray:none"
   d="M 1267,2514 C 1278,2519 1260,2529 1260,2529 C 1261,2524 1256,2508 1267,2514 z "
   class="fil6"
   id="60934648" /><path
   style="fill:#007f00;fill-opacity:1;stroke-width:14.00009918;stroke-miterlimit:4;stroke-dasharray:none"
   d="M 1079,2506 C 1073,2548 1073,2571 1079,2612 C 1075,2614 1061,2616 1056,2619 C 1044,2627 1064,2627 1064,2627 C 1060,2658 1061,2659 1056,2687 C 1059,2687 1062,2687 1064,2687 C 1064,2689 1064,2692 1064,2694 L 1049,2702 C 1046,2709 1049,2717 1049,2724 C 1047,2711 1041,2732 1041,2732 C 1044,2732 1047,2732 1049,2732 C 1050,2746 1051,2735 1041,2739 C 1043,2756 1036,2740 1049,2747 C 1049,2759 1048,2772 1049,2785 L 1034,2785 C 1034,2787 1034,2790 1034,2792 C 1031,2792 1029,2792 1026,2792 L 1026,2807 C 1036,2810 1042,2802 1041,2815 C 1039,2815 1036,2815 1034,2815 C 1032,2822 1048,2826 1041,2830 C 1027,2837 1030,2880 1026,2905 L 1011,2905 C 1010,2904 1005,2893 1004,2890 C 1001,2890 999,2890 996,2890 C 994,2888 1012,2867 996,2875 C 1000,2865 984,2868 989,2852 L 1004,2852 C 1008,2840 1008,2826 1011,2815 C 1014,2815 1016,2815 1019,2815 C 1021,2801 1019,2811 1011,2807 C 1013,2782 1010,2762 1019,2747 C 1019,2747 1036,2739 1026,2732 L 1011,2732 C 1009,2724 1026,2720 1019,2717 L 1004,2717 C 1004,2706 1001,2697 1004,2687 C 1005,2679 1001,2688 1026,2679 L 1026,2664 C 1029,2664 1031,2664 1034,2664 C 1037,2656 1019,2653 1026,2649 C 1029,2649 1031,2649 1034,2649 C 1038,2622 1036,2615 1041,2589 C 1039,2589 1036,2589 1034,2589 L 1034,2574 C 1036,2574 1039,2574 1041,2574 C 1044,2573 1047,2561 1049,2559 C 1051,2559 1054,2559 1056,2559 C 1060,2542 1042,2541 1049,2521 C 1049,2521 1076,2509 1079,2506 z "
   class="fil6"
   id="60934736" /><path
   style="fill:#007f00;fill-opacity:1;stroke:#ffffff;stroke-width:14.00009918;stroke-miterlimit:4;stroke-dasharray:none"
   d="M 1244,2491 C 1255,2496 1249,2493 1260,2499 C 1258,2504 1265,2519 1252,2514 C 1252,2511 1252,2509 1252,2506 C 1249,2506 1247,2506 1244,2506 C 1244,2506 1226,2482 1244,2491"
   class="fil7 str0"
   id="60934824" /><path
   style="fill:#007f00;fill-opacity:1;stroke-width:14.00009918;stroke-miterlimit:4;stroke-dasharray:none"
   d="M 1154,2491 C 1162,2498 1164,2494 1177,2499 C 1180,2521 1177,2505 1192,2514 C 1186,2529 1190,2535 1184,2551 C 1148,2657 1196,2442 1177,2559 C 1169,2559 1153,2555 1147,2559 L 1147,2574 C 1136,2579 1142,2576 1132,2581 C 1129,2568 1132,2550 1132,2536 L 1117,2536 L 1117,2551 C 1114,2551 1112,2551 1109,2551 C 1110,2550 1108,2530 1109,2529 C 1113,2526 1127,2529 1132,2529 C 1135,2523 1129,2513 1132,2506 L 1154,2491 z "
   class="fil6"
   id="60934912" /><path
   style="fill:#007f00;fill-opacity:1;stroke-width:14.00009918;stroke-miterlimit:4;stroke-dasharray:none"
   d="M 1086,2491 C 1097,2496 1079,2506 1079,2506 C 1080,2502 1075,2486 1086,2491 z "
   class="fil6"
   id="60935000" /><path
   style="fill:#007f00;fill-opacity:1;stroke-width:14.00009918;stroke-miterlimit:4;stroke-dasharray:none"
   d="M 1282,2469 C 1293,2474 1275,2484 1275,2484 C 1276,2479 1271,2463 1282,2469 z "
   class="fil6"
   id="60935088" /><path
   style="fill:#007f00;fill-opacity:1;stroke-width:14.00009918;stroke-miterlimit:4;stroke-dasharray:none"
   d="M 1079,2401 C 1079,2403 1079,2406 1079,2408 L 1094,2408 C 1099,2384 1101,2415 1102,2416 C 1090,2407 1095,2423 1094,2423 C 1091,2423 1089,2423 1086,2423 C 1091,2443 1078,2423 1094,2431 C 1094,2442 1092,2450 1094,2461 C 1097,2461 1099,2461 1102,2461 C 1099,2462 1090,2493 1086,2469 C 1087,2470 1099,2490 1094,2491 C 1061,2496 1110,2492 1086,2484 C 1078,2480 1073,2486 1064,2484 C 1064,2481 1064,2479 1064,2476 C 1062,2482 1049,2466 1056,2461 L 1071,2461 C 1072,2439 1054,2443 1064,2439 C 1078,2431 1070,2419 1071,2401 C 1074,2401 1077,2401 1079,2401 z "
   class="fil6"
   id="60935176" /><path
   style="fill:#007f00;fill-opacity:1;stroke-width:14.00009918;stroke-miterlimit:4;stroke-dasharray:none"
   d="M 1305,2213 C 1305,2215 1305,2218 1305,2220 C 1292,2227 1300,2235 1297,2250 C 1299,2247 1317,2252 1320,2250 C 1324,2248 1316,2230 1335,2220 C 1335,2218 1335,2215 1335,2213 C 1323,2213 1316,2213 1305,2213 z "
   class="fil6"
   id="60935264" /><path
   style="fill:#007f00;fill-opacity:1;stroke-width:14.00009918;stroke-miterlimit:4;stroke-dasharray:none"
   d="M 1365,2168 C 1360,2184 1362,2182 1357,2198 C 1355,2198 1352,2198 1350,2198 C 1347,2209 1353,2216 1350,2228 C 1347,2228 1345,2228 1342,2228 C 1342,2228 1329,2269 1342,2258 C 1331,2265 1362,2266 1365,2265 C 1365,2263 1365,2261 1365,2258 C 1367,2258 1370,2258 1372,2258 C 1375,2256 1372,2232 1372,2228 C 1370,2228 1367,2228 1365,2228 C 1364,2225 1371,2205 1372,2213 C 1395,2201 1346,2207 1380,2205 C 1381,2195 1387,2156 1380,2175 C 1380,2173 1380,2170 1380,2168 L 1365,2168 z "
   class="fil6"
   id="60935352" /><path
   style="fill:#007f00;fill-opacity:1;stroke-width:14.00009918;stroke-miterlimit:4;stroke-dasharray:none"
   d="M 1207,2160 L 1199,2190 C 1175,2200 1191,2173 1184,2168 C 1198,2163 1196,2165 1207,2160 z "
   class="fil6"
   id="60935440" /><path
   style="fill:#007f00;fill-opacity:1;stroke-width:14.00009918;stroke-miterlimit:4;stroke-dasharray:none"
   d="M 1207,2123 C 1213,2124 1222,2141 1207,2138 C 1207,2135 1207,2133 1207,2130 C 1196,2130 1196,2120 1207,2123 z "
   class="fil6"
   id="60935528" /><path
   style="fill:#007f00;fill-opacity:1;stroke-width:14.00009918;stroke-miterlimit:4;stroke-dasharray:none"
   d="M 1342,2002 C 1341,2011 1327,2017 1327,2017 C 1325,2025 1327,2032 1327,2040 C 1330,2040 1332,2040 1335,2040 C 1336,2055 1328,2057 1320,2062 C 1312,2067 1329,2069 1327,2077 C 1327,2077 1301,2092 1327,2092 C 1327,2095 1327,2098 1327,2100 C 1325,2100 1322,2100 1320,2100 C 1314,2115 1317,2104 1312,2123 C 1334,2116 1307,2126 1320,2130 C 1328,2133 1333,2128 1342,2130 C 1343,2120 1357,2115 1357,2115 C 1361,2102 1352,2088 1350,2077 L 1365,2077 L 1365,2062 C 1356,2092 1357,2032 1357,2032 L 1372,2032 C 1372,2029 1371,2014 1372,2010 C 1357,2005 1354,2010 1342,2002 z "
   class="fil6"
   id="60935616" /><path
   style="fill:#007f00;fill-opacity:1;stroke-width:14.00009918;stroke-miterlimit:4;stroke-dasharray:none"
   d="M 1402,1807 C 1402,1809 1402,1812 1402,1814 L 1387,1814 C 1387,1817 1387,1819 1387,1822 C 1369,1829 1352,1867 1387,1852 L 1402,1829 L 1417,1829 C 1411,1823 1426,1798 1402,1807 z "
   class="fil6"
   id="60935704" /><path
   style="fill:#007f00;fill-opacity:1"
   d="M 1861,325 C 1861,327 1861,330 1861,332 L 1876,332 C 1876,332 1876,325 1861,325 z "
   class="fil6"
   id="60935792" /><path
   style="fill:#007f00;fill-opacity:1"
   d="M 1824,257 C 1824,260 1824,262 1824,264 L 1839,264 C 1839,264 1839,257 1824,257 z "
   class="fil6"
   id="60935880" /><path
   style="fill:#007f00;fill-opacity:1"
   d="M 1606,219 C 1631,201 1613,249 1613,249 C 1585,254 1593,212 1606,219 z "
   class="fil6"
   id="60935968" /><path
   style="fill:#007f00;fill-opacity:1"
   d="M 1628,189 C 1641,189 1634,200 1636,212 L 1621,212 C 1622,200 1615,189 1628,189 z "
   class="fil6"
   id="60936056" /><path
   style="fill:#007f00;fill-opacity:1"
   d="M 1658,167 C 1670,162 1660,182 1658,189 C 1634,196 1644,171 1658,167 z "
   class="fil6"
   id="60936144" /><path
   style="fill:#007f00;fill-opacity:1"
   d="M 1741,114 C 1748,114 1756,114 1764,114 C 1765,119 1771,144 1771,144 C 1778,146 1787,131 1801,137 C 1797,150 1799,160 1786,167 C 1780,169 1795,175 1794,182 L 1809,182 C 1809,184 1809,187 1809,189 L 1824,189 C 1827,191 1817,202 1816,204 C 1820,207 1834,209 1839,212 L 1846,227 L 1861,227 C 1862,228 1866,253 1869,257 L 1891,272 L 1891,287 C 1886,287 1874,289 1869,287 C 1869,290 1869,292 1869,295 L 1884,295 C 1910,304 1855,304 1891,302 C 1891,300 1891,297 1891,295 L 1906,295 C 1909,310 1901,311 1914,317 C 1915,331 1916,320 1906,325 C 1906,336 1905,343 1906,355 C 1909,355 1912,355 1914,355 C 1916,371 1909,378 1921,385 C 1921,387 1921,390 1921,392 C 1915,396 1911,396 1914,407 L 1929,415 C 1937,428 1930,451 1937,468 C 1939,474 1957,471 1959,475 C 1963,483 1957,496 1959,505 C 1962,505 1964,505 1967,505 C 1967,510 1967,524 1967,528 C 1969,528 1972,528 1974,528 C 1976,546 1970,552 1967,565 C 1969,565 1972,565 1974,565 C 1974,571 1962,578 1967,580 C 1975,585 1977,599 1974,611 C 1974,611 1967,611 1967,626 C 1975,630 1976,618 1974,633 C 1972,633 1969,633 1967,633 C 1967,645 1968,652 1967,663 C 1964,663 1962,663 1959,663 C 1957,676 1962,696 1959,708 C 1957,708 1954,708 1952,708 C 1947,730 1950,732 1944,753 C 1941,753 1939,753 1937,753 C 1933,772 1945,765 1944,784 C 1941,784 1939,784 1937,784 C 1931,819 1933,835 1929,874 C 1926,874 1924,874 1921,874 C 1914,877 1931,881 1929,889 L 1914,896 C 1910,905 1916,916 1914,926 C 1911,926 1909,926 1906,926 C 1902,954 1905,959 1899,987 C 1896,987 1894,987 1891,987 C 1889,1001 1893,1017 1891,1032 C 1889,1032 1886,1032 1884,1032 C 1883,1049 1895,1045 1891,1062 C 1889,1062 1886,1062 1884,1062 L 1884,1077 C 1881,1077 1879,1077 1876,1077 C 1868,1097 1875,1106 1869,1130 C 1866,1130 1864,1130 1861,1130 C 1861,1139 1863,1143 1861,1152 C 1859,1152 1856,1152 1854,1152 C 1851,1164 1856,1171 1854,1182 C 1851,1182 1849,1182 1846,1182 C 1843,1201 1849,1223 1846,1242 C 1844,1242 1841,1242 1839,1242 C 1834,1269 1837,1276 1831,1303 C 1829,1303 1826,1303 1824,1303 C 1821,1316 1827,1335 1824,1348 C 1821,1348 1819,1348 1816,1348 C 1811,1364 1815,1363 1809,1378 C 1806,1378 1804,1378 1801,1378 C 1797,1391 1801,1410 1801,1423 C 1799,1423 1796,1423 1794,1423 C 1794,1426 1794,1428 1794,1430 C 1794,1431 1811,1433 1809,1446 L 1794,1446 C 1791,1452 1795,1461 1794,1468 C 1791,1468 1789,1468 1786,1468 L 1786,1483 C 1783,1483 1781,1483 1779,1483 C 1776,1493 1789,1504 1786,1506 C 1773,1512 1783,1512 1779,1528 C 1776,1528 1774,1528 1771,1528 C 1767,1567 1771,1589 1764,1626 C 1761,1626 1759,1626 1756,1626 C 1756,1631 1756,1645 1756,1649 C 1753,1649 1751,1649 1748,1649 C 1743,1674 1745,1696 1741,1724 C 1738,1724 1736,1724 1733,1724 L 1733,1739 C 1736,1739 1739,1739 1741,1739 C 1804,1788 1673,1709 1748,1746 C 1748,1749 1748,1752 1748,1754 L 1726,1761 C 1725,1774 1726,1787 1726,1799 C 1713,1805 1720,1790 1718,1807 C 1725,1810 1729,1801 1726,1814 C 1723,1814 1721,1814 1718,1814 L 1718,1829 C 1716,1829 1713,1829 1711,1829 C 1709,1839 1719,1836 1718,1852 C 1716,1852 1713,1852 1711,1852 C 1711,1857 1711,1870 1711,1874 C 1708,1874 1706,1874 1703,1874 C 1701,1887 1705,1900 1703,1912 C 1701,1912 1698,1912 1696,1912 C 1696,1923 1697,1931 1696,1942 C 1693,1942 1691,1942 1688,1942 C 1686,1957 1691,1972 1688,1987 C 1686,1987 1683,1987 1681,1987 C 1676,2017 1677,2026 1673,2055 C 1671,2055 1668,2055 1666,2055 C 1663,2069 1672,2095 1666,2108 L 1651,2108 C 1651,2110 1651,2113 1651,2115 C 1631,2124 1625,2143 1606,2153 C 1606,2155 1606,2158 1606,2160 C 1603,2160 1601,2160 1598,2160 C 1596,2169 1595,2197 1598,2205 C 1600,2211 1609,2205 1613,2220 C 1616,2220 1618,2220 1621,2220 C 1626,2235 1630,2258 1628,2281 C 1626,2281 1623,2281 1621,2281 C 1621,2292 1624,2308 1621,2318 L 1606,2326 C 1601,2343 1616,2336 1613,2348 L 1598,2348 C 1594,2362 1600,2379 1598,2393 C 1595,2393 1593,2393 1591,2393 C 1591,2405 1592,2412 1591,2423 C 1588,2423 1586,2423 1583,2423 C 1582,2433 1593,2444 1591,2446 C 1583,2453 1586,2448 1583,2461 C 1580,2461 1578,2461 1575,2461 C 1571,2490 1575,2522 1575,2551 C 1584,2556 1584,2545 1583,2559 C 1580,2559 1578,2559 1575,2559 L 1575,2574 C 1573,2574 1571,2574 1568,2574 C 1561,2599 1568,2615 1560,2642 C 1558,2642 1555,2642 1553,2642 L 1553,2657 C 1550,2657 1548,2657 1545,2657 C 1539,2672 1543,2679 1538,2694 C 1535,2694 1533,2694 1530,2694 C 1527,2707 1534,2727 1530,2739 C 1528,2739 1525,2739 1523,2739 L 1523,2754 C 1500,2765 1526,2739 1515,2762 C 1513,2762 1510,2762 1508,2762 C 1504,2776 1509,2793 1508,2807 C 1505,2807 1503,2807 1500,2807 C 1499,2821 1498,2810 1508,2815 C 1505,2831 1513,2816 1500,2822 C 1500,2835 1503,2848 1500,2860 C 1498,2860 1495,2860 1493,2860 C 1490,2869 1495,2873 1493,2882 C 1490,2882 1488,2882 1485,2882 C 1481,2903 1482,2910 1478,2927 L 1463,2927 C 1459,2947 1467,2937 1478,2943 L 1478,2958 C 1475,2958 1473,2958 1470,2958 C 1473,2974 1464,2958 1478,2965 C 1478,2968 1478,2970 1478,2973 C 1461,2964 1478,2988 1478,2988 L 1455,3003 C 1449,3028 1457,2994 1463,3010 C 1467,3022 1462,3029 1455,3033 C 1455,3035 1455,3038 1455,3040 C 1465,3046 1462,3048 1463,3063 C 1458,3064 1448,3078 1448,3078 C 1427,3082 1450,3075 1440,3070 L 1425,3070 C 1425,3081 1428,3098 1425,3108 C 1424,3110 1413,3112 1410,3123 C 1406,3123 1390,3121 1387,3123 C 1390,3132 1404,3167 1402,3176 C 1400,3176 1397,3176 1395,3176 L 1395,3191 C 1397,3191 1400,3191 1402,3191 C 1402,3202 1404,3209 1402,3221 C 1400,3221 1397,3221 1395,3221 C 1395,3226 1395,3239 1395,3243 C 1392,3243 1390,3243 1387,3243 C 1385,3256 1387,3254 1395,3258 C 1395,3258 1392,3266 1387,3281 C 1385,3281 1382,3281 1380,3281 C 1377,3298 1391,3292 1387,3304 C 1385,3304 1382,3304 1380,3304 C 1380,3309 1380,3322 1380,3326 L 1365,3326 C 1358,3341 1375,3347 1357,3356 C 1357,3359 1357,3361 1357,3364 C 1365,3368 1368,3367 1365,3379 C 1362,3379 1360,3379 1357,3379 L 1357,3394 C 1335,3405 1361,3379 1350,3401 C 1347,3401 1345,3401 1342,3401 C 1339,3411 1346,3422 1342,3431 C 1340,3431 1337,3431 1335,3431 C 1335,3434 1335,3437 1335,3439 C 1348,3445 1354,3456 1350,3477 L 1335,3477 C 1333,3481 1335,3496 1335,3499 C 1332,3500 1320,3507 1320,3507 C 1320,3507 1341,3532 1335,3537 C 1320,3547 1327,3554 1320,3574 L 1305,3574 C 1300,3590 1315,3589 1312,3612 C 1310,3612 1307,3612 1305,3612 C 1305,3619 1306,3628 1305,3635 C 1302,3635 1300,3635 1297,3635 C 1293,3652 1299,3669 1297,3687 L 1282,3687 C 1280,3699 1282,3713 1282,3725 C 1291,3729 1291,3718 1290,3732 C 1287,3732 1285,3732 1282,3732 C 1280,3739 1283,3748 1282,3755 C 1279,3755 1277,3755 1275,3755 L 1275,3770 C 1272,3770 1270,3770 1267,3770 C 1265,3779 1267,3783 1267,3793 C 1270,3793 1272,3793 1275,3793 L 1275,3808 C 1272,3808 1270,3808 1267,3808 C 1266,3812 1270,3827 1267,3830 C 1261,3836 1239,3836 1237,3838 C 1237,3838 1234,3848 1229,3860 C 1233,3862 1249,3860 1252,3860 L 1252,3875 C 1249,3875 1247,3875 1244,3875 C 1244,3873 1244,3870 1244,3868 C 1241,3868 1226,3869 1222,3868 L 1222,3883 C 1219,3883 1217,3883 1214,3883 C 1211,3896 1218,3916 1214,3928 C 1212,3928 1209,3928 1207,3928 L 1207,3943 L 1192,3943 C 1181,3918 1204,3951 1184,3935 C 1184,3933 1184,3931 1184,3928 C 1171,3921 1181,3928 1177,3913 C 1177,3913 1156,3905 1177,3905 C 1177,3903 1177,3900 1177,3898 C 1177,3896 1164,3892 1162,3890 C 1162,3888 1162,3885 1162,3883 C 1171,3878 1170,3873 1169,3860 C 1167,3860 1164,3860 1162,3860 C 1162,3848 1162,3842 1162,3830 C 1164,3830 1167,3830 1169,3830 L 1169,3815 C 1167,3815 1164,3815 1162,3815 L 1162,3800 C 1159,3800 1157,3800 1154,3800 C 1154,3800 1157,3781 1162,3793 L 1162,3778 L 1147,3778 C 1146,3765 1147,3752 1147,3740 L 1162,3740 C 1165,3724 1162,3703 1162,3687 C 1159,3687 1157,3687 1154,3687 C 1154,3687 1161,3666 1162,3680 C 1186,3667 1134,3674 1169,3672 C 1165,3671 1164,3657 1162,3650 C 1160,3664 1154,3642 1154,3642 C 1154,3642 1167,3636 1169,3635 C 1170,3615 1161,3624 1162,3604 C 1164,3604 1167,3604 1169,3604 C 1171,3590 1167,3574 1169,3559 C 1172,3559 1174,3559 1177,3559 C 1178,3545 1177,3529 1177,3514 C 1179,3514 1182,3514 1184,3514 C 1185,3498 1174,3500 1177,3484 C 1179,3484 1182,3484 1184,3484 C 1184,3472 1183,3465 1184,3454 C 1186,3455 1199,3464 1199,3462 C 1201,3447 1200,3458 1192,3454 C 1192,3429 1189,3404 1192,3379 C 1194,3379 1197,3379 1199,3379 C 1202,3367 1197,3353 1199,3341 C 1202,3341 1204,3341 1207,3341 C 1208,3335 1207,3325 1207,3319 C 1209,3319 1212,3319 1214,3319 C 1216,3305 1215,3315 1207,3311 C 1207,3299 1205,3285 1207,3274 C 1209,3274 1212,3274 1214,3274 C 1219,3254 1218,3241 1222,3221 C 1224,3221 1227,3221 1229,3221 C 1227,3220 1214,3189 1214,3183 L 1229,3183 C 1231,3172 1229,3165 1229,3153 C 1232,3153 1235,3153 1237,3153 C 1240,3129 1229,3123 1229,3100 C 1229,3098 1229,3096 1229,3093 C 1243,3093 1234,3088 1237,3078 C 1236,3092 1229,3070 1229,3070 C 1232,3070 1235,3070 1237,3070 C 1238,3049 1231,3023 1237,3003 C 1240,3003 1242,3003 1244,3003 L 1244,2988 C 1247,2988 1250,2988 1252,2988 C 1253,2981 1250,2972 1252,2965 C 1247,2961 1235,2959 1237,2950 L 1252,2950 C 1252,2947 1252,2945 1252,2943 C 1255,2943 1257,2943 1260,2943 C 1260,2916 1260,2894 1260,2867 C 1262,2867 1265,2867 1267,2867 C 1269,2853 1265,2836 1267,2822 C 1217,2822 1299,2816 1260,2830 C 1243,2835 1239,2824 1229,2822 L 1229,2807 C 1240,2804 1233,2799 1244,2800 C 1244,2800 1249,2811 1260,2807 C 1343,2778 1171,2809 1267,2800 C 1268,2788 1267,2781 1267,2769 C 1270,2769 1272,2769 1275,2769 C 1275,2760 1264,2749 1267,2747 C 1270,2747 1272,2747 1275,2747 L 1275,2732 C 1277,2732 1280,2732 1282,2732 C 1285,2720 1279,2713 1282,2702 L 1297,2702 C 1301,2687 1295,2665 1297,2649 C 1300,2649 1302,2649 1305,2649 C 1305,2631 1302,2607 1305,2589 C 1307,2589 1310,2589 1312,2589 C 1313,2577 1312,2564 1312,2551 C 1315,2551 1317,2551 1320,2551 C 1321,2536 1310,2539 1312,2529 C 1315,2529 1317,2529 1320,2529 C 1321,2522 1320,2513 1320,2506 C 1322,2506 1325,2506 1327,2506 C 1322,2503 1336,2469 1320,2461 C 1320,2458 1320,2456 1320,2454 L 1335,2454 C 1337,2442 1323,2435 1327,2431 C 1330,2431 1332,2431 1335,2431 C 1339,2415 1339,2417 1342,2401 L 1327,2401 L 1327,2386 L 1342,2386 L 1342,2371 C 1345,2371 1347,2371 1350,2371 C 1358,2342 1353,2320 1357,2288 C 1341,2291 1321,2288 1305,2288 C 1299,2309 1303,2318 1297,2341 C 1295,2341 1292,2341 1290,2341 L 1290,2356 C 1287,2356 1285,2356 1282,2356 C 1280,2367 1290,2371 1290,2371 C 1291,2378 1273,2423 1290,2416 C 1290,2419 1290,2421 1290,2423 L 1275,2423 C 1272,2419 1260,2408 1260,2408 L 1260,2393 C 1257,2393 1255,2393 1252,2393 C 1248,2381 1253,2389 1260,2386 C 1275,2378 1237,2378 1252,2371 C 1255,2371 1257,2371 1260,2371 C 1266,2356 1262,2357 1267,2341 C 1270,2341 1272,2341 1275,2341 C 1279,2322 1273,2299 1275,2281 C 1265,2284 1247,2281 1237,2281 C 1236,2286 1237,2299 1237,2303 C 1246,2308 1245,2297 1244,2311 C 1242,2311 1240,2311 1237,2311 C 1237,2316 1237,2329 1237,2333 L 1222,2333 C 1215,2355 1224,2403 1214,2423 C 1213,2425 1194,2423 1192,2423 C 1186,2441 1189,2436 1184,2454 C 1182,2454 1179,2454 1177,2454 C 1173,2465 1180,2472 1177,2484 C 1174,2484 1172,2484 1169,2484 C 1164,2466 1165,2461 1162,2446 C 1149,2450 1156,2438 1154,2431 C 1165,2431 1174,2434 1184,2431 C 1184,2428 1184,2426 1184,2423 C 1155,2438 1165,2400 1177,2401 C 1181,2388 1180,2387 1184,2378 C 1187,2378 1189,2378 1192,2378 C 1191,2378 1192,2358 1192,2356 C 1112,2362 1252,2340 1184,2363 L 1169,2363 L 1169,2348 C 1170,2346 1200,2337 1177,2333 C 1187,2331 1204,2333 1207,2326 C 1209,2321 1203,2306 1207,2303 C 1196,2301 1196,2314 1192,2318 C 1186,2315 1183,2308 1177,2311 L 1177,2296 C 1174,2293 1158,2296 1154,2296 L 1154,2281 C 1157,2281 1159,2281 1162,2281 C 1166,2268 1165,2267 1169,2258 C 1171,2258 1191,2259 1192,2258 C 1195,2253 1192,2228 1192,2220 C 1193,2219 1207,2213 1207,2213 C 1211,2197 1196,2200 1199,2190 L 1214,2190 C 1220,2171 1215,2162 1222,2145 C 1224,2145 1227,2145 1229,2145 L 1229,2130 C 1232,2130 1235,2130 1237,2130 L 1237,2115 C 930,1962 1521,2280 1229,2108 C 1228,2107 1194,2100 1192,2100 C 1195,2094 1189,2084 1192,2077 L 1207,2077 L 1207,2062 C 1209,2062 1212,2062 1214,2062 C 1217,2051 1211,2036 1214,2025 C 1197,2029 1197,2009 1177,2017 C 1175,2018 1177,2037 1177,2040 C 1169,2042 1149,2045 1147,2047 L 1147,2062 C 1147,2062 1166,2061 1154,2055 C 1157,2055 1159,2055 1162,2055 C 1162,2057 1162,2060 1162,2062 C 1164,2062 1167,2062 1169,2062 C 1167,2071 1173,2076 1169,2085 C 1168,2088 1157,2090 1154,2092 L 1154,2108 C 1157,2095 1162,2115 1162,2115 C 1159,2115 1157,2115 1154,2115 C 1149,2137 1153,2138 1147,2160 C 1144,2160 1142,2160 1139,2160 C 1136,2176 1139,2196 1139,2213 C 1137,2213 1134,2213 1132,2213 C 1132,2215 1132,2218 1132,2220 C 1139,2224 1141,2224 1139,2235 C 1137,2235 1134,2235 1132,2235 C 1132,2247 1133,2254 1132,2265 C 1129,2265 1127,2265 1124,2265 C 1123,2273 1133,2287 1132,2288 C 1118,2295 1123,2345 1117,2363 L 1102,2371 L 1102,2356 C 1087,2350 1080,2361 1071,2363 C 1077,2347 1058,2349 1064,2333 L 1079,2333 C 1079,2331 1079,2328 1079,2326 C 1082,2326 1084,2326 1086,2326 L 1086,2311 C 1086,2311 1100,2304 1102,2303 L 1102,2288 C 1095,2285 1090,2293 1094,2281 C 1101,2279 1110,2281 1117,2281 C 1117,2278 1117,2276 1117,2273 C 1106,2268 1110,2272 1102,2265 C 1084,2252 1122,2260 1094,2258 C 1100,2243 1098,2231 1102,2213 L 1117,2213 C 1119,2201 1116,2201 1109,2198 C 1109,2195 1109,2193 1109,2190 C 1112,2190 1114,2190 1117,2190 C 1126,2185 1109,2175 1109,2175 C 1109,2173 1109,2170 1109,2168 C 1120,2162 1115,2161 1117,2145 C 1108,2141 1107,2152 1109,2138 C 1112,2138 1114,2138 1117,2138 L 1117,2123 C 1119,2123 1122,2123 1124,2123 C 1127,2116 1124,2107 1124,2100 C 1140,2092 1127,2112 1132,2092 C 1132,2092 1112,2091 1124,2085 C 1139,2077 1128,2096 1132,2077 C 1134,2077 1137,2077 1139,2077 C 1141,2067 1130,2070 1132,2055 C 1134,2055 1137,2055 1139,2055 C 1142,2018 1143,2001 1147,1972 C 1139,1968 1136,1978 1139,1965 C 1142,1965 1144,1965 1147,1965 C 1151,1949 1150,1944 1154,1927 C 1157,1927 1159,1927 1162,1927 C 1163,1914 1165,1887 1162,1874 L 1147,1874 C 1147,1874 1146,1852 1147,1852 C 1149,1852 1152,1852 1154,1852 L 1154,1837 C 1157,1837 1159,1837 1162,1837 C 1171,1802 1162,1771 1169,1739 C 1172,1739 1174,1739 1177,1739 C 1178,1727 1177,1720 1177,1709 C 1179,1709 1182,1709 1184,1709 C 1190,1685 1184,1676 1192,1656 L 1207,1649 C 1210,1636 1206,1644 1199,1641 C 1199,1639 1199,1636 1199,1634 C 1202,1634 1204,1634 1207,1634 C 1219,1627 1199,1626 1199,1626 C 1204,1614 1209,1620 1207,1604 C 1204,1604 1202,1604 1199,1604 C 1199,1591 1198,1578 1199,1566 C 1202,1566 1204,1566 1207,1566 C 1207,1562 1207,1548 1207,1543 C 1209,1543 1212,1543 1214,1543 C 1217,1530 1212,1512 1214,1498 C 1217,1498 1220,1498 1222,1498 C 1227,1464 1224,1451 1229,1415 C 1232,1415 1235,1415 1237,1415 C 1239,1398 1233,1379 1237,1363 C 1240,1363 1242,1363 1244,1363 C 1245,1359 1244,1345 1244,1340 C 1247,1340 1250,1340 1252,1340 C 1255,1322 1245,1295 1260,1288 C 1260,1285 1260,1283 1260,1280 C 1252,1276 1249,1271 1252,1257 L 1267,1250 C 1271,1239 1265,1224 1267,1212 C 1270,1212 1272,1212 1275,1212 C 1280,1175 1278,1161 1282,1122 C 1285,1122 1287,1122 1290,1122 C 1291,1107 1279,1109 1282,1100 L 1297,1100 C 1303,1072 1298,1066 1305,1039 C 1307,1039 1310,1039 1312,1039 C 1317,1019 1315,1009 1320,987 C 1322,987 1325,987 1327,987 C 1329,974 1325,961 1327,949 C 1330,949 1332,949 1335,949 C 1336,940 1335,935 1335,926 C 1337,926 1340,926 1342,926 C 1348,898 1342,879 1350,851 C 1352,851 1355,851 1357,851 L 1357,836 C 1360,836 1362,836 1365,836 C 1368,820 1362,800 1365,784 C 1367,784 1370,784 1372,784 C 1378,757 1375,749 1380,723 C 1382,723 1385,723 1387,723 C 1389,710 1385,699 1387,686 C 1390,686 1393,686 1395,686 C 1397,671 1392,655 1395,641 C 1397,641 1400,641 1402,641 C 1404,632 1402,627 1402,618 C 1405,618 1408,618 1410,618 C 1413,607 1408,599 1410,588 C 1413,588 1415,588 1417,588 C 1423,566 1420,565 1425,543 C 1428,543 1430,543 1433,543 C 1434,533 1429,521 1433,513 L 1448,513 C 1448,510 1448,508 1448,505 C 1450,505 1453,505 1455,505 C 1465,495 1453,476 1470,468 C 1470,465 1470,463 1470,460 C 1474,456 1487,462 1493,460 L 1508,438 C 1517,432 1536,436 1545,430 L 1545,415 L 1560,415 C 1563,410 1565,401 1568,400 C 1576,396 1588,402 1598,400 C 1598,397 1598,395 1598,392 C 1614,389 1624,392 1636,385 L 1651,362 C 1653,362 1656,362 1658,362 L 1658,347 C 1661,347 1663,347 1666,347 L 1666,332 L 1681,332 L 1681,317 L 1696,317 C 1697,314 1703,302 1703,302 C 1706,302 1709,302 1711,302 L 1711,287 C 1719,282 1732,290 1741,287 C 1741,284 1741,282 1741,280 C 1749,275 1747,276 1756,272 C 1755,271 1756,252 1756,249 C 1746,244 1752,247 1741,242 C 1741,239 1741,237 1741,234 C 1732,231 1727,238 1718,234 C 1718,234 1711,220 1711,219 C 1718,217 1729,224 1726,212 C 1726,212 1712,205 1711,204 C 1711,190 1714,173 1711,159 C 1700,157 1692,159 1681,159 L 1681,144 C 1683,144 1686,144 1688,144 C 1694,127 1680,144 1696,137 L 1696,122 C 1705,118 1723,122 1733,122 C 1733,119 1733,117 1733,114 C 1736,114 1739,114 1741,114 z "
   class="fil6"
   id="60936232" />
</svg>