<?xml version="1.0" encoding="UTF-8" standalone="no"?>
<svg
   xmlns:dc="http://purl.org/dc/elements/1.1/"
   xmlns:cc="http://creativecommons.org/ns#"
   xmlns:rdf="http://www.w3.org/1999/02/22-rdf-syntax-ns#"
   xmlns:svg="http://www.w3.org/2000/svg"
   xmlns="http://www.w3.org/2000/svg"
   xmlns:sodipodi="http://sodipodi.sourceforge.net/DTD/sodipodi-0.dtd"
   xmlns:inkscape="http://www.inkscape.org/namespaces/inkscape"
   width="105mm"
   height="70mm"
   viewBox="0 0 297.63779 198.42519"
   version="1.2"
   id="svg25"
   sodipodi:docname="桃園.svg"
   inkscape:version="0.92.1 r15371"
   inkscape:export-filename="C:\D\旗海圖幟\tys.png"
   inkscape:export-xdpi="91.440002"
   inkscape:export-ydpi="91.440002">
  <metadata
     id="metadata31">
    <rdf:RDF>
      <cc:Work
         rdf:about="">
        <dc:format>image/svg+xml</dc:format>
        <dc:type
           rdf:resource="http://purl.org/dc/dcmitype/StillImage" />
        <dc:title></dc:title>
      </cc:Work>
    </rdf:RDF>
  </metadata>
  <defs
     id="defs29" />
  <sodipodi:namedview
     pagecolor="#ffffff"
     bordercolor="#666666"
     borderopacity="1"
     objecttolerance="10"
     gridtolerance="10"
     guidetolerance="10"
     inkscape:pageopacity="0"
     inkscape:pageshadow="2"
     inkscape:window-width="1480"
     inkscape:window-height="1018"
     id="namedview27"
     showgrid="false"
     inkscape:zoom="1.63"
     inkscape:cx="280.15003"
     inkscape:cy="108"
     inkscape:window-x="430"
     inkscape:window-y="0"
     inkscape:window-maximized="0"
     inkscape:current-layer="svg25"
     inkscape:snap-grids="false"
     inkscape:snap-to-guides="false"
     inkscape:document-units="mm"
     units="mm"
     inkscape:snap-page="true"
     inkscape:snap-object-midpoints="true" />
  <rect
     style="fill:#ffffff;fill-opacity:1;stroke:none;stroke-width:1.14272702;stroke-linejoin:bevel;stroke-miterlimit:4;stroke-dasharray:none;stroke-dashoffset:0;stroke-opacity:1;paint-order:stroke fill markers"
     id="rect33"
     width="297.63779"
     height="198.4252"
     x="0"
     y="-3.0637725e-006" />
  <g
     id="surface34"
     transform="translate(67.475144,18.583695)">
    <path
       style="fill:#e8c21c;fill-opacity:1;fill-rule:evenodd;stroke:none"
       d="m 81.34375,0.132813 c 44.45313,0 80.49219,36.039062 80.49219,80.496093 0,44.453124 -36.03906,80.492184 -80.49219,80.492184 -44.457031,0 -80.496094,-36.03906 -80.496094,-80.492184 0,-44.457031 36.039063,-80.496093 80.496094,-80.496093"
       id="path2"
       inkscape:connector-curvature="0" />
    <path
       style="fill:#004594;fill-opacity:1;fill-rule:evenodd;stroke:none"
       d="m 81.34375,7.140625 c 40.58594,0 73.48828,32.898438 73.48828,73.488281 0,40.585934 -32.90234,73.488284 -73.48828,73.488284 -40.585937,0 -73.488281,-32.90235 -73.488281,-73.488284 0,-40.589843 32.902344,-73.488281 73.488281,-73.488281"
       id="path4"
       inkscape:connector-curvature="0" />
    <path
       style="fill:#e8c21c;fill-opacity:1;fill-rule:evenodd;stroke:none"
       d="m 64.285156,129.58984 c -10.023437,3.73438 -19.957031,1.46485 -19.957031,1.46485 C 18.632813,122.65234 12.5,99.902344 18.957031,80.570313 12.5,61.246094 18.632813,38.492188 44.328125,30.09375 c 0,0 9.933594,-2.273437 19.957031,1.464844 C 70.847656,25.273438 76.550781,18.324219 81,8.730469 c 4.449219,9.59375 10.152344,16.542969 16.714844,22.828125 10.023436,-3.738281 19.957036,-1.464844 19.957036,-1.464844 25.69531,8.398438 31.82812,31.152344 25.37109,50.476563 6.45703,19.332031 0.32422,42.082027 -25.37109,50.484377 0,0 -9.9336,2.26953 -19.957036,-1.46485 C 91.152344,135.87109 85.449219,142.82031 81,152.41406 76.550781,142.82031 70.847656,135.87109 64.285156,129.58984"
       id="path6"
       inkscape:connector-curvature="0" />
    <path
       style="fill:#ffffff;fill-opacity:1;fill-rule:evenodd;stroke:none"
       d="m 81,112.95703 c -2.953125,7.125 -7.347656,11.6211 -12.078125,14.42188 0.339844,0.33593 0.679688,0.67187 1.011719,1.01171 4.277344,4.34375 7.945312,8.89454 11.066406,13.90235 3.117188,-5.00781 6.789063,-9.5586 11.066406,-13.90235 0.332032,-0.33984 0.671875,-0.67578 1.011719,-1.01171 C 88.347656,124.57813 83.953125,120.08203 81,112.95703"
       id="path8"
       inkscape:connector-curvature="0" />
    <path
       style="fill:#ffffff;fill-opacity:1;fill-rule:evenodd;stroke:none"
       d="m 137.90625,80.574219 c -1.98828,5.234375 -4.94531,10.089844 -8.60547,14.054687 -6.05859,6.558594 -12.57812,12.347654 -19.41406,18.070314 -4.41016,3.6875 -8.89063,7.32422 -13.144532,11.20703 -5.105469,-2.62891 -8.859375,-6.92969 -11.289063,-12.79297 L 81,100.37109 76.546875,111.11328 c -2.429687,5.86328 -6.183594,10.16406 -11.289062,12.79297 -4.253907,-3.88281 -8.734375,-7.51953 -13.144532,-11.20703 C 45.277344,106.97656 38.757813,101.1875 32.699219,94.628906 29.8125,91.496094 27.417969,87.898438 25.578125,84.0625 c -0.542969,-1.136719 -1.039062,-2.300781 -1.492187,-3.488281 0.453125,-1.191406 0.949218,-2.355469 1.492187,-3.488281 1.839844,-3.839844 4.234375,-7.4375 7.121094,-10.566407 6.058594,-6.5625 12.578125,-12.351562 19.414062,-18.070312 4.410157,-3.691406 8.890625,-7.328125 13.144532,-11.207031 5.105468,2.628906 8.859375,6.925781 11.289062,12.789062 L 81,60.777344 85.453125,50.03125 c 2.429688,-5.863281 6.183594,-10.164062 11.289063,-12.789062 4.253902,3.878906 8.734372,7.515625 13.144532,11.207031 6.83594,5.71875 13.35547,11.507812 19.41406,18.070312 3.66016,3.964844 6.61719,8.816407 8.60547,14.054688"
       id="path10"
       inkscape:connector-curvature="0" />
    <path
       style="fill:#00994c;fill-opacity:1;fill-rule:evenodd;stroke:none"
       d="m 101.80078,125.84375 c 9.25781,-8.19141 19.92188,-15.90234 31.03906,-27.949219 2.81641,-3.046875 5.21094,-6.476562 7.13282,-10.132812 1.22656,6.234375 1.05468,12.679691 -0.91016,18.601561 -3.53516,10.66016 -11.99219,17.05078 -22.55469,20.01172 -3.82812,0.82422 -9.04687,0.66016 -12.8125,-0.0898 -0.64843,-0.12891 -1.27734,-0.27735 -1.89453,-0.44141"
       id="path12"
       inkscape:connector-curvature="0" />
    <path
       style="fill:#00994c;fill-opacity:1;fill-rule:evenodd;stroke:none"
       d="m 22.03125,87.769531 c 1.921875,3.652344 4.316406,7.078125 7.128906,10.125 11.117188,12.046879 21.78125,19.761719 31.039063,27.945309 -0.617188,0.16797 -1.25,0.31641 -1.894531,0.44532 -3.765625,0.7539 -8.984375,0.91406 -12.8125,0.0898 C 34.929688,123.41402 26.472656,117.0234 22.9375,106.36715 20.96875,100.41402 20.820313,93.956991 22.03125,87.769491"
       id="path14"
       inkscape:connector-curvature="0" />
    <path
       style="fill:#d91e26;fill-opacity:1;fill-rule:nonzero;stroke:none"
       d="M 109.28516,80.773438 H 97.324219 v 1.773437 H 109.28516 Z M 92.617188,67.21875 V 71 h 8.070312 v 1.550781 h -9.53125 v 3.792969 h 24.17188 v -3.792969 h -9.44532 V 71 h 7.82813 v -3.78125 h -7.82813 v -1.726562 h -5.19531 v 1.726562 z m -2.46875,28.066406 H 116.26172 V 65.320313 H 90.148438 V 88.3125 c 2.671875,-0.460937 5.203125,-1.351562 7.578125,-2.671875 h -5.265625 v -7.96875 h 21.691402 v 7.96875 h -3.40625 l 2.63672,1.722656 c -0.42968,0.632813 -0.8789,1.238282 -1.33593,1.808594 1.1914,0.429688 2.42968,0.921875 3.73046,1.464844 l -1.91015,4.136719 c -3.70313,-1.984375 -7.16406,-3.492188 -10.38281,-4.527344 l 2.07031,-3.058594 c 0.70703,0.148438 1.43359,0.332031 2.19531,0.566406 0.45703,-0.691406 0.87891,-1.394531 1.25391,-2.113281 h -5.4375 c -0.12891,0.144531 -0.26563,0.285156 -0.39844,0.429688 v 7.964843 h -4.750001 v -4.171875 c -1.972656,1.265625 -4.140625,2.265625 -6.484375,3.015625 L 90.148438,89.085938 Z M 121.45313,61.140625 v 39.656255 h -5.19141 V 99.378906 H 90.148438 v 1.417974 H 84.957031 V 61.140625 Z M 71.519531,60.457031 v 13 c 1.382813,-2.757812 2.464844,-5.769531 3.246094,-9.039062 l 4.257813,1.074219 C 78.378906,69.339844 77.292969,73.125 75.785156,76.859375 l -4.265625,-2.199219 v 2.757813 c 3.625,2.210937 6.292969,4.136719 7.996094,5.765625 l -3.128906,5.171875 c -1.351563,-1.753906 -2.96875,-3.472656 -4.867188,-5.171875 v 10.507812 c 0.08203,1.066407 0.519532,1.59375 1.300782,1.59375 h 0.160156 c 0.511719,0 0.890625,-0.179687 1.132812,-0.554687 0.273438,-0.289063 0.4375,-2 0.492188,-5.128906 l 4.742187,1.035156 c -0.269531,4.105469 -0.824218,6.789062 -1.660156,8.050781 -0.652344,0.949219 -1.828125,1.41797 -3.53125,1.41797 h -3.890625 c -2.378906,0 -3.570312,-1.609376 -3.570312,-4.820314 V 60.457031 Z M 51.445313,74.703125 c 2.457031,1.730469 4.300781,3.234375 5.519531,4.519531 l -2.554688,4.261719 c 1.859375,-1.203125 3.742188,-2.878906 5.632813,-5.03125 V 75.5625 l -4.257813,1.296875 C 55.648438,75.5625 55.433594,74.25 55.136719,72.898438 H 51.445313 Z M 41.832031,68.03125 h 4.867188 V 60.625 h 4.746094 v 7.40625 h 2.4375 c -0.222657,-0.660156 -0.4375,-1.351562 -0.652344,-2.0625 l 4.015625,-1.207031 c 1.21875,2.957031 2.148437,5.742187 2.796875,8.347656 V 60.457031 h 4.507812 V 81.296875 C 64.4375,89.101563 62.003906,95.601563 57.246094,100.79688 l -4.179688,-3.613286 c 3.625,-3.21875 5.839844,-7.152344 6.652344,-11.800781 -1.621094,1.835937 -3.191406,3.398437 -4.699219,4.695312 l -2.636718,-5.511719 c 0.511718,-0.199218 0.996093,-0.449218 1.460937,-0.734375 -0.707031,-1.175781 -1.503906,-2.324218 -2.398437,-3.441406 V 100.28125 H 46.699219 V 83.527344 c -1.023438,2.90625 -2.257813,5.617187 -3.691406,8.144531 L 41.0625,84.566406 c 2.457031,-3.585937 4.175781,-7.480468 5.152344,-11.667968 h -4.382813 z m 0,0"
       id="path16"
       inkscape:connector-curvature="0" />
    <path
       style="fill:#ffffff;fill-opacity:1;fill-rule:evenodd;stroke:none"
       d="m 101.80078,35.304688 c 9.25781,8.1875 19.92188,15.902343 31.03906,27.945312 2.81641,3.050781 5.21094,6.476563 7.13282,10.132813 1.22656,-6.234375 1.05468,-12.679688 -0.91016,-18.601563 -3.53516,-10.65625 -11.99219,-17.050781 -22.55469,-20.011719 -3.82812,-0.824218 -9.04687,-0.664062 -12.8125,0.08984 -0.64843,0.128906 -1.27734,0.277344 -1.89453,0.445313"
       id="path18"
       inkscape:connector-curvature="0" />
    <path
       style="fill:#ffffff;fill-opacity:1;fill-rule:evenodd;stroke:none"
       d="M 22.03125,73.378906 C 23.953125,69.722656 26.347656,66.296875 29.160156,63.25 40.277344,51.207031 50.941406,43.492188 60.199219,35.304688 c -0.617188,-0.167969 -1.25,-0.316407 -1.894531,-0.445313 -3.765625,-0.753906 -8.984375,-0.914062 -12.8125,-0.08984 -10.5625,2.960938 -19.019532,9.351563 -22.554688,20.011719 -1.96875,5.949219 -2.117187,12.410156 -0.90625,18.597656"
       id="path20"
       inkscape:connector-curvature="0" />
    <path
       style="fill:#00994c;fill-opacity:1;fill-rule:evenodd;stroke:none"
       d="M 81,48.1875 C 78.046875,41.0625 73.652344,36.566406 68.921875,33.765625 69.261719,33.433594 69.601563,33.09375 69.933594,32.753906 74.210938,28.410156 77.878906,23.859375 81,18.851563 c 3.117188,5.007812 6.789063,9.558593 11.066406,13.902343 0.332032,0.339844 0.671875,0.679688 1.011719,1.011719 C 88.347656,36.566406 83.953125,41.0625 81,48.1875"
       id="path22"
       inkscape:connector-curvature="0" />
  </g>
</svg>
