<svg xmlns="http://www.w3.org/2000/svg" id="svg88" width="1500" height="1500" viewBox="0 0 1500 1500"><defs id="defs4"><style id="style2">.cls-5{fill:#ed1c24}.cls-2,.cls-5{fill-rule:evenodd}.cls-2{fill:#fd0}</style></defs><path id="rect862" d="M0 0h1500v1500H0z" style="fill:#c8102e;fill-opacity:1;stroke:none;stroke-width:2.67115;stroke-linecap:round;stroke-linejoin:round;stroke-miterlimit:3.86"/><g id="g1435" transform="translate(-154.4 -20.31)scale(6.69445)"><path id="path10-1" d="M134.137 56.869c-10.484.062-24.116.933-39.863 2.094l-.01-.051q-.57.165-1.047.361c-5.138 7.107-.29 21.86 9.366 28.365 13.923 9.386 37.026 9.096 38.58 23.164.559 4.952-10.526 16.865-32.862 17.01 1.243 1.513 11.913 3.377 17.155 4.744-3.71-.103-23.557-1.097-33.399-.455 1.803 2.341-2.34 7.356-4.537 8.951a19.3 19.3 0 0 0 8.39-6.34c1.12 4.062-1.16 6.548-3.501 8.62a9.61 9.61 0 0 0 7.293-6.838c.746 3.108 0 9.096-6.215 14.338a18.65 18.65 0 0 0 9.51-8.123 8.288 8.288 0 0 1 12.826-1.243c8.288 9.096 2.216 38.311-51.8 41.067 6.341 5.221 31.141 12.948 54.575 3.293-6.07 7.438-19.29 14.05-34.457 18.193 15.995 6.34 42.475.58 57.87-11.851-.54 5.242-11.023 21.216-22.046 26.189 26.169 1.367 42.703-15.168 47.655-34.996 2.755 9.904.27 21.756-3.584 30.851 24.262-10.09 25.941-39.553 25.63-51.529 3.026 6.88 8.826 13.86 4.143 32.508 20.14-22.874 11.853-49.6 7.71-61.432 6.878 10.464 10.462 15.519 11.85 34.166 7.439-35.057-4.413-56.772-14.068-70.28a39.4 39.4 0 0 1 10.4 11.54c-3.232-15.995-19.206-31.7-22.79-36.383-5.491-7.21-4.393-11.975-6.61-12.431-1.997-.416-4.118-.773-6.285-1.104l-.055.276c-15.726-1.244-29.34-2.674-39.824-2.674" style="fill:#ffd100;fill-opacity:1;fill-rule:evenodd;stroke-width:2.072;stroke-miterlimit:3.86;stroke-dasharray:none"/><path id="path12-5" d="M129.04 111.009a4.72 4.72 0 0 1 .477 3.564c-14.503 4.558-26.645 5.324-46.494 4.91-15.436-.331-31.556 4.952-35.555 9.49.56-15.56 19.29-19.829 42.993-14.877a75.1 75.1 0 0 0 38.58-3.087z" style="fill:#ffd100;fill-opacity:1;fill-rule:evenodd;stroke:#ffd100;stroke-width:.124317px;stroke-miterlimit:3.86;stroke-opacity:1"/><path id="path14-9" d="M84.95 70.979c4.144 1.243 4.869 7.728-1.658 4.828-6.526-2.901-3.543-11.77-3.543-11.77-14.379.332-27.08 2.073-32.28 9.822-6.3 9.386-4.662 32.074 4.06 42.433-1.388-4.682-1.098-13.364 5.222-15.726 2.921-1.056 16.865-.31 23.993 1.12 9.634 1.926 22.045 4.951 22.791-2.757 14.338 1.368 26.107 6.071 26.749 13.779.808 10.194-22.791 11.023-25.257 11.064-21.403.228-41.998-4.31-42.537 8.288 7.977 1.533 18.316-1.513 26.935-1.388 8.62.124 19.083-.125 27.288.683-2.673-.683-9.78-1.927-12.826-4.268 21.114.705 35.41-9.096 32.654-17.363-4.206-13.032-25.132-11.603-37.543-22.439-8.143-7.044-9.697-20.926-8.806-26.168a13.9 13.9 0 0 0-5.387-.705 6.34 6.34 0 0 0-4.6 3.108 7.44 7.44 0 0 0 4.745 7.459z" style="fill:#ffd100;fill-opacity:1;fill-rule:evenodd;stroke:#c8102e;stroke-width:1.16029px;stroke-miterlimit:3.86;stroke-opacity:1"/><path id="path16-0" d="M106.954 66.338c0 1.492 1.14 11.872 11.416 12.431 12.908.726 13.882-12.162 13.882-12.162s-2.61-3.211-11.437-3.46c-10.339-.29-13.861 1.699-13.861 3.19" class="cls-5" style="fill:#c8102e;fill-opacity:1;fill-rule:evenodd;stroke-width:2.07194"/><path id="path18-3" d="M111.616 70.71a7.75 7.75 0 1 1 7.707 6.9 7.335 7.335 0 0 1-7.707-6.9z" style="fill:#ffd100;fill-opacity:1;stroke:#ffd100;stroke-width:.186475px;stroke-miterlimit:3.86;stroke-opacity:1"/><path id="path20-5" d="M116.091 70.917a2.818 2.818 0 1 0 2.818-2.797 2.82 2.82 0 0 0-2.818 2.797z" style="fill:#c8102e;fill-opacity:1;stroke:#c8102e;stroke-width:1.34676px;stroke-miterlimit:3.86;stroke-opacity:1"/><path id="path22-4" d="M145.368 69.632c-7.086-.435-12.432-4.02-22.792-7.335-8.287-2.714-14.876-1.844-17.114-.186a3.004 3.004 0 0 0-.207 5.138 7.15 7.15 0 0 1-9.262-3.045c0 3.398 3.398 7.169 10.194 5.283 2.922-.808 8.827-3.19 13.012-2.9 10.38.725 17.28 5.076 26.169 3.045" class="cls-5" style="fill:#c8102e;fill-opacity:1;fill-rule:evenodd;stroke-width:2.07194"/><path id="path26-0" d="M133.93 24.816c.228-4.558-16.575-9.013-15.953 2.984.331 5.884 9.78 8.578 12.68 2.382-.746 9.552-4.144 10.961-8.785 11.728-5.843.973-10.67-2.963-10.92-5.698a4.247 4.247 0 1 0-2.071.538s.456 6.859-7.604 7.294c-7.418.414-10.36-3.564-11.106-6.92 4.58.29 9.863-3.813 6.216-10.008a6.444 6.444 0 0 0-11.769.228c1.264-5.056-6.07-9.345-10.587-5.139-7.666 7.128 1.036 16.12 6.547 13.116a19 19 0 0 0-2.528-5.056c4.144 2.383 10.07 14.773 14.69 26.418 17.301-1.368 29.463-2.072 41.004-2.072s23.703.766 41.004 2.072c4.62-11.645 10.67-24.035 14.835-26.418a19 19 0 0 0-2.528 5.056c5.677 2.59 14.069-6.382 6.568-13.116-4.6-4.143-11.851 0-10.587 5.139a6.444 6.444 0 0 0-11.748-.145c-3.606 6.216 1.678 10.36 6.215 10.007-.663 3.357-3.667 7.335-11.105 6.92-8.04-.435-7.604-7.293-7.604-7.293a4.268 4.268 0 1 0-2.072-.538c-.456 2.072-3.108 6.982-10.65 5.822-5.014-.767-8.288-2.3-9.075-11.852 2.921 6.216 12.432 3.502 12.68-2.382.746-12.08-15.974-7.625-15.746-3.067" class="cls-2" style="fill:#ffd100;fill-opacity:1;fill-rule:evenodd;stroke-width:2.07194"/><ellipse id="ellipse28-7" cx="133.931" cy="19.16" rx="7.915" ry="9.78" style="fill:#c8102e;fill-opacity:1;stroke:#c8102e;stroke-width:.145036px;stroke-miterlimit:3.86;stroke-opacity:1"/><path id="path30-9" d="M126.637 18.435c0-4.683 3.253-8.495 7.273-8.495s7.272 3.812 7.272 8.495-3.253 8.515-7.272 8.515-7.273-3.895-7.273-8.515" style="fill:#ffd100;fill-opacity:1;stroke-width:2.07194"/><path id="path32-2" d="M164.43 63.997s4.143-6.527 10.36-7.294c6.215-.766 35.098-3.253 40.34-6.216a48.6 48.6 0 0 0 7.666-5.159 34 34 0 0 1-2.3 16.203c-3.44 8.143-8.453 19.124-21.486 23.33-13.032 4.206-34.58-20.865-34.58-20.865" class="cls-2" style="fill:#ffd100;fill-opacity:1;fill-rule:evenodd;stroke-width:2.07194"/><path id="path34-6" d="M157.51 81.07c3.895 2.361 12.162 4.516 15.228 0-.331-.125-6.527-.87-3.688-6.217 1.906-3.688 10.36-3.936 16.866-4.516 9.303-.808 12.556-3.42 13.343-4.144-6.713 0-8.723-3.937-8.723-3.937h1.885s2.611 2.28 9.241 1.782a16.58 16.58 0 0 0 13.22-8.288l.476.87a17.2 17.2 0 0 1-11.354 8.93 17 17 0 0 1-3.108.477 16.45 16.45 0 0 1-11.852 5.926c-14.503 1.18-17.984 3.73-17.26 5.967.726 2.238 3.275 1.554 3.275 1.554a8.66 8.66 0 0 1-8.288 6.65c-4.724-.186-9.573-3.376-9.262-5.055" style="fill:#c8102e;fill-opacity:1;stroke-width:2.07194"/><path id="path36-3" d="M157.198 70.565c-.207.476.87 1.263 1.202.787.332-.477 6.216-9.676 16.223-13.157 9.241-3.211 29.008-3.77 36.384-5.801a27.3 27.3 0 0 0 11.354-5.905s-.145 22.791-16.97 32.943c-11.54 6.9-22.148 8.558-23.744 10.878a5.53 5.53 0 0 0-1.098 4.848c.29.684 1.181.954 1.243 0a5.37 5.37 0 0 1 3.481-4.268 70.7 70.7 0 0 0 20.326-7.894c18.461-10.898 18.647-34.912 18.316-37.295a4 4 0 0 0-1.202-2.548s-1.098 6.713-16.285 8.412c-7.397.829-25.775 1.492-34.602 5.449a28.1 28.1 0 0 0-14.628 13.55" class="cls-5" style="fill:#c8102e;fill-opacity:1;fill-rule:evenodd;stroke-width:2.07194"/></g></svg>