<!--Flag of the State of Kelantan Darul Naim (The Blissful Abode)-->
<!--Illustration by Ahmad Ali Karim (ahmadalikarim.wordpress.com)-->
<!--(c) 2020, Ahmad Ali Karim. All Rights Reserved.-->

<!--Bendera Negeri Kelantan Darul Naim-->
<!--Ilustrasi oleh Ahmad Ali Karim (ahmadalikarim.wordpress.com)-->
<!--(c) 2020, Ahmad Ali Karim. Hak Cipta Terpelihara.-->

<svg
   xmlns:dc="http://purl.org/dc/elements/1.1/"
   xmlns:cc="http://creativecommons.org/ns#"
   xmlns:rdf="http://www.w3.org/1999/02/22-rdf-syntax-ns#"
   xmlns:svg="http://www.w3.org/2000/svg"
   xmlns="http://www.w3.org/2000/svg"
   viewBox="0 0 1440 720"
   height="720"
   width="1440"
   xml:space="preserve"
   id="svg2"
   version="1.1"><metadata
     id="metadata8"><rdf:RDF><cc:Work
         rdf:about=""><dc:format>image/svg+xml</dc:format><dc:type
           rdf:resource="http://purl.org/dc/dcmitype/StillImage" /></cc:Work></rdf:RDF></metadata><defs
     id="defs6"><clipPath
       id="clipPath18"
       clipPathUnits="userSpaceOnUse"><path
         style="clip-rule:evenodd"
         id="path16"
         d="M 0,1.2207e-4 H 1080 V 540.00012 H 0 Z" /></clipPath><clipPath
       id="clipPath36"
       clipPathUnits="userSpaceOnUse"><path
         style="clip-rule:evenodd"
         id="path34"
         d="M -3.0518e-5,540 H 1080 V 6.1035e-5 H -6.1035e-5" /></clipPath><clipPath
       id="clipPath46"
       clipPathUnits="userSpaceOnUse"><path
         style="clip-rule:evenodd"
         id="path44"
         d="M -6.1035e-5,540 H 1080 V 6.1035e-5 H -6.1035e-5" /></clipPath></defs><g
     transform="matrix(1.3333333,0,0,-1.3333333,0,720)"
     id="g10"><g
       id="g12"><g
         clip-path="url(#clipPath18)"
         id="g14"><path
           id="path20"
           style="fill:#cc0000;fill-opacity:0.98824002;fill-rule:evenodd;stroke:none"
           d="M 0,6.1035e-5 H 1080 V 540.00006 H 0 Z" /></g></g><path
       id="path22"
       style="fill:#ffffff;fill-opacity:1;fill-rule:evenodd;stroke:none"
       d="m 463.78,345.72 -3.05,-2.77 c -20.18,-20.18 -32.66,-48.06 -32.66,-78.86 0,-61.6 49.92,-111.53 111.51,-111.53 61.59,0 111.51,49.93 111.51,111.53 0,30.8 -12.48,58.68 -32.66,78.86 l -3.05,2.77 1.46,-0.88 c 36.75,-24.84 60.92,-66.9 60.92,-114.6 0,-76.33 -61.87,-138.2 -138.18,-138.2 -76.31,0 -138.18,61.87 -138.18,138.2 0,47.7 24.17,89.76 60.92,114.6 z" /><path
       id="path24"
       style="fill:#ffffff;fill-opacity:1;fill-rule:evenodd;stroke:none"
       d="m 490.56,346.12 h 37.45 l 11.57,37.4 11.57,-37.4 H 588.6 L 558.3,323 l 11.58,-37.4 -30.3,23.12 -30.3,-23.12 11.58,37.4 z" /><path
       id="path26"
       style="fill:#ffffff;fill-opacity:1;fill-rule:evenodd;stroke:none"
       d="M 470.28,186.84 H 482.4 V 395.52 H 470.28 Z" /><path
       id="path28"
       style="fill:#ffffff;fill-opacity:1;fill-rule:evenodd;stroke:none"
       d="m 596.76,186.84 h 12.12 v 208.68 h -12.12 z" /><g
       id="g30"><g
         clip-path="url(#clipPath36)"
         id="g32"><path
           id="path38"
           style="fill:#ffffff;fill-opacity:1;fill-rule:evenodd;stroke:none"
           d="m 459.72,372.12 v 25.16 l 16.62,12.76 16.62,-12.76 v -25.16 l -16.62,12.76 z" /></g></g><g
       id="g40"><g
         clip-path="url(#clipPath46)"
         id="g42"><path
           id="path48"
           style="fill:#ffffff;fill-opacity:1;fill-rule:evenodd;stroke:none"
           d="m 586.2,372.12 v 25.16 l 16.62,12.76 16.62,-12.76 v -25.16 l -16.62,12.76 z" /></g></g><path
       id="path50"
       style="fill:#ffffff;fill-opacity:1;fill-rule:evenodd;stroke:none"
       d="m 463.44,421.74 12.96,26.22 12.96,-26.22 -12.96,-26.22 z" /><path
       id="path52"
       style="fill:#ffffff;fill-opacity:1;fill-rule:evenodd;stroke:none"
       d="m 589.8,421.74 12.96,26.22 12.96,-26.22 -12.96,-26.22 z" /><path
       id="path54"
       style="fill:#ffffff;fill-opacity:1;fill-rule:evenodd;stroke:none"
       d="m 364.54,378.24 c 12.65,0.2 26.29,-7.94 39.5,-18.26 l 7.24,-5.94 16.57,14.49 c 1.75,-14.89 -0.77,-26.91 7.87,-35.58 38.86,-39.01 91.93,-92.41 99,-112.99 -23.75,4.52 -90.93,73.74 -119.66,89.65 -14.81,8.21 -34.88,1.43 -56.68,-1.8 l 35.41,30.95 -3.02,4.31 c -11.91,12.88 -32.4,10.66 -41.65,-0.35 -0.49,5.58 -5.43,15.94 -10.72,18.33 7.74,12.17 16.66,17.03 26.14,17.19 z" /><path
       id="path56"
       style="fill:#ffffff;fill-opacity:1;fill-rule:evenodd;stroke:none"
       d="m 715.46,378.24 c -12.65,0.2 -26.29,-7.94 -39.5,-18.24 l -7.24,-5.94 -16.57,14.48 c -1.75,-14.89 0.77,-26.89 -7.87,-35.55 -38.86,-38.99 -91.93,-92.34 -99,-112.91 23.75,4.52 90.93,73.68 119.66,89.58 14.81,8.21 34.88,1.43 56.68,-1.8 l -35.41,30.93 3.02,4.31 c 11.91,12.87 32.4,10.65 41.65,-0.35 0.49,5.57 5.43,15.92 10.72,18.32 -7.74,12.16 -16.66,17.01 -26.14,17.17 z" /></g></svg>