<?xml version="1.0" encoding="UTF-8"?>
<svg xmlns="http://www.w3.org/2000/svg" width="1200" height="600" viewBox="0 0 5376 2688">
<rect fill="#fff" width="5376" height="2688"/>
<rect fill="#00356a" y="896" width="5376" height="896"/>
<path stroke="#dc241f" stroke-width="128" d="M0,192h5376 M0,448h5376 M0,704h5376 M0,1984h5376 M0,2240h5376 M0,2496h5376"/>
<path fill="#ffd100" d="m 1343.8751,1063.9999 24.9666,170.8001 96.6001,-143.0334 -51.8,164.7333 149.1,-87.0332 -118.0666,126 172.1998,-13.7668 -161,62.3 161,62.3 -172.1998,-13.7665 118.0666,126 -149.1,-87.0333 51.8,164.7331 -96.6001,-143.0332 -24.9666,170.7998 -24.9666,-170.7998 -96.6,143.0332 51.7999,-164.7331 -149.0999,87.0333 118.0666,-126 -172.2002,13.7665 161,-62.3 -161,-62.3 172.2002,13.7668 -118.0666,-126 149.0999,87.0332 -51.7999,-164.7333 96.6,143.0334 z M 1203.875,1071 a 298.66667,298.66667 0 1 0 0,546 336,336 0 1 1 0,-546 z"/>
</svg>