<svg xmlns="http://www.w3.org/2000/svg" xml:space="preserve" width="600" height="400" style="fill-rule:evenodd" viewBox="0 0 169.333 112.889"><path d="M0 0h169.333v112.889H0z" style="fill:#0068ac;fill-opacity:1;stroke:none"/><path d="M0 0h169.333v112.889H0V0z" style="fill:#0068ac"/><path d="M229.478 156.391a136.217 136.217 0 1 1-272.435 0 136.217 136.217 0 1 1 272.435 0z" style="fill:#fff;fill-opacity:1;stroke:none" transform="translate(54.574 5.982) scale(.32267)"/><g style="fill-rule:evenodd"><path d="M2.304 34.211 34.2 66.107l31.896-31.896L34.2 2.315 2.304 34.211zM56.11 78.499v4.307h-44.1v-4.307h44.1zm0-10.096v9.359h-44.1v-9.08l11.14-11.14 11.05 11.05 11.05-11.05 10.86 10.861zM12.01 5.158h4.937v4.379h3.991V5.158h4.775v3.523L34.2.194l8.208 8.208V5.158h4.774v4.379h3.992V5.158h4.936v16.947L68.218 34.21 56.11 46.317v21.044L45.25 56.5 34.2 67.55 23.15 56.5 12.01 67.64V46.037L.184 34.211l11.828-11.827V5.158z" style="fill:#0068ac" transform="translate(56.682 20.526) scale(.81827)"/><path d="M37.915 27.922c1.107 0 2.004.51 2.004 1.14 0 .63-.897 1.14-2.004 1.14s-2.004-.51-2.004-1.14c0-.63.897-1.14 2.004-1.14zm-3.43 1.609c.635 0 1.152.365 1.152.816 0 .451-.517.816-1.153.816s-1.153-.365-1.153-.816c0-.451.517-.816 1.153-.816zm3.983 1.407c.566 0 1.026.33 1.026.734 0 .406-.46.736-1.026.736-.567 0-1.027-.33-1.027-.736 0-.405.46-.734 1.027-.734zm-26.104.449c1.121-8.753 7.385-15.899 15.663-18.314a1.62 1.62 0 0 0-.111.32c-1.365 1.082-2.778 2.11-3.913 3.392-1.653 1.864-2.74 4.036-3.189 6.475-.27 1.462-.413 2.939-.973 4.318-1.13 2.777-3.56 4.145-7.477 3.809zm24.052 24.73c-.729.072-1.468.11-2.216.11-12.158 0-22.016-9.859-22.016-22.016 0-.31.009-.62.021-.926 2.582 1.6 6.317 2.079 11 .727-1.926-3.464-.843-6.835 2.275-7.884 2.367-.796 4.885-.516 6.309 1.913.788 1.345.315 3.708-1.723 4.227 1.276-2.863-1.211-3.931-3.02-3.14-1.85.809-1.86 3.705-.372 5.116.801.759 1.702 1.209 2.68 1.372 1.508.252 2.93-.436 4.655-.847 2-.477 4.888-.325 6.634.86 4.157 2.823 2.194 7.491.884 8.872.073-.808-.022-1.786-.293-2.721-.367-1.268-1.17-2.418-2.251-2.997-1.985-1.063-4.558.107-4.717 2.445-.113 1.663.758 3.407 1.72 4.7.658.883 1.48 1.747 2.398 2.566-1.08-.026-2.546-.093-3.71-.12-2.275.036-2.659 1.056-2.662 2.05h9.934c-1.155 1.444-4.223 3.05-7.55 2.746-1.393-.127-3.996-.93-6.225-2.24-3.713-2.185-6.254-5.709-4.25-9.327 2.426-2.977 6.467.136 3.482 3.282 4.917-1.83 3.757-8.566-1.74-8.617-4.406.203-7.368 5.522-4.888 11.06 1.335 2.98 3.851 4.905 6.662 6.45 2.918 1.605 5.99 2.407 8.98 2.338zM34.2 12.194c12.157 0 22.016 9.859 22.016 22.016 0 8.965-5.363 16.68-13.054 20.113 2.325-1.261 4.456-3.198 6.246-5.86 1.11-1.652 2.394-3.646 3.188-5.863.312-.871 1.418-4.19.184-4.785-1.884-.906-4.115 3.575-4.587 4.3.311-2.513.295-5.067-.307-7.694-.637-1.912-1.774-3.353-3.227-4.495-1.687-1.325-3.636-2.16-5.662-2.811-1.489-.48-3.11-.919-4.474-1.325-2.111-.63-4.411-1.56-5.377-3.75a3.337 3.337 0 0 1-.191-2.149c.144-.631.631-1.413 1.384-1.456.326-.018.761-.02 1.363.512.31.274.509.469.896.256.392-.215.775-.772.19-1.011-.407-.167-.944-.278-1.243-.63-.227-.268-.133-.62.102-.862a.869.869 0 0 1 1.287.077c.503.505 1.008.938 1.735.295.323-.285.655-.548.676-.818.043-.546-.65-1.043-.977-1.372-.378-.38-.748-.808-1.088-1.045-.949-.663-2.072-1.122-2.938-.99a2.057 2.057 0 0 0-.117-.295 22.105 22.105 0 0 1 3.975-.358z" style="fill:#0068ac" transform="translate(56.682 20.526) scale(.81827)"/><path d="M49.388 76.039h-.864v-5.562h.864v2.35h1.013l2.009-2.35h1.136l-2.378 2.781 2.378 2.78h-1.137l-2.008-2.348h-1.013v2.349zm-5.832-5.562h3.578v.864H44.42v1.503h2.714v.863H44.42v1.468h2.714v.864h-3.578v-5.562zM37.79 76.04h-.863v-5.562h.863v2.35h1.013l2.009-2.35h1.136l-2.378 2.781 2.378 2.78h-1.136l-2.009-2.348H37.79v2.349zm-2.644 0H27.89v-5.562h.864v4.698h2.333v-4.698h.864v4.698h2.333v-4.698h.863v5.562zm-9.24 0h-.864v-4.231l-3.631 4.23h-.864v-5.56h.864v4.23l3.63-4.23h.864v5.56zm-11.04-.864V73.69l2.684.015c.397 0 .743.328.743.742a.748.748 0 0 1-.743.743l-2.684-.015zm3.584-4.698v.864h-3.584v1.485l2.684.015a1.6 1.6 0 0 1 1.59 1.606 1.6 1.6 0 0 1-1.59 1.607l-3.547-.015v-5.562h4.447z" style="fill:#fff;fill-rule:evenodd" transform="translate(56.682 20.526) scale(.81827)"/></g></svg>