<svg xmlns="http://www.w3.org/2000/svg" width="700" height="500"><path fill="#99c4f1" d="M0 0h700v500H0z"/><path fill="#9a7e4e" d="M350.042 42.337c-48.349 0-94.835 7.62-138.357 21.761l23.031 73.836c36.325-11.77 75.022-18.205 115.326-18.205 40.22 0 78.916 6.435 115.242 18.205L488.4 64.098c-43.607-14.14-90.093-21.761-138.358-21.761z"/><path fill="#e89a4c" d="M462.066 84.843c-.17 2.202-1.947 4.403-2.117 6.52-.17 2.456 1.694 3.895 3.556 4.488 2.117.762 3.98.085 5.674.931-.508 1.017-.847 2.033-.932 3.133-1.863-.254-3.048-1.862-5.25-2.455-1.862-.508-4.149-.424-5.419 1.609-1.1 1.862-.846 4.657-2.032 6.604 1.863 1.27 2.879 3.895 4.657 5.165 2.032 1.27 4.15.424 5.589-.846 1.693-1.44 2.117-3.472 3.725-4.488.254.508.593.931.932 1.27.423.423.762.847 1.185 1.1-1.1 1.525-3.133 1.779-4.742 3.303-1.354 1.355-2.455 3.387-1.27 5.504 1.101 1.863 3.641 3.133 4.742 5.08l4.911-15.918c-.762-.254-1.609-.763-2.201-1.44-1.948-2.117-1.779-5.334.338-7.282 1.355-1.355 3.303-1.693 4.996-1.185l4.911-15.834c-2.032.931-4.742.508-6.689 1.44-2.117 1.015-2.456 3.386-2.117 5.249.423 2.201 1.948 3.472 2.032 5.419-1.016 0-2.117.254-3.133.677-.677-1.778.085-3.556-.423-5.757-.508-1.863-1.778-3.81-4.234-3.895-2.117 0-4.403 1.608-6.689 1.608zm-2.54-2.71c6.943-6.434 16.511-8.297 24.894-5.672l-.593 1.862c-7.705-2.37-16.511-.762-22.946 5.166-9.653 8.89-10.246 23.793-1.355 33.446a23.335 23.335 0 0 0 10.245 6.52l-.508 1.863a24.79 24.79 0 0 1-11.177-7.113c-9.568-10.33-8.89-26.503 1.44-36.071zM350.042 41.83c48.35 0 94.835 7.62 138.527 21.761l-4.234 13.548-3.217-1.016 1.1-5.504c-2.116-.677-4.318-1.27-6.52-1.947l-2.116 5.165-7.028-2.032.931-5.504-6.604-1.778-1.948 5.25-7.113-1.779.763-5.504c-2.202-.508-4.488-1.016-6.69-1.524l-1.778 5.25-7.112-1.524.508-5.504a92.91 92.91 0 0 0-6.69-1.27l-1.608 5.25-7.198-1.27.339-5.504c-2.202-.339-4.488-.677-6.774-1.1l-1.355 5.418-7.197-1.016.17-5.588-6.86-.762-1.185 5.334-7.197-.762-.085-5.42c-2.286-.253-4.572-.507-6.858-.676l-1.016 5.419-7.198-.508-.254-5.42c-2.286-.169-4.572-.254-6.858-.423l-.847 5.42-7.282-.255-.423-5.419c-2.287-.085-4.573-.085-6.859-.085l-.593 5.42h-7.282l-.677-5.42c-2.286 0-4.572 0-6.859.085l-.423 5.42-7.282.253-.762-5.419c-2.286.17-4.572.254-6.859.423l-.254 5.42-7.282.508-1.016-5.42c-2.286.17-4.572.424-6.858.678v5.42l-7.282.761-1.186-5.334c-2.286.254-4.572.508-6.774.762l.085 5.588-7.197 1.016-1.355-5.419c-2.286.424-4.488.762-6.774 1.1l.339 5.505-7.198 1.27-1.524-5.25a95.154 95.154 0 0 0-6.774 1.27l.508 5.504-7.112 1.524-1.778-5.25-6.605 1.524.678 5.504-7.028 1.778-1.948-5.25c-2.286.593-4.488 1.186-6.69 1.779l.932 5.504-6.943 2.032-2.202-5.165c-2.116.677-4.318 1.27-6.52 1.947l1.101 5.504-3.133 1.016-4.233-13.548c43.607-14.14 90.177-21.761 138.526-21.761zm0 64.437h3.641l.762 6.69c1.44 0 2.88 0 4.403.084l.932-6.69 7.282.255.593 6.689 4.318.254 1.27-6.605 7.282.508.254 6.69c1.524.169 2.964.254 4.403.423l1.44-6.605 7.281.762.085 6.774c1.44.17 2.88.254 4.319.508l1.693-6.52 7.197 1.017-.17 6.689c1.44.254 2.965.423 4.404.677l1.863-6.435 7.197 1.27-.423 6.69c1.44.253 2.879.592 4.318.846l2.117-6.35 7.113 1.524-.593 6.689c1.44.254 2.879.593 4.318.931l2.286-6.266 7.113 1.779-.847 6.604c1.355.424 2.795.762 4.234 1.186l2.54-6.182 7.028 2.033-1.1 6.52c1.439.423 2.794.846 4.233 1.27l2.794-6.012 3.641 1.185-4.233 13.717c-36.24-11.77-74.852-18.205-114.988-18.205s-78.831 6.436-114.987 18.205l-4.318-13.717 3.725-1.185 2.71 6.012c1.44-.424 2.879-.847 4.234-1.27l-1.017-6.52 6.944-2.033 2.54 6.182c1.44-.424 2.879-.762 4.318-1.186l-.931-6.604 7.113-1.779 2.37 6.266c1.355-.338 2.795-.677 4.234-.931l-.593-6.69 7.113-1.523 2.117 6.35c1.44-.254 2.879-.593 4.318-.847l-.423-6.689 7.197-1.27 1.948 6.435c1.44-.254 2.879-.423 4.318-.677l-.17-6.69 7.198-1.015 1.693 6.52c1.44-.255 2.88-.34 4.404-.509v-6.774l7.281-.762 1.44 6.605c1.44-.17 2.964-.254 4.403-.423l.339-6.69 7.197-.508 1.27 6.605c1.44-.085 2.879-.17 4.403-.254l.508-6.69 7.282-.253 1.016 6.689c1.44-.085 2.88-.085 4.403-.085l.762-6.69zm0-3.133c-1.693-1.524-4.487-1.948-6.012-3.472-1.778-1.608-1.354-3.895-.423-5.588 1.016-2.032 2.879-2.794 3.472-4.573-1.016-.338-1.948-.931-2.71-1.608-1.27 1.44-1.016 3.387-2.201 5.334-1.016 1.609-2.795 3.133-5.165 2.456-2.033-.593-3.81-2.88-5.928-3.472.508-2.201-.508-4.826 0-6.943.508-2.371 2.71-3.133 4.657-3.218 2.202-.085 3.81 1.186 5.674.847-.085-.593-.085-1.1-.085-1.609 0-.593 0-1.1.085-1.609-1.863-.338-3.472.847-5.674.762-1.947-.084-4.149-.846-4.657-3.217-.508-2.117.508-4.742 0-6.859 2.117-.677 3.895-2.963 5.928-3.556 2.37-.678 4.149.847 5.165 2.455 1.185 1.948.931 3.895 2.201 5.335.762-.678 1.694-1.186 2.71-1.609-.593-1.778-2.456-2.54-3.472-4.488-.931-1.693-1.355-4.064.423-5.673 1.525-1.524 4.319-1.863 6.012-3.471 1.61 1.608 4.403 1.947 6.012 3.471 1.694 1.609 1.27 3.98.424 5.673-1.101 1.948-2.964 2.71-3.557 4.488 1.016.423 1.948.931 2.794 1.609 1.186-1.44.932-3.387 2.202-5.335.931-1.608 2.71-3.133 5.08-2.455 2.033.593 3.81 2.879 5.928 3.556-.508 2.117.592 4.742.084 6.859-.592 2.37-2.794 3.133-4.657 3.217-2.286.085-3.895-1.1-5.758-.762.085.508.17 1.016.17 1.61 0 .507-.085 1.015-.17 1.608 1.863.339 3.472-.932 5.758-.847 1.863.085 4.065.847 4.657 3.218.508 2.117-.592 4.742-.084 6.943-2.117.593-3.895 2.879-5.928 3.472-2.37.677-4.149-.847-5.08-2.456-1.27-1.947-1.016-3.895-2.202-5.334-.846.677-1.778 1.27-2.794 1.608.593 1.779 2.456 2.54 3.557 4.573.846 1.693 1.27 3.98-.424 5.588-1.609 1.524-4.403 1.948-6.012 3.472zm0-27.096c-2.879 0-5.25 2.371-5.25 5.25 0 2.794 2.371 5.165 5.25 5.165 2.795 0 5.165-2.37 5.165-5.165 0-2.879-2.37-5.25-5.165-5.25zm0-20.321c-14.14 0-25.571 11.43-25.571 25.571 0 14.056 11.43 25.572 25.571 25.572 14.056 0 25.572-11.516 25.572-25.572 0-14.14-11.516-25.571-25.572-25.571zm0 49.195c-13.124 0-23.708-10.584-23.708-23.624 0-13.124 10.584-23.709 23.708-23.709 13.04 0 23.624 10.585 23.624 23.71 0 13.039-10.584 23.623-23.624 23.623zM237.934 84.843c.17 2.202 1.947 4.403 2.117 6.52.17 2.456-1.694 3.895-3.472 4.488-2.117.762-4.064.085-5.758.931a10.447 10.447 0 0 1 1.016 3.133c1.863-.254 3.049-1.862 5.166-2.455 1.862-.508 4.233-.424 5.419 1.609 1.1 1.862.931 4.657 2.032 6.604-1.863 1.27-2.88 3.895-4.657 5.165-1.948 1.27-4.15.424-5.589-.846-1.693-1.44-2.032-3.472-3.64-4.488-.34.508-.593.931-1.017 1.27-.338.423-.762.847-1.185 1.1 1.1 1.525 3.133 1.779 4.742 3.303 1.354 1.355 2.455 3.387 1.27 5.504-1.016 1.863-3.557 3.133-4.657 5.08l-4.996-15.918a4.767 4.767 0 0 0 2.201-1.44c1.948-2.117 1.863-5.334-.254-7.282-1.44-1.355-3.302-1.693-4.995-1.185l-4.996-15.834c2.032.931 4.826.508 6.689 1.44 2.202 1.015 2.456 3.386 2.117 5.249-.423 2.201-1.948 3.472-2.032 5.419 1.1 0 2.117.254 3.133.677.762-1.778-.085-3.556.508-5.757.508-1.863 1.693-3.81 4.149-3.895 2.117 0 4.487 1.608 6.689 1.608zm2.54-2.71c-6.943-6.434-16.511-8.297-24.894-5.672l.593 1.862c7.79-2.37 16.596-.762 23.031 5.166 9.568 8.89 10.16 23.793 1.355 33.446-2.964 3.133-6.52 5.334-10.33 6.52l.592 1.863c4.15-1.27 7.96-3.641 11.093-7.113 9.568-10.33 8.975-26.503-1.44-36.071zM200 137.342h300v170.872c0 82.473-67.485 149.958-149.958 149.958-82.557 0-150.042-67.485-150.042-149.958z"/><path fill="#bd281f" d="M203.726 231.753v76.46c0 80.44 65.791 146.317 146.316 146.317 80.44 0 146.317-65.876 146.317-146.317v-76.46z"/><path fill="#476366" d="M496.359 228.027v-86.96H203.726v86.96z"/><path fill="#e89a4c" d="M350.042 155.377c-4.995 2.455-7.451 6.012-7.959 10.33 0 10.246 4.572 6.266 4.572 30.567h-4.318c.847-7.79-1.185-15.495-5.843-18.882-6.52-4.742-13.293-.423-15.156 5.589-1.524 4.826 1.44 11.43 6.435 13.293 1.948-5.927 5.504-6.266 7.875-4.995 2.71 1.524 2.71 6.604-.424 8.128 1.525 2.202 3.557 2.287 6.859 2.287h4.403c0 8.552-7.367 6.858-7.367 10.838h6.944c0 2.71.423 6.096 3.98 7.028 3.556-.932 3.894-4.319 3.894-7.028h7.028c0-3.98-7.451-2.286-7.451-10.838h4.403c3.302 0 5.334-.085 6.859-2.287-3.133-1.524-3.133-6.604-.424-8.128 2.456-1.27 5.927-.932 7.875 4.995 4.996-1.862 7.96-8.467 6.52-13.293-1.948-6.012-8.722-10.33-15.242-5.589-4.572 3.387-6.689 11.092-5.757 18.882h-4.403c0-24.301 4.572-20.321 4.572-30.567-.508-4.318-2.964-7.875-7.875-10.33zm92.549 0c-4.996 2.455-7.367 6.012-7.875 10.33 0 10.246 4.573 6.266 4.573 30.567h-4.403c.931-7.79-1.186-15.495-5.843-18.882-6.52-4.742-13.294-.423-15.156 5.589-1.525 4.826 1.439 11.43 6.435 13.293 2.032-5.927 5.504-6.266 7.96-4.995 2.624 1.524 2.624 6.604-.424 8.128 1.44 2.202 3.471 2.287 6.858 2.287h4.319c0 8.552-7.367 6.858-7.367 10.838h6.943c0 2.71.424 6.096 3.98 7.028 3.556-.932 3.98-4.319 3.98-7.028h6.943c0-3.98-7.367-2.286-7.367-10.838h4.319c3.387 0 5.334-.085 6.858-2.287-3.048-1.524-3.133-6.604-.423-8.128 2.455-1.27 5.927-.932 7.96 4.995 4.995-1.862 7.959-8.467 6.434-13.293-1.862-6.012-8.72-10.33-15.156-5.589-4.657 3.387-6.774 11.092-5.843 18.882h-4.403c0-24.301 4.573-20.321 4.573-30.567-.508-4.318-2.964-7.875-7.875-10.33zm-185.182 0c-4.911 2.455-7.367 6.012-7.875 10.33 0 10.246 4.573 6.266 4.573 30.567h-4.403c.931-7.79-1.186-15.495-5.758-18.882-6.52-4.742-13.294-.423-15.242 5.589-1.439 4.826 1.525 11.43 6.52 13.293 1.948-5.927 5.42-6.266 7.875-4.995 2.71 1.524 2.71 6.604-.423 8.128 1.524 2.202 3.556 2.287 6.858 2.287h4.403c0 8.552-7.451 6.858-7.451 10.838h7.028c0 2.71.339 6.096 3.895 7.028 3.556-.932 3.98-4.319 3.98-7.028h6.943c0-3.98-7.367-2.286-7.367-10.838h4.403c3.303 0 5.335-.085 6.859-2.287-3.133-1.524-3.133-6.604-.423-8.128 2.37-1.27 5.927-.932 7.874 4.995 4.996-1.862 7.96-8.467 6.435-13.293-1.862-6.012-8.636-10.33-15.156-5.589-4.657 3.387-6.69 11.092-5.843 18.882h-4.318c0-24.301 4.572-20.321 4.572-30.567-.508-4.318-2.963-7.875-7.959-10.33zm132.515 143.099c-5.589-17.189-21.761-28.705-39.882-28.705s-34.293 11.516-39.966 28.705c-.423 1.693-1.609 3.048-3.302 3.556-1.863.508-3.98-.17-5.335-1.44-1.608-1.523-2.116-3.725-1.439-5.842 7.282-21.338 27.434-35.648 50.042-35.648 22.524 0 42.76 14.31 49.958 35.648.762 2.117.17 4.319-1.44 5.843-1.354 1.27-3.386 1.947-5.25 1.44-1.777-.509-2.878-1.864-3.386-3.557z"/><path fill="#ebcf9f" d="M301.778 295.343a53.06 53.06 0 0 1 4.15-9.23c2.963-4.741 8.213-.762 6.52 2.964a42.229 42.229 0 0 0-4.065 8.89c-1.355 4.743-8.129 1.864-6.605-2.624zm96.529 0c-1.101-3.218-2.54-6.266-4.234-9.23-2.964-4.741-8.214-.762-6.435 2.964 1.608 2.794 3.048 5.758 4.064 8.89 1.27 4.743 8.129 1.864 6.605-2.624zm-9.992-17.274c-2.456-2.624-5.08-5.08-7.96-7.197-4.487-2.963-7.62 2.625-4.656 5.335a45.383 45.383 0 0 1 7.027 6.35c3.895 3.472 7.875-1.355 5.589-4.488zm-16.935-12.531c-2.54-1.101-5.165-2.117-7.875-2.88-4.572-.253-5.334 5.674-1.608 6.944 1.354.339 6.35 2.286 6.35 2.286 5.335 2.371 7.706-3.98 3.133-6.35zm-16.173-4.403a52.734 52.734 0 0 0-10.33 0c-4.064 1.354-3.556 7.197 1.863 6.774-.085.084-.17.084-.254.169 1.185-.085 2.37-.17 3.556-.17s2.371.085 3.557.17c-.085-.085-.254-.085-.34-.17 5.42.424 6.013-5.419 1.948-6.773zm-43.437 16.934a53.626 53.626 0 0 1 7.959-7.197c4.488-2.963 7.62 2.625 4.657 5.335a42.383 42.383 0 0 0-7.113 6.35c-3.81 3.472-7.874-1.355-5.503-4.488zm16.85-12.531c2.54-1.101 5.165-2.117 7.96-2.88 4.487-.253 5.249 5.674 1.523 6.944-1.354.339-6.266 2.286-6.266 2.286-5.334 2.371-7.79-3.98-3.217-6.35z"/><path fill="#e89a4c" d="M341.32 253.683h17.36v17.359h-17.36z"/><path fill="#ebcf9f" d="M343.1 255.377h13.886v13.886h-13.887z"/><path fill="#e89a4c" d="M306.012 378.747v-66.808c0-24.217 19.814-44.03 44.03-44.03s44.03 19.813 44.03 44.03v66.808z"/><path fill="#ebcf9f" d="M307.79 376.969h84.42v-65.03c0-23.2-18.967-42.168-42.168-42.168-23.285 0-42.252 18.967-42.252 42.168z"/><path fill="#e89a4c" d="M416.85 381.202v10.923H283.235v-10.923z"/><path fill="#ebcf9f" d="M285.013 382.98h129.966v7.312H285.013z"/><path fill="#e89a4c" d="M257.748 390.263h184.589v10.922h-184.59z"/><path fill="#ebcf9f" d="M259.61 392.125h180.873v7.312H259.61z"/><path fill="#e89a4c" d="M306.012 372.058h88.06v10.923h-88.06z"/><path fill="#ebcf9f" d="M307.79 373.836h84.459v7.311H307.79z"/><path fill="#e89a4c" d="M257.663 373.836V265.199h1.863c23.709 0 43.184 19.39 43.184 43.184v65.453z"/><path fill="#ebcf9f" d="M259.526 372.058h11.77V268.755c-3.726-1.185-7.706-1.778-11.77-1.778zm13.548 0h14.225v-94.243c-4.064-3.725-8.89-6.604-14.225-8.467zm16.088 0h11.685v-63.675c0-11.177-4.488-21.338-11.685-28.79z"/><path fill="#e89a4c" d="M294.75 347.671v1.779h12.532v-1.779zm0-35.224v1.863h12.532v-1.863zm147.587 61.389V265.199h-1.863c-23.709 0-43.184 19.39-43.184 43.184v65.453z"/><path fill="#ebcf9f" d="M440.474 372.058H428.79V268.755c3.726-1.185 7.62-1.778 11.685-1.778zm-13.548 0h-14.225v-94.243c4.064-3.725 8.89-6.604 14.225-8.467zm-16.088 0h-11.685v-63.675c0-11.177 4.488-21.338 11.685-28.79z"/><path fill="#e89a4c" d="M405.25 347.671v1.779h-12.532v-1.779zm0-35.224v1.863h-12.532v-1.863z"/></svg>